%TF.GenerationSoftware,KiCad,Pcbnew,7.0.1-3b83917a11~171~ubuntu20.04.1*%
%TF.CreationDate,2023-10-26T02:31:41+02:00*%
%TF.ProjectId,panel_bottom,70616e65-6c5f-4626-9f74-746f6d2e6b69,rev?*%
%TF.SameCoordinates,Original*%
%TF.FileFunction,Copper,L2,Bot*%
%TF.FilePolarity,Positive*%
%FSLAX46Y46*%
G04 Gerber Fmt 4.6, Leading zero omitted, Abs format (unit mm)*
G04 Created by KiCad (PCBNEW 7.0.1-3b83917a11~171~ubuntu20.04.1) date 2023-10-26 02:31:41*
%MOMM*%
%LPD*%
G01*
G04 APERTURE LIST*
%TA.AperFunction,ComponentPad*%
%ADD10R,1.700000X1.700000*%
%TD*%
%TA.AperFunction,ComponentPad*%
%ADD11R,2.100000X2.100000*%
%TD*%
%TA.AperFunction,ComponentPad*%
%ADD12C,2.100000*%
%TD*%
%TA.AperFunction,ComponentPad*%
%ADD13R,1.000000X1.000000*%
%TD*%
%TA.AperFunction,ComponentPad*%
%ADD14O,1.000000X1.000000*%
%TD*%
%TA.AperFunction,ViaPad*%
%ADD15C,0.800000*%
%TD*%
%TA.AperFunction,Conductor*%
%ADD16C,0.254000*%
%TD*%
%TA.AperFunction,Conductor*%
%ADD17C,0.381000*%
%TD*%
G04 APERTURE END LIST*
D10*
%TO.P,J3,1,Pin_1*%
%TO.N,Board_11-GND*%
X213300000Y-179500000D03*
%TD*%
%TO.P,J3,1,Pin_1*%
%TO.N,Board_12-GND*%
X13300000Y-231500000D03*
%TD*%
%TO.P,J3,1,Pin_1*%
%TO.N,Board_13-GND*%
X113300000Y-231500000D03*
%TD*%
%TO.P,J3,1,Pin_1*%
%TO.N,Board_14-GND*%
X213300000Y-231500000D03*
%TD*%
%TO.P,J3,1,Pin_1*%
%TO.N,Board_0-GND*%
X13300000Y-23500000D03*
%TD*%
%TO.P,J3,1,Pin_1*%
%TO.N,Board_1-GND*%
X113300000Y-23500000D03*
%TD*%
%TO.P,J3,1,Pin_1*%
%TO.N,Board_2-GND*%
X213300000Y-23500000D03*
%TD*%
%TO.P,J3,1,Pin_1*%
%TO.N,Board_3-GND*%
X13300000Y-75500000D03*
%TD*%
%TO.P,J3,1,Pin_1*%
%TO.N,Board_4-GND*%
X113300000Y-75500000D03*
%TD*%
%TO.P,J3,1,Pin_1*%
%TO.N,Board_5-GND*%
X213300000Y-75500000D03*
%TD*%
%TO.P,J3,1,Pin_1*%
%TO.N,Board_6-GND*%
X13300000Y-127500000D03*
%TD*%
%TO.P,J3,1,Pin_1*%
%TO.N,Board_7-GND*%
X113300000Y-127500000D03*
%TD*%
%TO.P,J3,1,Pin_1*%
%TO.N,Board_8-GND*%
X213300000Y-127500000D03*
%TD*%
%TO.P,J3,1,Pin_1*%
%TO.N,Board_9-GND*%
X13300000Y-179500000D03*
%TD*%
%TO.P,J3,1,Pin_1*%
%TO.N,Board_10-GND*%
X113300000Y-179500000D03*
%TD*%
%TO.P,J8,1,Pin_1*%
%TO.N,Board_0-GND*%
X13200000Y-66500000D03*
%TD*%
%TO.P,J8,1,Pin_1*%
%TO.N,Board_1-GND*%
X113200000Y-66500000D03*
%TD*%
%TO.P,J8,1,Pin_1*%
%TO.N,Board_2-GND*%
X213200000Y-66500000D03*
%TD*%
%TO.P,J8,1,Pin_1*%
%TO.N,Board_3-GND*%
X13200000Y-118500000D03*
%TD*%
%TO.P,J8,1,Pin_1*%
%TO.N,Board_4-GND*%
X113200000Y-118500000D03*
%TD*%
%TO.P,J8,1,Pin_1*%
%TO.N,Board_5-GND*%
X213200000Y-118500000D03*
%TD*%
%TO.P,J8,1,Pin_1*%
%TO.N,Board_6-GND*%
X13200000Y-170500000D03*
%TD*%
%TO.P,J8,1,Pin_1*%
%TO.N,Board_7-GND*%
X113200000Y-170500000D03*
%TD*%
%TO.P,J8,1,Pin_1*%
%TO.N,Board_8-GND*%
X213200000Y-170500000D03*
%TD*%
%TO.P,J8,1,Pin_1*%
%TO.N,Board_9-GND*%
X13200000Y-222500000D03*
%TD*%
%TO.P,J8,1,Pin_1*%
%TO.N,Board_10-GND*%
X113200000Y-222500000D03*
%TD*%
%TO.P,J8,1,Pin_1*%
%TO.N,Board_11-GND*%
X213200000Y-222500000D03*
%TD*%
%TO.P,J8,1,Pin_1*%
%TO.N,Board_12-GND*%
X13200000Y-274500000D03*
%TD*%
%TO.P,J8,1,Pin_1*%
%TO.N,Board_13-GND*%
X113200000Y-274500000D03*
%TD*%
%TO.P,J8,1,Pin_1*%
%TO.N,Board_14-GND*%
X213200000Y-274500000D03*
%TD*%
D11*
%TO.P,BT1,1,+*%
%TO.N,Board_0-VCC*%
X7731400Y-45618800D03*
D12*
%TO.P,BT1,2,-*%
%TO.N,Board_0-GND*%
X27731400Y-45618800D03*
%TD*%
D11*
%TO.P,BT1,1,+*%
%TO.N,Board_1-VCC*%
X107731400Y-45618800D03*
D12*
%TO.P,BT1,2,-*%
%TO.N,Board_1-GND*%
X127731400Y-45618800D03*
%TD*%
D11*
%TO.P,BT1,1,+*%
%TO.N,Board_2-VCC*%
X207731400Y-45618800D03*
D12*
%TO.P,BT1,2,-*%
%TO.N,Board_2-GND*%
X227731400Y-45618800D03*
%TD*%
D11*
%TO.P,BT1,1,+*%
%TO.N,Board_3-VCC*%
X7731400Y-97618800D03*
D12*
%TO.P,BT1,2,-*%
%TO.N,Board_3-GND*%
X27731400Y-97618800D03*
%TD*%
D11*
%TO.P,BT1,1,+*%
%TO.N,Board_4-VCC*%
X107731400Y-97618800D03*
D12*
%TO.P,BT1,2,-*%
%TO.N,Board_4-GND*%
X127731400Y-97618800D03*
%TD*%
D11*
%TO.P,BT1,1,+*%
%TO.N,Board_5-VCC*%
X207731400Y-97618800D03*
D12*
%TO.P,BT1,2,-*%
%TO.N,Board_5-GND*%
X227731400Y-97618800D03*
%TD*%
D11*
%TO.P,BT1,1,+*%
%TO.N,Board_6-VCC*%
X7731400Y-149618800D03*
D12*
%TO.P,BT1,2,-*%
%TO.N,Board_6-GND*%
X27731400Y-149618800D03*
%TD*%
D11*
%TO.P,BT1,1,+*%
%TO.N,Board_7-VCC*%
X107731400Y-149618800D03*
D12*
%TO.P,BT1,2,-*%
%TO.N,Board_7-GND*%
X127731400Y-149618800D03*
%TD*%
D11*
%TO.P,BT1,1,+*%
%TO.N,Board_8-VCC*%
X207731400Y-149618800D03*
D12*
%TO.P,BT1,2,-*%
%TO.N,Board_8-GND*%
X227731400Y-149618800D03*
%TD*%
D11*
%TO.P,BT1,1,+*%
%TO.N,Board_9-VCC*%
X7731400Y-201618800D03*
D12*
%TO.P,BT1,2,-*%
%TO.N,Board_9-GND*%
X27731400Y-201618800D03*
%TD*%
D11*
%TO.P,BT1,1,+*%
%TO.N,Board_10-VCC*%
X107731400Y-201618800D03*
D12*
%TO.P,BT1,2,-*%
%TO.N,Board_10-GND*%
X127731400Y-201618800D03*
%TD*%
D11*
%TO.P,BT1,1,+*%
%TO.N,Board_11-VCC*%
X207731400Y-201618800D03*
D12*
%TO.P,BT1,2,-*%
%TO.N,Board_11-GND*%
X227731400Y-201618800D03*
%TD*%
D11*
%TO.P,BT1,1,+*%
%TO.N,Board_12-VCC*%
X7731400Y-253618800D03*
D12*
%TO.P,BT1,2,-*%
%TO.N,Board_12-GND*%
X27731400Y-253618800D03*
%TD*%
D11*
%TO.P,BT1,1,+*%
%TO.N,Board_13-VCC*%
X107731400Y-253618800D03*
D12*
%TO.P,BT1,2,-*%
%TO.N,Board_13-GND*%
X127731400Y-253618800D03*
%TD*%
D11*
%TO.P,BT1,1,+*%
%TO.N,Board_14-VCC*%
X207731400Y-253618800D03*
D12*
%TO.P,BT1,2,-*%
%TO.N,Board_14-GND*%
X227731400Y-253618800D03*
%TD*%
D10*
%TO.P,J6,1,Pin_1*%
%TO.N,Board_0-GND*%
X82200000Y-23500000D03*
%TD*%
%TO.P,J6,1,Pin_1*%
%TO.N,Board_1-GND*%
X182200000Y-23500000D03*
%TD*%
%TO.P,J6,1,Pin_1*%
%TO.N,Board_2-GND*%
X282200000Y-23500000D03*
%TD*%
%TO.P,J6,1,Pin_1*%
%TO.N,Board_3-GND*%
X82200000Y-75500000D03*
%TD*%
%TO.P,J6,1,Pin_1*%
%TO.N,Board_4-GND*%
X182200000Y-75500000D03*
%TD*%
%TO.P,J6,1,Pin_1*%
%TO.N,Board_5-GND*%
X282200000Y-75500000D03*
%TD*%
%TO.P,J6,1,Pin_1*%
%TO.N,Board_6-GND*%
X82200000Y-127500000D03*
%TD*%
%TO.P,J6,1,Pin_1*%
%TO.N,Board_7-GND*%
X182200000Y-127500000D03*
%TD*%
%TO.P,J6,1,Pin_1*%
%TO.N,Board_8-GND*%
X282200000Y-127500000D03*
%TD*%
%TO.P,J6,1,Pin_1*%
%TO.N,Board_9-GND*%
X82200000Y-179500000D03*
%TD*%
%TO.P,J6,1,Pin_1*%
%TO.N,Board_10-GND*%
X182200000Y-179500000D03*
%TD*%
%TO.P,J6,1,Pin_1*%
%TO.N,Board_11-GND*%
X282200000Y-179500000D03*
%TD*%
%TO.P,J6,1,Pin_1*%
%TO.N,Board_12-GND*%
X82200000Y-231500000D03*
%TD*%
%TO.P,J6,1,Pin_1*%
%TO.N,Board_13-GND*%
X182200000Y-231500000D03*
%TD*%
%TO.P,J6,1,Pin_1*%
%TO.N,Board_14-GND*%
X282200000Y-231500000D03*
%TD*%
%TO.P,J4,1,Pin_1*%
%TO.N,Board_0-GND*%
X82200000Y-66500000D03*
%TD*%
%TO.P,J4,1,Pin_1*%
%TO.N,Board_1-GND*%
X182200000Y-66500000D03*
%TD*%
%TO.P,J4,1,Pin_1*%
%TO.N,Board_2-GND*%
X282200000Y-66500000D03*
%TD*%
%TO.P,J4,1,Pin_1*%
%TO.N,Board_3-GND*%
X82200000Y-118500000D03*
%TD*%
%TO.P,J4,1,Pin_1*%
%TO.N,Board_4-GND*%
X182200000Y-118500000D03*
%TD*%
%TO.P,J4,1,Pin_1*%
%TO.N,Board_5-GND*%
X282200000Y-118500000D03*
%TD*%
%TO.P,J4,1,Pin_1*%
%TO.N,Board_6-GND*%
X82200000Y-170500000D03*
%TD*%
%TO.P,J4,1,Pin_1*%
%TO.N,Board_7-GND*%
X182200000Y-170500000D03*
%TD*%
%TO.P,J4,1,Pin_1*%
%TO.N,Board_8-GND*%
X282200000Y-170500000D03*
%TD*%
%TO.P,J4,1,Pin_1*%
%TO.N,Board_9-GND*%
X82200000Y-222500000D03*
%TD*%
%TO.P,J4,1,Pin_1*%
%TO.N,Board_10-GND*%
X182200000Y-222500000D03*
%TD*%
%TO.P,J4,1,Pin_1*%
%TO.N,Board_11-GND*%
X282200000Y-222500000D03*
%TD*%
%TO.P,J4,1,Pin_1*%
%TO.N,Board_12-GND*%
X82200000Y-274500000D03*
%TD*%
%TO.P,J4,1,Pin_1*%
%TO.N,Board_13-GND*%
X182200000Y-274500000D03*
%TD*%
%TO.P,J4,1,Pin_1*%
%TO.N,Board_14-GND*%
X282200000Y-274500000D03*
%TD*%
D13*
%TO.P,J1,1,Pin_1*%
%TO.N,Board_0-VCC*%
X76430000Y-60200000D03*
D14*
%TO.P,J1,2,Pin_2*%
%TO.N,Board_0-/P3.0*%
X77700000Y-60200000D03*
%TO.P,J1,3,Pin_3*%
%TO.N,Board_0-/P3.1*%
X78970000Y-60200000D03*
%TO.P,J1,4,Pin_4*%
%TO.N,Board_0-GND*%
X80240000Y-60200000D03*
%TD*%
D13*
%TO.P,J1,1,Pin_1*%
%TO.N,Board_1-VCC*%
X176430000Y-60200000D03*
D14*
%TO.P,J1,2,Pin_2*%
%TO.N,Board_1-/P3.0*%
X177700000Y-60200000D03*
%TO.P,J1,3,Pin_3*%
%TO.N,Board_1-/P3.1*%
X178970000Y-60200000D03*
%TO.P,J1,4,Pin_4*%
%TO.N,Board_1-GND*%
X180240000Y-60200000D03*
%TD*%
D13*
%TO.P,J1,1,Pin_1*%
%TO.N,Board_2-VCC*%
X276430000Y-60200000D03*
D14*
%TO.P,J1,2,Pin_2*%
%TO.N,Board_2-/P3.0*%
X277700000Y-60200000D03*
%TO.P,J1,3,Pin_3*%
%TO.N,Board_2-/P3.1*%
X278970000Y-60200000D03*
%TO.P,J1,4,Pin_4*%
%TO.N,Board_2-GND*%
X280240000Y-60200000D03*
%TD*%
D13*
%TO.P,J1,1,Pin_1*%
%TO.N,Board_3-VCC*%
X76430000Y-112200000D03*
D14*
%TO.P,J1,2,Pin_2*%
%TO.N,Board_3-/P3.0*%
X77700000Y-112200000D03*
%TO.P,J1,3,Pin_3*%
%TO.N,Board_3-/P3.1*%
X78970000Y-112200000D03*
%TO.P,J1,4,Pin_4*%
%TO.N,Board_3-GND*%
X80240000Y-112200000D03*
%TD*%
D13*
%TO.P,J1,1,Pin_1*%
%TO.N,Board_4-VCC*%
X176430000Y-112200000D03*
D14*
%TO.P,J1,2,Pin_2*%
%TO.N,Board_4-/P3.0*%
X177700000Y-112200000D03*
%TO.P,J1,3,Pin_3*%
%TO.N,Board_4-/P3.1*%
X178970000Y-112200000D03*
%TO.P,J1,4,Pin_4*%
%TO.N,Board_4-GND*%
X180240000Y-112200000D03*
%TD*%
D13*
%TO.P,J1,1,Pin_1*%
%TO.N,Board_5-VCC*%
X276430000Y-112200000D03*
D14*
%TO.P,J1,2,Pin_2*%
%TO.N,Board_5-/P3.0*%
X277700000Y-112200000D03*
%TO.P,J1,3,Pin_3*%
%TO.N,Board_5-/P3.1*%
X278970000Y-112200000D03*
%TO.P,J1,4,Pin_4*%
%TO.N,Board_5-GND*%
X280240000Y-112200000D03*
%TD*%
D13*
%TO.P,J1,1,Pin_1*%
%TO.N,Board_6-VCC*%
X76430000Y-164200000D03*
D14*
%TO.P,J1,2,Pin_2*%
%TO.N,Board_6-/P3.0*%
X77700000Y-164200000D03*
%TO.P,J1,3,Pin_3*%
%TO.N,Board_6-/P3.1*%
X78970000Y-164200000D03*
%TO.P,J1,4,Pin_4*%
%TO.N,Board_6-GND*%
X80240000Y-164200000D03*
%TD*%
D13*
%TO.P,J1,1,Pin_1*%
%TO.N,Board_7-VCC*%
X176430000Y-164200000D03*
D14*
%TO.P,J1,2,Pin_2*%
%TO.N,Board_7-/P3.0*%
X177700000Y-164200000D03*
%TO.P,J1,3,Pin_3*%
%TO.N,Board_7-/P3.1*%
X178970000Y-164200000D03*
%TO.P,J1,4,Pin_4*%
%TO.N,Board_7-GND*%
X180240000Y-164200000D03*
%TD*%
D13*
%TO.P,J1,1,Pin_1*%
%TO.N,Board_8-VCC*%
X276430000Y-164200000D03*
D14*
%TO.P,J1,2,Pin_2*%
%TO.N,Board_8-/P3.0*%
X277700000Y-164200000D03*
%TO.P,J1,3,Pin_3*%
%TO.N,Board_8-/P3.1*%
X278970000Y-164200000D03*
%TO.P,J1,4,Pin_4*%
%TO.N,Board_8-GND*%
X280240000Y-164200000D03*
%TD*%
D13*
%TO.P,J1,1,Pin_1*%
%TO.N,Board_9-VCC*%
X76430000Y-216200000D03*
D14*
%TO.P,J1,2,Pin_2*%
%TO.N,Board_9-/P3.0*%
X77700000Y-216200000D03*
%TO.P,J1,3,Pin_3*%
%TO.N,Board_9-/P3.1*%
X78970000Y-216200000D03*
%TO.P,J1,4,Pin_4*%
%TO.N,Board_9-GND*%
X80240000Y-216200000D03*
%TD*%
D13*
%TO.P,J1,1,Pin_1*%
%TO.N,Board_10-VCC*%
X176430000Y-216200000D03*
D14*
%TO.P,J1,2,Pin_2*%
%TO.N,Board_10-/P3.0*%
X177700000Y-216200000D03*
%TO.P,J1,3,Pin_3*%
%TO.N,Board_10-/P3.1*%
X178970000Y-216200000D03*
%TO.P,J1,4,Pin_4*%
%TO.N,Board_10-GND*%
X180240000Y-216200000D03*
%TD*%
D13*
%TO.P,J1,1,Pin_1*%
%TO.N,Board_11-VCC*%
X276430000Y-216200000D03*
D14*
%TO.P,J1,2,Pin_2*%
%TO.N,Board_11-/P3.0*%
X277700000Y-216200000D03*
%TO.P,J1,3,Pin_3*%
%TO.N,Board_11-/P3.1*%
X278970000Y-216200000D03*
%TO.P,J1,4,Pin_4*%
%TO.N,Board_11-GND*%
X280240000Y-216200000D03*
%TD*%
D13*
%TO.P,J1,1,Pin_1*%
%TO.N,Board_12-VCC*%
X76430000Y-268200000D03*
D14*
%TO.P,J1,2,Pin_2*%
%TO.N,Board_12-/P3.0*%
X77700000Y-268200000D03*
%TO.P,J1,3,Pin_3*%
%TO.N,Board_12-/P3.1*%
X78970000Y-268200000D03*
%TO.P,J1,4,Pin_4*%
%TO.N,Board_12-GND*%
X80240000Y-268200000D03*
%TD*%
D13*
%TO.P,J1,1,Pin_1*%
%TO.N,Board_13-VCC*%
X176430000Y-268200000D03*
D14*
%TO.P,J1,2,Pin_2*%
%TO.N,Board_13-/P3.0*%
X177700000Y-268200000D03*
%TO.P,J1,3,Pin_3*%
%TO.N,Board_13-/P3.1*%
X178970000Y-268200000D03*
%TO.P,J1,4,Pin_4*%
%TO.N,Board_13-GND*%
X180240000Y-268200000D03*
%TD*%
D13*
%TO.P,J1,1,Pin_1*%
%TO.N,Board_14-VCC*%
X276430000Y-268200000D03*
D14*
%TO.P,J1,2,Pin_2*%
%TO.N,Board_14-/P3.0*%
X277700000Y-268200000D03*
%TO.P,J1,3,Pin_3*%
%TO.N,Board_14-/P3.1*%
X278970000Y-268200000D03*
%TO.P,J1,4,Pin_4*%
%TO.N,Board_14-GND*%
X280240000Y-268200000D03*
%TD*%
D15*
%TO.N,Board_0-/LED_EN_M1*%
X35700000Y-58800000D03*
X56300000Y-61400000D03*
%TO.N,Board_0-/P3.0*%
X77100000Y-62000000D03*
X72700000Y-66400000D03*
%TO.N,Board_0-/P3.1*%
X75805500Y-65105500D03*
X78900000Y-62011000D03*
%TO.N,Board_0-/SW_IN*%
X14700000Y-59200000D03*
X65900000Y-58400000D03*
%TO.N,Board_0-VCC*%
X46500000Y-59600000D03*
X66100000Y-54000000D03*
X88800000Y-60900000D03*
X29500000Y-59600000D03*
X17100000Y-47400000D03*
X61300000Y-56400000D03*
%TO.N,Board_1-/LED_EN_M1*%
X135700000Y-58800000D03*
X156300000Y-61400000D03*
%TO.N,Board_1-/P3.0*%
X177100000Y-62000000D03*
X172700000Y-66400000D03*
%TO.N,Board_1-/P3.1*%
X175805500Y-65105500D03*
X178900000Y-62011000D03*
%TO.N,Board_1-/SW_IN*%
X114700000Y-59200000D03*
X165900000Y-58400000D03*
%TO.N,Board_1-VCC*%
X146500000Y-59600000D03*
X166100000Y-54000000D03*
X188800000Y-60900000D03*
X129500000Y-59600000D03*
X117100000Y-47400000D03*
X161300000Y-56400000D03*
%TO.N,Board_2-/LED_EN_M1*%
X235700000Y-58800000D03*
X256300000Y-61400000D03*
%TO.N,Board_2-/P3.0*%
X277100000Y-62000000D03*
X272700000Y-66400000D03*
%TO.N,Board_2-/P3.1*%
X275805500Y-65105500D03*
X278900000Y-62011000D03*
%TO.N,Board_2-/SW_IN*%
X214700000Y-59200000D03*
X265900000Y-58400000D03*
%TO.N,Board_2-VCC*%
X246500000Y-59600000D03*
X266100000Y-54000000D03*
X288800000Y-60900000D03*
X229500000Y-59600000D03*
X217100000Y-47400000D03*
X261300000Y-56400000D03*
%TO.N,Board_3-/LED_EN_M1*%
X35700000Y-110800000D03*
X56300000Y-113400000D03*
%TO.N,Board_3-/P3.0*%
X77100000Y-114000000D03*
X72700000Y-118400000D03*
%TO.N,Board_3-/P3.1*%
X75805500Y-117105500D03*
X78900000Y-114011000D03*
%TO.N,Board_3-/SW_IN*%
X14700000Y-111200000D03*
X65900000Y-110400000D03*
%TO.N,Board_3-VCC*%
X46500000Y-111600000D03*
X66100000Y-106000000D03*
X88800000Y-112900000D03*
X29500000Y-111600000D03*
X17100000Y-99400000D03*
X61300000Y-108400000D03*
%TO.N,Board_4-/LED_EN_M1*%
X135700000Y-110800000D03*
X156300000Y-113400000D03*
%TO.N,Board_4-/P3.0*%
X177100000Y-114000000D03*
X172700000Y-118400000D03*
%TO.N,Board_4-/P3.1*%
X175805500Y-117105500D03*
X178900000Y-114011000D03*
%TO.N,Board_4-/SW_IN*%
X114700000Y-111200000D03*
X165900000Y-110400000D03*
%TO.N,Board_4-VCC*%
X146500000Y-111600000D03*
X166100000Y-106000000D03*
X188800000Y-112900000D03*
X129500000Y-111600000D03*
X117100000Y-99400000D03*
X161300000Y-108400000D03*
%TO.N,Board_5-/LED_EN_M1*%
X235700000Y-110800000D03*
X256300000Y-113400000D03*
%TO.N,Board_5-/P3.0*%
X277100000Y-114000000D03*
X272700000Y-118400000D03*
%TO.N,Board_5-/P3.1*%
X275805500Y-117105500D03*
X278900000Y-114011000D03*
%TO.N,Board_5-/SW_IN*%
X214700000Y-111200000D03*
X265900000Y-110400000D03*
%TO.N,Board_5-VCC*%
X246500000Y-111600000D03*
X266100000Y-106000000D03*
X288800000Y-112900000D03*
X229500000Y-111600000D03*
X217100000Y-99400000D03*
X261300000Y-108400000D03*
%TO.N,Board_6-/LED_EN_M1*%
X35700000Y-162800000D03*
X56300000Y-165400000D03*
%TO.N,Board_6-/P3.0*%
X77100000Y-166000000D03*
X72700000Y-170400000D03*
%TO.N,Board_6-/P3.1*%
X75805500Y-169105500D03*
X78900000Y-166011000D03*
%TO.N,Board_6-/SW_IN*%
X14700000Y-163200000D03*
X65900000Y-162400000D03*
%TO.N,Board_6-VCC*%
X46500000Y-163600000D03*
X66100000Y-158000000D03*
X88800000Y-164900000D03*
X29500000Y-163600000D03*
X17100000Y-151400000D03*
X61300000Y-160400000D03*
%TO.N,Board_7-/LED_EN_M1*%
X135700000Y-162800000D03*
X156300000Y-165400000D03*
%TO.N,Board_7-/P3.0*%
X177100000Y-166000000D03*
X172700000Y-170400000D03*
%TO.N,Board_7-/P3.1*%
X175805500Y-169105500D03*
X178900000Y-166011000D03*
%TO.N,Board_7-/SW_IN*%
X114700000Y-163200000D03*
X165900000Y-162400000D03*
%TO.N,Board_7-VCC*%
X146500000Y-163600000D03*
X166100000Y-158000000D03*
X188800000Y-164900000D03*
X129500000Y-163600000D03*
X117100000Y-151400000D03*
X161300000Y-160400000D03*
%TO.N,Board_8-/LED_EN_M1*%
X235700000Y-162800000D03*
X256300000Y-165400000D03*
%TO.N,Board_8-/P3.0*%
X277100000Y-166000000D03*
X272700000Y-170400000D03*
%TO.N,Board_8-/P3.1*%
X275805500Y-169105500D03*
X278900000Y-166011000D03*
%TO.N,Board_8-/SW_IN*%
X214700000Y-163200000D03*
X265900000Y-162400000D03*
%TO.N,Board_8-VCC*%
X246500000Y-163600000D03*
X266100000Y-158000000D03*
X288800000Y-164900000D03*
X229500000Y-163600000D03*
X217100000Y-151400000D03*
X261300000Y-160400000D03*
%TO.N,Board_9-/LED_EN_M1*%
X35700000Y-214800000D03*
X56300000Y-217400000D03*
%TO.N,Board_9-/P3.0*%
X77100000Y-218000000D03*
X72700000Y-222400000D03*
%TO.N,Board_9-/P3.1*%
X75805500Y-221105500D03*
X78900000Y-218011000D03*
%TO.N,Board_9-/SW_IN*%
X14700000Y-215200000D03*
X65900000Y-214400000D03*
%TO.N,Board_9-VCC*%
X46500000Y-215600000D03*
X66100000Y-210000000D03*
X88800000Y-216900000D03*
X29500000Y-215600000D03*
X17100000Y-203400000D03*
X61300000Y-212400000D03*
%TO.N,Board_10-/LED_EN_M1*%
X135700000Y-214800000D03*
X156300000Y-217400000D03*
%TO.N,Board_10-/P3.0*%
X177100000Y-218000000D03*
X172700000Y-222400000D03*
%TO.N,Board_10-/P3.1*%
X175805500Y-221105500D03*
X178900000Y-218011000D03*
%TO.N,Board_10-/SW_IN*%
X114700000Y-215200000D03*
X165900000Y-214400000D03*
%TO.N,Board_10-VCC*%
X146500000Y-215600000D03*
X166100000Y-210000000D03*
X188800000Y-216900000D03*
X129500000Y-215600000D03*
X117100000Y-203400000D03*
X161300000Y-212400000D03*
%TO.N,Board_11-/LED_EN_M1*%
X235700000Y-214800000D03*
X256300000Y-217400000D03*
%TO.N,Board_11-/P3.0*%
X277100000Y-218000000D03*
X272700000Y-222400000D03*
%TO.N,Board_11-/P3.1*%
X275805500Y-221105500D03*
X278900000Y-218011000D03*
%TO.N,Board_11-/SW_IN*%
X214700000Y-215200000D03*
X265900000Y-214400000D03*
%TO.N,Board_11-VCC*%
X246500000Y-215600000D03*
X266100000Y-210000000D03*
X288800000Y-216900000D03*
X229500000Y-215600000D03*
X217100000Y-203400000D03*
X261300000Y-212400000D03*
%TO.N,Board_12-/LED_EN_M1*%
X35700000Y-266800000D03*
X56300000Y-269400000D03*
%TO.N,Board_12-/P3.0*%
X77100000Y-270000000D03*
X72700000Y-274400000D03*
%TO.N,Board_12-/P3.1*%
X75805500Y-273105500D03*
X78900000Y-270011000D03*
%TO.N,Board_12-/SW_IN*%
X14700000Y-267200000D03*
X65900000Y-266400000D03*
%TO.N,Board_12-VCC*%
X46500000Y-267600000D03*
X66100000Y-262000000D03*
X88800000Y-268900000D03*
X29500000Y-267600000D03*
X17100000Y-255400000D03*
X61300000Y-264400000D03*
%TO.N,Board_13-/LED_EN_M1*%
X135700000Y-266800000D03*
X156300000Y-269400000D03*
%TO.N,Board_13-/P3.0*%
X177100000Y-270000000D03*
X172700000Y-274400000D03*
%TO.N,Board_13-/P3.1*%
X175805500Y-273105500D03*
X178900000Y-270011000D03*
%TO.N,Board_13-/SW_IN*%
X114700000Y-267200000D03*
X165900000Y-266400000D03*
%TO.N,Board_13-VCC*%
X146500000Y-267600000D03*
X166100000Y-262000000D03*
X188800000Y-268900000D03*
X129500000Y-267600000D03*
X117100000Y-255400000D03*
X161300000Y-264400000D03*
%TO.N,Board_14-/LED_EN_M1*%
X235700000Y-266800000D03*
X256300000Y-269400000D03*
%TO.N,Board_14-/P3.0*%
X277100000Y-270000000D03*
X272700000Y-274400000D03*
%TO.N,Board_14-/P3.1*%
X275805500Y-273105500D03*
X278900000Y-270011000D03*
%TO.N,Board_14-/SW_IN*%
X214700000Y-267200000D03*
X265900000Y-266400000D03*
%TO.N,Board_14-VCC*%
X246500000Y-267600000D03*
X266100000Y-262000000D03*
X288800000Y-268900000D03*
X229500000Y-267600000D03*
X217100000Y-255400000D03*
X261300000Y-264400000D03*
%TD*%
D16*
%TO.N,Board_0-/LED_EN_M1*%
X52700000Y-58800000D02*
X35700000Y-58800000D01*
X56300000Y-61400000D02*
X55300000Y-61400000D01*
X55300000Y-61400000D02*
X52700000Y-58800000D01*
%TO.N,Board_0-/P3.0*%
X72700000Y-66400000D02*
X77100000Y-62000000D01*
%TO.N,Board_0-/P3.1*%
X75805500Y-65105500D02*
X78900000Y-62011000D01*
%TO.N,Board_0-/SW_IN*%
X62173000Y-62127000D02*
X17627000Y-62127000D01*
X17627000Y-62127000D02*
X14700000Y-59200000D01*
X65900000Y-58400000D02*
X62173000Y-62127000D01*
D17*
%TO.N,Board_0-VCC*%
X77300000Y-58000000D02*
X76430000Y-58870000D01*
X29500000Y-59600000D02*
X26100000Y-56200000D01*
X66100000Y-54200000D02*
X65000000Y-55300000D01*
X65000000Y-55300000D02*
X69900000Y-60200000D01*
X25900000Y-56200000D02*
X26100000Y-56400000D01*
X26100000Y-56200000D02*
X25900000Y-56200000D01*
X26100000Y-56400000D02*
X26300000Y-56400000D01*
X85900000Y-58000000D02*
X77300000Y-58000000D01*
X17100000Y-47400000D02*
X25900000Y-56200000D01*
X63900000Y-56400000D02*
X61300000Y-56400000D01*
X76430000Y-58870000D02*
X76430000Y-60200000D01*
X88800000Y-60900000D02*
X85900000Y-58000000D01*
X65000000Y-55300000D02*
X63900000Y-56400000D01*
X29500000Y-59600000D02*
X46500000Y-59600000D01*
X69900000Y-60200000D02*
X76430000Y-60200000D01*
X26300000Y-56400000D02*
X61300000Y-56400000D01*
X66100000Y-54000000D02*
X66100000Y-54200000D01*
D16*
%TO.N,Board_1-/LED_EN_M1*%
X152700000Y-58800000D02*
X135700000Y-58800000D01*
X156300000Y-61400000D02*
X155300000Y-61400000D01*
X155300000Y-61400000D02*
X152700000Y-58800000D01*
%TO.N,Board_1-/P3.0*%
X172700000Y-66400000D02*
X177100000Y-62000000D01*
%TO.N,Board_1-/P3.1*%
X175805500Y-65105500D02*
X178900000Y-62011000D01*
%TO.N,Board_1-/SW_IN*%
X162173000Y-62127000D02*
X117627000Y-62127000D01*
X117627000Y-62127000D02*
X114700000Y-59200000D01*
X165900000Y-58400000D02*
X162173000Y-62127000D01*
D17*
%TO.N,Board_1-VCC*%
X177300000Y-58000000D02*
X176430000Y-58870000D01*
X129500000Y-59600000D02*
X126100000Y-56200000D01*
X166100000Y-54200000D02*
X165000000Y-55300000D01*
X165000000Y-55300000D02*
X169900000Y-60200000D01*
X125900000Y-56200000D02*
X126100000Y-56400000D01*
X126100000Y-56200000D02*
X125900000Y-56200000D01*
X126100000Y-56400000D02*
X126300000Y-56400000D01*
X185900000Y-58000000D02*
X177300000Y-58000000D01*
X117100000Y-47400000D02*
X125900000Y-56200000D01*
X163900000Y-56400000D02*
X161300000Y-56400000D01*
X176430000Y-58870000D02*
X176430000Y-60200000D01*
X188800000Y-60900000D02*
X185900000Y-58000000D01*
X165000000Y-55300000D02*
X163900000Y-56400000D01*
X129500000Y-59600000D02*
X146500000Y-59600000D01*
X169900000Y-60200000D02*
X176430000Y-60200000D01*
X126300000Y-56400000D02*
X161300000Y-56400000D01*
X166100000Y-54000000D02*
X166100000Y-54200000D01*
D16*
%TO.N,Board_2-/LED_EN_M1*%
X252700000Y-58800000D02*
X235700000Y-58800000D01*
X256300000Y-61400000D02*
X255300000Y-61400000D01*
X255300000Y-61400000D02*
X252700000Y-58800000D01*
%TO.N,Board_2-/P3.0*%
X272700000Y-66400000D02*
X277100000Y-62000000D01*
%TO.N,Board_2-/P3.1*%
X275805500Y-65105500D02*
X278900000Y-62011000D01*
%TO.N,Board_2-/SW_IN*%
X262173000Y-62127000D02*
X217627000Y-62127000D01*
X217627000Y-62127000D02*
X214700000Y-59200000D01*
X265900000Y-58400000D02*
X262173000Y-62127000D01*
D17*
%TO.N,Board_2-VCC*%
X277300000Y-58000000D02*
X276430000Y-58870000D01*
X229500000Y-59600000D02*
X226100000Y-56200000D01*
X266100000Y-54200000D02*
X265000000Y-55300000D01*
X265000000Y-55300000D02*
X269900000Y-60200000D01*
X225900000Y-56200000D02*
X226100000Y-56400000D01*
X226100000Y-56200000D02*
X225900000Y-56200000D01*
X226100000Y-56400000D02*
X226300000Y-56400000D01*
X285900000Y-58000000D02*
X277300000Y-58000000D01*
X217100000Y-47400000D02*
X225900000Y-56200000D01*
X263900000Y-56400000D02*
X261300000Y-56400000D01*
X276430000Y-58870000D02*
X276430000Y-60200000D01*
X288800000Y-60900000D02*
X285900000Y-58000000D01*
X265000000Y-55300000D02*
X263900000Y-56400000D01*
X229500000Y-59600000D02*
X246500000Y-59600000D01*
X269900000Y-60200000D02*
X276430000Y-60200000D01*
X226300000Y-56400000D02*
X261300000Y-56400000D01*
X266100000Y-54000000D02*
X266100000Y-54200000D01*
D16*
%TO.N,Board_3-/LED_EN_M1*%
X52700000Y-110800000D02*
X35700000Y-110800000D01*
X56300000Y-113400000D02*
X55300000Y-113400000D01*
X55300000Y-113400000D02*
X52700000Y-110800000D01*
%TO.N,Board_3-/P3.0*%
X72700000Y-118400000D02*
X77100000Y-114000000D01*
%TO.N,Board_3-/P3.1*%
X75805500Y-117105500D02*
X78900000Y-114011000D01*
%TO.N,Board_3-/SW_IN*%
X62173000Y-114127000D02*
X17627000Y-114127000D01*
X17627000Y-114127000D02*
X14700000Y-111200000D01*
X65900000Y-110400000D02*
X62173000Y-114127000D01*
D17*
%TO.N,Board_3-VCC*%
X77300000Y-110000000D02*
X76430000Y-110870000D01*
X29500000Y-111600000D02*
X26100000Y-108200000D01*
X66100000Y-106200000D02*
X65000000Y-107300000D01*
X65000000Y-107300000D02*
X69900000Y-112200000D01*
X25900000Y-108200000D02*
X26100000Y-108400000D01*
X26100000Y-108200000D02*
X25900000Y-108200000D01*
X26100000Y-108400000D02*
X26300000Y-108400000D01*
X85900000Y-110000000D02*
X77300000Y-110000000D01*
X17100000Y-99400000D02*
X25900000Y-108200000D01*
X63900000Y-108400000D02*
X61300000Y-108400000D01*
X76430000Y-110870000D02*
X76430000Y-112200000D01*
X88800000Y-112900000D02*
X85900000Y-110000000D01*
X65000000Y-107300000D02*
X63900000Y-108400000D01*
X29500000Y-111600000D02*
X46500000Y-111600000D01*
X69900000Y-112200000D02*
X76430000Y-112200000D01*
X26300000Y-108400000D02*
X61300000Y-108400000D01*
X66100000Y-106000000D02*
X66100000Y-106200000D01*
D16*
%TO.N,Board_4-/LED_EN_M1*%
X152700000Y-110800000D02*
X135700000Y-110800000D01*
X156300000Y-113400000D02*
X155300000Y-113400000D01*
X155300000Y-113400000D02*
X152700000Y-110800000D01*
%TO.N,Board_4-/P3.0*%
X172700000Y-118400000D02*
X177100000Y-114000000D01*
%TO.N,Board_4-/P3.1*%
X175805500Y-117105500D02*
X178900000Y-114011000D01*
%TO.N,Board_4-/SW_IN*%
X162173000Y-114127000D02*
X117627000Y-114127000D01*
X117627000Y-114127000D02*
X114700000Y-111200000D01*
X165900000Y-110400000D02*
X162173000Y-114127000D01*
D17*
%TO.N,Board_4-VCC*%
X177300000Y-110000000D02*
X176430000Y-110870000D01*
X129500000Y-111600000D02*
X126100000Y-108200000D01*
X166100000Y-106200000D02*
X165000000Y-107300000D01*
X165000000Y-107300000D02*
X169900000Y-112200000D01*
X125900000Y-108200000D02*
X126100000Y-108400000D01*
X126100000Y-108200000D02*
X125900000Y-108200000D01*
X126100000Y-108400000D02*
X126300000Y-108400000D01*
X185900000Y-110000000D02*
X177300000Y-110000000D01*
X117100000Y-99400000D02*
X125900000Y-108200000D01*
X163900000Y-108400000D02*
X161300000Y-108400000D01*
X176430000Y-110870000D02*
X176430000Y-112200000D01*
X188800000Y-112900000D02*
X185900000Y-110000000D01*
X165000000Y-107300000D02*
X163900000Y-108400000D01*
X129500000Y-111600000D02*
X146500000Y-111600000D01*
X169900000Y-112200000D02*
X176430000Y-112200000D01*
X126300000Y-108400000D02*
X161300000Y-108400000D01*
X166100000Y-106000000D02*
X166100000Y-106200000D01*
D16*
%TO.N,Board_5-/LED_EN_M1*%
X252700000Y-110800000D02*
X235700000Y-110800000D01*
X256300000Y-113400000D02*
X255300000Y-113400000D01*
X255300000Y-113400000D02*
X252700000Y-110800000D01*
%TO.N,Board_5-/P3.0*%
X272700000Y-118400000D02*
X277100000Y-114000000D01*
%TO.N,Board_5-/P3.1*%
X275805500Y-117105500D02*
X278900000Y-114011000D01*
%TO.N,Board_5-/SW_IN*%
X262173000Y-114127000D02*
X217627000Y-114127000D01*
X217627000Y-114127000D02*
X214700000Y-111200000D01*
X265900000Y-110400000D02*
X262173000Y-114127000D01*
D17*
%TO.N,Board_5-VCC*%
X277300000Y-110000000D02*
X276430000Y-110870000D01*
X229500000Y-111600000D02*
X226100000Y-108200000D01*
X266100000Y-106200000D02*
X265000000Y-107300000D01*
X265000000Y-107300000D02*
X269900000Y-112200000D01*
X225900000Y-108200000D02*
X226100000Y-108400000D01*
X226100000Y-108200000D02*
X225900000Y-108200000D01*
X226100000Y-108400000D02*
X226300000Y-108400000D01*
X285900000Y-110000000D02*
X277300000Y-110000000D01*
X217100000Y-99400000D02*
X225900000Y-108200000D01*
X263900000Y-108400000D02*
X261300000Y-108400000D01*
X276430000Y-110870000D02*
X276430000Y-112200000D01*
X288800000Y-112900000D02*
X285900000Y-110000000D01*
X265000000Y-107300000D02*
X263900000Y-108400000D01*
X229500000Y-111600000D02*
X246500000Y-111600000D01*
X269900000Y-112200000D02*
X276430000Y-112200000D01*
X226300000Y-108400000D02*
X261300000Y-108400000D01*
X266100000Y-106000000D02*
X266100000Y-106200000D01*
D16*
%TO.N,Board_6-/LED_EN_M1*%
X52700000Y-162800000D02*
X35700000Y-162800000D01*
X56300000Y-165400000D02*
X55300000Y-165400000D01*
X55300000Y-165400000D02*
X52700000Y-162800000D01*
%TO.N,Board_6-/P3.0*%
X72700000Y-170400000D02*
X77100000Y-166000000D01*
%TO.N,Board_6-/P3.1*%
X75805500Y-169105500D02*
X78900000Y-166011000D01*
%TO.N,Board_6-/SW_IN*%
X62173000Y-166127000D02*
X17627000Y-166127000D01*
X17627000Y-166127000D02*
X14700000Y-163200000D01*
X65900000Y-162400000D02*
X62173000Y-166127000D01*
D17*
%TO.N,Board_6-VCC*%
X77300000Y-162000000D02*
X76430000Y-162870000D01*
X29500000Y-163600000D02*
X26100000Y-160200000D01*
X66100000Y-158200000D02*
X65000000Y-159300000D01*
X65000000Y-159300000D02*
X69900000Y-164200000D01*
X25900000Y-160200000D02*
X26100000Y-160400000D01*
X26100000Y-160200000D02*
X25900000Y-160200000D01*
X26100000Y-160400000D02*
X26300000Y-160400000D01*
X85900000Y-162000000D02*
X77300000Y-162000000D01*
X17100000Y-151400000D02*
X25900000Y-160200000D01*
X63900000Y-160400000D02*
X61300000Y-160400000D01*
X76430000Y-162870000D02*
X76430000Y-164200000D01*
X88800000Y-164900000D02*
X85900000Y-162000000D01*
X65000000Y-159300000D02*
X63900000Y-160400000D01*
X29500000Y-163600000D02*
X46500000Y-163600000D01*
X69900000Y-164200000D02*
X76430000Y-164200000D01*
X26300000Y-160400000D02*
X61300000Y-160400000D01*
X66100000Y-158000000D02*
X66100000Y-158200000D01*
D16*
%TO.N,Board_7-/LED_EN_M1*%
X152700000Y-162800000D02*
X135700000Y-162800000D01*
X156300000Y-165400000D02*
X155300000Y-165400000D01*
X155300000Y-165400000D02*
X152700000Y-162800000D01*
%TO.N,Board_7-/P3.0*%
X172700000Y-170400000D02*
X177100000Y-166000000D01*
%TO.N,Board_7-/P3.1*%
X175805500Y-169105500D02*
X178900000Y-166011000D01*
%TO.N,Board_7-/SW_IN*%
X162173000Y-166127000D02*
X117627000Y-166127000D01*
X117627000Y-166127000D02*
X114700000Y-163200000D01*
X165900000Y-162400000D02*
X162173000Y-166127000D01*
D17*
%TO.N,Board_7-VCC*%
X177300000Y-162000000D02*
X176430000Y-162870000D01*
X129500000Y-163600000D02*
X126100000Y-160200000D01*
X166100000Y-158200000D02*
X165000000Y-159300000D01*
X165000000Y-159300000D02*
X169900000Y-164200000D01*
X125900000Y-160200000D02*
X126100000Y-160400000D01*
X126100000Y-160200000D02*
X125900000Y-160200000D01*
X126100000Y-160400000D02*
X126300000Y-160400000D01*
X185900000Y-162000000D02*
X177300000Y-162000000D01*
X117100000Y-151400000D02*
X125900000Y-160200000D01*
X163900000Y-160400000D02*
X161300000Y-160400000D01*
X176430000Y-162870000D02*
X176430000Y-164200000D01*
X188800000Y-164900000D02*
X185900000Y-162000000D01*
X165000000Y-159300000D02*
X163900000Y-160400000D01*
X129500000Y-163600000D02*
X146500000Y-163600000D01*
X169900000Y-164200000D02*
X176430000Y-164200000D01*
X126300000Y-160400000D02*
X161300000Y-160400000D01*
X166100000Y-158000000D02*
X166100000Y-158200000D01*
D16*
%TO.N,Board_8-/LED_EN_M1*%
X252700000Y-162800000D02*
X235700000Y-162800000D01*
X256300000Y-165400000D02*
X255300000Y-165400000D01*
X255300000Y-165400000D02*
X252700000Y-162800000D01*
%TO.N,Board_8-/P3.0*%
X272700000Y-170400000D02*
X277100000Y-166000000D01*
%TO.N,Board_8-/P3.1*%
X275805500Y-169105500D02*
X278900000Y-166011000D01*
%TO.N,Board_8-/SW_IN*%
X262173000Y-166127000D02*
X217627000Y-166127000D01*
X217627000Y-166127000D02*
X214700000Y-163200000D01*
X265900000Y-162400000D02*
X262173000Y-166127000D01*
D17*
%TO.N,Board_8-VCC*%
X277300000Y-162000000D02*
X276430000Y-162870000D01*
X229500000Y-163600000D02*
X226100000Y-160200000D01*
X266100000Y-158200000D02*
X265000000Y-159300000D01*
X265000000Y-159300000D02*
X269900000Y-164200000D01*
X225900000Y-160200000D02*
X226100000Y-160400000D01*
X226100000Y-160200000D02*
X225900000Y-160200000D01*
X226100000Y-160400000D02*
X226300000Y-160400000D01*
X285900000Y-162000000D02*
X277300000Y-162000000D01*
X217100000Y-151400000D02*
X225900000Y-160200000D01*
X263900000Y-160400000D02*
X261300000Y-160400000D01*
X276430000Y-162870000D02*
X276430000Y-164200000D01*
X288800000Y-164900000D02*
X285900000Y-162000000D01*
X265000000Y-159300000D02*
X263900000Y-160400000D01*
X229500000Y-163600000D02*
X246500000Y-163600000D01*
X269900000Y-164200000D02*
X276430000Y-164200000D01*
X226300000Y-160400000D02*
X261300000Y-160400000D01*
X266100000Y-158000000D02*
X266100000Y-158200000D01*
D16*
%TO.N,Board_9-/LED_EN_M1*%
X52700000Y-214800000D02*
X35700000Y-214800000D01*
X56300000Y-217400000D02*
X55300000Y-217400000D01*
X55300000Y-217400000D02*
X52700000Y-214800000D01*
%TO.N,Board_9-/P3.0*%
X72700000Y-222400000D02*
X77100000Y-218000000D01*
%TO.N,Board_9-/P3.1*%
X75805500Y-221105500D02*
X78900000Y-218011000D01*
%TO.N,Board_9-/SW_IN*%
X62173000Y-218127000D02*
X17627000Y-218127000D01*
X17627000Y-218127000D02*
X14700000Y-215200000D01*
X65900000Y-214400000D02*
X62173000Y-218127000D01*
D17*
%TO.N,Board_9-VCC*%
X77300000Y-214000000D02*
X76430000Y-214870000D01*
X29500000Y-215600000D02*
X26100000Y-212200000D01*
X66100000Y-210200000D02*
X65000000Y-211300000D01*
X65000000Y-211300000D02*
X69900000Y-216200000D01*
X25900000Y-212200000D02*
X26100000Y-212400000D01*
X26100000Y-212200000D02*
X25900000Y-212200000D01*
X26100000Y-212400000D02*
X26300000Y-212400000D01*
X85900000Y-214000000D02*
X77300000Y-214000000D01*
X17100000Y-203400000D02*
X25900000Y-212200000D01*
X63900000Y-212400000D02*
X61300000Y-212400000D01*
X76430000Y-214870000D02*
X76430000Y-216200000D01*
X88800000Y-216900000D02*
X85900000Y-214000000D01*
X65000000Y-211300000D02*
X63900000Y-212400000D01*
X29500000Y-215600000D02*
X46500000Y-215600000D01*
X69900000Y-216200000D02*
X76430000Y-216200000D01*
X26300000Y-212400000D02*
X61300000Y-212400000D01*
X66100000Y-210000000D02*
X66100000Y-210200000D01*
D16*
%TO.N,Board_10-/LED_EN_M1*%
X152700000Y-214800000D02*
X135700000Y-214800000D01*
X156300000Y-217400000D02*
X155300000Y-217400000D01*
X155300000Y-217400000D02*
X152700000Y-214800000D01*
%TO.N,Board_10-/P3.0*%
X172700000Y-222400000D02*
X177100000Y-218000000D01*
%TO.N,Board_10-/P3.1*%
X175805500Y-221105500D02*
X178900000Y-218011000D01*
%TO.N,Board_10-/SW_IN*%
X162173000Y-218127000D02*
X117627000Y-218127000D01*
X117627000Y-218127000D02*
X114700000Y-215200000D01*
X165900000Y-214400000D02*
X162173000Y-218127000D01*
D17*
%TO.N,Board_10-VCC*%
X177300000Y-214000000D02*
X176430000Y-214870000D01*
X129500000Y-215600000D02*
X126100000Y-212200000D01*
X166100000Y-210200000D02*
X165000000Y-211300000D01*
X165000000Y-211300000D02*
X169900000Y-216200000D01*
X125900000Y-212200000D02*
X126100000Y-212400000D01*
X126100000Y-212200000D02*
X125900000Y-212200000D01*
X126100000Y-212400000D02*
X126300000Y-212400000D01*
X185900000Y-214000000D02*
X177300000Y-214000000D01*
X117100000Y-203400000D02*
X125900000Y-212200000D01*
X163900000Y-212400000D02*
X161300000Y-212400000D01*
X176430000Y-214870000D02*
X176430000Y-216200000D01*
X188800000Y-216900000D02*
X185900000Y-214000000D01*
X165000000Y-211300000D02*
X163900000Y-212400000D01*
X129500000Y-215600000D02*
X146500000Y-215600000D01*
X169900000Y-216200000D02*
X176430000Y-216200000D01*
X126300000Y-212400000D02*
X161300000Y-212400000D01*
X166100000Y-210000000D02*
X166100000Y-210200000D01*
D16*
%TO.N,Board_11-/LED_EN_M1*%
X252700000Y-214800000D02*
X235700000Y-214800000D01*
X256300000Y-217400000D02*
X255300000Y-217400000D01*
X255300000Y-217400000D02*
X252700000Y-214800000D01*
%TO.N,Board_11-/P3.0*%
X272700000Y-222400000D02*
X277100000Y-218000000D01*
%TO.N,Board_11-/P3.1*%
X275805500Y-221105500D02*
X278900000Y-218011000D01*
%TO.N,Board_11-/SW_IN*%
X262173000Y-218127000D02*
X217627000Y-218127000D01*
X217627000Y-218127000D02*
X214700000Y-215200000D01*
X265900000Y-214400000D02*
X262173000Y-218127000D01*
D17*
%TO.N,Board_11-VCC*%
X277300000Y-214000000D02*
X276430000Y-214870000D01*
X229500000Y-215600000D02*
X226100000Y-212200000D01*
X266100000Y-210200000D02*
X265000000Y-211300000D01*
X265000000Y-211300000D02*
X269900000Y-216200000D01*
X225900000Y-212200000D02*
X226100000Y-212400000D01*
X226100000Y-212200000D02*
X225900000Y-212200000D01*
X226100000Y-212400000D02*
X226300000Y-212400000D01*
X285900000Y-214000000D02*
X277300000Y-214000000D01*
X217100000Y-203400000D02*
X225900000Y-212200000D01*
X263900000Y-212400000D02*
X261300000Y-212400000D01*
X276430000Y-214870000D02*
X276430000Y-216200000D01*
X288800000Y-216900000D02*
X285900000Y-214000000D01*
X265000000Y-211300000D02*
X263900000Y-212400000D01*
X229500000Y-215600000D02*
X246500000Y-215600000D01*
X269900000Y-216200000D02*
X276430000Y-216200000D01*
X226300000Y-212400000D02*
X261300000Y-212400000D01*
X266100000Y-210000000D02*
X266100000Y-210200000D01*
D16*
%TO.N,Board_12-/LED_EN_M1*%
X52700000Y-266800000D02*
X35700000Y-266800000D01*
X56300000Y-269400000D02*
X55300000Y-269400000D01*
X55300000Y-269400000D02*
X52700000Y-266800000D01*
%TO.N,Board_12-/P3.0*%
X72700000Y-274400000D02*
X77100000Y-270000000D01*
%TO.N,Board_12-/P3.1*%
X75805500Y-273105500D02*
X78900000Y-270011000D01*
%TO.N,Board_12-/SW_IN*%
X62173000Y-270127000D02*
X17627000Y-270127000D01*
X17627000Y-270127000D02*
X14700000Y-267200000D01*
X65900000Y-266400000D02*
X62173000Y-270127000D01*
D17*
%TO.N,Board_12-VCC*%
X77300000Y-266000000D02*
X76430000Y-266870000D01*
X29500000Y-267600000D02*
X26100000Y-264200000D01*
X66100000Y-262200000D02*
X65000000Y-263300000D01*
X65000000Y-263300000D02*
X69900000Y-268200000D01*
X25900000Y-264200000D02*
X26100000Y-264400000D01*
X26100000Y-264200000D02*
X25900000Y-264200000D01*
X26100000Y-264400000D02*
X26300000Y-264400000D01*
X85900000Y-266000000D02*
X77300000Y-266000000D01*
X17100000Y-255400000D02*
X25900000Y-264200000D01*
X63900000Y-264400000D02*
X61300000Y-264400000D01*
X76430000Y-266870000D02*
X76430000Y-268200000D01*
X88800000Y-268900000D02*
X85900000Y-266000000D01*
X65000000Y-263300000D02*
X63900000Y-264400000D01*
X29500000Y-267600000D02*
X46500000Y-267600000D01*
X69900000Y-268200000D02*
X76430000Y-268200000D01*
X26300000Y-264400000D02*
X61300000Y-264400000D01*
X66100000Y-262000000D02*
X66100000Y-262200000D01*
D16*
%TO.N,Board_13-/LED_EN_M1*%
X152700000Y-266800000D02*
X135700000Y-266800000D01*
X156300000Y-269400000D02*
X155300000Y-269400000D01*
X155300000Y-269400000D02*
X152700000Y-266800000D01*
%TO.N,Board_13-/P3.0*%
X172700000Y-274400000D02*
X177100000Y-270000000D01*
%TO.N,Board_13-/P3.1*%
X175805500Y-273105500D02*
X178900000Y-270011000D01*
%TO.N,Board_13-/SW_IN*%
X162173000Y-270127000D02*
X117627000Y-270127000D01*
X117627000Y-270127000D02*
X114700000Y-267200000D01*
X165900000Y-266400000D02*
X162173000Y-270127000D01*
D17*
%TO.N,Board_13-VCC*%
X177300000Y-266000000D02*
X176430000Y-266870000D01*
X129500000Y-267600000D02*
X126100000Y-264200000D01*
X166100000Y-262200000D02*
X165000000Y-263300000D01*
X165000000Y-263300000D02*
X169900000Y-268200000D01*
X125900000Y-264200000D02*
X126100000Y-264400000D01*
X126100000Y-264200000D02*
X125900000Y-264200000D01*
X126100000Y-264400000D02*
X126300000Y-264400000D01*
X185900000Y-266000000D02*
X177300000Y-266000000D01*
X117100000Y-255400000D02*
X125900000Y-264200000D01*
X163900000Y-264400000D02*
X161300000Y-264400000D01*
X176430000Y-266870000D02*
X176430000Y-268200000D01*
X188800000Y-268900000D02*
X185900000Y-266000000D01*
X165000000Y-263300000D02*
X163900000Y-264400000D01*
X129500000Y-267600000D02*
X146500000Y-267600000D01*
X169900000Y-268200000D02*
X176430000Y-268200000D01*
X126300000Y-264400000D02*
X161300000Y-264400000D01*
X166100000Y-262000000D02*
X166100000Y-262200000D01*
D16*
%TO.N,Board_14-/LED_EN_M1*%
X252700000Y-266800000D02*
X235700000Y-266800000D01*
X256300000Y-269400000D02*
X255300000Y-269400000D01*
X255300000Y-269400000D02*
X252700000Y-266800000D01*
%TO.N,Board_14-/P3.0*%
X272700000Y-274400000D02*
X277100000Y-270000000D01*
%TO.N,Board_14-/P3.1*%
X275805500Y-273105500D02*
X278900000Y-270011000D01*
%TO.N,Board_14-/SW_IN*%
X262173000Y-270127000D02*
X217627000Y-270127000D01*
X217627000Y-270127000D02*
X214700000Y-267200000D01*
X265900000Y-266400000D02*
X262173000Y-270127000D01*
D17*
%TO.N,Board_14-VCC*%
X277300000Y-266000000D02*
X276430000Y-266870000D01*
X229500000Y-267600000D02*
X226100000Y-264200000D01*
X266100000Y-262200000D02*
X265000000Y-263300000D01*
X265000000Y-263300000D02*
X269900000Y-268200000D01*
X225900000Y-264200000D02*
X226100000Y-264400000D01*
X226100000Y-264200000D02*
X225900000Y-264200000D01*
X226100000Y-264400000D02*
X226300000Y-264400000D01*
X285900000Y-266000000D02*
X277300000Y-266000000D01*
X217100000Y-255400000D02*
X225900000Y-264200000D01*
X263900000Y-264400000D02*
X261300000Y-264400000D01*
X276430000Y-266870000D02*
X276430000Y-268200000D01*
X288800000Y-268900000D02*
X285900000Y-266000000D01*
X265000000Y-263300000D02*
X263900000Y-264400000D01*
X229500000Y-267600000D02*
X246500000Y-267600000D01*
X269900000Y-268200000D02*
X276430000Y-268200000D01*
X226300000Y-264400000D02*
X261300000Y-264400000D01*
X266100000Y-262000000D02*
X266100000Y-262200000D01*
%TD*%
M02*
