%TF.GenerationSoftware,KiCad,Pcbnew,7.0.1-3b83917a11~171~ubuntu20.04.1*%
%TF.CreationDate,2023-10-26T02:31:41+02:00*%
%TF.ProjectId,panel_bottom,70616e65-6c5f-4626-9f74-746f6d2e6b69,rev?*%
%TF.SameCoordinates,Original*%
%TF.FileFunction,Paste,Top*%
%TF.FilePolarity,Positive*%
%FSLAX46Y46*%
G04 Gerber Fmt 4.6, Leading zero omitted, Abs format (unit mm)*
G04 Created by KiCad (PCBNEW 7.0.1-3b83917a11~171~ubuntu20.04.1) date 2023-10-26 02:31:41*
%MOMM*%
%LPD*%
G01*
G04 APERTURE LIST*
G04 Aperture macros list*
%AMRoundRect*
0 Rectangle with rounded corners*
0 $1 Rounding radius*
0 $2 $3 $4 $5 $6 $7 $8 $9 X,Y pos of 4 corners*
0 Add a 4 corners polygon primitive as box body*
4,1,4,$2,$3,$4,$5,$6,$7,$8,$9,$2,$3,0*
0 Add four circle primitives for the rounded corners*
1,1,$1+$1,$2,$3*
1,1,$1+$1,$4,$5*
1,1,$1+$1,$6,$7*
1,1,$1+$1,$8,$9*
0 Add four rect primitives between the rounded corners*
20,1,$1+$1,$2,$3,$4,$5,0*
20,1,$1+$1,$4,$5,$6,$7,0*
20,1,$1+$1,$6,$7,$8,$9,0*
20,1,$1+$1,$8,$9,$2,$3,0*%
G04 Aperture macros list end*
%ADD10RoundRect,0.243750X0.456250X-0.243750X0.456250X0.243750X-0.456250X0.243750X-0.456250X-0.243750X0*%
%ADD11RoundRect,0.250000X0.850000X-0.375000X0.850000X0.375000X-0.850000X0.375000X-0.850000X-0.375000X0*%
%ADD12RoundRect,0.243750X-0.243750X-0.456250X0.243750X-0.456250X0.243750X0.456250X-0.243750X0.456250X0*%
%ADD13RoundRect,0.150000X0.150000X-0.587500X0.150000X0.587500X-0.150000X0.587500X-0.150000X-0.587500X0*%
%ADD14RoundRect,0.243750X0.243750X0.456250X-0.243750X0.456250X-0.243750X-0.456250X0.243750X-0.456250X0*%
%ADD15RoundRect,0.243750X-0.456250X0.243750X-0.456250X-0.243750X0.456250X-0.243750X0.456250X0.243750X0*%
%ADD16RoundRect,0.200000X0.275000X-0.200000X0.275000X0.200000X-0.275000X0.200000X-0.275000X-0.200000X0*%
%ADD17RoundRect,0.200000X0.200000X0.275000X-0.200000X0.275000X-0.200000X-0.275000X0.200000X-0.275000X0*%
%ADD18RoundRect,0.250000X-0.475000X0.250000X-0.475000X-0.250000X0.475000X-0.250000X0.475000X0.250000X0*%
%ADD19R,1.900000X1.300000*%
%ADD20RoundRect,0.200000X-0.275000X0.200000X-0.275000X-0.200000X0.275000X-0.200000X0.275000X0.200000X0*%
%ADD21RoundRect,0.250000X0.375000X0.850000X-0.375000X0.850000X-0.375000X-0.850000X0.375000X-0.850000X0*%
%ADD22RoundRect,0.137500X-0.662500X-0.137500X0.662500X-0.137500X0.662500X0.137500X-0.662500X0.137500X0*%
%ADD23RoundRect,0.150000X0.587500X0.150000X-0.587500X0.150000X-0.587500X-0.150000X0.587500X-0.150000X0*%
%ADD24RoundRect,0.200000X-0.200000X-0.275000X0.200000X-0.275000X0.200000X0.275000X-0.200000X0.275000X0*%
G04 APERTURE END LIST*
D10*
%TO.C,D21*%
X60792000Y-42695500D03*
X60792000Y-40820500D03*
%TD*%
%TO.C,D21*%
X160792000Y-42695500D03*
X160792000Y-40820500D03*
%TD*%
%TO.C,D21*%
X260792000Y-42695500D03*
X260792000Y-40820500D03*
%TD*%
%TO.C,D21*%
X60792000Y-94695500D03*
X60792000Y-92820500D03*
%TD*%
%TO.C,D21*%
X160792000Y-94695500D03*
X160792000Y-92820500D03*
%TD*%
%TO.C,D21*%
X260792000Y-94695500D03*
X260792000Y-92820500D03*
%TD*%
%TO.C,D21*%
X60792000Y-146695500D03*
X60792000Y-144820500D03*
%TD*%
%TO.C,D21*%
X160792000Y-146695500D03*
X160792000Y-144820500D03*
%TD*%
%TO.C,D21*%
X260792000Y-146695500D03*
X260792000Y-144820500D03*
%TD*%
%TO.C,D21*%
X60792000Y-198695500D03*
X60792000Y-196820500D03*
%TD*%
%TO.C,D21*%
X160792000Y-198695500D03*
X160792000Y-196820500D03*
%TD*%
%TO.C,D21*%
X260792000Y-198695500D03*
X260792000Y-196820500D03*
%TD*%
%TO.C,D21*%
X60792000Y-250695500D03*
X60792000Y-248820500D03*
%TD*%
%TO.C,D21*%
X160792000Y-250695500D03*
X160792000Y-248820500D03*
%TD*%
%TO.C,D21*%
X260792000Y-250695500D03*
X260792000Y-248820500D03*
%TD*%
D11*
%TO.C,L2*%
X86354000Y-58811000D03*
X86354000Y-56661000D03*
%TD*%
%TO.C,L2*%
X186354000Y-58811000D03*
X186354000Y-56661000D03*
%TD*%
%TO.C,L2*%
X286354000Y-58811000D03*
X286354000Y-56661000D03*
%TD*%
%TO.C,L2*%
X86354000Y-110811000D03*
X86354000Y-108661000D03*
%TD*%
%TO.C,L2*%
X186354000Y-110811000D03*
X186354000Y-108661000D03*
%TD*%
%TO.C,L2*%
X286354000Y-110811000D03*
X286354000Y-108661000D03*
%TD*%
%TO.C,L2*%
X86354000Y-162811000D03*
X86354000Y-160661000D03*
%TD*%
%TO.C,L2*%
X186354000Y-162811000D03*
X186354000Y-160661000D03*
%TD*%
%TO.C,L2*%
X286354000Y-162811000D03*
X286354000Y-160661000D03*
%TD*%
%TO.C,L2*%
X86354000Y-214811000D03*
X86354000Y-212661000D03*
%TD*%
%TO.C,L2*%
X186354000Y-214811000D03*
X186354000Y-212661000D03*
%TD*%
%TO.C,L2*%
X286354000Y-214811000D03*
X286354000Y-212661000D03*
%TD*%
%TO.C,L2*%
X86354000Y-266811000D03*
X86354000Y-264661000D03*
%TD*%
%TO.C,L2*%
X186354000Y-266811000D03*
X186354000Y-264661000D03*
%TD*%
%TO.C,L2*%
X286354000Y-266811000D03*
X286354000Y-264661000D03*
%TD*%
D12*
%TO.C,D22*%
X92034000Y-56998000D03*
X93909000Y-56998000D03*
%TD*%
%TO.C,D22*%
X192034000Y-56998000D03*
X193909000Y-56998000D03*
%TD*%
%TO.C,D22*%
X292034000Y-56998000D03*
X293909000Y-56998000D03*
%TD*%
%TO.C,D22*%
X92034000Y-108998000D03*
X93909000Y-108998000D03*
%TD*%
%TO.C,D22*%
X192034000Y-108998000D03*
X193909000Y-108998000D03*
%TD*%
%TO.C,D22*%
X292034000Y-108998000D03*
X293909000Y-108998000D03*
%TD*%
%TO.C,D22*%
X92034000Y-160998000D03*
X93909000Y-160998000D03*
%TD*%
%TO.C,D22*%
X192034000Y-160998000D03*
X193909000Y-160998000D03*
%TD*%
%TO.C,D22*%
X292034000Y-160998000D03*
X293909000Y-160998000D03*
%TD*%
%TO.C,D22*%
X92034000Y-212998000D03*
X93909000Y-212998000D03*
%TD*%
%TO.C,D22*%
X192034000Y-212998000D03*
X193909000Y-212998000D03*
%TD*%
%TO.C,D22*%
X292034000Y-212998000D03*
X293909000Y-212998000D03*
%TD*%
%TO.C,D22*%
X92034000Y-264998000D03*
X93909000Y-264998000D03*
%TD*%
%TO.C,D22*%
X192034000Y-264998000D03*
X193909000Y-264998000D03*
%TD*%
%TO.C,D22*%
X292034000Y-264998000D03*
X293909000Y-264998000D03*
%TD*%
D11*
%TO.C,L5*%
X42300000Y-54350000D03*
X42300000Y-52200000D03*
%TD*%
%TO.C,L5*%
X142300000Y-54350000D03*
X142300000Y-52200000D03*
%TD*%
%TO.C,L5*%
X242300000Y-54350000D03*
X242300000Y-52200000D03*
%TD*%
%TO.C,L5*%
X42300000Y-106350000D03*
X42300000Y-104200000D03*
%TD*%
%TO.C,L5*%
X142300000Y-106350000D03*
X142300000Y-104200000D03*
%TD*%
%TO.C,L5*%
X242300000Y-106350000D03*
X242300000Y-104200000D03*
%TD*%
%TO.C,L5*%
X42300000Y-158350000D03*
X42300000Y-156200000D03*
%TD*%
%TO.C,L5*%
X142300000Y-158350000D03*
X142300000Y-156200000D03*
%TD*%
%TO.C,L5*%
X242300000Y-158350000D03*
X242300000Y-156200000D03*
%TD*%
%TO.C,L5*%
X42300000Y-210350000D03*
X42300000Y-208200000D03*
%TD*%
%TO.C,L5*%
X142300000Y-210350000D03*
X142300000Y-208200000D03*
%TD*%
%TO.C,L5*%
X242300000Y-210350000D03*
X242300000Y-208200000D03*
%TD*%
%TO.C,L5*%
X42300000Y-262350000D03*
X42300000Y-260200000D03*
%TD*%
%TO.C,L5*%
X142300000Y-262350000D03*
X142300000Y-260200000D03*
%TD*%
%TO.C,L5*%
X242300000Y-262350000D03*
X242300000Y-260200000D03*
%TD*%
D13*
%TO.C,Q2*%
X41300000Y-61275000D03*
X43200000Y-61275000D03*
X42250000Y-59400000D03*
%TD*%
%TO.C,Q2*%
X141300000Y-61275000D03*
X143200000Y-61275000D03*
X142250000Y-59400000D03*
%TD*%
%TO.C,Q2*%
X241300000Y-61275000D03*
X243200000Y-61275000D03*
X242250000Y-59400000D03*
%TD*%
%TO.C,Q2*%
X41300000Y-113275000D03*
X43200000Y-113275000D03*
X42250000Y-111400000D03*
%TD*%
%TO.C,Q2*%
X141300000Y-113275000D03*
X143200000Y-113275000D03*
X142250000Y-111400000D03*
%TD*%
%TO.C,Q2*%
X241300000Y-113275000D03*
X243200000Y-113275000D03*
X242250000Y-111400000D03*
%TD*%
%TO.C,Q2*%
X41300000Y-165275000D03*
X43200000Y-165275000D03*
X42250000Y-163400000D03*
%TD*%
%TO.C,Q2*%
X141300000Y-165275000D03*
X143200000Y-165275000D03*
X142250000Y-163400000D03*
%TD*%
%TO.C,Q2*%
X241300000Y-165275000D03*
X243200000Y-165275000D03*
X242250000Y-163400000D03*
%TD*%
%TO.C,Q2*%
X41300000Y-217275000D03*
X43200000Y-217275000D03*
X42250000Y-215400000D03*
%TD*%
%TO.C,Q2*%
X141300000Y-217275000D03*
X143200000Y-217275000D03*
X142250000Y-215400000D03*
%TD*%
%TO.C,Q2*%
X241300000Y-217275000D03*
X243200000Y-217275000D03*
X242250000Y-215400000D03*
%TD*%
%TO.C,Q2*%
X41300000Y-269275000D03*
X43200000Y-269275000D03*
X42250000Y-267400000D03*
%TD*%
%TO.C,Q2*%
X141300000Y-269275000D03*
X143200000Y-269275000D03*
X142250000Y-267400000D03*
%TD*%
%TO.C,Q2*%
X241300000Y-269275000D03*
X243200000Y-269275000D03*
X242250000Y-267400000D03*
%TD*%
D12*
%TO.C,D5*%
X16762500Y-52000000D03*
X18637500Y-52000000D03*
%TD*%
%TO.C,D5*%
X116762500Y-52000000D03*
X118637500Y-52000000D03*
%TD*%
%TO.C,D5*%
X216762500Y-52000000D03*
X218637500Y-52000000D03*
%TD*%
%TO.C,D5*%
X16762500Y-104000000D03*
X18637500Y-104000000D03*
%TD*%
%TO.C,D5*%
X116762500Y-104000000D03*
X118637500Y-104000000D03*
%TD*%
%TO.C,D5*%
X216762500Y-104000000D03*
X218637500Y-104000000D03*
%TD*%
%TO.C,D5*%
X16762500Y-156000000D03*
X18637500Y-156000000D03*
%TD*%
%TO.C,D5*%
X116762500Y-156000000D03*
X118637500Y-156000000D03*
%TD*%
%TO.C,D5*%
X216762500Y-156000000D03*
X218637500Y-156000000D03*
%TD*%
%TO.C,D5*%
X16762500Y-208000000D03*
X18637500Y-208000000D03*
%TD*%
%TO.C,D5*%
X116762500Y-208000000D03*
X118637500Y-208000000D03*
%TD*%
%TO.C,D5*%
X216762500Y-208000000D03*
X218637500Y-208000000D03*
%TD*%
%TO.C,D5*%
X16762500Y-260000000D03*
X18637500Y-260000000D03*
%TD*%
%TO.C,D5*%
X116762500Y-260000000D03*
X118637500Y-260000000D03*
%TD*%
%TO.C,D5*%
X216762500Y-260000000D03*
X218637500Y-260000000D03*
%TD*%
D14*
%TO.C,D13*%
X35637500Y-57000000D03*
X33762500Y-57000000D03*
%TD*%
%TO.C,D13*%
X135637500Y-57000000D03*
X133762500Y-57000000D03*
%TD*%
%TO.C,D13*%
X235637500Y-57000000D03*
X233762500Y-57000000D03*
%TD*%
%TO.C,D13*%
X35637500Y-109000000D03*
X33762500Y-109000000D03*
%TD*%
%TO.C,D13*%
X135637500Y-109000000D03*
X133762500Y-109000000D03*
%TD*%
%TO.C,D13*%
X235637500Y-109000000D03*
X233762500Y-109000000D03*
%TD*%
%TO.C,D13*%
X35637500Y-161000000D03*
X33762500Y-161000000D03*
%TD*%
%TO.C,D13*%
X135637500Y-161000000D03*
X133762500Y-161000000D03*
%TD*%
%TO.C,D13*%
X235637500Y-161000000D03*
X233762500Y-161000000D03*
%TD*%
%TO.C,D13*%
X35637500Y-213000000D03*
X33762500Y-213000000D03*
%TD*%
%TO.C,D13*%
X135637500Y-213000000D03*
X133762500Y-213000000D03*
%TD*%
%TO.C,D13*%
X235637500Y-213000000D03*
X233762500Y-213000000D03*
%TD*%
%TO.C,D13*%
X35637500Y-265000000D03*
X33762500Y-265000000D03*
%TD*%
%TO.C,D13*%
X135637500Y-265000000D03*
X133762500Y-265000000D03*
%TD*%
%TO.C,D13*%
X235637500Y-265000000D03*
X233762500Y-265000000D03*
%TD*%
D10*
%TO.C,D26*%
X78826000Y-43711500D03*
X78826000Y-41836500D03*
%TD*%
%TO.C,D26*%
X178826000Y-43711500D03*
X178826000Y-41836500D03*
%TD*%
%TO.C,D26*%
X278826000Y-43711500D03*
X278826000Y-41836500D03*
%TD*%
%TO.C,D26*%
X78826000Y-95711500D03*
X78826000Y-93836500D03*
%TD*%
%TO.C,D26*%
X178826000Y-95711500D03*
X178826000Y-93836500D03*
%TD*%
%TO.C,D26*%
X278826000Y-95711500D03*
X278826000Y-93836500D03*
%TD*%
%TO.C,D26*%
X78826000Y-147711500D03*
X78826000Y-145836500D03*
%TD*%
%TO.C,D26*%
X178826000Y-147711500D03*
X178826000Y-145836500D03*
%TD*%
%TO.C,D26*%
X278826000Y-147711500D03*
X278826000Y-145836500D03*
%TD*%
%TO.C,D26*%
X78826000Y-199711500D03*
X78826000Y-197836500D03*
%TD*%
%TO.C,D26*%
X178826000Y-199711500D03*
X178826000Y-197836500D03*
%TD*%
%TO.C,D26*%
X278826000Y-199711500D03*
X278826000Y-197836500D03*
%TD*%
%TO.C,D26*%
X78826000Y-251711500D03*
X78826000Y-249836500D03*
%TD*%
%TO.C,D26*%
X178826000Y-251711500D03*
X178826000Y-249836500D03*
%TD*%
%TO.C,D26*%
X278826000Y-251711500D03*
X278826000Y-249836500D03*
%TD*%
D12*
%TO.C,D1*%
X16762500Y-34000000D03*
X18637500Y-34000000D03*
%TD*%
%TO.C,D1*%
X116762500Y-34000000D03*
X118637500Y-34000000D03*
%TD*%
%TO.C,D1*%
X216762500Y-34000000D03*
X218637500Y-34000000D03*
%TD*%
%TO.C,D1*%
X16762500Y-86000000D03*
X18637500Y-86000000D03*
%TD*%
%TO.C,D1*%
X116762500Y-86000000D03*
X118637500Y-86000000D03*
%TD*%
%TO.C,D1*%
X216762500Y-86000000D03*
X218637500Y-86000000D03*
%TD*%
%TO.C,D1*%
X16762500Y-138000000D03*
X18637500Y-138000000D03*
%TD*%
%TO.C,D1*%
X116762500Y-138000000D03*
X118637500Y-138000000D03*
%TD*%
%TO.C,D1*%
X216762500Y-138000000D03*
X218637500Y-138000000D03*
%TD*%
%TO.C,D1*%
X16762500Y-190000000D03*
X18637500Y-190000000D03*
%TD*%
%TO.C,D1*%
X116762500Y-190000000D03*
X118637500Y-190000000D03*
%TD*%
%TO.C,D1*%
X216762500Y-190000000D03*
X218637500Y-190000000D03*
%TD*%
%TO.C,D1*%
X16762500Y-242000000D03*
X18637500Y-242000000D03*
%TD*%
%TO.C,D1*%
X116762500Y-242000000D03*
X118637500Y-242000000D03*
%TD*%
%TO.C,D1*%
X216762500Y-242000000D03*
X218637500Y-242000000D03*
%TD*%
D15*
%TO.C,D2*%
X10700000Y-38062500D03*
X10700000Y-39937500D03*
%TD*%
%TO.C,D2*%
X110700000Y-38062500D03*
X110700000Y-39937500D03*
%TD*%
%TO.C,D2*%
X210700000Y-38062500D03*
X210700000Y-39937500D03*
%TD*%
%TO.C,D2*%
X10700000Y-90062500D03*
X10700000Y-91937500D03*
%TD*%
%TO.C,D2*%
X110700000Y-90062500D03*
X110700000Y-91937500D03*
%TD*%
%TO.C,D2*%
X210700000Y-90062500D03*
X210700000Y-91937500D03*
%TD*%
%TO.C,D2*%
X10700000Y-142062500D03*
X10700000Y-143937500D03*
%TD*%
%TO.C,D2*%
X110700000Y-142062500D03*
X110700000Y-143937500D03*
%TD*%
%TO.C,D2*%
X210700000Y-142062500D03*
X210700000Y-143937500D03*
%TD*%
%TO.C,D2*%
X10700000Y-194062500D03*
X10700000Y-195937500D03*
%TD*%
%TO.C,D2*%
X110700000Y-194062500D03*
X110700000Y-195937500D03*
%TD*%
%TO.C,D2*%
X210700000Y-194062500D03*
X210700000Y-195937500D03*
%TD*%
%TO.C,D2*%
X10700000Y-246062500D03*
X10700000Y-247937500D03*
%TD*%
%TO.C,D2*%
X110700000Y-246062500D03*
X110700000Y-247937500D03*
%TD*%
%TO.C,D2*%
X210700000Y-246062500D03*
X210700000Y-247937500D03*
%TD*%
D16*
%TO.C,R8*%
X55500000Y-40450000D03*
X55500000Y-38800000D03*
%TD*%
%TO.C,R8*%
X155500000Y-40450000D03*
X155500000Y-38800000D03*
%TD*%
%TO.C,R8*%
X255500000Y-40450000D03*
X255500000Y-38800000D03*
%TD*%
%TO.C,R8*%
X55500000Y-92450000D03*
X55500000Y-90800000D03*
%TD*%
%TO.C,R8*%
X155500000Y-92450000D03*
X155500000Y-90800000D03*
%TD*%
%TO.C,R8*%
X255500000Y-92450000D03*
X255500000Y-90800000D03*
%TD*%
%TO.C,R8*%
X55500000Y-144450000D03*
X55500000Y-142800000D03*
%TD*%
%TO.C,R8*%
X155500000Y-144450000D03*
X155500000Y-142800000D03*
%TD*%
%TO.C,R8*%
X255500000Y-144450000D03*
X255500000Y-142800000D03*
%TD*%
%TO.C,R8*%
X55500000Y-196450000D03*
X55500000Y-194800000D03*
%TD*%
%TO.C,R8*%
X155500000Y-196450000D03*
X155500000Y-194800000D03*
%TD*%
%TO.C,R8*%
X255500000Y-196450000D03*
X255500000Y-194800000D03*
%TD*%
%TO.C,R8*%
X55500000Y-248450000D03*
X55500000Y-246800000D03*
%TD*%
%TO.C,R8*%
X155500000Y-248450000D03*
X155500000Y-246800000D03*
%TD*%
%TO.C,R8*%
X255500000Y-248450000D03*
X255500000Y-246800000D03*
%TD*%
D12*
%TO.C,D10*%
X37762500Y-52000000D03*
X39637500Y-52000000D03*
%TD*%
%TO.C,D10*%
X137762500Y-52000000D03*
X139637500Y-52000000D03*
%TD*%
%TO.C,D10*%
X237762500Y-52000000D03*
X239637500Y-52000000D03*
%TD*%
%TO.C,D10*%
X37762500Y-104000000D03*
X39637500Y-104000000D03*
%TD*%
%TO.C,D10*%
X137762500Y-104000000D03*
X139637500Y-104000000D03*
%TD*%
%TO.C,D10*%
X237762500Y-104000000D03*
X239637500Y-104000000D03*
%TD*%
%TO.C,D10*%
X37762500Y-156000000D03*
X39637500Y-156000000D03*
%TD*%
%TO.C,D10*%
X137762500Y-156000000D03*
X139637500Y-156000000D03*
%TD*%
%TO.C,D10*%
X237762500Y-156000000D03*
X239637500Y-156000000D03*
%TD*%
%TO.C,D10*%
X37762500Y-208000000D03*
X39637500Y-208000000D03*
%TD*%
%TO.C,D10*%
X137762500Y-208000000D03*
X139637500Y-208000000D03*
%TD*%
%TO.C,D10*%
X237762500Y-208000000D03*
X239637500Y-208000000D03*
%TD*%
%TO.C,D10*%
X37762500Y-260000000D03*
X39637500Y-260000000D03*
%TD*%
%TO.C,D10*%
X137762500Y-260000000D03*
X139637500Y-260000000D03*
%TD*%
%TO.C,D10*%
X237762500Y-260000000D03*
X239637500Y-260000000D03*
%TD*%
D17*
%TO.C,R12*%
X92900000Y-268600000D03*
X91250000Y-268600000D03*
%TD*%
%TO.C,R12*%
X92900000Y-60600000D03*
X91250000Y-60600000D03*
%TD*%
%TO.C,R12*%
X192900000Y-60600000D03*
X191250000Y-60600000D03*
%TD*%
%TO.C,R12*%
X292900000Y-60600000D03*
X291250000Y-60600000D03*
%TD*%
%TO.C,R12*%
X92900000Y-112600000D03*
X91250000Y-112600000D03*
%TD*%
%TO.C,R12*%
X192900000Y-112600000D03*
X191250000Y-112600000D03*
%TD*%
%TO.C,R12*%
X292900000Y-112600000D03*
X291250000Y-112600000D03*
%TD*%
%TO.C,R12*%
X92900000Y-164600000D03*
X91250000Y-164600000D03*
%TD*%
%TO.C,R12*%
X192900000Y-164600000D03*
X191250000Y-164600000D03*
%TD*%
%TO.C,R12*%
X292900000Y-164600000D03*
X291250000Y-164600000D03*
%TD*%
%TO.C,R12*%
X92900000Y-216600000D03*
X91250000Y-216600000D03*
%TD*%
%TO.C,R12*%
X192900000Y-216600000D03*
X191250000Y-216600000D03*
%TD*%
%TO.C,R12*%
X292900000Y-216600000D03*
X291250000Y-216600000D03*
%TD*%
%TO.C,R12*%
X192900000Y-268600000D03*
X191250000Y-268600000D03*
%TD*%
%TO.C,R12*%
X292900000Y-268600000D03*
X291250000Y-268600000D03*
%TD*%
D12*
%TO.C,D15*%
X59854500Y-31090000D03*
X61729500Y-31090000D03*
%TD*%
%TO.C,D15*%
X159854500Y-31090000D03*
X161729500Y-31090000D03*
%TD*%
%TO.C,D15*%
X259854500Y-31090000D03*
X261729500Y-31090000D03*
%TD*%
%TO.C,D15*%
X59854500Y-83090000D03*
X61729500Y-83090000D03*
%TD*%
%TO.C,D15*%
X159854500Y-83090000D03*
X161729500Y-83090000D03*
%TD*%
%TO.C,D15*%
X259854500Y-83090000D03*
X261729500Y-83090000D03*
%TD*%
%TO.C,D15*%
X59854500Y-135090000D03*
X61729500Y-135090000D03*
%TD*%
%TO.C,D15*%
X159854500Y-135090000D03*
X161729500Y-135090000D03*
%TD*%
%TO.C,D15*%
X259854500Y-135090000D03*
X261729500Y-135090000D03*
%TD*%
%TO.C,D15*%
X59854500Y-187090000D03*
X61729500Y-187090000D03*
%TD*%
%TO.C,D15*%
X159854500Y-187090000D03*
X161729500Y-187090000D03*
%TD*%
%TO.C,D15*%
X259854500Y-187090000D03*
X261729500Y-187090000D03*
%TD*%
%TO.C,D15*%
X59854500Y-239090000D03*
X61729500Y-239090000D03*
%TD*%
%TO.C,D15*%
X159854500Y-239090000D03*
X161729500Y-239090000D03*
%TD*%
%TO.C,D15*%
X259854500Y-239090000D03*
X261729500Y-239090000D03*
%TD*%
%TO.C,D14*%
X51762500Y-57000000D03*
X53637500Y-57000000D03*
%TD*%
%TO.C,D14*%
X151762500Y-57000000D03*
X153637500Y-57000000D03*
%TD*%
%TO.C,D14*%
X251762500Y-57000000D03*
X253637500Y-57000000D03*
%TD*%
%TO.C,D14*%
X51762500Y-109000000D03*
X53637500Y-109000000D03*
%TD*%
%TO.C,D14*%
X151762500Y-109000000D03*
X153637500Y-109000000D03*
%TD*%
%TO.C,D14*%
X251762500Y-109000000D03*
X253637500Y-109000000D03*
%TD*%
%TO.C,D14*%
X51762500Y-161000000D03*
X53637500Y-161000000D03*
%TD*%
%TO.C,D14*%
X151762500Y-161000000D03*
X153637500Y-161000000D03*
%TD*%
%TO.C,D14*%
X251762500Y-161000000D03*
X253637500Y-161000000D03*
%TD*%
%TO.C,D14*%
X51762500Y-213000000D03*
X53637500Y-213000000D03*
%TD*%
%TO.C,D14*%
X151762500Y-213000000D03*
X153637500Y-213000000D03*
%TD*%
%TO.C,D14*%
X251762500Y-213000000D03*
X253637500Y-213000000D03*
%TD*%
%TO.C,D14*%
X51762500Y-265000000D03*
X53637500Y-265000000D03*
%TD*%
%TO.C,D14*%
X151762500Y-265000000D03*
X153637500Y-265000000D03*
%TD*%
%TO.C,D14*%
X251762500Y-265000000D03*
X253637500Y-265000000D03*
%TD*%
D18*
%TO.C,C3*%
X11008000Y-45600000D03*
X11008000Y-47500000D03*
%TD*%
%TO.C,C3*%
X111008000Y-45600000D03*
X111008000Y-47500000D03*
%TD*%
%TO.C,C3*%
X211008000Y-45600000D03*
X211008000Y-47500000D03*
%TD*%
%TO.C,C3*%
X11008000Y-97600000D03*
X11008000Y-99500000D03*
%TD*%
%TO.C,C3*%
X111008000Y-97600000D03*
X111008000Y-99500000D03*
%TD*%
%TO.C,C3*%
X211008000Y-97600000D03*
X211008000Y-99500000D03*
%TD*%
%TO.C,C3*%
X11008000Y-149600000D03*
X11008000Y-151500000D03*
%TD*%
%TO.C,C3*%
X111008000Y-149600000D03*
X111008000Y-151500000D03*
%TD*%
%TO.C,C3*%
X211008000Y-149600000D03*
X211008000Y-151500000D03*
%TD*%
%TO.C,C3*%
X11008000Y-201600000D03*
X11008000Y-203500000D03*
%TD*%
%TO.C,C3*%
X111008000Y-201600000D03*
X111008000Y-203500000D03*
%TD*%
%TO.C,C3*%
X211008000Y-201600000D03*
X211008000Y-203500000D03*
%TD*%
%TO.C,C3*%
X11008000Y-253600000D03*
X11008000Y-255500000D03*
%TD*%
%TO.C,C3*%
X111008000Y-253600000D03*
X111008000Y-255500000D03*
%TD*%
%TO.C,C3*%
X211008000Y-253600000D03*
X211008000Y-255500000D03*
%TD*%
D12*
%TO.C,D11*%
X15866500Y-57002000D03*
X17637500Y-57000000D03*
%TD*%
%TO.C,D11*%
X115866500Y-57002000D03*
X117637500Y-57000000D03*
%TD*%
%TO.C,D11*%
X215866500Y-57002000D03*
X217637500Y-57000000D03*
%TD*%
%TO.C,D11*%
X15866500Y-109002000D03*
X17637500Y-109000000D03*
%TD*%
%TO.C,D11*%
X115866500Y-109002000D03*
X117637500Y-109000000D03*
%TD*%
%TO.C,D11*%
X215866500Y-109002000D03*
X217637500Y-109000000D03*
%TD*%
%TO.C,D11*%
X15866500Y-161002000D03*
X17637500Y-161000000D03*
%TD*%
%TO.C,D11*%
X115866500Y-161002000D03*
X117637500Y-161000000D03*
%TD*%
%TO.C,D11*%
X215866500Y-161002000D03*
X217637500Y-161000000D03*
%TD*%
%TO.C,D11*%
X15866500Y-213002000D03*
X17637500Y-213000000D03*
%TD*%
%TO.C,D11*%
X115866500Y-213002000D03*
X117637500Y-213000000D03*
%TD*%
%TO.C,D11*%
X215866500Y-213002000D03*
X217637500Y-213000000D03*
%TD*%
%TO.C,D11*%
X15866500Y-265002000D03*
X17637500Y-265000000D03*
%TD*%
%TO.C,D11*%
X115866500Y-265002000D03*
X117637500Y-265000000D03*
%TD*%
%TO.C,D11*%
X215866500Y-265002000D03*
X217637500Y-265000000D03*
%TD*%
D19*
%TO.C,SW1*%
X3100000Y-59200000D03*
X12200000Y-59200000D03*
X3100000Y-54700000D03*
X12200000Y-54700000D03*
%TD*%
%TO.C,SW1*%
X103100000Y-59200000D03*
X112200000Y-59200000D03*
X103100000Y-54700000D03*
X112200000Y-54700000D03*
%TD*%
%TO.C,SW1*%
X203100000Y-59200000D03*
X212200000Y-59200000D03*
X203100000Y-54700000D03*
X212200000Y-54700000D03*
%TD*%
%TO.C,SW1*%
X3100000Y-111200000D03*
X12200000Y-111200000D03*
X3100000Y-106700000D03*
X12200000Y-106700000D03*
%TD*%
%TO.C,SW1*%
X103100000Y-111200000D03*
X112200000Y-111200000D03*
X103100000Y-106700000D03*
X112200000Y-106700000D03*
%TD*%
%TO.C,SW1*%
X203100000Y-111200000D03*
X212200000Y-111200000D03*
X203100000Y-106700000D03*
X212200000Y-106700000D03*
%TD*%
%TO.C,SW1*%
X3100000Y-163200000D03*
X12200000Y-163200000D03*
X3100000Y-158700000D03*
X12200000Y-158700000D03*
%TD*%
%TO.C,SW1*%
X103100000Y-163200000D03*
X112200000Y-163200000D03*
X103100000Y-158700000D03*
X112200000Y-158700000D03*
%TD*%
%TO.C,SW1*%
X203100000Y-163200000D03*
X212200000Y-163200000D03*
X203100000Y-158700000D03*
X212200000Y-158700000D03*
%TD*%
%TO.C,SW1*%
X3100000Y-215200000D03*
X12200000Y-215200000D03*
X3100000Y-210700000D03*
X12200000Y-210700000D03*
%TD*%
%TO.C,SW1*%
X103100000Y-215200000D03*
X112200000Y-215200000D03*
X103100000Y-210700000D03*
X112200000Y-210700000D03*
%TD*%
%TO.C,SW1*%
X203100000Y-215200000D03*
X212200000Y-215200000D03*
X203100000Y-210700000D03*
X212200000Y-210700000D03*
%TD*%
%TO.C,SW1*%
X3100000Y-267200000D03*
X12200000Y-267200000D03*
X3100000Y-262700000D03*
X12200000Y-262700000D03*
%TD*%
%TO.C,SW1*%
X103100000Y-267200000D03*
X112200000Y-267200000D03*
X103100000Y-262700000D03*
X112200000Y-262700000D03*
%TD*%
%TO.C,SW1*%
X203100000Y-267200000D03*
X212200000Y-267200000D03*
X203100000Y-262700000D03*
X212200000Y-262700000D03*
%TD*%
D13*
%TO.C,Q3*%
X264414000Y-206315500D03*
X266314000Y-206315500D03*
X265364000Y-204440500D03*
%TD*%
%TO.C,Q3*%
X64414000Y-258315500D03*
X66314000Y-258315500D03*
X65364000Y-256440500D03*
%TD*%
%TO.C,Q3*%
X164414000Y-258315500D03*
X166314000Y-258315500D03*
X165364000Y-256440500D03*
%TD*%
%TO.C,Q3*%
X264414000Y-258315500D03*
X266314000Y-258315500D03*
X265364000Y-256440500D03*
%TD*%
%TO.C,Q3*%
X64414000Y-50315500D03*
X66314000Y-50315500D03*
X65364000Y-48440500D03*
%TD*%
%TO.C,Q3*%
X164414000Y-50315500D03*
X166314000Y-50315500D03*
X165364000Y-48440500D03*
%TD*%
%TO.C,Q3*%
X264414000Y-50315500D03*
X266314000Y-50315500D03*
X265364000Y-48440500D03*
%TD*%
%TO.C,Q3*%
X64414000Y-102315500D03*
X66314000Y-102315500D03*
X65364000Y-100440500D03*
%TD*%
%TO.C,Q3*%
X164414000Y-102315500D03*
X166314000Y-102315500D03*
X165364000Y-100440500D03*
%TD*%
%TO.C,Q3*%
X264414000Y-102315500D03*
X266314000Y-102315500D03*
X265364000Y-100440500D03*
%TD*%
%TO.C,Q3*%
X64414000Y-154315500D03*
X66314000Y-154315500D03*
X65364000Y-152440500D03*
%TD*%
%TO.C,Q3*%
X164414000Y-154315500D03*
X166314000Y-154315500D03*
X165364000Y-152440500D03*
%TD*%
%TO.C,Q3*%
X264414000Y-154315500D03*
X266314000Y-154315500D03*
X265364000Y-152440500D03*
%TD*%
%TO.C,Q3*%
X64414000Y-206315500D03*
X66314000Y-206315500D03*
X65364000Y-204440500D03*
%TD*%
%TO.C,Q3*%
X164414000Y-206315500D03*
X166314000Y-206315500D03*
X165364000Y-204440500D03*
%TD*%
D20*
%TO.C,R2*%
X31300000Y-57950000D03*
X31300000Y-59600000D03*
%TD*%
%TO.C,R2*%
X131300000Y-57950000D03*
X131300000Y-59600000D03*
%TD*%
%TO.C,R2*%
X231300000Y-57950000D03*
X231300000Y-59600000D03*
%TD*%
%TO.C,R2*%
X31300000Y-109950000D03*
X31300000Y-111600000D03*
%TD*%
%TO.C,R2*%
X131300000Y-109950000D03*
X131300000Y-111600000D03*
%TD*%
%TO.C,R2*%
X231300000Y-109950000D03*
X231300000Y-111600000D03*
%TD*%
%TO.C,R2*%
X31300000Y-161950000D03*
X31300000Y-163600000D03*
%TD*%
%TO.C,R2*%
X131300000Y-161950000D03*
X131300000Y-163600000D03*
%TD*%
%TO.C,R2*%
X231300000Y-161950000D03*
X231300000Y-163600000D03*
%TD*%
%TO.C,R2*%
X31300000Y-213950000D03*
X31300000Y-215600000D03*
%TD*%
%TO.C,R2*%
X131300000Y-213950000D03*
X131300000Y-215600000D03*
%TD*%
%TO.C,R2*%
X231300000Y-213950000D03*
X231300000Y-215600000D03*
%TD*%
%TO.C,R2*%
X31300000Y-265950000D03*
X31300000Y-267600000D03*
%TD*%
%TO.C,R2*%
X131300000Y-265950000D03*
X131300000Y-267600000D03*
%TD*%
%TO.C,R2*%
X231300000Y-265950000D03*
X231300000Y-267600000D03*
%TD*%
D21*
%TO.C,L4*%
X225300000Y-270600000D03*
X223150000Y-270600000D03*
%TD*%
%TO.C,L4*%
X25300000Y-62600000D03*
X23150000Y-62600000D03*
%TD*%
%TO.C,L4*%
X125300000Y-62600000D03*
X123150000Y-62600000D03*
%TD*%
%TO.C,L4*%
X225300000Y-62600000D03*
X223150000Y-62600000D03*
%TD*%
%TO.C,L4*%
X25300000Y-114600000D03*
X23150000Y-114600000D03*
%TD*%
%TO.C,L4*%
X125300000Y-114600000D03*
X123150000Y-114600000D03*
%TD*%
%TO.C,L4*%
X225300000Y-114600000D03*
X223150000Y-114600000D03*
%TD*%
%TO.C,L4*%
X25300000Y-166600000D03*
X23150000Y-166600000D03*
%TD*%
%TO.C,L4*%
X125300000Y-166600000D03*
X123150000Y-166600000D03*
%TD*%
%TO.C,L4*%
X225300000Y-166600000D03*
X223150000Y-166600000D03*
%TD*%
%TO.C,L4*%
X25300000Y-218600000D03*
X23150000Y-218600000D03*
%TD*%
%TO.C,L4*%
X125300000Y-218600000D03*
X123150000Y-218600000D03*
%TD*%
%TO.C,L4*%
X225300000Y-218600000D03*
X223150000Y-218600000D03*
%TD*%
%TO.C,L4*%
X25300000Y-270600000D03*
X23150000Y-270600000D03*
%TD*%
%TO.C,L4*%
X125300000Y-270600000D03*
X123150000Y-270600000D03*
%TD*%
D12*
%TO.C,D27*%
X82206500Y-46076000D03*
X84081500Y-46076000D03*
%TD*%
%TO.C,D27*%
X182206500Y-46076000D03*
X184081500Y-46076000D03*
%TD*%
%TO.C,D27*%
X282206500Y-46076000D03*
X284081500Y-46076000D03*
%TD*%
%TO.C,D27*%
X82206500Y-98076000D03*
X84081500Y-98076000D03*
%TD*%
%TO.C,D27*%
X182206500Y-98076000D03*
X184081500Y-98076000D03*
%TD*%
%TO.C,D27*%
X282206500Y-98076000D03*
X284081500Y-98076000D03*
%TD*%
%TO.C,D27*%
X82206500Y-150076000D03*
X84081500Y-150076000D03*
%TD*%
%TO.C,D27*%
X182206500Y-150076000D03*
X184081500Y-150076000D03*
%TD*%
%TO.C,D27*%
X282206500Y-150076000D03*
X284081500Y-150076000D03*
%TD*%
%TO.C,D27*%
X82206500Y-202076000D03*
X84081500Y-202076000D03*
%TD*%
%TO.C,D27*%
X182206500Y-202076000D03*
X184081500Y-202076000D03*
%TD*%
%TO.C,D27*%
X282206500Y-202076000D03*
X284081500Y-202076000D03*
%TD*%
%TO.C,D27*%
X82206500Y-254076000D03*
X84081500Y-254076000D03*
%TD*%
%TO.C,D27*%
X182206500Y-254076000D03*
X184081500Y-254076000D03*
%TD*%
%TO.C,D27*%
X282206500Y-254076000D03*
X284081500Y-254076000D03*
%TD*%
D13*
%TO.C,Q4*%
X85150000Y-62737500D03*
X87050000Y-62737500D03*
X86100000Y-60862500D03*
%TD*%
%TO.C,Q4*%
X185150000Y-62737500D03*
X187050000Y-62737500D03*
X186100000Y-60862500D03*
%TD*%
%TO.C,Q4*%
X285150000Y-62737500D03*
X287050000Y-62737500D03*
X286100000Y-60862500D03*
%TD*%
%TO.C,Q4*%
X85150000Y-114737500D03*
X87050000Y-114737500D03*
X86100000Y-112862500D03*
%TD*%
%TO.C,Q4*%
X185150000Y-114737500D03*
X187050000Y-114737500D03*
X186100000Y-112862500D03*
%TD*%
%TO.C,Q4*%
X285150000Y-114737500D03*
X287050000Y-114737500D03*
X286100000Y-112862500D03*
%TD*%
%TO.C,Q4*%
X85150000Y-166737500D03*
X87050000Y-166737500D03*
X86100000Y-164862500D03*
%TD*%
%TO.C,Q4*%
X185150000Y-166737500D03*
X187050000Y-166737500D03*
X186100000Y-164862500D03*
%TD*%
%TO.C,Q4*%
X285150000Y-166737500D03*
X287050000Y-166737500D03*
X286100000Y-164862500D03*
%TD*%
%TO.C,Q4*%
X85150000Y-218737500D03*
X87050000Y-218737500D03*
X86100000Y-216862500D03*
%TD*%
%TO.C,Q4*%
X185150000Y-218737500D03*
X187050000Y-218737500D03*
X186100000Y-216862500D03*
%TD*%
%TO.C,Q4*%
X285150000Y-218737500D03*
X287050000Y-218737500D03*
X286100000Y-216862500D03*
%TD*%
%TO.C,Q4*%
X85150000Y-270737500D03*
X87050000Y-270737500D03*
X86100000Y-268862500D03*
%TD*%
%TO.C,Q4*%
X185150000Y-270737500D03*
X187050000Y-270737500D03*
X186100000Y-268862500D03*
%TD*%
%TO.C,Q4*%
X285150000Y-270737500D03*
X287050000Y-270737500D03*
X286100000Y-268862500D03*
%TD*%
D12*
%TO.C,D6*%
X37762500Y-34000000D03*
X39637500Y-34000000D03*
%TD*%
%TO.C,D6*%
X137762500Y-34000000D03*
X139637500Y-34000000D03*
%TD*%
%TO.C,D6*%
X237762500Y-34000000D03*
X239637500Y-34000000D03*
%TD*%
%TO.C,D6*%
X37762500Y-86000000D03*
X39637500Y-86000000D03*
%TD*%
%TO.C,D6*%
X137762500Y-86000000D03*
X139637500Y-86000000D03*
%TD*%
%TO.C,D6*%
X237762500Y-86000000D03*
X239637500Y-86000000D03*
%TD*%
%TO.C,D6*%
X37762500Y-138000000D03*
X39637500Y-138000000D03*
%TD*%
%TO.C,D6*%
X137762500Y-138000000D03*
X139637500Y-138000000D03*
%TD*%
%TO.C,D6*%
X237762500Y-138000000D03*
X239637500Y-138000000D03*
%TD*%
%TO.C,D6*%
X37762500Y-190000000D03*
X39637500Y-190000000D03*
%TD*%
%TO.C,D6*%
X137762500Y-190000000D03*
X139637500Y-190000000D03*
%TD*%
%TO.C,D6*%
X237762500Y-190000000D03*
X239637500Y-190000000D03*
%TD*%
%TO.C,D6*%
X37762500Y-242000000D03*
X39637500Y-242000000D03*
%TD*%
%TO.C,D6*%
X137762500Y-242000000D03*
X139637500Y-242000000D03*
%TD*%
%TO.C,D6*%
X237762500Y-242000000D03*
X239637500Y-242000000D03*
%TD*%
D10*
%TO.C,D24*%
X68920000Y-42695500D03*
X68920000Y-40820500D03*
%TD*%
%TO.C,D24*%
X168920000Y-42695500D03*
X168920000Y-40820500D03*
%TD*%
%TO.C,D24*%
X268920000Y-42695500D03*
X268920000Y-40820500D03*
%TD*%
%TO.C,D24*%
X68920000Y-94695500D03*
X68920000Y-92820500D03*
%TD*%
%TO.C,D24*%
X168920000Y-94695500D03*
X168920000Y-92820500D03*
%TD*%
%TO.C,D24*%
X268920000Y-94695500D03*
X268920000Y-92820500D03*
%TD*%
%TO.C,D24*%
X68920000Y-146695500D03*
X68920000Y-144820500D03*
%TD*%
%TO.C,D24*%
X168920000Y-146695500D03*
X168920000Y-144820500D03*
%TD*%
%TO.C,D24*%
X268920000Y-146695500D03*
X268920000Y-144820500D03*
%TD*%
%TO.C,D24*%
X68920000Y-198695500D03*
X68920000Y-196820500D03*
%TD*%
%TO.C,D24*%
X168920000Y-198695500D03*
X168920000Y-196820500D03*
%TD*%
%TO.C,D24*%
X268920000Y-198695500D03*
X268920000Y-196820500D03*
%TD*%
%TO.C,D24*%
X68920000Y-250695500D03*
X68920000Y-248820500D03*
%TD*%
%TO.C,D24*%
X168920000Y-250695500D03*
X168920000Y-248820500D03*
%TD*%
%TO.C,D24*%
X268920000Y-250695500D03*
X268920000Y-248820500D03*
%TD*%
D15*
%TO.C,D7*%
X31700000Y-38062500D03*
X31700000Y-39937500D03*
%TD*%
%TO.C,D7*%
X131700000Y-38062500D03*
X131700000Y-39937500D03*
%TD*%
%TO.C,D7*%
X231700000Y-38062500D03*
X231700000Y-39937500D03*
%TD*%
%TO.C,D7*%
X31700000Y-90062500D03*
X31700000Y-91937500D03*
%TD*%
%TO.C,D7*%
X131700000Y-90062500D03*
X131700000Y-91937500D03*
%TD*%
%TO.C,D7*%
X231700000Y-90062500D03*
X231700000Y-91937500D03*
%TD*%
%TO.C,D7*%
X31700000Y-142062500D03*
X31700000Y-143937500D03*
%TD*%
%TO.C,D7*%
X131700000Y-142062500D03*
X131700000Y-143937500D03*
%TD*%
%TO.C,D7*%
X231700000Y-142062500D03*
X231700000Y-143937500D03*
%TD*%
%TO.C,D7*%
X31700000Y-194062500D03*
X31700000Y-195937500D03*
%TD*%
%TO.C,D7*%
X131700000Y-194062500D03*
X131700000Y-195937500D03*
%TD*%
%TO.C,D7*%
X231700000Y-194062500D03*
X231700000Y-195937500D03*
%TD*%
%TO.C,D7*%
X31700000Y-246062500D03*
X31700000Y-247937500D03*
%TD*%
%TO.C,D7*%
X131700000Y-246062500D03*
X131700000Y-247937500D03*
%TD*%
%TO.C,D7*%
X231700000Y-246062500D03*
X231700000Y-247937500D03*
%TD*%
D11*
%TO.C,L1*%
X65364000Y-46135000D03*
X65364000Y-43985000D03*
%TD*%
%TO.C,L1*%
X165364000Y-46135000D03*
X165364000Y-43985000D03*
%TD*%
%TO.C,L1*%
X265364000Y-46135000D03*
X265364000Y-43985000D03*
%TD*%
%TO.C,L1*%
X65364000Y-98135000D03*
X65364000Y-95985000D03*
%TD*%
%TO.C,L1*%
X165364000Y-98135000D03*
X165364000Y-95985000D03*
%TD*%
%TO.C,L1*%
X265364000Y-98135000D03*
X265364000Y-95985000D03*
%TD*%
%TO.C,L1*%
X65364000Y-150135000D03*
X65364000Y-147985000D03*
%TD*%
%TO.C,L1*%
X165364000Y-150135000D03*
X165364000Y-147985000D03*
%TD*%
%TO.C,L1*%
X265364000Y-150135000D03*
X265364000Y-147985000D03*
%TD*%
%TO.C,L1*%
X65364000Y-202135000D03*
X65364000Y-199985000D03*
%TD*%
%TO.C,L1*%
X165364000Y-202135000D03*
X165364000Y-199985000D03*
%TD*%
%TO.C,L1*%
X265364000Y-202135000D03*
X265364000Y-199985000D03*
%TD*%
%TO.C,L1*%
X65364000Y-254135000D03*
X65364000Y-251985000D03*
%TD*%
%TO.C,L1*%
X165364000Y-254135000D03*
X165364000Y-251985000D03*
%TD*%
%TO.C,L1*%
X265364000Y-254135000D03*
X265364000Y-251985000D03*
%TD*%
D22*
%TO.C,U1*%
X58336800Y-57582200D03*
X58336800Y-58852200D03*
X58336800Y-60122200D03*
X58336800Y-61392200D03*
X58336800Y-62662200D03*
X58336800Y-63932200D03*
X58336800Y-65202200D03*
X58336800Y-66472200D03*
X63636800Y-66472200D03*
X63636800Y-65202200D03*
X63636800Y-63932200D03*
X63636800Y-62662200D03*
X63636800Y-61392200D03*
X63636800Y-60122200D03*
X63636800Y-58852200D03*
X63636800Y-57582200D03*
%TD*%
%TO.C,U1*%
X158336800Y-57582200D03*
X158336800Y-58852200D03*
X158336800Y-60122200D03*
X158336800Y-61392200D03*
X158336800Y-62662200D03*
X158336800Y-63932200D03*
X158336800Y-65202200D03*
X158336800Y-66472200D03*
X163636800Y-66472200D03*
X163636800Y-65202200D03*
X163636800Y-63932200D03*
X163636800Y-62662200D03*
X163636800Y-61392200D03*
X163636800Y-60122200D03*
X163636800Y-58852200D03*
X163636800Y-57582200D03*
%TD*%
%TO.C,U1*%
X258336800Y-57582200D03*
X258336800Y-58852200D03*
X258336800Y-60122200D03*
X258336800Y-61392200D03*
X258336800Y-62662200D03*
X258336800Y-63932200D03*
X258336800Y-65202200D03*
X258336800Y-66472200D03*
X263636800Y-66472200D03*
X263636800Y-65202200D03*
X263636800Y-63932200D03*
X263636800Y-62662200D03*
X263636800Y-61392200D03*
X263636800Y-60122200D03*
X263636800Y-58852200D03*
X263636800Y-57582200D03*
%TD*%
%TO.C,U1*%
X58336800Y-109582200D03*
X58336800Y-110852200D03*
X58336800Y-112122200D03*
X58336800Y-113392200D03*
X58336800Y-114662200D03*
X58336800Y-115932200D03*
X58336800Y-117202200D03*
X58336800Y-118472200D03*
X63636800Y-118472200D03*
X63636800Y-117202200D03*
X63636800Y-115932200D03*
X63636800Y-114662200D03*
X63636800Y-113392200D03*
X63636800Y-112122200D03*
X63636800Y-110852200D03*
X63636800Y-109582200D03*
%TD*%
%TO.C,U1*%
X158336800Y-109582200D03*
X158336800Y-110852200D03*
X158336800Y-112122200D03*
X158336800Y-113392200D03*
X158336800Y-114662200D03*
X158336800Y-115932200D03*
X158336800Y-117202200D03*
X158336800Y-118472200D03*
X163636800Y-118472200D03*
X163636800Y-117202200D03*
X163636800Y-115932200D03*
X163636800Y-114662200D03*
X163636800Y-113392200D03*
X163636800Y-112122200D03*
X163636800Y-110852200D03*
X163636800Y-109582200D03*
%TD*%
%TO.C,U1*%
X258336800Y-109582200D03*
X258336800Y-110852200D03*
X258336800Y-112122200D03*
X258336800Y-113392200D03*
X258336800Y-114662200D03*
X258336800Y-115932200D03*
X258336800Y-117202200D03*
X258336800Y-118472200D03*
X263636800Y-118472200D03*
X263636800Y-117202200D03*
X263636800Y-115932200D03*
X263636800Y-114662200D03*
X263636800Y-113392200D03*
X263636800Y-112122200D03*
X263636800Y-110852200D03*
X263636800Y-109582200D03*
%TD*%
%TO.C,U1*%
X58336800Y-161582200D03*
X58336800Y-162852200D03*
X58336800Y-164122200D03*
X58336800Y-165392200D03*
X58336800Y-166662200D03*
X58336800Y-167932200D03*
X58336800Y-169202200D03*
X58336800Y-170472200D03*
X63636800Y-170472200D03*
X63636800Y-169202200D03*
X63636800Y-167932200D03*
X63636800Y-166662200D03*
X63636800Y-165392200D03*
X63636800Y-164122200D03*
X63636800Y-162852200D03*
X63636800Y-161582200D03*
%TD*%
%TO.C,U1*%
X158336800Y-161582200D03*
X158336800Y-162852200D03*
X158336800Y-164122200D03*
X158336800Y-165392200D03*
X158336800Y-166662200D03*
X158336800Y-167932200D03*
X158336800Y-169202200D03*
X158336800Y-170472200D03*
X163636800Y-170472200D03*
X163636800Y-169202200D03*
X163636800Y-167932200D03*
X163636800Y-166662200D03*
X163636800Y-165392200D03*
X163636800Y-164122200D03*
X163636800Y-162852200D03*
X163636800Y-161582200D03*
%TD*%
%TO.C,U1*%
X258336800Y-161582200D03*
X258336800Y-162852200D03*
X258336800Y-164122200D03*
X258336800Y-165392200D03*
X258336800Y-166662200D03*
X258336800Y-167932200D03*
X258336800Y-169202200D03*
X258336800Y-170472200D03*
X263636800Y-170472200D03*
X263636800Y-169202200D03*
X263636800Y-167932200D03*
X263636800Y-166662200D03*
X263636800Y-165392200D03*
X263636800Y-164122200D03*
X263636800Y-162852200D03*
X263636800Y-161582200D03*
%TD*%
%TO.C,U1*%
X58336800Y-213582200D03*
X58336800Y-214852200D03*
X58336800Y-216122200D03*
X58336800Y-217392200D03*
X58336800Y-218662200D03*
X58336800Y-219932200D03*
X58336800Y-221202200D03*
X58336800Y-222472200D03*
X63636800Y-222472200D03*
X63636800Y-221202200D03*
X63636800Y-219932200D03*
X63636800Y-218662200D03*
X63636800Y-217392200D03*
X63636800Y-216122200D03*
X63636800Y-214852200D03*
X63636800Y-213582200D03*
%TD*%
%TO.C,U1*%
X158336800Y-213582200D03*
X158336800Y-214852200D03*
X158336800Y-216122200D03*
X158336800Y-217392200D03*
X158336800Y-218662200D03*
X158336800Y-219932200D03*
X158336800Y-221202200D03*
X158336800Y-222472200D03*
X163636800Y-222472200D03*
X163636800Y-221202200D03*
X163636800Y-219932200D03*
X163636800Y-218662200D03*
X163636800Y-217392200D03*
X163636800Y-216122200D03*
X163636800Y-214852200D03*
X163636800Y-213582200D03*
%TD*%
%TO.C,U1*%
X258336800Y-213582200D03*
X258336800Y-214852200D03*
X258336800Y-216122200D03*
X258336800Y-217392200D03*
X258336800Y-218662200D03*
X258336800Y-219932200D03*
X258336800Y-221202200D03*
X258336800Y-222472200D03*
X263636800Y-222472200D03*
X263636800Y-221202200D03*
X263636800Y-219932200D03*
X263636800Y-218662200D03*
X263636800Y-217392200D03*
X263636800Y-216122200D03*
X263636800Y-214852200D03*
X263636800Y-213582200D03*
%TD*%
%TO.C,U1*%
X58336800Y-265582200D03*
X58336800Y-266852200D03*
X58336800Y-268122200D03*
X58336800Y-269392200D03*
X58336800Y-270662200D03*
X58336800Y-271932200D03*
X58336800Y-273202200D03*
X58336800Y-274472200D03*
X63636800Y-274472200D03*
X63636800Y-273202200D03*
X63636800Y-271932200D03*
X63636800Y-270662200D03*
X63636800Y-269392200D03*
X63636800Y-268122200D03*
X63636800Y-266852200D03*
X63636800Y-265582200D03*
%TD*%
%TO.C,U1*%
X158336800Y-265582200D03*
X158336800Y-266852200D03*
X158336800Y-268122200D03*
X158336800Y-269392200D03*
X158336800Y-270662200D03*
X158336800Y-271932200D03*
X158336800Y-273202200D03*
X158336800Y-274472200D03*
X163636800Y-274472200D03*
X163636800Y-273202200D03*
X163636800Y-271932200D03*
X163636800Y-270662200D03*
X163636800Y-269392200D03*
X163636800Y-268122200D03*
X163636800Y-266852200D03*
X163636800Y-265582200D03*
%TD*%
%TO.C,U1*%
X258336800Y-265582200D03*
X258336800Y-266852200D03*
X258336800Y-268122200D03*
X258336800Y-269392200D03*
X258336800Y-270662200D03*
X258336800Y-271932200D03*
X258336800Y-273202200D03*
X258336800Y-274472200D03*
X263636800Y-274472200D03*
X263636800Y-273202200D03*
X263636800Y-271932200D03*
X263636800Y-270662200D03*
X263636800Y-269392200D03*
X263636800Y-268122200D03*
X263636800Y-266852200D03*
X263636800Y-265582200D03*
%TD*%
D12*
%TO.C,D29*%
X81762500Y-53188000D03*
X83637500Y-53188000D03*
%TD*%
%TO.C,D29*%
X181762500Y-53188000D03*
X183637500Y-53188000D03*
%TD*%
%TO.C,D29*%
X281762500Y-53188000D03*
X283637500Y-53188000D03*
%TD*%
%TO.C,D29*%
X81762500Y-105188000D03*
X83637500Y-105188000D03*
%TD*%
%TO.C,D29*%
X181762500Y-105188000D03*
X183637500Y-105188000D03*
%TD*%
%TO.C,D29*%
X281762500Y-105188000D03*
X283637500Y-105188000D03*
%TD*%
%TO.C,D29*%
X81762500Y-157188000D03*
X83637500Y-157188000D03*
%TD*%
%TO.C,D29*%
X181762500Y-157188000D03*
X183637500Y-157188000D03*
%TD*%
%TO.C,D29*%
X281762500Y-157188000D03*
X283637500Y-157188000D03*
%TD*%
%TO.C,D29*%
X81762500Y-209188000D03*
X83637500Y-209188000D03*
%TD*%
%TO.C,D29*%
X181762500Y-209188000D03*
X183637500Y-209188000D03*
%TD*%
%TO.C,D29*%
X281762500Y-209188000D03*
X283637500Y-209188000D03*
%TD*%
%TO.C,D29*%
X81762500Y-261188000D03*
X83637500Y-261188000D03*
%TD*%
%TO.C,D29*%
X181762500Y-261188000D03*
X183637500Y-261188000D03*
%TD*%
%TO.C,D29*%
X281762500Y-261188000D03*
X283637500Y-261188000D03*
%TD*%
D17*
%TO.C,R5*%
X72793000Y-53950000D03*
X71143000Y-53950000D03*
%TD*%
%TO.C,R5*%
X172793000Y-53950000D03*
X171143000Y-53950000D03*
%TD*%
%TO.C,R5*%
X272793000Y-53950000D03*
X271143000Y-53950000D03*
%TD*%
%TO.C,R5*%
X72793000Y-105950000D03*
X71143000Y-105950000D03*
%TD*%
%TO.C,R5*%
X172793000Y-105950000D03*
X171143000Y-105950000D03*
%TD*%
%TO.C,R5*%
X272793000Y-105950000D03*
X271143000Y-105950000D03*
%TD*%
%TO.C,R5*%
X72793000Y-157950000D03*
X71143000Y-157950000D03*
%TD*%
%TO.C,R5*%
X172793000Y-157950000D03*
X171143000Y-157950000D03*
%TD*%
%TO.C,R5*%
X272793000Y-157950000D03*
X271143000Y-157950000D03*
%TD*%
%TO.C,R5*%
X72793000Y-209950000D03*
X71143000Y-209950000D03*
%TD*%
%TO.C,R5*%
X172793000Y-209950000D03*
X171143000Y-209950000D03*
%TD*%
%TO.C,R5*%
X272793000Y-209950000D03*
X271143000Y-209950000D03*
%TD*%
%TO.C,R5*%
X72793000Y-261950000D03*
X71143000Y-261950000D03*
%TD*%
%TO.C,R5*%
X172793000Y-261950000D03*
X171143000Y-261950000D03*
%TD*%
%TO.C,R5*%
X272793000Y-261950000D03*
X271143000Y-261950000D03*
%TD*%
D15*
%TO.C,D9*%
X31700000Y-47062500D03*
X31700000Y-48937500D03*
%TD*%
%TO.C,D9*%
X131700000Y-47062500D03*
X131700000Y-48937500D03*
%TD*%
%TO.C,D9*%
X231700000Y-47062500D03*
X231700000Y-48937500D03*
%TD*%
%TO.C,D9*%
X31700000Y-99062500D03*
X31700000Y-100937500D03*
%TD*%
%TO.C,D9*%
X131700000Y-99062500D03*
X131700000Y-100937500D03*
%TD*%
%TO.C,D9*%
X231700000Y-99062500D03*
X231700000Y-100937500D03*
%TD*%
%TO.C,D9*%
X31700000Y-151062500D03*
X31700000Y-152937500D03*
%TD*%
%TO.C,D9*%
X131700000Y-151062500D03*
X131700000Y-152937500D03*
%TD*%
%TO.C,D9*%
X231700000Y-151062500D03*
X231700000Y-152937500D03*
%TD*%
%TO.C,D9*%
X31700000Y-203062500D03*
X31700000Y-204937500D03*
%TD*%
%TO.C,D9*%
X131700000Y-203062500D03*
X131700000Y-204937500D03*
%TD*%
%TO.C,D9*%
X231700000Y-203062500D03*
X231700000Y-204937500D03*
%TD*%
%TO.C,D9*%
X31700000Y-255062500D03*
X31700000Y-256937500D03*
%TD*%
%TO.C,D9*%
X131700000Y-255062500D03*
X131700000Y-256937500D03*
%TD*%
%TO.C,D9*%
X231700000Y-255062500D03*
X231700000Y-256937500D03*
%TD*%
D17*
%TO.C,R1*%
X43075000Y-62998500D03*
X41425000Y-62998500D03*
%TD*%
%TO.C,R1*%
X143075000Y-62998500D03*
X141425000Y-62998500D03*
%TD*%
%TO.C,R1*%
X243075000Y-62998500D03*
X241425000Y-62998500D03*
%TD*%
%TO.C,R1*%
X43075000Y-114998500D03*
X41425000Y-114998500D03*
%TD*%
%TO.C,R1*%
X143075000Y-114998500D03*
X141425000Y-114998500D03*
%TD*%
%TO.C,R1*%
X243075000Y-114998500D03*
X241425000Y-114998500D03*
%TD*%
%TO.C,R1*%
X43075000Y-166998500D03*
X41425000Y-166998500D03*
%TD*%
%TO.C,R1*%
X143075000Y-166998500D03*
X141425000Y-166998500D03*
%TD*%
%TO.C,R1*%
X243075000Y-166998500D03*
X241425000Y-166998500D03*
%TD*%
%TO.C,R1*%
X43075000Y-218998500D03*
X41425000Y-218998500D03*
%TD*%
%TO.C,R1*%
X143075000Y-218998500D03*
X141425000Y-218998500D03*
%TD*%
%TO.C,R1*%
X243075000Y-218998500D03*
X241425000Y-218998500D03*
%TD*%
%TO.C,R1*%
X43075000Y-270998500D03*
X41425000Y-270998500D03*
%TD*%
%TO.C,R1*%
X143075000Y-270998500D03*
X141425000Y-270998500D03*
%TD*%
%TO.C,R1*%
X243075000Y-270998500D03*
X241425000Y-270998500D03*
%TD*%
D10*
%TO.C,D23*%
X52664000Y-43965500D03*
X52664000Y-42090500D03*
%TD*%
%TO.C,D23*%
X152664000Y-43965500D03*
X152664000Y-42090500D03*
%TD*%
%TO.C,D23*%
X252664000Y-43965500D03*
X252664000Y-42090500D03*
%TD*%
%TO.C,D23*%
X52664000Y-95965500D03*
X52664000Y-94090500D03*
%TD*%
%TO.C,D23*%
X152664000Y-95965500D03*
X152664000Y-94090500D03*
%TD*%
%TO.C,D23*%
X252664000Y-95965500D03*
X252664000Y-94090500D03*
%TD*%
%TO.C,D23*%
X52664000Y-147965500D03*
X52664000Y-146090500D03*
%TD*%
%TO.C,D23*%
X152664000Y-147965500D03*
X152664000Y-146090500D03*
%TD*%
%TO.C,D23*%
X252664000Y-147965500D03*
X252664000Y-146090500D03*
%TD*%
%TO.C,D23*%
X52664000Y-199965500D03*
X52664000Y-198090500D03*
%TD*%
%TO.C,D23*%
X152664000Y-199965500D03*
X152664000Y-198090500D03*
%TD*%
%TO.C,D23*%
X252664000Y-199965500D03*
X252664000Y-198090500D03*
%TD*%
%TO.C,D23*%
X52664000Y-251965500D03*
X52664000Y-250090500D03*
%TD*%
%TO.C,D23*%
X152664000Y-251965500D03*
X152664000Y-250090500D03*
%TD*%
%TO.C,D23*%
X252664000Y-251965500D03*
X252664000Y-250090500D03*
%TD*%
D15*
%TO.C,D12*%
X60792000Y-50472500D03*
X60792000Y-52347500D03*
%TD*%
%TO.C,D12*%
X160792000Y-50472500D03*
X160792000Y-52347500D03*
%TD*%
%TO.C,D12*%
X260792000Y-50472500D03*
X260792000Y-52347500D03*
%TD*%
%TO.C,D12*%
X60792000Y-102472500D03*
X60792000Y-104347500D03*
%TD*%
%TO.C,D12*%
X160792000Y-102472500D03*
X160792000Y-104347500D03*
%TD*%
%TO.C,D12*%
X260792000Y-102472500D03*
X260792000Y-104347500D03*
%TD*%
%TO.C,D12*%
X60792000Y-154472500D03*
X60792000Y-156347500D03*
%TD*%
%TO.C,D12*%
X160792000Y-154472500D03*
X160792000Y-156347500D03*
%TD*%
%TO.C,D12*%
X260792000Y-154472500D03*
X260792000Y-156347500D03*
%TD*%
%TO.C,D12*%
X60792000Y-206472500D03*
X60792000Y-208347500D03*
%TD*%
%TO.C,D12*%
X160792000Y-206472500D03*
X160792000Y-208347500D03*
%TD*%
%TO.C,D12*%
X260792000Y-206472500D03*
X260792000Y-208347500D03*
%TD*%
%TO.C,D12*%
X60792000Y-258472500D03*
X60792000Y-260347500D03*
%TD*%
%TO.C,D12*%
X160792000Y-258472500D03*
X160792000Y-260347500D03*
%TD*%
%TO.C,D12*%
X260792000Y-258472500D03*
X260792000Y-260347500D03*
%TD*%
D23*
%TO.C,Q1*%
X29300000Y-63575000D03*
X29300000Y-61675000D03*
X27425000Y-62625000D03*
%TD*%
%TO.C,Q1*%
X129300000Y-63575000D03*
X129300000Y-61675000D03*
X127425000Y-62625000D03*
%TD*%
%TO.C,Q1*%
X229300000Y-63575000D03*
X229300000Y-61675000D03*
X227425000Y-62625000D03*
%TD*%
%TO.C,Q1*%
X29300000Y-115575000D03*
X29300000Y-113675000D03*
X27425000Y-114625000D03*
%TD*%
%TO.C,Q1*%
X129300000Y-115575000D03*
X129300000Y-113675000D03*
X127425000Y-114625000D03*
%TD*%
%TO.C,Q1*%
X229300000Y-115575000D03*
X229300000Y-113675000D03*
X227425000Y-114625000D03*
%TD*%
%TO.C,Q1*%
X29300000Y-167575000D03*
X29300000Y-165675000D03*
X27425000Y-166625000D03*
%TD*%
%TO.C,Q1*%
X129300000Y-167575000D03*
X129300000Y-165675000D03*
X127425000Y-166625000D03*
%TD*%
%TO.C,Q1*%
X229300000Y-167575000D03*
X229300000Y-165675000D03*
X227425000Y-166625000D03*
%TD*%
%TO.C,Q1*%
X29300000Y-219575000D03*
X29300000Y-217675000D03*
X27425000Y-218625000D03*
%TD*%
%TO.C,Q1*%
X129300000Y-219575000D03*
X129300000Y-217675000D03*
X127425000Y-218625000D03*
%TD*%
%TO.C,Q1*%
X229300000Y-219575000D03*
X229300000Y-217675000D03*
X227425000Y-218625000D03*
%TD*%
%TO.C,Q1*%
X29300000Y-271575000D03*
X29300000Y-269675000D03*
X27425000Y-270625000D03*
%TD*%
%TO.C,Q1*%
X129300000Y-271575000D03*
X129300000Y-269675000D03*
X127425000Y-270625000D03*
%TD*%
%TO.C,Q1*%
X229300000Y-271575000D03*
X229300000Y-269675000D03*
X227425000Y-270625000D03*
%TD*%
D18*
%TO.C,C4*%
X14300000Y-45600000D03*
X14300000Y-47500000D03*
%TD*%
%TO.C,C4*%
X114300000Y-45600000D03*
X114300000Y-47500000D03*
%TD*%
%TO.C,C4*%
X214300000Y-45600000D03*
X214300000Y-47500000D03*
%TD*%
%TO.C,C4*%
X14300000Y-97600000D03*
X14300000Y-99500000D03*
%TD*%
%TO.C,C4*%
X114300000Y-97600000D03*
X114300000Y-99500000D03*
%TD*%
%TO.C,C4*%
X214300000Y-97600000D03*
X214300000Y-99500000D03*
%TD*%
%TO.C,C4*%
X14300000Y-149600000D03*
X14300000Y-151500000D03*
%TD*%
%TO.C,C4*%
X114300000Y-149600000D03*
X114300000Y-151500000D03*
%TD*%
%TO.C,C4*%
X214300000Y-149600000D03*
X214300000Y-151500000D03*
%TD*%
%TO.C,C4*%
X14300000Y-201600000D03*
X14300000Y-203500000D03*
%TD*%
%TO.C,C4*%
X114300000Y-201600000D03*
X114300000Y-203500000D03*
%TD*%
%TO.C,C4*%
X214300000Y-201600000D03*
X214300000Y-203500000D03*
%TD*%
%TO.C,C4*%
X14300000Y-253600000D03*
X14300000Y-255500000D03*
%TD*%
%TO.C,C4*%
X114300000Y-253600000D03*
X114300000Y-255500000D03*
%TD*%
%TO.C,C4*%
X214300000Y-253600000D03*
X214300000Y-255500000D03*
%TD*%
D24*
%TO.C,R4*%
X264793000Y-138138000D03*
X266443000Y-138138000D03*
%TD*%
%TO.C,R4*%
X64793000Y-190138000D03*
X66443000Y-190138000D03*
%TD*%
%TO.C,R4*%
X164793000Y-190138000D03*
X166443000Y-190138000D03*
%TD*%
%TO.C,R4*%
X264793000Y-190138000D03*
X266443000Y-190138000D03*
%TD*%
%TO.C,R4*%
X64793000Y-242138000D03*
X66443000Y-242138000D03*
%TD*%
%TO.C,R4*%
X164793000Y-242138000D03*
X166443000Y-242138000D03*
%TD*%
%TO.C,R4*%
X264793000Y-242138000D03*
X266443000Y-242138000D03*
%TD*%
%TO.C,R4*%
X64793000Y-34138000D03*
X66443000Y-34138000D03*
%TD*%
%TO.C,R4*%
X164793000Y-34138000D03*
X166443000Y-34138000D03*
%TD*%
%TO.C,R4*%
X264793000Y-34138000D03*
X266443000Y-34138000D03*
%TD*%
%TO.C,R4*%
X64793000Y-86138000D03*
X66443000Y-86138000D03*
%TD*%
%TO.C,R4*%
X164793000Y-86138000D03*
X166443000Y-86138000D03*
%TD*%
%TO.C,R4*%
X264793000Y-86138000D03*
X266443000Y-86138000D03*
%TD*%
%TO.C,R4*%
X64793000Y-138138000D03*
X66443000Y-138138000D03*
%TD*%
%TO.C,R4*%
X164793000Y-138138000D03*
X166443000Y-138138000D03*
%TD*%
D12*
%TO.C,D3*%
X16762500Y-43000000D03*
X18637500Y-43000000D03*
%TD*%
%TO.C,D3*%
X116762500Y-43000000D03*
X118637500Y-43000000D03*
%TD*%
%TO.C,D3*%
X216762500Y-43000000D03*
X218637500Y-43000000D03*
%TD*%
%TO.C,D3*%
X16762500Y-95000000D03*
X18637500Y-95000000D03*
%TD*%
%TO.C,D3*%
X116762500Y-95000000D03*
X118637500Y-95000000D03*
%TD*%
%TO.C,D3*%
X216762500Y-95000000D03*
X218637500Y-95000000D03*
%TD*%
%TO.C,D3*%
X16762500Y-147000000D03*
X18637500Y-147000000D03*
%TD*%
%TO.C,D3*%
X116762500Y-147000000D03*
X118637500Y-147000000D03*
%TD*%
%TO.C,D3*%
X216762500Y-147000000D03*
X218637500Y-147000000D03*
%TD*%
%TO.C,D3*%
X16762500Y-199000000D03*
X18637500Y-199000000D03*
%TD*%
%TO.C,D3*%
X116762500Y-199000000D03*
X118637500Y-199000000D03*
%TD*%
%TO.C,D3*%
X216762500Y-199000000D03*
X218637500Y-199000000D03*
%TD*%
%TO.C,D3*%
X16762500Y-251000000D03*
X18637500Y-251000000D03*
%TD*%
%TO.C,D3*%
X116762500Y-251000000D03*
X118637500Y-251000000D03*
%TD*%
%TO.C,D3*%
X216762500Y-251000000D03*
X218637500Y-251000000D03*
%TD*%
D17*
%TO.C,R3*%
X49900000Y-54600000D03*
X48250000Y-54600000D03*
%TD*%
%TO.C,R3*%
X149900000Y-54600000D03*
X148250000Y-54600000D03*
%TD*%
%TO.C,R3*%
X249900000Y-54600000D03*
X248250000Y-54600000D03*
%TD*%
%TO.C,R3*%
X49900000Y-106600000D03*
X48250000Y-106600000D03*
%TD*%
%TO.C,R3*%
X149900000Y-106600000D03*
X148250000Y-106600000D03*
%TD*%
%TO.C,R3*%
X249900000Y-106600000D03*
X248250000Y-106600000D03*
%TD*%
%TO.C,R3*%
X49900000Y-158600000D03*
X48250000Y-158600000D03*
%TD*%
%TO.C,R3*%
X149900000Y-158600000D03*
X148250000Y-158600000D03*
%TD*%
%TO.C,R3*%
X249900000Y-158600000D03*
X248250000Y-158600000D03*
%TD*%
%TO.C,R3*%
X49900000Y-210600000D03*
X48250000Y-210600000D03*
%TD*%
%TO.C,R3*%
X149900000Y-210600000D03*
X148250000Y-210600000D03*
%TD*%
%TO.C,R3*%
X249900000Y-210600000D03*
X248250000Y-210600000D03*
%TD*%
%TO.C,R3*%
X49900000Y-262600000D03*
X48250000Y-262600000D03*
%TD*%
%TO.C,R3*%
X149900000Y-262600000D03*
X148250000Y-262600000D03*
%TD*%
%TO.C,R3*%
X249900000Y-262600000D03*
X248250000Y-262600000D03*
%TD*%
%TO.C,R6*%
X66126000Y-52172000D03*
X64476000Y-52172000D03*
%TD*%
%TO.C,R6*%
X166126000Y-52172000D03*
X164476000Y-52172000D03*
%TD*%
%TO.C,R6*%
X266126000Y-52172000D03*
X264476000Y-52172000D03*
%TD*%
%TO.C,R6*%
X66126000Y-104172000D03*
X64476000Y-104172000D03*
%TD*%
%TO.C,R6*%
X166126000Y-104172000D03*
X164476000Y-104172000D03*
%TD*%
%TO.C,R6*%
X266126000Y-104172000D03*
X264476000Y-104172000D03*
%TD*%
%TO.C,R6*%
X66126000Y-156172000D03*
X64476000Y-156172000D03*
%TD*%
%TO.C,R6*%
X166126000Y-156172000D03*
X164476000Y-156172000D03*
%TD*%
%TO.C,R6*%
X266126000Y-156172000D03*
X264476000Y-156172000D03*
%TD*%
%TO.C,R6*%
X66126000Y-208172000D03*
X64476000Y-208172000D03*
%TD*%
%TO.C,R6*%
X166126000Y-208172000D03*
X164476000Y-208172000D03*
%TD*%
%TO.C,R6*%
X266126000Y-208172000D03*
X264476000Y-208172000D03*
%TD*%
%TO.C,R6*%
X66126000Y-260172000D03*
X64476000Y-260172000D03*
%TD*%
%TO.C,R6*%
X166126000Y-260172000D03*
X164476000Y-260172000D03*
%TD*%
%TO.C,R6*%
X266126000Y-260172000D03*
X264476000Y-260172000D03*
%TD*%
D12*
%TO.C,D17*%
X71030500Y-56998000D03*
X72905500Y-56998000D03*
%TD*%
%TO.C,D17*%
X171030500Y-56998000D03*
X172905500Y-56998000D03*
%TD*%
%TO.C,D17*%
X271030500Y-56998000D03*
X272905500Y-56998000D03*
%TD*%
%TO.C,D17*%
X71030500Y-108998000D03*
X72905500Y-108998000D03*
%TD*%
%TO.C,D17*%
X171030500Y-108998000D03*
X172905500Y-108998000D03*
%TD*%
%TO.C,D17*%
X271030500Y-108998000D03*
X272905500Y-108998000D03*
%TD*%
%TO.C,D17*%
X71030500Y-160998000D03*
X72905500Y-160998000D03*
%TD*%
%TO.C,D17*%
X171030500Y-160998000D03*
X172905500Y-160998000D03*
%TD*%
%TO.C,D17*%
X271030500Y-160998000D03*
X272905500Y-160998000D03*
%TD*%
%TO.C,D17*%
X71030500Y-212998000D03*
X72905500Y-212998000D03*
%TD*%
%TO.C,D17*%
X171030500Y-212998000D03*
X172905500Y-212998000D03*
%TD*%
%TO.C,D17*%
X271030500Y-212998000D03*
X272905500Y-212998000D03*
%TD*%
%TO.C,D17*%
X71030500Y-264998000D03*
X72905500Y-264998000D03*
%TD*%
%TO.C,D17*%
X171030500Y-264998000D03*
X172905500Y-264998000D03*
%TD*%
%TO.C,D17*%
X271030500Y-264998000D03*
X272905500Y-264998000D03*
%TD*%
D20*
%TO.C,R11*%
X31162500Y-61600000D03*
X31162500Y-63250000D03*
%TD*%
%TO.C,R11*%
X131162500Y-61600000D03*
X131162500Y-63250000D03*
%TD*%
%TO.C,R11*%
X231162500Y-61600000D03*
X231162500Y-63250000D03*
%TD*%
%TO.C,R11*%
X31162500Y-113600000D03*
X31162500Y-115250000D03*
%TD*%
%TO.C,R11*%
X131162500Y-113600000D03*
X131162500Y-115250000D03*
%TD*%
%TO.C,R11*%
X231162500Y-113600000D03*
X231162500Y-115250000D03*
%TD*%
%TO.C,R11*%
X31162500Y-165600000D03*
X31162500Y-167250000D03*
%TD*%
%TO.C,R11*%
X131162500Y-165600000D03*
X131162500Y-167250000D03*
%TD*%
%TO.C,R11*%
X231162500Y-165600000D03*
X231162500Y-167250000D03*
%TD*%
%TO.C,R11*%
X31162500Y-217600000D03*
X31162500Y-219250000D03*
%TD*%
%TO.C,R11*%
X131162500Y-217600000D03*
X131162500Y-219250000D03*
%TD*%
%TO.C,R11*%
X231162500Y-217600000D03*
X231162500Y-219250000D03*
%TD*%
%TO.C,R11*%
X31162500Y-269600000D03*
X31162500Y-271250000D03*
%TD*%
%TO.C,R11*%
X131162500Y-269600000D03*
X131162500Y-271250000D03*
%TD*%
%TO.C,R11*%
X231162500Y-269600000D03*
X231162500Y-271250000D03*
%TD*%
D10*
%TO.C,D18*%
X74762000Y-42441500D03*
X74762000Y-40566500D03*
%TD*%
%TO.C,D18*%
X174762000Y-42441500D03*
X174762000Y-40566500D03*
%TD*%
%TO.C,D18*%
X274762000Y-42441500D03*
X274762000Y-40566500D03*
%TD*%
%TO.C,D18*%
X74762000Y-146441500D03*
X74762000Y-144566500D03*
%TD*%
%TO.C,D18*%
X74762000Y-94441500D03*
X74762000Y-92566500D03*
%TD*%
%TO.C,D18*%
X174762000Y-94441500D03*
X174762000Y-92566500D03*
%TD*%
%TO.C,D18*%
X274762000Y-94441500D03*
X274762000Y-92566500D03*
%TD*%
%TO.C,D18*%
X174762000Y-146441500D03*
X174762000Y-144566500D03*
%TD*%
%TO.C,D18*%
X274762000Y-146441500D03*
X274762000Y-144566500D03*
%TD*%
%TO.C,D18*%
X74762000Y-198441500D03*
X74762000Y-196566500D03*
%TD*%
%TO.C,D18*%
X174762000Y-198441500D03*
X174762000Y-196566500D03*
%TD*%
%TO.C,D18*%
X274762000Y-198441500D03*
X274762000Y-196566500D03*
%TD*%
%TO.C,D18*%
X74762000Y-250441500D03*
X74762000Y-248566500D03*
%TD*%
%TO.C,D18*%
X174762000Y-250441500D03*
X174762000Y-248566500D03*
%TD*%
%TO.C,D18*%
X274762000Y-250441500D03*
X274762000Y-248566500D03*
%TD*%
D17*
%TO.C,R7*%
X79125000Y-33200000D03*
X77475000Y-33200000D03*
%TD*%
%TO.C,R7*%
X179125000Y-33200000D03*
X177475000Y-33200000D03*
%TD*%
%TO.C,R7*%
X279125000Y-33200000D03*
X277475000Y-33200000D03*
%TD*%
%TO.C,R7*%
X79125000Y-85200000D03*
X77475000Y-85200000D03*
%TD*%
%TO.C,R7*%
X179125000Y-85200000D03*
X177475000Y-85200000D03*
%TD*%
%TO.C,R7*%
X279125000Y-85200000D03*
X277475000Y-85200000D03*
%TD*%
%TO.C,R7*%
X79125000Y-137200000D03*
X77475000Y-137200000D03*
%TD*%
%TO.C,R7*%
X179125000Y-137200000D03*
X177475000Y-137200000D03*
%TD*%
%TO.C,R7*%
X279125000Y-137200000D03*
X277475000Y-137200000D03*
%TD*%
%TO.C,R7*%
X79125000Y-189200000D03*
X77475000Y-189200000D03*
%TD*%
%TO.C,R7*%
X179125000Y-189200000D03*
X177475000Y-189200000D03*
%TD*%
%TO.C,R7*%
X279125000Y-189200000D03*
X277475000Y-189200000D03*
%TD*%
%TO.C,R7*%
X79125000Y-241200000D03*
X77475000Y-241200000D03*
%TD*%
%TO.C,R7*%
X179125000Y-241200000D03*
X177475000Y-241200000D03*
%TD*%
%TO.C,R7*%
X279125000Y-241200000D03*
X277475000Y-241200000D03*
%TD*%
%TO.C,R9*%
X87116000Y-64515500D03*
X85466000Y-64515500D03*
%TD*%
%TO.C,R9*%
X187116000Y-64515500D03*
X185466000Y-64515500D03*
%TD*%
%TO.C,R9*%
X287116000Y-64515500D03*
X285466000Y-64515500D03*
%TD*%
%TO.C,R9*%
X87116000Y-116515500D03*
X85466000Y-116515500D03*
%TD*%
%TO.C,R9*%
X187116000Y-116515500D03*
X185466000Y-116515500D03*
%TD*%
%TO.C,R9*%
X287116000Y-116515500D03*
X285466000Y-116515500D03*
%TD*%
%TO.C,R9*%
X87116000Y-168515500D03*
X85466000Y-168515500D03*
%TD*%
%TO.C,R9*%
X187116000Y-168515500D03*
X185466000Y-168515500D03*
%TD*%
%TO.C,R9*%
X287116000Y-168515500D03*
X285466000Y-168515500D03*
%TD*%
%TO.C,R9*%
X87116000Y-220515500D03*
X85466000Y-220515500D03*
%TD*%
%TO.C,R9*%
X187116000Y-220515500D03*
X185466000Y-220515500D03*
%TD*%
%TO.C,R9*%
X287116000Y-220515500D03*
X285466000Y-220515500D03*
%TD*%
%TO.C,R9*%
X87116000Y-272515500D03*
X85466000Y-272515500D03*
%TD*%
%TO.C,R9*%
X187116000Y-272515500D03*
X185466000Y-272515500D03*
%TD*%
%TO.C,R9*%
X287116000Y-272515500D03*
X285466000Y-272515500D03*
%TD*%
D10*
%TO.C,D20*%
X90764000Y-43457500D03*
X90764000Y-41582500D03*
%TD*%
%TO.C,D20*%
X190764000Y-43457500D03*
X190764000Y-41582500D03*
%TD*%
%TO.C,D20*%
X290764000Y-43457500D03*
X290764000Y-41582500D03*
%TD*%
%TO.C,D20*%
X90764000Y-95457500D03*
X90764000Y-93582500D03*
%TD*%
%TO.C,D20*%
X190764000Y-95457500D03*
X190764000Y-93582500D03*
%TD*%
%TO.C,D20*%
X290764000Y-95457500D03*
X290764000Y-93582500D03*
%TD*%
%TO.C,D20*%
X90764000Y-147457500D03*
X90764000Y-145582500D03*
%TD*%
%TO.C,D20*%
X190764000Y-147457500D03*
X190764000Y-145582500D03*
%TD*%
%TO.C,D20*%
X290764000Y-147457500D03*
X290764000Y-145582500D03*
%TD*%
%TO.C,D20*%
X90764000Y-199457500D03*
X90764000Y-197582500D03*
%TD*%
%TO.C,D20*%
X190764000Y-199457500D03*
X190764000Y-197582500D03*
%TD*%
%TO.C,D20*%
X290764000Y-199457500D03*
X290764000Y-197582500D03*
%TD*%
%TO.C,D20*%
X90764000Y-251457500D03*
X90764000Y-249582500D03*
%TD*%
%TO.C,D20*%
X190764000Y-251457500D03*
X190764000Y-249582500D03*
%TD*%
%TO.C,D20*%
X290764000Y-251457500D03*
X290764000Y-249582500D03*
%TD*%
D15*
%TO.C,D4*%
X23700000Y-47062500D03*
X23700000Y-48937500D03*
%TD*%
%TO.C,D4*%
X123700000Y-47062500D03*
X123700000Y-48937500D03*
%TD*%
%TO.C,D4*%
X223700000Y-47062500D03*
X223700000Y-48937500D03*
%TD*%
%TO.C,D4*%
X23700000Y-99062500D03*
X23700000Y-100937500D03*
%TD*%
%TO.C,D4*%
X123700000Y-99062500D03*
X123700000Y-100937500D03*
%TD*%
%TO.C,D4*%
X223700000Y-99062500D03*
X223700000Y-100937500D03*
%TD*%
%TO.C,D4*%
X23700000Y-151062500D03*
X23700000Y-152937500D03*
%TD*%
%TO.C,D4*%
X123700000Y-151062500D03*
X123700000Y-152937500D03*
%TD*%
%TO.C,D4*%
X223700000Y-151062500D03*
X223700000Y-152937500D03*
%TD*%
%TO.C,D4*%
X23700000Y-203062500D03*
X23700000Y-204937500D03*
%TD*%
%TO.C,D4*%
X123700000Y-203062500D03*
X123700000Y-204937500D03*
%TD*%
%TO.C,D4*%
X223700000Y-203062500D03*
X223700000Y-204937500D03*
%TD*%
%TO.C,D4*%
X23700000Y-255062500D03*
X23700000Y-256937500D03*
%TD*%
%TO.C,D4*%
X123700000Y-255062500D03*
X123700000Y-256937500D03*
%TD*%
%TO.C,D4*%
X223700000Y-255062500D03*
X223700000Y-256937500D03*
%TD*%
D14*
%TO.C,D19*%
X83637500Y-31000000D03*
X81762500Y-31000000D03*
%TD*%
%TO.C,D19*%
X183637500Y-31000000D03*
X181762500Y-31000000D03*
%TD*%
%TO.C,D19*%
X283637500Y-31000000D03*
X281762500Y-31000000D03*
%TD*%
%TO.C,D19*%
X83637500Y-83000000D03*
X81762500Y-83000000D03*
%TD*%
%TO.C,D19*%
X183637500Y-83000000D03*
X181762500Y-83000000D03*
%TD*%
%TO.C,D19*%
X283637500Y-83000000D03*
X281762500Y-83000000D03*
%TD*%
%TO.C,D19*%
X83637500Y-135000000D03*
X81762500Y-135000000D03*
%TD*%
%TO.C,D19*%
X183637500Y-135000000D03*
X181762500Y-135000000D03*
%TD*%
%TO.C,D19*%
X283637500Y-135000000D03*
X281762500Y-135000000D03*
%TD*%
%TO.C,D19*%
X83637500Y-187000000D03*
X81762500Y-187000000D03*
%TD*%
%TO.C,D19*%
X183637500Y-187000000D03*
X181762500Y-187000000D03*
%TD*%
%TO.C,D19*%
X283637500Y-187000000D03*
X281762500Y-187000000D03*
%TD*%
%TO.C,D19*%
X83637500Y-239000000D03*
X81762500Y-239000000D03*
%TD*%
%TO.C,D19*%
X183637500Y-239000000D03*
X181762500Y-239000000D03*
%TD*%
%TO.C,D19*%
X283637500Y-239000000D03*
X281762500Y-239000000D03*
%TD*%
D10*
%TO.C,D28*%
X86700000Y-50315500D03*
X86700000Y-48440500D03*
%TD*%
%TO.C,D28*%
X186700000Y-50315500D03*
X186700000Y-48440500D03*
%TD*%
%TO.C,D28*%
X286700000Y-50315500D03*
X286700000Y-48440500D03*
%TD*%
%TO.C,D28*%
X86700000Y-102315500D03*
X86700000Y-100440500D03*
%TD*%
%TO.C,D28*%
X186700000Y-102315500D03*
X186700000Y-100440500D03*
%TD*%
%TO.C,D28*%
X286700000Y-102315500D03*
X286700000Y-100440500D03*
%TD*%
%TO.C,D28*%
X86700000Y-154315500D03*
X86700000Y-152440500D03*
%TD*%
%TO.C,D28*%
X186700000Y-154315500D03*
X186700000Y-152440500D03*
%TD*%
%TO.C,D28*%
X286700000Y-154315500D03*
X286700000Y-152440500D03*
%TD*%
%TO.C,D28*%
X86700000Y-206315500D03*
X86700000Y-204440500D03*
%TD*%
%TO.C,D28*%
X186700000Y-206315500D03*
X186700000Y-204440500D03*
%TD*%
%TO.C,D28*%
X286700000Y-206315500D03*
X286700000Y-204440500D03*
%TD*%
%TO.C,D28*%
X86700000Y-258315500D03*
X86700000Y-256440500D03*
%TD*%
%TO.C,D28*%
X186700000Y-258315500D03*
X186700000Y-256440500D03*
%TD*%
%TO.C,D28*%
X286700000Y-258315500D03*
X286700000Y-256440500D03*
%TD*%
D12*
%TO.C,D25*%
X81762500Y-38964000D03*
X83637500Y-38964000D03*
%TD*%
%TO.C,D25*%
X181762500Y-38964000D03*
X183637500Y-38964000D03*
%TD*%
%TO.C,D25*%
X281762500Y-38964000D03*
X283637500Y-38964000D03*
%TD*%
%TO.C,D25*%
X81762500Y-90964000D03*
X83637500Y-90964000D03*
%TD*%
%TO.C,D25*%
X181762500Y-90964000D03*
X183637500Y-90964000D03*
%TD*%
%TO.C,D25*%
X281762500Y-90964000D03*
X283637500Y-90964000D03*
%TD*%
%TO.C,D25*%
X81762500Y-142964000D03*
X83637500Y-142964000D03*
%TD*%
%TO.C,D25*%
X181762500Y-142964000D03*
X183637500Y-142964000D03*
%TD*%
%TO.C,D25*%
X281762500Y-142964000D03*
X283637500Y-142964000D03*
%TD*%
%TO.C,D25*%
X81762500Y-194964000D03*
X83637500Y-194964000D03*
%TD*%
%TO.C,D25*%
X181762500Y-194964000D03*
X183637500Y-194964000D03*
%TD*%
%TO.C,D25*%
X281762500Y-194964000D03*
X283637500Y-194964000D03*
%TD*%
%TO.C,D25*%
X81762500Y-246964000D03*
X83637500Y-246964000D03*
%TD*%
%TO.C,D25*%
X181762500Y-246964000D03*
X183637500Y-246964000D03*
%TD*%
%TO.C,D25*%
X281762500Y-246964000D03*
X283637500Y-246964000D03*
%TD*%
%TO.C,D8*%
X37762500Y-43000000D03*
X39637500Y-43000000D03*
%TD*%
%TO.C,D8*%
X137762500Y-43000000D03*
X139637500Y-43000000D03*
%TD*%
%TO.C,D8*%
X237762500Y-43000000D03*
X239637500Y-43000000D03*
%TD*%
%TO.C,D8*%
X37762500Y-95000000D03*
X39637500Y-95000000D03*
%TD*%
%TO.C,D8*%
X137762500Y-95000000D03*
X139637500Y-95000000D03*
%TD*%
%TO.C,D8*%
X237762500Y-95000000D03*
X239637500Y-95000000D03*
%TD*%
%TO.C,D8*%
X37762500Y-147000000D03*
X39637500Y-147000000D03*
%TD*%
%TO.C,D8*%
X137762500Y-147000000D03*
X139637500Y-147000000D03*
%TD*%
%TO.C,D8*%
X237762500Y-147000000D03*
X239637500Y-147000000D03*
%TD*%
%TO.C,D8*%
X37762500Y-199000000D03*
X39637500Y-199000000D03*
%TD*%
%TO.C,D8*%
X137762500Y-199000000D03*
X139637500Y-199000000D03*
%TD*%
%TO.C,D8*%
X237762500Y-199000000D03*
X239637500Y-199000000D03*
%TD*%
%TO.C,D8*%
X37762500Y-251000000D03*
X39637500Y-251000000D03*
%TD*%
%TO.C,D8*%
X137762500Y-251000000D03*
X139637500Y-251000000D03*
%TD*%
%TO.C,D8*%
X237762500Y-251000000D03*
X239637500Y-251000000D03*
%TD*%
M02*
