M48
; DRILL file {KiCad 7.0.1-3b83917a11~171~ubuntu20.04.1} date 2023. okt. 26., csütörtök, 02:31:54 CEST
; FORMAT={-:-/ absolute / metric / decimal}
; #@! TF.CreationDate,2023-10-26T02:31:54+02:00
; #@! TF.GenerationSoftware,Kicad,Pcbnew,7.0.1-3b83917a11~171~ubuntu20.04.1
; #@! TF.FileFunction,Plated,1,2,PTH
FMAT,2
METRIC
; #@! TA.AperFunction,Plated,PTH,ViaDrill
T1C0.400
; #@! TA.AperFunction,Plated,PTH,ComponentDrill
T2C0.650
; #@! TA.AperFunction,Plated,PTH,ComponentDrill
T3C1.000
; #@! TA.AperFunction,Plated,PTH,ComponentDrill
T4C1.300
%
G90
G05
T1
X14.7Y-59.2
X14.7Y-111.2
X14.7Y-163.2
X14.7Y-215.2
X14.7Y-267.2
X17.1Y-47.4
X17.1Y-99.4
X17.1Y-151.4
X17.1Y-203.4
X17.1Y-255.4
X29.5Y-59.6
X29.5Y-111.6
X29.5Y-163.6
X29.5Y-215.6
X29.5Y-267.6
X35.7Y-58.8
X35.7Y-110.8
X35.7Y-162.8
X35.7Y-214.8
X35.7Y-266.8
X46.5Y-59.6
X46.5Y-111.6
X46.5Y-163.6
X46.5Y-215.6
X46.5Y-267.6
X56.3Y-61.4
X56.3Y-113.4
X56.3Y-165.4
X56.3Y-217.4
X56.3Y-269.4
X61.3Y-56.4
X61.3Y-108.4
X61.3Y-160.4
X61.3Y-212.4
X61.3Y-264.4
X65.9Y-58.4
X65.9Y-110.4
X65.9Y-162.4
X65.9Y-214.4
X65.9Y-266.4
X66.1Y-54.0
X66.1Y-106.0
X66.1Y-158.0
X66.1Y-210.0
X66.1Y-262.0
X72.7Y-66.4
X72.7Y-118.4
X72.7Y-170.4
X72.7Y-222.4
X72.7Y-274.4
X75.805Y-65.105
X75.805Y-117.105
X75.805Y-169.106
X75.805Y-221.105
X75.805Y-273.106
X77.1Y-62.0
X77.1Y-114.0
X77.1Y-166.0
X77.1Y-218.0
X77.1Y-270.0
X78.9Y-62.011
X78.9Y-114.011
X78.9Y-166.011
X78.9Y-218.011
X78.9Y-270.011
X88.8Y-60.9
X88.8Y-112.9
X88.8Y-164.9
X88.8Y-216.9
X88.8Y-268.9
X114.7Y-59.2
X114.7Y-111.2
X114.7Y-163.2
X114.7Y-215.2
X114.7Y-267.2
X117.1Y-47.4
X117.1Y-99.4
X117.1Y-151.4
X117.1Y-203.4
X117.1Y-255.4
X129.5Y-59.6
X129.5Y-111.6
X129.5Y-163.6
X129.5Y-215.6
X129.5Y-267.6
X135.7Y-58.8
X135.7Y-110.8
X135.7Y-162.8
X135.7Y-214.8
X135.7Y-266.8
X146.5Y-59.6
X146.5Y-111.6
X146.5Y-163.6
X146.5Y-215.6
X146.5Y-267.6
X156.3Y-61.4
X156.3Y-113.4
X156.3Y-165.4
X156.3Y-217.4
X156.3Y-269.4
X161.3Y-56.4
X161.3Y-108.4
X161.3Y-160.4
X161.3Y-212.4
X161.3Y-264.4
X165.9Y-58.4
X165.9Y-110.4
X165.9Y-162.4
X165.9Y-214.4
X165.9Y-266.4
X166.1Y-54.0
X166.1Y-106.0
X166.1Y-158.0
X166.1Y-210.0
X166.1Y-262.0
X172.7Y-66.4
X172.7Y-118.4
X172.7Y-170.4
X172.7Y-222.4
X172.7Y-274.4
X175.805Y-65.105
X175.805Y-117.105
X175.805Y-169.106
X175.805Y-221.105
X175.805Y-273.106
X177.1Y-62.0
X177.1Y-114.0
X177.1Y-166.0
X177.1Y-218.0
X177.1Y-270.0
X178.9Y-62.011
X178.9Y-114.011
X178.9Y-166.011
X178.9Y-218.011
X178.9Y-270.011
X188.8Y-60.9
X188.8Y-112.9
X188.8Y-164.9
X188.8Y-216.9
X188.8Y-268.9
X214.7Y-59.2
X214.7Y-111.2
X214.7Y-163.2
X214.7Y-215.2
X214.7Y-267.2
X217.1Y-47.4
X217.1Y-99.4
X217.1Y-151.4
X217.1Y-203.4
X217.1Y-255.4
X229.5Y-59.6
X229.5Y-111.6
X229.5Y-163.6
X229.5Y-215.6
X229.5Y-267.6
X235.7Y-58.8
X235.7Y-110.8
X235.7Y-162.8
X235.7Y-214.8
X235.7Y-266.8
X246.5Y-59.6
X246.5Y-111.6
X246.5Y-163.6
X246.5Y-215.6
X246.5Y-267.6
X256.3Y-61.4
X256.3Y-113.4
X256.3Y-165.4
X256.3Y-217.4
X256.3Y-269.4
X261.3Y-56.4
X261.3Y-108.4
X261.3Y-160.4
X261.3Y-212.4
X261.3Y-264.4
X265.9Y-58.4
X265.9Y-110.4
X265.9Y-162.4
X265.9Y-214.4
X265.9Y-266.4
X266.1Y-54.0
X266.1Y-106.0
X266.1Y-158.0
X266.1Y-210.0
X266.1Y-262.0
X272.7Y-66.4
X272.7Y-118.4
X272.7Y-170.4
X272.7Y-222.4
X272.7Y-274.4
X275.805Y-65.105
X275.805Y-117.105
X275.805Y-169.106
X275.805Y-221.105
X275.805Y-273.106
X277.1Y-62.0
X277.1Y-114.0
X277.1Y-166.0
X277.1Y-218.0
X277.1Y-270.0
X278.9Y-62.011
X278.9Y-114.011
X278.9Y-166.011
X278.9Y-218.011
X278.9Y-270.011
X288.8Y-60.9
X288.8Y-112.9
X288.8Y-164.9
X288.8Y-216.9
X288.8Y-268.9
T2
X76.43Y-60.2
X76.43Y-112.2
X76.43Y-164.2
X76.43Y-216.2
X76.43Y-268.2
X77.7Y-60.2
X77.7Y-112.2
X77.7Y-164.2
X77.7Y-216.2
X77.7Y-268.2
X78.97Y-60.2
X78.97Y-112.2
X78.97Y-164.2
X78.97Y-216.2
X78.97Y-268.2
X80.24Y-60.2
X80.24Y-112.2
X80.24Y-164.2
X80.24Y-216.2
X80.24Y-268.2
X176.43Y-60.2
X176.43Y-112.2
X176.43Y-164.2
X176.43Y-216.2
X176.43Y-268.2
X177.7Y-60.2
X177.7Y-112.2
X177.7Y-164.2
X177.7Y-216.2
X177.7Y-268.2
X178.97Y-60.2
X178.97Y-112.2
X178.97Y-164.2
X178.97Y-216.2
X178.97Y-268.2
X180.24Y-60.2
X180.24Y-112.2
X180.24Y-164.2
X180.24Y-216.2
X180.24Y-268.2
X276.43Y-60.2
X276.43Y-112.2
X276.43Y-164.2
X276.43Y-216.2
X276.43Y-268.2
X277.7Y-60.2
X277.7Y-112.2
X277.7Y-164.2
X277.7Y-216.2
X277.7Y-268.2
X278.97Y-60.2
X278.97Y-112.2
X278.97Y-164.2
X278.97Y-216.2
X278.97Y-268.2
X280.24Y-60.2
X280.24Y-112.2
X280.24Y-164.2
X280.24Y-216.2
X280.24Y-268.2
T3
X13.2Y-66.5
X13.2Y-118.5
X13.2Y-170.5
X13.2Y-222.5
X13.2Y-274.5
X13.3Y-23.5
X13.3Y-75.5
X13.3Y-127.5
X13.3Y-179.5
X13.3Y-231.5
X82.2Y-23.5
X82.2Y-66.5
X82.2Y-75.5
X82.2Y-118.5
X82.2Y-127.5
X82.2Y-170.5
X82.2Y-179.5
X82.2Y-222.5
X82.2Y-231.5
X82.2Y-274.5
X113.2Y-66.5
X113.2Y-118.5
X113.2Y-170.5
X113.2Y-222.5
X113.2Y-274.5
X113.3Y-23.5
X113.3Y-75.5
X113.3Y-127.5
X113.3Y-179.5
X113.3Y-231.5
X182.2Y-23.5
X182.2Y-66.5
X182.2Y-75.5
X182.2Y-118.5
X182.2Y-127.5
X182.2Y-170.5
X182.2Y-179.5
X182.2Y-222.5
X182.2Y-231.5
X182.2Y-274.5
X213.2Y-66.5
X213.2Y-118.5
X213.2Y-170.5
X213.2Y-222.5
X213.2Y-274.5
X213.3Y-23.5
X213.3Y-75.5
X213.3Y-127.5
X213.3Y-179.5
X213.3Y-231.5
X282.2Y-23.5
X282.2Y-66.5
X282.2Y-75.5
X282.2Y-118.5
X282.2Y-127.5
X282.2Y-170.5
X282.2Y-179.5
X282.2Y-222.5
X282.2Y-231.5
X282.2Y-274.5
T4
X7.731Y-45.619
X7.731Y-97.619
X7.731Y-149.619
X7.731Y-201.619
X7.731Y-253.619
X27.731Y-45.619
X27.731Y-97.619
X27.731Y-149.619
X27.731Y-201.619
X27.731Y-253.619
X107.731Y-45.619
X107.731Y-97.619
X107.731Y-149.619
X107.731Y-201.619
X107.731Y-253.619
X127.731Y-45.619
X127.731Y-97.619
X127.731Y-149.619
X127.731Y-201.619
X127.731Y-253.619
X207.731Y-45.619
X207.731Y-97.619
X207.731Y-149.619
X207.731Y-201.619
X207.731Y-253.619
X227.731Y-45.619
X227.731Y-97.619
X227.731Y-149.619
X227.731Y-201.619
X227.731Y-253.619
T0
M30
