%TF.GenerationSoftware,KiCad,Pcbnew,7.0.1-3b83917a11~171~ubuntu20.04.1*%
%TF.CreationDate,2023-10-26T23:57:43+02:00*%
%TF.ProjectId,panel_bottom,70616e65-6c5f-4626-9f74-746f6d2e6b69,rev?*%
%TF.SameCoordinates,Original*%
%TF.FileFunction,Paste,Top*%
%TF.FilePolarity,Positive*%
%FSLAX46Y46*%
G04 Gerber Fmt 4.6, Leading zero omitted, Abs format (unit mm)*
G04 Created by KiCad (PCBNEW 7.0.1-3b83917a11~171~ubuntu20.04.1) date 2023-10-26 23:57:43*
%MOMM*%
%LPD*%
G01*
G04 APERTURE LIST*
G04 Aperture macros list*
%AMRoundRect*
0 Rectangle with rounded corners*
0 $1 Rounding radius*
0 $2 $3 $4 $5 $6 $7 $8 $9 X,Y pos of 4 corners*
0 Add a 4 corners polygon primitive as box body*
4,1,4,$2,$3,$4,$5,$6,$7,$8,$9,$2,$3,0*
0 Add four circle primitives for the rounded corners*
1,1,$1+$1,$2,$3*
1,1,$1+$1,$4,$5*
1,1,$1+$1,$6,$7*
1,1,$1+$1,$8,$9*
0 Add four rect primitives between the rounded corners*
20,1,$1+$1,$2,$3,$4,$5,0*
20,1,$1+$1,$4,$5,$6,$7,0*
20,1,$1+$1,$6,$7,$8,$9,0*
20,1,$1+$1,$8,$9,$2,$3,0*%
G04 Aperture macros list end*
%ADD10RoundRect,0.243750X0.456250X-0.243750X0.456250X0.243750X-0.456250X0.243750X-0.456250X-0.243750X0*%
%ADD11RoundRect,0.250000X0.850000X-0.375000X0.850000X0.375000X-0.850000X0.375000X-0.850000X-0.375000X0*%
%ADD12RoundRect,0.243750X-0.243750X-0.456250X0.243750X-0.456250X0.243750X0.456250X-0.243750X0.456250X0*%
%ADD13RoundRect,0.150000X0.150000X-0.587500X0.150000X0.587500X-0.150000X0.587500X-0.150000X-0.587500X0*%
%ADD14RoundRect,0.243750X0.243750X0.456250X-0.243750X0.456250X-0.243750X-0.456250X0.243750X-0.456250X0*%
%ADD15RoundRect,0.243750X-0.456250X0.243750X-0.456250X-0.243750X0.456250X-0.243750X0.456250X0.243750X0*%
%ADD16RoundRect,0.200000X0.275000X-0.200000X0.275000X0.200000X-0.275000X0.200000X-0.275000X-0.200000X0*%
%ADD17RoundRect,0.200000X0.200000X0.275000X-0.200000X0.275000X-0.200000X-0.275000X0.200000X-0.275000X0*%
%ADD18RoundRect,0.250000X-0.475000X0.250000X-0.475000X-0.250000X0.475000X-0.250000X0.475000X0.250000X0*%
%ADD19R,1.000000X0.750000*%
%ADD20RoundRect,0.200000X-0.275000X0.200000X-0.275000X-0.200000X0.275000X-0.200000X0.275000X0.200000X0*%
%ADD21RoundRect,0.250000X0.375000X0.850000X-0.375000X0.850000X-0.375000X-0.850000X0.375000X-0.850000X0*%
%ADD22RoundRect,0.137500X-0.662500X-0.137500X0.662500X-0.137500X0.662500X0.137500X-0.662500X0.137500X0*%
%ADD23RoundRect,0.150000X0.587500X0.150000X-0.587500X0.150000X-0.587500X-0.150000X0.587500X-0.150000X0*%
%ADD24RoundRect,0.200000X-0.200000X-0.275000X0.200000X-0.275000X0.200000X0.275000X-0.200000X0.275000X0*%
G04 APERTURE END LIST*
D10*
%TO.C,D21*%
X160842000Y-184695500D03*
X160842000Y-182820500D03*
%TD*%
%TO.C,D21*%
X259342000Y-184695500D03*
X259342000Y-182820500D03*
%TD*%
%TO.C,D21*%
X62342000Y-232695500D03*
X62342000Y-230820500D03*
%TD*%
%TO.C,D21*%
X160842000Y-232695500D03*
X160842000Y-230820500D03*
%TD*%
%TO.C,D21*%
X259342000Y-232695500D03*
X259342000Y-230820500D03*
%TD*%
%TO.C,D21*%
X259342000Y-40695500D03*
X259342000Y-38820500D03*
%TD*%
%TO.C,D21*%
X62342000Y-88695500D03*
X62342000Y-86820500D03*
%TD*%
%TO.C,D21*%
X160842000Y-88695500D03*
X160842000Y-86820500D03*
%TD*%
%TO.C,D21*%
X259342000Y-88695500D03*
X259342000Y-86820500D03*
%TD*%
%TO.C,D21*%
X62342000Y-136695500D03*
X62342000Y-134820500D03*
%TD*%
%TO.C,D21*%
X160842000Y-136695500D03*
X160842000Y-134820500D03*
%TD*%
%TO.C,D21*%
X259342000Y-136695500D03*
X259342000Y-134820500D03*
%TD*%
%TO.C,D21*%
X62342000Y-184695500D03*
X62342000Y-182820500D03*
%TD*%
%TO.C,D21*%
X62342000Y-40695500D03*
X62342000Y-38820500D03*
%TD*%
%TO.C,D21*%
X160842000Y-40695500D03*
X160842000Y-38820500D03*
%TD*%
D11*
%TO.C,L2*%
X87904000Y-56811000D03*
X87904000Y-54661000D03*
%TD*%
%TO.C,L2*%
X186404000Y-56811000D03*
X186404000Y-54661000D03*
%TD*%
%TO.C,L2*%
X284904000Y-56811000D03*
X284904000Y-54661000D03*
%TD*%
%TO.C,L2*%
X87904000Y-104811000D03*
X87904000Y-102661000D03*
%TD*%
%TO.C,L2*%
X186404000Y-104811000D03*
X186404000Y-102661000D03*
%TD*%
%TO.C,L2*%
X284904000Y-104811000D03*
X284904000Y-102661000D03*
%TD*%
%TO.C,L2*%
X87904000Y-152811000D03*
X87904000Y-150661000D03*
%TD*%
%TO.C,L2*%
X186404000Y-152811000D03*
X186404000Y-150661000D03*
%TD*%
%TO.C,L2*%
X284904000Y-152811000D03*
X284904000Y-150661000D03*
%TD*%
%TO.C,L2*%
X87904000Y-200811000D03*
X87904000Y-198661000D03*
%TD*%
%TO.C,L2*%
X186404000Y-200811000D03*
X186404000Y-198661000D03*
%TD*%
%TO.C,L2*%
X284904000Y-200811000D03*
X284904000Y-198661000D03*
%TD*%
%TO.C,L2*%
X87904000Y-248811000D03*
X87904000Y-246661000D03*
%TD*%
%TO.C,L2*%
X186404000Y-248811000D03*
X186404000Y-246661000D03*
%TD*%
%TO.C,L2*%
X284904000Y-248811000D03*
X284904000Y-246661000D03*
%TD*%
D12*
%TO.C,D22*%
X290584000Y-150998000D03*
X292459000Y-150998000D03*
%TD*%
%TO.C,D22*%
X93584000Y-198998000D03*
X95459000Y-198998000D03*
%TD*%
%TO.C,D22*%
X192084000Y-198998000D03*
X193959000Y-198998000D03*
%TD*%
%TO.C,D22*%
X290584000Y-198998000D03*
X292459000Y-198998000D03*
%TD*%
%TO.C,D22*%
X93584000Y-246998000D03*
X95459000Y-246998000D03*
%TD*%
%TO.C,D22*%
X192084000Y-246998000D03*
X193959000Y-246998000D03*
%TD*%
%TO.C,D22*%
X290584000Y-246998000D03*
X292459000Y-246998000D03*
%TD*%
%TO.C,D22*%
X93584000Y-54998000D03*
X95459000Y-54998000D03*
%TD*%
%TO.C,D22*%
X192084000Y-54998000D03*
X193959000Y-54998000D03*
%TD*%
%TO.C,D22*%
X290584000Y-54998000D03*
X292459000Y-54998000D03*
%TD*%
%TO.C,D22*%
X93584000Y-102998000D03*
X95459000Y-102998000D03*
%TD*%
%TO.C,D22*%
X192084000Y-102998000D03*
X193959000Y-102998000D03*
%TD*%
%TO.C,D22*%
X290584000Y-102998000D03*
X292459000Y-102998000D03*
%TD*%
%TO.C,D22*%
X93584000Y-150998000D03*
X95459000Y-150998000D03*
%TD*%
%TO.C,D22*%
X192084000Y-150998000D03*
X193959000Y-150998000D03*
%TD*%
D11*
%TO.C,L5*%
X43850000Y-52350000D03*
X43850000Y-50200000D03*
%TD*%
%TO.C,L5*%
X142350000Y-52350000D03*
X142350000Y-50200000D03*
%TD*%
%TO.C,L5*%
X240850000Y-52350000D03*
X240850000Y-50200000D03*
%TD*%
%TO.C,L5*%
X43850000Y-100350000D03*
X43850000Y-98200000D03*
%TD*%
%TO.C,L5*%
X142350000Y-100350000D03*
X142350000Y-98200000D03*
%TD*%
%TO.C,L5*%
X240850000Y-100350000D03*
X240850000Y-98200000D03*
%TD*%
%TO.C,L5*%
X43850000Y-148350000D03*
X43850000Y-146200000D03*
%TD*%
%TO.C,L5*%
X142350000Y-148350000D03*
X142350000Y-146200000D03*
%TD*%
%TO.C,L5*%
X240850000Y-148350000D03*
X240850000Y-146200000D03*
%TD*%
%TO.C,L5*%
X43850000Y-196350000D03*
X43850000Y-194200000D03*
%TD*%
%TO.C,L5*%
X142350000Y-196350000D03*
X142350000Y-194200000D03*
%TD*%
%TO.C,L5*%
X240850000Y-196350000D03*
X240850000Y-194200000D03*
%TD*%
%TO.C,L5*%
X43850000Y-244350000D03*
X43850000Y-242200000D03*
%TD*%
%TO.C,L5*%
X142350000Y-244350000D03*
X142350000Y-242200000D03*
%TD*%
%TO.C,L5*%
X240850000Y-244350000D03*
X240850000Y-242200000D03*
%TD*%
D13*
%TO.C,Q2*%
X42850000Y-59275000D03*
X44750000Y-59275000D03*
X43800000Y-57400000D03*
%TD*%
%TO.C,Q2*%
X141350000Y-59275000D03*
X143250000Y-59275000D03*
X142300000Y-57400000D03*
%TD*%
%TO.C,Q2*%
X239850000Y-59275000D03*
X241750000Y-59275000D03*
X240800000Y-57400000D03*
%TD*%
%TO.C,Q2*%
X42850000Y-107275000D03*
X44750000Y-107275000D03*
X43800000Y-105400000D03*
%TD*%
%TO.C,Q2*%
X141350000Y-107275000D03*
X143250000Y-107275000D03*
X142300000Y-105400000D03*
%TD*%
%TO.C,Q2*%
X239850000Y-107275000D03*
X241750000Y-107275000D03*
X240800000Y-105400000D03*
%TD*%
%TO.C,Q2*%
X42850000Y-155275000D03*
X44750000Y-155275000D03*
X43800000Y-153400000D03*
%TD*%
%TO.C,Q2*%
X141350000Y-155275000D03*
X143250000Y-155275000D03*
X142300000Y-153400000D03*
%TD*%
%TO.C,Q2*%
X239850000Y-155275000D03*
X241750000Y-155275000D03*
X240800000Y-153400000D03*
%TD*%
%TO.C,Q2*%
X42850000Y-203275000D03*
X44750000Y-203275000D03*
X43800000Y-201400000D03*
%TD*%
%TO.C,Q2*%
X141350000Y-203275000D03*
X143250000Y-203275000D03*
X142300000Y-201400000D03*
%TD*%
%TO.C,Q2*%
X239850000Y-203275000D03*
X241750000Y-203275000D03*
X240800000Y-201400000D03*
%TD*%
%TO.C,Q2*%
X42850000Y-251275000D03*
X44750000Y-251275000D03*
X43800000Y-249400000D03*
%TD*%
%TO.C,Q2*%
X141350000Y-251275000D03*
X143250000Y-251275000D03*
X142300000Y-249400000D03*
%TD*%
%TO.C,Q2*%
X239850000Y-251275000D03*
X241750000Y-251275000D03*
X240800000Y-249400000D03*
%TD*%
D12*
%TO.C,D5*%
X18312500Y-50000000D03*
X20187500Y-50000000D03*
%TD*%
%TO.C,D5*%
X116812500Y-50000000D03*
X118687500Y-50000000D03*
%TD*%
%TO.C,D5*%
X215312500Y-50000000D03*
X217187500Y-50000000D03*
%TD*%
%TO.C,D5*%
X18312500Y-98000000D03*
X20187500Y-98000000D03*
%TD*%
%TO.C,D5*%
X116812500Y-98000000D03*
X118687500Y-98000000D03*
%TD*%
%TO.C,D5*%
X215312500Y-98000000D03*
X217187500Y-98000000D03*
%TD*%
%TO.C,D5*%
X18312500Y-146000000D03*
X20187500Y-146000000D03*
%TD*%
%TO.C,D5*%
X116812500Y-146000000D03*
X118687500Y-146000000D03*
%TD*%
%TO.C,D5*%
X215312500Y-146000000D03*
X217187500Y-146000000D03*
%TD*%
%TO.C,D5*%
X18312500Y-194000000D03*
X20187500Y-194000000D03*
%TD*%
%TO.C,D5*%
X116812500Y-194000000D03*
X118687500Y-194000000D03*
%TD*%
%TO.C,D5*%
X215312500Y-194000000D03*
X217187500Y-194000000D03*
%TD*%
%TO.C,D5*%
X18312500Y-242000000D03*
X20187500Y-242000000D03*
%TD*%
%TO.C,D5*%
X116812500Y-242000000D03*
X118687500Y-242000000D03*
%TD*%
%TO.C,D5*%
X215312500Y-242000000D03*
X217187500Y-242000000D03*
%TD*%
D14*
%TO.C,D13*%
X37187500Y-55000000D03*
X35312500Y-55000000D03*
%TD*%
%TO.C,D13*%
X135687500Y-55000000D03*
X133812500Y-55000000D03*
%TD*%
%TO.C,D13*%
X234187500Y-55000000D03*
X232312500Y-55000000D03*
%TD*%
%TO.C,D13*%
X37187500Y-103000000D03*
X35312500Y-103000000D03*
%TD*%
%TO.C,D13*%
X135687500Y-103000000D03*
X133812500Y-103000000D03*
%TD*%
%TO.C,D13*%
X234187500Y-103000000D03*
X232312500Y-103000000D03*
%TD*%
%TO.C,D13*%
X37187500Y-151000000D03*
X35312500Y-151000000D03*
%TD*%
%TO.C,D13*%
X135687500Y-151000000D03*
X133812500Y-151000000D03*
%TD*%
%TO.C,D13*%
X234187500Y-151000000D03*
X232312500Y-151000000D03*
%TD*%
%TO.C,D13*%
X37187500Y-199000000D03*
X35312500Y-199000000D03*
%TD*%
%TO.C,D13*%
X135687500Y-199000000D03*
X133812500Y-199000000D03*
%TD*%
%TO.C,D13*%
X234187500Y-199000000D03*
X232312500Y-199000000D03*
%TD*%
%TO.C,D13*%
X37187500Y-247000000D03*
X35312500Y-247000000D03*
%TD*%
%TO.C,D13*%
X135687500Y-247000000D03*
X133812500Y-247000000D03*
%TD*%
%TO.C,D13*%
X234187500Y-247000000D03*
X232312500Y-247000000D03*
%TD*%
D10*
%TO.C,D26*%
X80376000Y-41711500D03*
X80376000Y-39836500D03*
%TD*%
%TO.C,D26*%
X178876000Y-41711500D03*
X178876000Y-39836500D03*
%TD*%
%TO.C,D26*%
X277376000Y-41711500D03*
X277376000Y-39836500D03*
%TD*%
%TO.C,D26*%
X80376000Y-89711500D03*
X80376000Y-87836500D03*
%TD*%
%TO.C,D26*%
X178876000Y-89711500D03*
X178876000Y-87836500D03*
%TD*%
%TO.C,D26*%
X277376000Y-89711500D03*
X277376000Y-87836500D03*
%TD*%
%TO.C,D26*%
X80376000Y-137711500D03*
X80376000Y-135836500D03*
%TD*%
%TO.C,D26*%
X178876000Y-137711500D03*
X178876000Y-135836500D03*
%TD*%
%TO.C,D26*%
X277376000Y-137711500D03*
X277376000Y-135836500D03*
%TD*%
%TO.C,D26*%
X80376000Y-185711500D03*
X80376000Y-183836500D03*
%TD*%
%TO.C,D26*%
X178876000Y-185711500D03*
X178876000Y-183836500D03*
%TD*%
%TO.C,D26*%
X277376000Y-185711500D03*
X277376000Y-183836500D03*
%TD*%
%TO.C,D26*%
X80376000Y-233711500D03*
X80376000Y-231836500D03*
%TD*%
%TO.C,D26*%
X178876000Y-233711500D03*
X178876000Y-231836500D03*
%TD*%
%TO.C,D26*%
X277376000Y-233711500D03*
X277376000Y-231836500D03*
%TD*%
D12*
%TO.C,D1*%
X18312500Y-32000000D03*
X20187500Y-32000000D03*
%TD*%
%TO.C,D1*%
X116812500Y-32000000D03*
X118687500Y-32000000D03*
%TD*%
%TO.C,D1*%
X215312500Y-32000000D03*
X217187500Y-32000000D03*
%TD*%
%TO.C,D1*%
X18312500Y-80000000D03*
X20187500Y-80000000D03*
%TD*%
%TO.C,D1*%
X116812500Y-80000000D03*
X118687500Y-80000000D03*
%TD*%
%TO.C,D1*%
X215312500Y-80000000D03*
X217187500Y-80000000D03*
%TD*%
%TO.C,D1*%
X18312500Y-128000000D03*
X20187500Y-128000000D03*
%TD*%
%TO.C,D1*%
X116812500Y-128000000D03*
X118687500Y-128000000D03*
%TD*%
%TO.C,D1*%
X215312500Y-128000000D03*
X217187500Y-128000000D03*
%TD*%
%TO.C,D1*%
X18312500Y-176000000D03*
X20187500Y-176000000D03*
%TD*%
%TO.C,D1*%
X116812500Y-176000000D03*
X118687500Y-176000000D03*
%TD*%
%TO.C,D1*%
X215312500Y-176000000D03*
X217187500Y-176000000D03*
%TD*%
%TO.C,D1*%
X18312500Y-224000000D03*
X20187500Y-224000000D03*
%TD*%
%TO.C,D1*%
X116812500Y-224000000D03*
X118687500Y-224000000D03*
%TD*%
%TO.C,D1*%
X215312500Y-224000000D03*
X217187500Y-224000000D03*
%TD*%
D15*
%TO.C,D2*%
X12250000Y-36062500D03*
X12250000Y-37937500D03*
%TD*%
%TO.C,D2*%
X110750000Y-36062500D03*
X110750000Y-37937500D03*
%TD*%
%TO.C,D2*%
X209250000Y-36062500D03*
X209250000Y-37937500D03*
%TD*%
%TO.C,D2*%
X12250000Y-84062500D03*
X12250000Y-85937500D03*
%TD*%
%TO.C,D2*%
X110750000Y-84062500D03*
X110750000Y-85937500D03*
%TD*%
%TO.C,D2*%
X209250000Y-84062500D03*
X209250000Y-85937500D03*
%TD*%
%TO.C,D2*%
X12250000Y-132062500D03*
X12250000Y-133937500D03*
%TD*%
%TO.C,D2*%
X110750000Y-132062500D03*
X110750000Y-133937500D03*
%TD*%
%TO.C,D2*%
X209250000Y-132062500D03*
X209250000Y-133937500D03*
%TD*%
%TO.C,D2*%
X12250000Y-180062500D03*
X12250000Y-181937500D03*
%TD*%
%TO.C,D2*%
X110750000Y-180062500D03*
X110750000Y-181937500D03*
%TD*%
%TO.C,D2*%
X209250000Y-180062500D03*
X209250000Y-181937500D03*
%TD*%
%TO.C,D2*%
X12250000Y-228062500D03*
X12250000Y-229937500D03*
%TD*%
%TO.C,D2*%
X110750000Y-228062500D03*
X110750000Y-229937500D03*
%TD*%
%TO.C,D2*%
X209250000Y-228062500D03*
X209250000Y-229937500D03*
%TD*%
D16*
%TO.C,R8*%
X57050000Y-38450000D03*
X57050000Y-36800000D03*
%TD*%
%TO.C,R8*%
X155550000Y-38450000D03*
X155550000Y-36800000D03*
%TD*%
%TO.C,R8*%
X254050000Y-38450000D03*
X254050000Y-36800000D03*
%TD*%
%TO.C,R8*%
X57050000Y-86450000D03*
X57050000Y-84800000D03*
%TD*%
%TO.C,R8*%
X155550000Y-86450000D03*
X155550000Y-84800000D03*
%TD*%
%TO.C,R8*%
X254050000Y-86450000D03*
X254050000Y-84800000D03*
%TD*%
%TO.C,R8*%
X57050000Y-134450000D03*
X57050000Y-132800000D03*
%TD*%
%TO.C,R8*%
X155550000Y-134450000D03*
X155550000Y-132800000D03*
%TD*%
%TO.C,R8*%
X254050000Y-134450000D03*
X254050000Y-132800000D03*
%TD*%
%TO.C,R8*%
X57050000Y-182450000D03*
X57050000Y-180800000D03*
%TD*%
%TO.C,R8*%
X155550000Y-182450000D03*
X155550000Y-180800000D03*
%TD*%
%TO.C,R8*%
X254050000Y-182450000D03*
X254050000Y-180800000D03*
%TD*%
%TO.C,R8*%
X57050000Y-230450000D03*
X57050000Y-228800000D03*
%TD*%
%TO.C,R8*%
X155550000Y-230450000D03*
X155550000Y-228800000D03*
%TD*%
%TO.C,R8*%
X254050000Y-230450000D03*
X254050000Y-228800000D03*
%TD*%
D12*
%TO.C,D10*%
X39312500Y-50000000D03*
X41187500Y-50000000D03*
%TD*%
%TO.C,D10*%
X137812500Y-50000000D03*
X139687500Y-50000000D03*
%TD*%
%TO.C,D10*%
X236312500Y-50000000D03*
X238187500Y-50000000D03*
%TD*%
%TO.C,D10*%
X39312500Y-98000000D03*
X41187500Y-98000000D03*
%TD*%
%TO.C,D10*%
X137812500Y-98000000D03*
X139687500Y-98000000D03*
%TD*%
%TO.C,D10*%
X236312500Y-98000000D03*
X238187500Y-98000000D03*
%TD*%
%TO.C,D10*%
X39312500Y-146000000D03*
X41187500Y-146000000D03*
%TD*%
%TO.C,D10*%
X137812500Y-146000000D03*
X139687500Y-146000000D03*
%TD*%
%TO.C,D10*%
X236312500Y-146000000D03*
X238187500Y-146000000D03*
%TD*%
%TO.C,D10*%
X39312500Y-194000000D03*
X41187500Y-194000000D03*
%TD*%
%TO.C,D10*%
X137812500Y-194000000D03*
X139687500Y-194000000D03*
%TD*%
%TO.C,D10*%
X236312500Y-194000000D03*
X238187500Y-194000000D03*
%TD*%
%TO.C,D10*%
X39312500Y-242000000D03*
X41187500Y-242000000D03*
%TD*%
%TO.C,D10*%
X137812500Y-242000000D03*
X139687500Y-242000000D03*
%TD*%
%TO.C,D10*%
X236312500Y-242000000D03*
X238187500Y-242000000D03*
%TD*%
D17*
%TO.C,R12*%
X94450000Y-58600000D03*
X92800000Y-58600000D03*
%TD*%
%TO.C,R12*%
X192950000Y-58600000D03*
X191300000Y-58600000D03*
%TD*%
%TO.C,R12*%
X291450000Y-58600000D03*
X289800000Y-58600000D03*
%TD*%
%TO.C,R12*%
X94450000Y-106600000D03*
X92800000Y-106600000D03*
%TD*%
%TO.C,R12*%
X192950000Y-106600000D03*
X191300000Y-106600000D03*
%TD*%
%TO.C,R12*%
X291450000Y-106600000D03*
X289800000Y-106600000D03*
%TD*%
%TO.C,R12*%
X94450000Y-154600000D03*
X92800000Y-154600000D03*
%TD*%
%TO.C,R12*%
X192950000Y-154600000D03*
X191300000Y-154600000D03*
%TD*%
%TO.C,R12*%
X291450000Y-154600000D03*
X289800000Y-154600000D03*
%TD*%
%TO.C,R12*%
X94450000Y-202600000D03*
X92800000Y-202600000D03*
%TD*%
%TO.C,R12*%
X192950000Y-202600000D03*
X191300000Y-202600000D03*
%TD*%
%TO.C,R12*%
X291450000Y-202600000D03*
X289800000Y-202600000D03*
%TD*%
%TO.C,R12*%
X94450000Y-250600000D03*
X92800000Y-250600000D03*
%TD*%
%TO.C,R12*%
X192950000Y-250600000D03*
X191300000Y-250600000D03*
%TD*%
%TO.C,R12*%
X291450000Y-250600000D03*
X289800000Y-250600000D03*
%TD*%
D12*
%TO.C,D15*%
X61404500Y-29090000D03*
X63279500Y-29090000D03*
%TD*%
%TO.C,D15*%
X159904500Y-29090000D03*
X161779500Y-29090000D03*
%TD*%
%TO.C,D15*%
X258404500Y-29090000D03*
X260279500Y-29090000D03*
%TD*%
%TO.C,D15*%
X61404500Y-77090000D03*
X63279500Y-77090000D03*
%TD*%
%TO.C,D15*%
X159904500Y-77090000D03*
X161779500Y-77090000D03*
%TD*%
%TO.C,D15*%
X258404500Y-77090000D03*
X260279500Y-77090000D03*
%TD*%
%TO.C,D15*%
X61404500Y-125090000D03*
X63279500Y-125090000D03*
%TD*%
%TO.C,D15*%
X159904500Y-125090000D03*
X161779500Y-125090000D03*
%TD*%
%TO.C,D15*%
X258404500Y-125090000D03*
X260279500Y-125090000D03*
%TD*%
%TO.C,D15*%
X61404500Y-173090000D03*
X63279500Y-173090000D03*
%TD*%
%TO.C,D15*%
X159904500Y-173090000D03*
X161779500Y-173090000D03*
%TD*%
%TO.C,D15*%
X258404500Y-173090000D03*
X260279500Y-173090000D03*
%TD*%
%TO.C,D15*%
X61404500Y-221090000D03*
X63279500Y-221090000D03*
%TD*%
%TO.C,D15*%
X159904500Y-221090000D03*
X161779500Y-221090000D03*
%TD*%
%TO.C,D15*%
X258404500Y-221090000D03*
X260279500Y-221090000D03*
%TD*%
%TO.C,D14*%
X53312500Y-55000000D03*
X55187500Y-55000000D03*
%TD*%
%TO.C,D14*%
X151812500Y-55000000D03*
X153687500Y-55000000D03*
%TD*%
%TO.C,D14*%
X250312500Y-55000000D03*
X252187500Y-55000000D03*
%TD*%
%TO.C,D14*%
X53312500Y-103000000D03*
X55187500Y-103000000D03*
%TD*%
%TO.C,D14*%
X151812500Y-103000000D03*
X153687500Y-103000000D03*
%TD*%
%TO.C,D14*%
X250312500Y-103000000D03*
X252187500Y-103000000D03*
%TD*%
%TO.C,D14*%
X53312500Y-151000000D03*
X55187500Y-151000000D03*
%TD*%
%TO.C,D14*%
X151812500Y-151000000D03*
X153687500Y-151000000D03*
%TD*%
%TO.C,D14*%
X250312500Y-151000000D03*
X252187500Y-151000000D03*
%TD*%
%TO.C,D14*%
X53312500Y-199000000D03*
X55187500Y-199000000D03*
%TD*%
%TO.C,D14*%
X151812500Y-199000000D03*
X153687500Y-199000000D03*
%TD*%
%TO.C,D14*%
X250312500Y-199000000D03*
X252187500Y-199000000D03*
%TD*%
%TO.C,D14*%
X53312500Y-247000000D03*
X55187500Y-247000000D03*
%TD*%
%TO.C,D14*%
X151812500Y-247000000D03*
X153687500Y-247000000D03*
%TD*%
%TO.C,D14*%
X250312500Y-247000000D03*
X252187500Y-247000000D03*
%TD*%
D18*
%TO.C,C3*%
X12558000Y-43600000D03*
X12558000Y-45500000D03*
%TD*%
%TO.C,C3*%
X111058000Y-43600000D03*
X111058000Y-45500000D03*
%TD*%
%TO.C,C3*%
X209558000Y-43600000D03*
X209558000Y-45500000D03*
%TD*%
%TO.C,C3*%
X12558000Y-91600000D03*
X12558000Y-93500000D03*
%TD*%
%TO.C,C3*%
X111058000Y-91600000D03*
X111058000Y-93500000D03*
%TD*%
%TO.C,C3*%
X209558000Y-91600000D03*
X209558000Y-93500000D03*
%TD*%
%TO.C,C3*%
X12558000Y-139600000D03*
X12558000Y-141500000D03*
%TD*%
%TO.C,C3*%
X111058000Y-139600000D03*
X111058000Y-141500000D03*
%TD*%
%TO.C,C3*%
X209558000Y-139600000D03*
X209558000Y-141500000D03*
%TD*%
%TO.C,C3*%
X12558000Y-187600000D03*
X12558000Y-189500000D03*
%TD*%
%TO.C,C3*%
X111058000Y-187600000D03*
X111058000Y-189500000D03*
%TD*%
%TO.C,C3*%
X209558000Y-187600000D03*
X209558000Y-189500000D03*
%TD*%
%TO.C,C3*%
X12558000Y-235600000D03*
X12558000Y-237500000D03*
%TD*%
%TO.C,C3*%
X111058000Y-235600000D03*
X111058000Y-237500000D03*
%TD*%
%TO.C,C3*%
X209558000Y-235600000D03*
X209558000Y-237500000D03*
%TD*%
D12*
%TO.C,D11*%
X115916500Y-247002000D03*
X117687500Y-247000000D03*
%TD*%
%TO.C,D11*%
X214416500Y-247002000D03*
X216187500Y-247000000D03*
%TD*%
%TO.C,D11*%
X17416500Y-55002000D03*
X19187500Y-55000000D03*
%TD*%
%TO.C,D11*%
X115916500Y-55002000D03*
X117687500Y-55000000D03*
%TD*%
%TO.C,D11*%
X214416500Y-55002000D03*
X216187500Y-55000000D03*
%TD*%
%TO.C,D11*%
X17416500Y-103002000D03*
X19187500Y-103000000D03*
%TD*%
%TO.C,D11*%
X115916500Y-103002000D03*
X117687500Y-103000000D03*
%TD*%
%TO.C,D11*%
X214416500Y-103002000D03*
X216187500Y-103000000D03*
%TD*%
%TO.C,D11*%
X17416500Y-151002000D03*
X19187500Y-151000000D03*
%TD*%
%TO.C,D11*%
X115916500Y-151002000D03*
X117687500Y-151000000D03*
%TD*%
%TO.C,D11*%
X214416500Y-151002000D03*
X216187500Y-151000000D03*
%TD*%
%TO.C,D11*%
X17416500Y-199002000D03*
X19187500Y-199000000D03*
%TD*%
%TO.C,D11*%
X115916500Y-199002000D03*
X117687500Y-199000000D03*
%TD*%
%TO.C,D11*%
X214416500Y-199002000D03*
X216187500Y-199000000D03*
%TD*%
%TO.C,D11*%
X17416500Y-247002000D03*
X19187500Y-247000000D03*
%TD*%
D19*
%TO.C,SW1*%
X12200000Y-56825000D03*
X6200000Y-56825000D03*
X12200000Y-53075000D03*
X6200000Y-53075000D03*
%TD*%
%TO.C,SW1*%
X110700000Y-56825000D03*
X104700000Y-56825000D03*
X110700000Y-53075000D03*
X104700000Y-53075000D03*
%TD*%
%TO.C,SW1*%
X209200000Y-56825000D03*
X203200000Y-56825000D03*
X209200000Y-53075000D03*
X203200000Y-53075000D03*
%TD*%
%TO.C,SW1*%
X12200000Y-104825000D03*
X6200000Y-104825000D03*
X12200000Y-101075000D03*
X6200000Y-101075000D03*
%TD*%
%TO.C,SW1*%
X110700000Y-104825000D03*
X104700000Y-104825000D03*
X110700000Y-101075000D03*
X104700000Y-101075000D03*
%TD*%
%TO.C,SW1*%
X209200000Y-104825000D03*
X203200000Y-104825000D03*
X209200000Y-101075000D03*
X203200000Y-101075000D03*
%TD*%
%TO.C,SW1*%
X12200000Y-152825000D03*
X6200000Y-152825000D03*
X12200000Y-149075000D03*
X6200000Y-149075000D03*
%TD*%
%TO.C,SW1*%
X110700000Y-152825000D03*
X104700000Y-152825000D03*
X110700000Y-149075000D03*
X104700000Y-149075000D03*
%TD*%
%TO.C,SW1*%
X209200000Y-152825000D03*
X203200000Y-152825000D03*
X209200000Y-149075000D03*
X203200000Y-149075000D03*
%TD*%
%TO.C,SW1*%
X12200000Y-200825000D03*
X6200000Y-200825000D03*
X12200000Y-197075000D03*
X6200000Y-197075000D03*
%TD*%
%TO.C,SW1*%
X110700000Y-200825000D03*
X104700000Y-200825000D03*
X110700000Y-197075000D03*
X104700000Y-197075000D03*
%TD*%
%TO.C,SW1*%
X209200000Y-200825000D03*
X203200000Y-200825000D03*
X209200000Y-197075000D03*
X203200000Y-197075000D03*
%TD*%
%TO.C,SW1*%
X12200000Y-248825000D03*
X6200000Y-248825000D03*
X12200000Y-245075000D03*
X6200000Y-245075000D03*
%TD*%
%TO.C,SW1*%
X110700000Y-248825000D03*
X104700000Y-248825000D03*
X110700000Y-245075000D03*
X104700000Y-245075000D03*
%TD*%
%TO.C,SW1*%
X209200000Y-248825000D03*
X203200000Y-248825000D03*
X209200000Y-245075000D03*
X203200000Y-245075000D03*
%TD*%
D13*
%TO.C,Q3*%
X65964000Y-48315500D03*
X67864000Y-48315500D03*
X66914000Y-46440500D03*
%TD*%
%TO.C,Q3*%
X164464000Y-48315500D03*
X166364000Y-48315500D03*
X165414000Y-46440500D03*
%TD*%
%TO.C,Q3*%
X262964000Y-48315500D03*
X264864000Y-48315500D03*
X263914000Y-46440500D03*
%TD*%
%TO.C,Q3*%
X65964000Y-96315500D03*
X67864000Y-96315500D03*
X66914000Y-94440500D03*
%TD*%
%TO.C,Q3*%
X164464000Y-96315500D03*
X166364000Y-96315500D03*
X165414000Y-94440500D03*
%TD*%
%TO.C,Q3*%
X262964000Y-96315500D03*
X264864000Y-96315500D03*
X263914000Y-94440500D03*
%TD*%
%TO.C,Q3*%
X65964000Y-144315500D03*
X67864000Y-144315500D03*
X66914000Y-142440500D03*
%TD*%
%TO.C,Q3*%
X164464000Y-144315500D03*
X166364000Y-144315500D03*
X165414000Y-142440500D03*
%TD*%
%TO.C,Q3*%
X262964000Y-144315500D03*
X264864000Y-144315500D03*
X263914000Y-142440500D03*
%TD*%
%TO.C,Q3*%
X65964000Y-192315500D03*
X67864000Y-192315500D03*
X66914000Y-190440500D03*
%TD*%
%TO.C,Q3*%
X164464000Y-192315500D03*
X166364000Y-192315500D03*
X165414000Y-190440500D03*
%TD*%
%TO.C,Q3*%
X262964000Y-192315500D03*
X264864000Y-192315500D03*
X263914000Y-190440500D03*
%TD*%
%TO.C,Q3*%
X65964000Y-240315500D03*
X67864000Y-240315500D03*
X66914000Y-238440500D03*
%TD*%
%TO.C,Q3*%
X164464000Y-240315500D03*
X166364000Y-240315500D03*
X165414000Y-238440500D03*
%TD*%
%TO.C,Q3*%
X262964000Y-240315500D03*
X264864000Y-240315500D03*
X263914000Y-238440500D03*
%TD*%
D20*
%TO.C,R2*%
X32850000Y-55950000D03*
X32850000Y-57600000D03*
%TD*%
%TO.C,R2*%
X131350000Y-55950000D03*
X131350000Y-57600000D03*
%TD*%
%TO.C,R2*%
X229850000Y-55950000D03*
X229850000Y-57600000D03*
%TD*%
%TO.C,R2*%
X32850000Y-103950000D03*
X32850000Y-105600000D03*
%TD*%
%TO.C,R2*%
X131350000Y-103950000D03*
X131350000Y-105600000D03*
%TD*%
%TO.C,R2*%
X229850000Y-103950000D03*
X229850000Y-105600000D03*
%TD*%
%TO.C,R2*%
X32850000Y-151950000D03*
X32850000Y-153600000D03*
%TD*%
%TO.C,R2*%
X131350000Y-151950000D03*
X131350000Y-153600000D03*
%TD*%
%TO.C,R2*%
X229850000Y-151950000D03*
X229850000Y-153600000D03*
%TD*%
%TO.C,R2*%
X32850000Y-199950000D03*
X32850000Y-201600000D03*
%TD*%
%TO.C,R2*%
X131350000Y-199950000D03*
X131350000Y-201600000D03*
%TD*%
%TO.C,R2*%
X229850000Y-199950000D03*
X229850000Y-201600000D03*
%TD*%
%TO.C,R2*%
X32850000Y-247950000D03*
X32850000Y-249600000D03*
%TD*%
%TO.C,R2*%
X131350000Y-247950000D03*
X131350000Y-249600000D03*
%TD*%
%TO.C,R2*%
X229850000Y-247950000D03*
X229850000Y-249600000D03*
%TD*%
D21*
%TO.C,L4*%
X26850000Y-60600000D03*
X24700000Y-60600000D03*
%TD*%
%TO.C,L4*%
X125350000Y-60600000D03*
X123200000Y-60600000D03*
%TD*%
%TO.C,L4*%
X223850000Y-60600000D03*
X221700000Y-60600000D03*
%TD*%
%TO.C,L4*%
X26850000Y-108600000D03*
X24700000Y-108600000D03*
%TD*%
%TO.C,L4*%
X125350000Y-108600000D03*
X123200000Y-108600000D03*
%TD*%
%TO.C,L4*%
X223850000Y-108600000D03*
X221700000Y-108600000D03*
%TD*%
%TO.C,L4*%
X26850000Y-156600000D03*
X24700000Y-156600000D03*
%TD*%
%TO.C,L4*%
X125350000Y-156600000D03*
X123200000Y-156600000D03*
%TD*%
%TO.C,L4*%
X223850000Y-156600000D03*
X221700000Y-156600000D03*
%TD*%
%TO.C,L4*%
X26850000Y-204600000D03*
X24700000Y-204600000D03*
%TD*%
%TO.C,L4*%
X125350000Y-204600000D03*
X123200000Y-204600000D03*
%TD*%
%TO.C,L4*%
X223850000Y-204600000D03*
X221700000Y-204600000D03*
%TD*%
%TO.C,L4*%
X26850000Y-252600000D03*
X24700000Y-252600000D03*
%TD*%
%TO.C,L4*%
X125350000Y-252600000D03*
X123200000Y-252600000D03*
%TD*%
%TO.C,L4*%
X223850000Y-252600000D03*
X221700000Y-252600000D03*
%TD*%
D12*
%TO.C,D27*%
X83756500Y-44076000D03*
X85631500Y-44076000D03*
%TD*%
%TO.C,D27*%
X182256500Y-44076000D03*
X184131500Y-44076000D03*
%TD*%
%TO.C,D27*%
X280756500Y-44076000D03*
X282631500Y-44076000D03*
%TD*%
%TO.C,D27*%
X83756500Y-92076000D03*
X85631500Y-92076000D03*
%TD*%
%TO.C,D27*%
X182256500Y-92076000D03*
X184131500Y-92076000D03*
%TD*%
%TO.C,D27*%
X280756500Y-92076000D03*
X282631500Y-92076000D03*
%TD*%
%TO.C,D27*%
X83756500Y-140076000D03*
X85631500Y-140076000D03*
%TD*%
%TO.C,D27*%
X182256500Y-140076000D03*
X184131500Y-140076000D03*
%TD*%
%TO.C,D27*%
X280756500Y-140076000D03*
X282631500Y-140076000D03*
%TD*%
%TO.C,D27*%
X83756500Y-188076000D03*
X85631500Y-188076000D03*
%TD*%
%TO.C,D27*%
X182256500Y-188076000D03*
X184131500Y-188076000D03*
%TD*%
%TO.C,D27*%
X280756500Y-188076000D03*
X282631500Y-188076000D03*
%TD*%
%TO.C,D27*%
X83756500Y-236076000D03*
X85631500Y-236076000D03*
%TD*%
%TO.C,D27*%
X182256500Y-236076000D03*
X184131500Y-236076000D03*
%TD*%
%TO.C,D27*%
X280756500Y-236076000D03*
X282631500Y-236076000D03*
%TD*%
D13*
%TO.C,Q4*%
X86700000Y-60737500D03*
X88600000Y-60737500D03*
X87650000Y-58862500D03*
%TD*%
%TO.C,Q4*%
X185200000Y-60737500D03*
X187100000Y-60737500D03*
X186150000Y-58862500D03*
%TD*%
%TO.C,Q4*%
X283700000Y-60737500D03*
X285600000Y-60737500D03*
X284650000Y-58862500D03*
%TD*%
%TO.C,Q4*%
X86700000Y-108737500D03*
X88600000Y-108737500D03*
X87650000Y-106862500D03*
%TD*%
%TO.C,Q4*%
X185200000Y-108737500D03*
X187100000Y-108737500D03*
X186150000Y-106862500D03*
%TD*%
%TO.C,Q4*%
X283700000Y-108737500D03*
X285600000Y-108737500D03*
X284650000Y-106862500D03*
%TD*%
%TO.C,Q4*%
X86700000Y-156737500D03*
X88600000Y-156737500D03*
X87650000Y-154862500D03*
%TD*%
%TO.C,Q4*%
X185200000Y-156737500D03*
X187100000Y-156737500D03*
X186150000Y-154862500D03*
%TD*%
%TO.C,Q4*%
X283700000Y-156737500D03*
X285600000Y-156737500D03*
X284650000Y-154862500D03*
%TD*%
%TO.C,Q4*%
X86700000Y-204737500D03*
X88600000Y-204737500D03*
X87650000Y-202862500D03*
%TD*%
%TO.C,Q4*%
X185200000Y-204737500D03*
X187100000Y-204737500D03*
X186150000Y-202862500D03*
%TD*%
%TO.C,Q4*%
X283700000Y-204737500D03*
X285600000Y-204737500D03*
X284650000Y-202862500D03*
%TD*%
%TO.C,Q4*%
X86700000Y-252737500D03*
X88600000Y-252737500D03*
X87650000Y-250862500D03*
%TD*%
%TO.C,Q4*%
X185200000Y-252737500D03*
X187100000Y-252737500D03*
X186150000Y-250862500D03*
%TD*%
%TO.C,Q4*%
X283700000Y-252737500D03*
X285600000Y-252737500D03*
X284650000Y-250862500D03*
%TD*%
D12*
%TO.C,D6*%
X39312500Y-32000000D03*
X41187500Y-32000000D03*
%TD*%
%TO.C,D6*%
X137812500Y-32000000D03*
X139687500Y-32000000D03*
%TD*%
%TO.C,D6*%
X236312500Y-32000000D03*
X238187500Y-32000000D03*
%TD*%
%TO.C,D6*%
X39312500Y-128000000D03*
X41187500Y-128000000D03*
%TD*%
%TO.C,D6*%
X39312500Y-80000000D03*
X41187500Y-80000000D03*
%TD*%
%TO.C,D6*%
X137812500Y-80000000D03*
X139687500Y-80000000D03*
%TD*%
%TO.C,D6*%
X236312500Y-80000000D03*
X238187500Y-80000000D03*
%TD*%
%TO.C,D6*%
X137812500Y-128000000D03*
X139687500Y-128000000D03*
%TD*%
%TO.C,D6*%
X236312500Y-128000000D03*
X238187500Y-128000000D03*
%TD*%
%TO.C,D6*%
X39312500Y-176000000D03*
X41187500Y-176000000D03*
%TD*%
%TO.C,D6*%
X137812500Y-176000000D03*
X139687500Y-176000000D03*
%TD*%
%TO.C,D6*%
X236312500Y-176000000D03*
X238187500Y-176000000D03*
%TD*%
%TO.C,D6*%
X39312500Y-224000000D03*
X41187500Y-224000000D03*
%TD*%
%TO.C,D6*%
X137812500Y-224000000D03*
X139687500Y-224000000D03*
%TD*%
%TO.C,D6*%
X236312500Y-224000000D03*
X238187500Y-224000000D03*
%TD*%
D10*
%TO.C,D24*%
X70470000Y-40695500D03*
X70470000Y-38820500D03*
%TD*%
%TO.C,D24*%
X168970000Y-40695500D03*
X168970000Y-38820500D03*
%TD*%
%TO.C,D24*%
X267470000Y-40695500D03*
X267470000Y-38820500D03*
%TD*%
%TO.C,D24*%
X70470000Y-88695500D03*
X70470000Y-86820500D03*
%TD*%
%TO.C,D24*%
X168970000Y-88695500D03*
X168970000Y-86820500D03*
%TD*%
%TO.C,D24*%
X267470000Y-88695500D03*
X267470000Y-86820500D03*
%TD*%
%TO.C,D24*%
X70470000Y-136695500D03*
X70470000Y-134820500D03*
%TD*%
%TO.C,D24*%
X168970000Y-136695500D03*
X168970000Y-134820500D03*
%TD*%
%TO.C,D24*%
X267470000Y-136695500D03*
X267470000Y-134820500D03*
%TD*%
%TO.C,D24*%
X70470000Y-184695500D03*
X70470000Y-182820500D03*
%TD*%
%TO.C,D24*%
X168970000Y-184695500D03*
X168970000Y-182820500D03*
%TD*%
%TO.C,D24*%
X267470000Y-184695500D03*
X267470000Y-182820500D03*
%TD*%
%TO.C,D24*%
X70470000Y-232695500D03*
X70470000Y-230820500D03*
%TD*%
%TO.C,D24*%
X168970000Y-232695500D03*
X168970000Y-230820500D03*
%TD*%
%TO.C,D24*%
X267470000Y-232695500D03*
X267470000Y-230820500D03*
%TD*%
D15*
%TO.C,D7*%
X33250000Y-36062500D03*
X33250000Y-37937500D03*
%TD*%
%TO.C,D7*%
X131750000Y-36062500D03*
X131750000Y-37937500D03*
%TD*%
%TO.C,D7*%
X230250000Y-36062500D03*
X230250000Y-37937500D03*
%TD*%
%TO.C,D7*%
X33250000Y-84062500D03*
X33250000Y-85937500D03*
%TD*%
%TO.C,D7*%
X131750000Y-84062500D03*
X131750000Y-85937500D03*
%TD*%
%TO.C,D7*%
X230250000Y-84062500D03*
X230250000Y-85937500D03*
%TD*%
%TO.C,D7*%
X33250000Y-132062500D03*
X33250000Y-133937500D03*
%TD*%
%TO.C,D7*%
X131750000Y-132062500D03*
X131750000Y-133937500D03*
%TD*%
%TO.C,D7*%
X230250000Y-132062500D03*
X230250000Y-133937500D03*
%TD*%
%TO.C,D7*%
X33250000Y-180062500D03*
X33250000Y-181937500D03*
%TD*%
%TO.C,D7*%
X131750000Y-180062500D03*
X131750000Y-181937500D03*
%TD*%
%TO.C,D7*%
X230250000Y-180062500D03*
X230250000Y-181937500D03*
%TD*%
%TO.C,D7*%
X33250000Y-228062500D03*
X33250000Y-229937500D03*
%TD*%
%TO.C,D7*%
X131750000Y-228062500D03*
X131750000Y-229937500D03*
%TD*%
%TO.C,D7*%
X230250000Y-228062500D03*
X230250000Y-229937500D03*
%TD*%
D11*
%TO.C,L1*%
X66914000Y-44135000D03*
X66914000Y-41985000D03*
%TD*%
%TO.C,L1*%
X165414000Y-44135000D03*
X165414000Y-41985000D03*
%TD*%
%TO.C,L1*%
X263914000Y-44135000D03*
X263914000Y-41985000D03*
%TD*%
%TO.C,L1*%
X66914000Y-92135000D03*
X66914000Y-89985000D03*
%TD*%
%TO.C,L1*%
X165414000Y-92135000D03*
X165414000Y-89985000D03*
%TD*%
%TO.C,L1*%
X263914000Y-92135000D03*
X263914000Y-89985000D03*
%TD*%
%TO.C,L1*%
X66914000Y-140135000D03*
X66914000Y-137985000D03*
%TD*%
%TO.C,L1*%
X165414000Y-140135000D03*
X165414000Y-137985000D03*
%TD*%
%TO.C,L1*%
X263914000Y-140135000D03*
X263914000Y-137985000D03*
%TD*%
%TO.C,L1*%
X66914000Y-188135000D03*
X66914000Y-185985000D03*
%TD*%
%TO.C,L1*%
X165414000Y-188135000D03*
X165414000Y-185985000D03*
%TD*%
%TO.C,L1*%
X263914000Y-188135000D03*
X263914000Y-185985000D03*
%TD*%
%TO.C,L1*%
X66914000Y-236135000D03*
X66914000Y-233985000D03*
%TD*%
%TO.C,L1*%
X165414000Y-236135000D03*
X165414000Y-233985000D03*
%TD*%
%TO.C,L1*%
X263914000Y-236135000D03*
X263914000Y-233985000D03*
%TD*%
D22*
%TO.C,U1*%
X59886800Y-55582200D03*
X59886800Y-56852200D03*
X59886800Y-58122200D03*
X59886800Y-59392200D03*
X59886800Y-60662200D03*
X59886800Y-61932200D03*
X59886800Y-63202200D03*
X59886800Y-64472200D03*
X65186800Y-64472200D03*
X65186800Y-63202200D03*
X65186800Y-61932200D03*
X65186800Y-60662200D03*
X65186800Y-59392200D03*
X65186800Y-58122200D03*
X65186800Y-56852200D03*
X65186800Y-55582200D03*
%TD*%
%TO.C,U1*%
X158386800Y-55582200D03*
X158386800Y-56852200D03*
X158386800Y-58122200D03*
X158386800Y-59392200D03*
X158386800Y-60662200D03*
X158386800Y-61932200D03*
X158386800Y-63202200D03*
X158386800Y-64472200D03*
X163686800Y-64472200D03*
X163686800Y-63202200D03*
X163686800Y-61932200D03*
X163686800Y-60662200D03*
X163686800Y-59392200D03*
X163686800Y-58122200D03*
X163686800Y-56852200D03*
X163686800Y-55582200D03*
%TD*%
%TO.C,U1*%
X256886800Y-55582200D03*
X256886800Y-56852200D03*
X256886800Y-58122200D03*
X256886800Y-59392200D03*
X256886800Y-60662200D03*
X256886800Y-61932200D03*
X256886800Y-63202200D03*
X256886800Y-64472200D03*
X262186800Y-64472200D03*
X262186800Y-63202200D03*
X262186800Y-61932200D03*
X262186800Y-60662200D03*
X262186800Y-59392200D03*
X262186800Y-58122200D03*
X262186800Y-56852200D03*
X262186800Y-55582200D03*
%TD*%
%TO.C,U1*%
X59886800Y-103582200D03*
X59886800Y-104852200D03*
X59886800Y-106122200D03*
X59886800Y-107392200D03*
X59886800Y-108662200D03*
X59886800Y-109932200D03*
X59886800Y-111202200D03*
X59886800Y-112472200D03*
X65186800Y-112472200D03*
X65186800Y-111202200D03*
X65186800Y-109932200D03*
X65186800Y-108662200D03*
X65186800Y-107392200D03*
X65186800Y-106122200D03*
X65186800Y-104852200D03*
X65186800Y-103582200D03*
%TD*%
%TO.C,U1*%
X158386800Y-103582200D03*
X158386800Y-104852200D03*
X158386800Y-106122200D03*
X158386800Y-107392200D03*
X158386800Y-108662200D03*
X158386800Y-109932200D03*
X158386800Y-111202200D03*
X158386800Y-112472200D03*
X163686800Y-112472200D03*
X163686800Y-111202200D03*
X163686800Y-109932200D03*
X163686800Y-108662200D03*
X163686800Y-107392200D03*
X163686800Y-106122200D03*
X163686800Y-104852200D03*
X163686800Y-103582200D03*
%TD*%
%TO.C,U1*%
X256886800Y-103582200D03*
X256886800Y-104852200D03*
X256886800Y-106122200D03*
X256886800Y-107392200D03*
X256886800Y-108662200D03*
X256886800Y-109932200D03*
X256886800Y-111202200D03*
X256886800Y-112472200D03*
X262186800Y-112472200D03*
X262186800Y-111202200D03*
X262186800Y-109932200D03*
X262186800Y-108662200D03*
X262186800Y-107392200D03*
X262186800Y-106122200D03*
X262186800Y-104852200D03*
X262186800Y-103582200D03*
%TD*%
%TO.C,U1*%
X59886800Y-151582200D03*
X59886800Y-152852200D03*
X59886800Y-154122200D03*
X59886800Y-155392200D03*
X59886800Y-156662200D03*
X59886800Y-157932200D03*
X59886800Y-159202200D03*
X59886800Y-160472200D03*
X65186800Y-160472200D03*
X65186800Y-159202200D03*
X65186800Y-157932200D03*
X65186800Y-156662200D03*
X65186800Y-155392200D03*
X65186800Y-154122200D03*
X65186800Y-152852200D03*
X65186800Y-151582200D03*
%TD*%
%TO.C,U1*%
X158386800Y-151582200D03*
X158386800Y-152852200D03*
X158386800Y-154122200D03*
X158386800Y-155392200D03*
X158386800Y-156662200D03*
X158386800Y-157932200D03*
X158386800Y-159202200D03*
X158386800Y-160472200D03*
X163686800Y-160472200D03*
X163686800Y-159202200D03*
X163686800Y-157932200D03*
X163686800Y-156662200D03*
X163686800Y-155392200D03*
X163686800Y-154122200D03*
X163686800Y-152852200D03*
X163686800Y-151582200D03*
%TD*%
%TO.C,U1*%
X256886800Y-151582200D03*
X256886800Y-152852200D03*
X256886800Y-154122200D03*
X256886800Y-155392200D03*
X256886800Y-156662200D03*
X256886800Y-157932200D03*
X256886800Y-159202200D03*
X256886800Y-160472200D03*
X262186800Y-160472200D03*
X262186800Y-159202200D03*
X262186800Y-157932200D03*
X262186800Y-156662200D03*
X262186800Y-155392200D03*
X262186800Y-154122200D03*
X262186800Y-152852200D03*
X262186800Y-151582200D03*
%TD*%
%TO.C,U1*%
X59886800Y-199582200D03*
X59886800Y-200852200D03*
X59886800Y-202122200D03*
X59886800Y-203392200D03*
X59886800Y-204662200D03*
X59886800Y-205932200D03*
X59886800Y-207202200D03*
X59886800Y-208472200D03*
X65186800Y-208472200D03*
X65186800Y-207202200D03*
X65186800Y-205932200D03*
X65186800Y-204662200D03*
X65186800Y-203392200D03*
X65186800Y-202122200D03*
X65186800Y-200852200D03*
X65186800Y-199582200D03*
%TD*%
%TO.C,U1*%
X158386800Y-199582200D03*
X158386800Y-200852200D03*
X158386800Y-202122200D03*
X158386800Y-203392200D03*
X158386800Y-204662200D03*
X158386800Y-205932200D03*
X158386800Y-207202200D03*
X158386800Y-208472200D03*
X163686800Y-208472200D03*
X163686800Y-207202200D03*
X163686800Y-205932200D03*
X163686800Y-204662200D03*
X163686800Y-203392200D03*
X163686800Y-202122200D03*
X163686800Y-200852200D03*
X163686800Y-199582200D03*
%TD*%
%TO.C,U1*%
X256886800Y-199582200D03*
X256886800Y-200852200D03*
X256886800Y-202122200D03*
X256886800Y-203392200D03*
X256886800Y-204662200D03*
X256886800Y-205932200D03*
X256886800Y-207202200D03*
X256886800Y-208472200D03*
X262186800Y-208472200D03*
X262186800Y-207202200D03*
X262186800Y-205932200D03*
X262186800Y-204662200D03*
X262186800Y-203392200D03*
X262186800Y-202122200D03*
X262186800Y-200852200D03*
X262186800Y-199582200D03*
%TD*%
%TO.C,U1*%
X59886800Y-247582200D03*
X59886800Y-248852200D03*
X59886800Y-250122200D03*
X59886800Y-251392200D03*
X59886800Y-252662200D03*
X59886800Y-253932200D03*
X59886800Y-255202200D03*
X59886800Y-256472200D03*
X65186800Y-256472200D03*
X65186800Y-255202200D03*
X65186800Y-253932200D03*
X65186800Y-252662200D03*
X65186800Y-251392200D03*
X65186800Y-250122200D03*
X65186800Y-248852200D03*
X65186800Y-247582200D03*
%TD*%
%TO.C,U1*%
X158386800Y-247582200D03*
X158386800Y-248852200D03*
X158386800Y-250122200D03*
X158386800Y-251392200D03*
X158386800Y-252662200D03*
X158386800Y-253932200D03*
X158386800Y-255202200D03*
X158386800Y-256472200D03*
X163686800Y-256472200D03*
X163686800Y-255202200D03*
X163686800Y-253932200D03*
X163686800Y-252662200D03*
X163686800Y-251392200D03*
X163686800Y-250122200D03*
X163686800Y-248852200D03*
X163686800Y-247582200D03*
%TD*%
%TO.C,U1*%
X256886800Y-247582200D03*
X256886800Y-248852200D03*
X256886800Y-250122200D03*
X256886800Y-251392200D03*
X256886800Y-252662200D03*
X256886800Y-253932200D03*
X256886800Y-255202200D03*
X256886800Y-256472200D03*
X262186800Y-256472200D03*
X262186800Y-255202200D03*
X262186800Y-253932200D03*
X262186800Y-252662200D03*
X262186800Y-251392200D03*
X262186800Y-250122200D03*
X262186800Y-248852200D03*
X262186800Y-247582200D03*
%TD*%
D12*
%TO.C,D29*%
X83312500Y-51188000D03*
X85187500Y-51188000D03*
%TD*%
%TO.C,D29*%
X181812500Y-51188000D03*
X183687500Y-51188000D03*
%TD*%
%TO.C,D29*%
X280312500Y-51188000D03*
X282187500Y-51188000D03*
%TD*%
%TO.C,D29*%
X83312500Y-99188000D03*
X85187500Y-99188000D03*
%TD*%
%TO.C,D29*%
X181812500Y-99188000D03*
X183687500Y-99188000D03*
%TD*%
%TO.C,D29*%
X280312500Y-99188000D03*
X282187500Y-99188000D03*
%TD*%
%TO.C,D29*%
X83312500Y-147188000D03*
X85187500Y-147188000D03*
%TD*%
%TO.C,D29*%
X181812500Y-147188000D03*
X183687500Y-147188000D03*
%TD*%
%TO.C,D29*%
X280312500Y-147188000D03*
X282187500Y-147188000D03*
%TD*%
%TO.C,D29*%
X83312500Y-195188000D03*
X85187500Y-195188000D03*
%TD*%
%TO.C,D29*%
X181812500Y-195188000D03*
X183687500Y-195188000D03*
%TD*%
%TO.C,D29*%
X280312500Y-195188000D03*
X282187500Y-195188000D03*
%TD*%
%TO.C,D29*%
X83312500Y-243188000D03*
X85187500Y-243188000D03*
%TD*%
%TO.C,D29*%
X181812500Y-243188000D03*
X183687500Y-243188000D03*
%TD*%
%TO.C,D29*%
X280312500Y-243188000D03*
X282187500Y-243188000D03*
%TD*%
D17*
%TO.C,R5*%
X74343000Y-51950000D03*
X72693000Y-51950000D03*
%TD*%
%TO.C,R5*%
X172843000Y-51950000D03*
X171193000Y-51950000D03*
%TD*%
%TO.C,R5*%
X271343000Y-51950000D03*
X269693000Y-51950000D03*
%TD*%
%TO.C,R5*%
X74343000Y-99950000D03*
X72693000Y-99950000D03*
%TD*%
%TO.C,R5*%
X172843000Y-99950000D03*
X171193000Y-99950000D03*
%TD*%
%TO.C,R5*%
X271343000Y-99950000D03*
X269693000Y-99950000D03*
%TD*%
%TO.C,R5*%
X74343000Y-147950000D03*
X72693000Y-147950000D03*
%TD*%
%TO.C,R5*%
X172843000Y-147950000D03*
X171193000Y-147950000D03*
%TD*%
%TO.C,R5*%
X271343000Y-147950000D03*
X269693000Y-147950000D03*
%TD*%
%TO.C,R5*%
X74343000Y-195950000D03*
X72693000Y-195950000D03*
%TD*%
%TO.C,R5*%
X172843000Y-195950000D03*
X171193000Y-195950000D03*
%TD*%
%TO.C,R5*%
X271343000Y-195950000D03*
X269693000Y-195950000D03*
%TD*%
%TO.C,R5*%
X74343000Y-243950000D03*
X72693000Y-243950000D03*
%TD*%
%TO.C,R5*%
X172843000Y-243950000D03*
X171193000Y-243950000D03*
%TD*%
%TO.C,R5*%
X271343000Y-243950000D03*
X269693000Y-243950000D03*
%TD*%
D15*
%TO.C,D9*%
X33250000Y-45062500D03*
X33250000Y-46937500D03*
%TD*%
%TO.C,D9*%
X131750000Y-45062500D03*
X131750000Y-46937500D03*
%TD*%
%TO.C,D9*%
X230250000Y-45062500D03*
X230250000Y-46937500D03*
%TD*%
%TO.C,D9*%
X33250000Y-93062500D03*
X33250000Y-94937500D03*
%TD*%
%TO.C,D9*%
X131750000Y-93062500D03*
X131750000Y-94937500D03*
%TD*%
%TO.C,D9*%
X230250000Y-93062500D03*
X230250000Y-94937500D03*
%TD*%
%TO.C,D9*%
X33250000Y-141062500D03*
X33250000Y-142937500D03*
%TD*%
%TO.C,D9*%
X131750000Y-141062500D03*
X131750000Y-142937500D03*
%TD*%
%TO.C,D9*%
X230250000Y-141062500D03*
X230250000Y-142937500D03*
%TD*%
%TO.C,D9*%
X33250000Y-189062500D03*
X33250000Y-190937500D03*
%TD*%
%TO.C,D9*%
X131750000Y-189062500D03*
X131750000Y-190937500D03*
%TD*%
%TO.C,D9*%
X230250000Y-189062500D03*
X230250000Y-190937500D03*
%TD*%
%TO.C,D9*%
X33250000Y-237062500D03*
X33250000Y-238937500D03*
%TD*%
%TO.C,D9*%
X131750000Y-237062500D03*
X131750000Y-238937500D03*
%TD*%
%TO.C,D9*%
X230250000Y-237062500D03*
X230250000Y-238937500D03*
%TD*%
D17*
%TO.C,R1*%
X44625000Y-60998500D03*
X42975000Y-60998500D03*
%TD*%
%TO.C,R1*%
X143125000Y-60998500D03*
X141475000Y-60998500D03*
%TD*%
%TO.C,R1*%
X241625000Y-60998500D03*
X239975000Y-60998500D03*
%TD*%
%TO.C,R1*%
X44625000Y-108998500D03*
X42975000Y-108998500D03*
%TD*%
%TO.C,R1*%
X143125000Y-108998500D03*
X141475000Y-108998500D03*
%TD*%
%TO.C,R1*%
X241625000Y-108998500D03*
X239975000Y-108998500D03*
%TD*%
%TO.C,R1*%
X44625000Y-156998500D03*
X42975000Y-156998500D03*
%TD*%
%TO.C,R1*%
X143125000Y-156998500D03*
X141475000Y-156998500D03*
%TD*%
%TO.C,R1*%
X241625000Y-156998500D03*
X239975000Y-156998500D03*
%TD*%
%TO.C,R1*%
X44625000Y-204998500D03*
X42975000Y-204998500D03*
%TD*%
%TO.C,R1*%
X143125000Y-204998500D03*
X141475000Y-204998500D03*
%TD*%
%TO.C,R1*%
X241625000Y-204998500D03*
X239975000Y-204998500D03*
%TD*%
%TO.C,R1*%
X44625000Y-252998500D03*
X42975000Y-252998500D03*
%TD*%
%TO.C,R1*%
X143125000Y-252998500D03*
X141475000Y-252998500D03*
%TD*%
%TO.C,R1*%
X241625000Y-252998500D03*
X239975000Y-252998500D03*
%TD*%
D10*
%TO.C,D23*%
X54214000Y-41965500D03*
X54214000Y-40090500D03*
%TD*%
%TO.C,D23*%
X152714000Y-41965500D03*
X152714000Y-40090500D03*
%TD*%
%TO.C,D23*%
X251214000Y-41965500D03*
X251214000Y-40090500D03*
%TD*%
%TO.C,D23*%
X54214000Y-89965500D03*
X54214000Y-88090500D03*
%TD*%
%TO.C,D23*%
X152714000Y-89965500D03*
X152714000Y-88090500D03*
%TD*%
%TO.C,D23*%
X251214000Y-89965500D03*
X251214000Y-88090500D03*
%TD*%
%TO.C,D23*%
X54214000Y-137965500D03*
X54214000Y-136090500D03*
%TD*%
%TO.C,D23*%
X152714000Y-137965500D03*
X152714000Y-136090500D03*
%TD*%
%TO.C,D23*%
X251214000Y-137965500D03*
X251214000Y-136090500D03*
%TD*%
%TO.C,D23*%
X54214000Y-185965500D03*
X54214000Y-184090500D03*
%TD*%
%TO.C,D23*%
X152714000Y-185965500D03*
X152714000Y-184090500D03*
%TD*%
%TO.C,D23*%
X251214000Y-185965500D03*
X251214000Y-184090500D03*
%TD*%
%TO.C,D23*%
X54214000Y-233965500D03*
X54214000Y-232090500D03*
%TD*%
%TO.C,D23*%
X152714000Y-233965500D03*
X152714000Y-232090500D03*
%TD*%
%TO.C,D23*%
X251214000Y-233965500D03*
X251214000Y-232090500D03*
%TD*%
D15*
%TO.C,D12*%
X62342000Y-48472500D03*
X62342000Y-50347500D03*
%TD*%
%TO.C,D12*%
X160842000Y-48472500D03*
X160842000Y-50347500D03*
%TD*%
%TO.C,D12*%
X259342000Y-48472500D03*
X259342000Y-50347500D03*
%TD*%
%TO.C,D12*%
X62342000Y-96472500D03*
X62342000Y-98347500D03*
%TD*%
%TO.C,D12*%
X160842000Y-96472500D03*
X160842000Y-98347500D03*
%TD*%
%TO.C,D12*%
X259342000Y-96472500D03*
X259342000Y-98347500D03*
%TD*%
%TO.C,D12*%
X62342000Y-144472500D03*
X62342000Y-146347500D03*
%TD*%
%TO.C,D12*%
X160842000Y-144472500D03*
X160842000Y-146347500D03*
%TD*%
%TO.C,D12*%
X259342000Y-144472500D03*
X259342000Y-146347500D03*
%TD*%
%TO.C,D12*%
X62342000Y-192472500D03*
X62342000Y-194347500D03*
%TD*%
%TO.C,D12*%
X160842000Y-192472500D03*
X160842000Y-194347500D03*
%TD*%
%TO.C,D12*%
X259342000Y-192472500D03*
X259342000Y-194347500D03*
%TD*%
%TO.C,D12*%
X62342000Y-240472500D03*
X62342000Y-242347500D03*
%TD*%
%TO.C,D12*%
X160842000Y-240472500D03*
X160842000Y-242347500D03*
%TD*%
%TO.C,D12*%
X259342000Y-240472500D03*
X259342000Y-242347500D03*
%TD*%
D23*
%TO.C,Q1*%
X30850000Y-61575000D03*
X30850000Y-59675000D03*
X28975000Y-60625000D03*
%TD*%
%TO.C,Q1*%
X129350000Y-61575000D03*
X129350000Y-59675000D03*
X127475000Y-60625000D03*
%TD*%
%TO.C,Q1*%
X227850000Y-61575000D03*
X227850000Y-59675000D03*
X225975000Y-60625000D03*
%TD*%
%TO.C,Q1*%
X30850000Y-109575000D03*
X30850000Y-107675000D03*
X28975000Y-108625000D03*
%TD*%
%TO.C,Q1*%
X129350000Y-109575000D03*
X129350000Y-107675000D03*
X127475000Y-108625000D03*
%TD*%
%TO.C,Q1*%
X227850000Y-109575000D03*
X227850000Y-107675000D03*
X225975000Y-108625000D03*
%TD*%
%TO.C,Q1*%
X30850000Y-157575000D03*
X30850000Y-155675000D03*
X28975000Y-156625000D03*
%TD*%
%TO.C,Q1*%
X129350000Y-157575000D03*
X129350000Y-155675000D03*
X127475000Y-156625000D03*
%TD*%
%TO.C,Q1*%
X227850000Y-157575000D03*
X227850000Y-155675000D03*
X225975000Y-156625000D03*
%TD*%
%TO.C,Q1*%
X30850000Y-205575000D03*
X30850000Y-203675000D03*
X28975000Y-204625000D03*
%TD*%
%TO.C,Q1*%
X129350000Y-205575000D03*
X129350000Y-203675000D03*
X127475000Y-204625000D03*
%TD*%
%TO.C,Q1*%
X227850000Y-205575000D03*
X227850000Y-203675000D03*
X225975000Y-204625000D03*
%TD*%
%TO.C,Q1*%
X30850000Y-253575000D03*
X30850000Y-251675000D03*
X28975000Y-252625000D03*
%TD*%
%TO.C,Q1*%
X129350000Y-253575000D03*
X129350000Y-251675000D03*
X127475000Y-252625000D03*
%TD*%
%TO.C,Q1*%
X227850000Y-253575000D03*
X227850000Y-251675000D03*
X225975000Y-252625000D03*
%TD*%
D18*
%TO.C,C4*%
X15850000Y-43600000D03*
X15850000Y-45500000D03*
%TD*%
%TO.C,C4*%
X114350000Y-43600000D03*
X114350000Y-45500000D03*
%TD*%
%TO.C,C4*%
X212850000Y-43600000D03*
X212850000Y-45500000D03*
%TD*%
%TO.C,C4*%
X15850000Y-91600000D03*
X15850000Y-93500000D03*
%TD*%
%TO.C,C4*%
X114350000Y-91600000D03*
X114350000Y-93500000D03*
%TD*%
%TO.C,C4*%
X212850000Y-91600000D03*
X212850000Y-93500000D03*
%TD*%
%TO.C,C4*%
X114350000Y-235600000D03*
X114350000Y-237500000D03*
%TD*%
%TO.C,C4*%
X15850000Y-139600000D03*
X15850000Y-141500000D03*
%TD*%
%TO.C,C4*%
X114350000Y-139600000D03*
X114350000Y-141500000D03*
%TD*%
%TO.C,C4*%
X212850000Y-139600000D03*
X212850000Y-141500000D03*
%TD*%
%TO.C,C4*%
X15850000Y-187600000D03*
X15850000Y-189500000D03*
%TD*%
%TO.C,C4*%
X114350000Y-187600000D03*
X114350000Y-189500000D03*
%TD*%
%TO.C,C4*%
X212850000Y-187600000D03*
X212850000Y-189500000D03*
%TD*%
%TO.C,C4*%
X15850000Y-235600000D03*
X15850000Y-237500000D03*
%TD*%
%TO.C,C4*%
X212850000Y-235600000D03*
X212850000Y-237500000D03*
%TD*%
D24*
%TO.C,R4*%
X66343000Y-32138000D03*
X67993000Y-32138000D03*
%TD*%
%TO.C,R4*%
X164843000Y-32138000D03*
X166493000Y-32138000D03*
%TD*%
%TO.C,R4*%
X263343000Y-32138000D03*
X264993000Y-32138000D03*
%TD*%
%TO.C,R4*%
X66343000Y-80138000D03*
X67993000Y-80138000D03*
%TD*%
%TO.C,R4*%
X164843000Y-80138000D03*
X166493000Y-80138000D03*
%TD*%
%TO.C,R4*%
X263343000Y-80138000D03*
X264993000Y-80138000D03*
%TD*%
%TO.C,R4*%
X164843000Y-224138000D03*
X166493000Y-224138000D03*
%TD*%
%TO.C,R4*%
X66343000Y-128138000D03*
X67993000Y-128138000D03*
%TD*%
%TO.C,R4*%
X164843000Y-128138000D03*
X166493000Y-128138000D03*
%TD*%
%TO.C,R4*%
X263343000Y-128138000D03*
X264993000Y-128138000D03*
%TD*%
%TO.C,R4*%
X66343000Y-176138000D03*
X67993000Y-176138000D03*
%TD*%
%TO.C,R4*%
X164843000Y-176138000D03*
X166493000Y-176138000D03*
%TD*%
%TO.C,R4*%
X263343000Y-176138000D03*
X264993000Y-176138000D03*
%TD*%
%TO.C,R4*%
X66343000Y-224138000D03*
X67993000Y-224138000D03*
%TD*%
%TO.C,R4*%
X263343000Y-224138000D03*
X264993000Y-224138000D03*
%TD*%
D12*
%TO.C,D3*%
X18312500Y-41000000D03*
X20187500Y-41000000D03*
%TD*%
%TO.C,D3*%
X116812500Y-41000000D03*
X118687500Y-41000000D03*
%TD*%
%TO.C,D3*%
X215312500Y-41000000D03*
X217187500Y-41000000D03*
%TD*%
%TO.C,D3*%
X18312500Y-89000000D03*
X20187500Y-89000000D03*
%TD*%
%TO.C,D3*%
X116812500Y-89000000D03*
X118687500Y-89000000D03*
%TD*%
%TO.C,D3*%
X215312500Y-89000000D03*
X217187500Y-89000000D03*
%TD*%
%TO.C,D3*%
X18312500Y-137000000D03*
X20187500Y-137000000D03*
%TD*%
%TO.C,D3*%
X116812500Y-137000000D03*
X118687500Y-137000000D03*
%TD*%
%TO.C,D3*%
X215312500Y-137000000D03*
X217187500Y-137000000D03*
%TD*%
%TO.C,D3*%
X18312500Y-185000000D03*
X20187500Y-185000000D03*
%TD*%
%TO.C,D3*%
X116812500Y-185000000D03*
X118687500Y-185000000D03*
%TD*%
%TO.C,D3*%
X215312500Y-185000000D03*
X217187500Y-185000000D03*
%TD*%
%TO.C,D3*%
X18312500Y-233000000D03*
X20187500Y-233000000D03*
%TD*%
%TO.C,D3*%
X116812500Y-233000000D03*
X118687500Y-233000000D03*
%TD*%
%TO.C,D3*%
X215312500Y-233000000D03*
X217187500Y-233000000D03*
%TD*%
D17*
%TO.C,R3*%
X149950000Y-100600000D03*
X148300000Y-100600000D03*
%TD*%
%TO.C,R3*%
X51450000Y-52600000D03*
X49800000Y-52600000D03*
%TD*%
%TO.C,R3*%
X149950000Y-52600000D03*
X148300000Y-52600000D03*
%TD*%
%TO.C,R3*%
X248450000Y-52600000D03*
X246800000Y-52600000D03*
%TD*%
%TO.C,R3*%
X51450000Y-100600000D03*
X49800000Y-100600000D03*
%TD*%
%TO.C,R3*%
X248450000Y-100600000D03*
X246800000Y-100600000D03*
%TD*%
%TO.C,R3*%
X51450000Y-148600000D03*
X49800000Y-148600000D03*
%TD*%
%TO.C,R3*%
X149950000Y-148600000D03*
X148300000Y-148600000D03*
%TD*%
%TO.C,R3*%
X248450000Y-148600000D03*
X246800000Y-148600000D03*
%TD*%
%TO.C,R3*%
X51450000Y-196600000D03*
X49800000Y-196600000D03*
%TD*%
%TO.C,R3*%
X149950000Y-196600000D03*
X148300000Y-196600000D03*
%TD*%
%TO.C,R3*%
X248450000Y-196600000D03*
X246800000Y-196600000D03*
%TD*%
%TO.C,R3*%
X51450000Y-244600000D03*
X49800000Y-244600000D03*
%TD*%
%TO.C,R3*%
X149950000Y-244600000D03*
X148300000Y-244600000D03*
%TD*%
%TO.C,R3*%
X248450000Y-244600000D03*
X246800000Y-244600000D03*
%TD*%
%TO.C,R6*%
X67676000Y-50172000D03*
X66026000Y-50172000D03*
%TD*%
%TO.C,R6*%
X166176000Y-50172000D03*
X164526000Y-50172000D03*
%TD*%
%TO.C,R6*%
X264676000Y-50172000D03*
X263026000Y-50172000D03*
%TD*%
%TO.C,R6*%
X67676000Y-98172000D03*
X66026000Y-98172000D03*
%TD*%
%TO.C,R6*%
X166176000Y-98172000D03*
X164526000Y-98172000D03*
%TD*%
%TO.C,R6*%
X264676000Y-98172000D03*
X263026000Y-98172000D03*
%TD*%
%TO.C,R6*%
X67676000Y-146172000D03*
X66026000Y-146172000D03*
%TD*%
%TO.C,R6*%
X166176000Y-146172000D03*
X164526000Y-146172000D03*
%TD*%
%TO.C,R6*%
X264676000Y-146172000D03*
X263026000Y-146172000D03*
%TD*%
%TO.C,R6*%
X67676000Y-194172000D03*
X66026000Y-194172000D03*
%TD*%
%TO.C,R6*%
X166176000Y-194172000D03*
X164526000Y-194172000D03*
%TD*%
%TO.C,R6*%
X264676000Y-194172000D03*
X263026000Y-194172000D03*
%TD*%
%TO.C,R6*%
X67676000Y-242172000D03*
X66026000Y-242172000D03*
%TD*%
%TO.C,R6*%
X166176000Y-242172000D03*
X164526000Y-242172000D03*
%TD*%
%TO.C,R6*%
X264676000Y-242172000D03*
X263026000Y-242172000D03*
%TD*%
D12*
%TO.C,D17*%
X72580500Y-54998000D03*
X74455500Y-54998000D03*
%TD*%
%TO.C,D17*%
X171080500Y-54998000D03*
X172955500Y-54998000D03*
%TD*%
%TO.C,D17*%
X269580500Y-54998000D03*
X271455500Y-54998000D03*
%TD*%
%TO.C,D17*%
X72580500Y-102998000D03*
X74455500Y-102998000D03*
%TD*%
%TO.C,D17*%
X171080500Y-102998000D03*
X172955500Y-102998000D03*
%TD*%
%TO.C,D17*%
X269580500Y-102998000D03*
X271455500Y-102998000D03*
%TD*%
%TO.C,D17*%
X72580500Y-150998000D03*
X74455500Y-150998000D03*
%TD*%
%TO.C,D17*%
X171080500Y-150998000D03*
X172955500Y-150998000D03*
%TD*%
%TO.C,D17*%
X269580500Y-150998000D03*
X271455500Y-150998000D03*
%TD*%
%TO.C,D17*%
X72580500Y-198998000D03*
X74455500Y-198998000D03*
%TD*%
%TO.C,D17*%
X171080500Y-198998000D03*
X172955500Y-198998000D03*
%TD*%
%TO.C,D17*%
X269580500Y-198998000D03*
X271455500Y-198998000D03*
%TD*%
%TO.C,D17*%
X72580500Y-246998000D03*
X74455500Y-246998000D03*
%TD*%
%TO.C,D17*%
X171080500Y-246998000D03*
X172955500Y-246998000D03*
%TD*%
%TO.C,D17*%
X269580500Y-246998000D03*
X271455500Y-246998000D03*
%TD*%
D20*
%TO.C,R11*%
X32712500Y-59600000D03*
X32712500Y-61250000D03*
%TD*%
%TO.C,R11*%
X131212500Y-59600000D03*
X131212500Y-61250000D03*
%TD*%
%TO.C,R11*%
X229712500Y-59600000D03*
X229712500Y-61250000D03*
%TD*%
%TO.C,R11*%
X32712500Y-107600000D03*
X32712500Y-109250000D03*
%TD*%
%TO.C,R11*%
X131212500Y-107600000D03*
X131212500Y-109250000D03*
%TD*%
%TO.C,R11*%
X229712500Y-107600000D03*
X229712500Y-109250000D03*
%TD*%
%TO.C,R11*%
X32712500Y-155600000D03*
X32712500Y-157250000D03*
%TD*%
%TO.C,R11*%
X131212500Y-155600000D03*
X131212500Y-157250000D03*
%TD*%
%TO.C,R11*%
X229712500Y-155600000D03*
X229712500Y-157250000D03*
%TD*%
%TO.C,R11*%
X32712500Y-203600000D03*
X32712500Y-205250000D03*
%TD*%
%TO.C,R11*%
X131212500Y-203600000D03*
X131212500Y-205250000D03*
%TD*%
%TO.C,R11*%
X229712500Y-203600000D03*
X229712500Y-205250000D03*
%TD*%
%TO.C,R11*%
X32712500Y-251600000D03*
X32712500Y-253250000D03*
%TD*%
%TO.C,R11*%
X131212500Y-251600000D03*
X131212500Y-253250000D03*
%TD*%
%TO.C,R11*%
X229712500Y-251600000D03*
X229712500Y-253250000D03*
%TD*%
D10*
%TO.C,D18*%
X76312000Y-40441500D03*
X76312000Y-38566500D03*
%TD*%
%TO.C,D18*%
X174812000Y-40441500D03*
X174812000Y-38566500D03*
%TD*%
%TO.C,D18*%
X273312000Y-40441500D03*
X273312000Y-38566500D03*
%TD*%
%TO.C,D18*%
X76312000Y-88441500D03*
X76312000Y-86566500D03*
%TD*%
%TO.C,D18*%
X174812000Y-88441500D03*
X174812000Y-86566500D03*
%TD*%
%TO.C,D18*%
X273312000Y-88441500D03*
X273312000Y-86566500D03*
%TD*%
%TO.C,D18*%
X76312000Y-136441500D03*
X76312000Y-134566500D03*
%TD*%
%TO.C,D18*%
X174812000Y-136441500D03*
X174812000Y-134566500D03*
%TD*%
%TO.C,D18*%
X273312000Y-136441500D03*
X273312000Y-134566500D03*
%TD*%
%TO.C,D18*%
X76312000Y-184441500D03*
X76312000Y-182566500D03*
%TD*%
%TO.C,D18*%
X174812000Y-184441500D03*
X174812000Y-182566500D03*
%TD*%
%TO.C,D18*%
X273312000Y-184441500D03*
X273312000Y-182566500D03*
%TD*%
%TO.C,D18*%
X76312000Y-232441500D03*
X76312000Y-230566500D03*
%TD*%
%TO.C,D18*%
X174812000Y-232441500D03*
X174812000Y-230566500D03*
%TD*%
%TO.C,D18*%
X273312000Y-232441500D03*
X273312000Y-230566500D03*
%TD*%
D17*
%TO.C,R7*%
X80675000Y-31200000D03*
X79025000Y-31200000D03*
%TD*%
%TO.C,R7*%
X179175000Y-31200000D03*
X177525000Y-31200000D03*
%TD*%
%TO.C,R7*%
X277675000Y-31200000D03*
X276025000Y-31200000D03*
%TD*%
%TO.C,R7*%
X80675000Y-79200000D03*
X79025000Y-79200000D03*
%TD*%
%TO.C,R7*%
X179175000Y-79200000D03*
X177525000Y-79200000D03*
%TD*%
%TO.C,R7*%
X277675000Y-79200000D03*
X276025000Y-79200000D03*
%TD*%
%TO.C,R7*%
X80675000Y-127200000D03*
X79025000Y-127200000D03*
%TD*%
%TO.C,R7*%
X179175000Y-127200000D03*
X177525000Y-127200000D03*
%TD*%
%TO.C,R7*%
X277675000Y-127200000D03*
X276025000Y-127200000D03*
%TD*%
%TO.C,R7*%
X80675000Y-175200000D03*
X79025000Y-175200000D03*
%TD*%
%TO.C,R7*%
X179175000Y-175200000D03*
X177525000Y-175200000D03*
%TD*%
%TO.C,R7*%
X277675000Y-175200000D03*
X276025000Y-175200000D03*
%TD*%
%TO.C,R7*%
X80675000Y-223200000D03*
X79025000Y-223200000D03*
%TD*%
%TO.C,R7*%
X179175000Y-223200000D03*
X177525000Y-223200000D03*
%TD*%
%TO.C,R7*%
X277675000Y-223200000D03*
X276025000Y-223200000D03*
%TD*%
%TO.C,R9*%
X88666000Y-62515500D03*
X87016000Y-62515500D03*
%TD*%
%TO.C,R9*%
X187166000Y-62515500D03*
X185516000Y-62515500D03*
%TD*%
%TO.C,R9*%
X285666000Y-62515500D03*
X284016000Y-62515500D03*
%TD*%
%TO.C,R9*%
X88666000Y-110515500D03*
X87016000Y-110515500D03*
%TD*%
%TO.C,R9*%
X187166000Y-110515500D03*
X185516000Y-110515500D03*
%TD*%
%TO.C,R9*%
X285666000Y-110515500D03*
X284016000Y-110515500D03*
%TD*%
%TO.C,R9*%
X88666000Y-158515500D03*
X87016000Y-158515500D03*
%TD*%
%TO.C,R9*%
X187166000Y-158515500D03*
X185516000Y-158515500D03*
%TD*%
%TO.C,R9*%
X285666000Y-158515500D03*
X284016000Y-158515500D03*
%TD*%
%TO.C,R9*%
X88666000Y-206515500D03*
X87016000Y-206515500D03*
%TD*%
%TO.C,R9*%
X187166000Y-206515500D03*
X185516000Y-206515500D03*
%TD*%
%TO.C,R9*%
X285666000Y-206515500D03*
X284016000Y-206515500D03*
%TD*%
%TO.C,R9*%
X88666000Y-254515500D03*
X87016000Y-254515500D03*
%TD*%
%TO.C,R9*%
X187166000Y-254515500D03*
X185516000Y-254515500D03*
%TD*%
%TO.C,R9*%
X285666000Y-254515500D03*
X284016000Y-254515500D03*
%TD*%
D10*
%TO.C,D20*%
X92314000Y-41457500D03*
X92314000Y-39582500D03*
%TD*%
%TO.C,D20*%
X190814000Y-41457500D03*
X190814000Y-39582500D03*
%TD*%
%TO.C,D20*%
X289314000Y-41457500D03*
X289314000Y-39582500D03*
%TD*%
%TO.C,D20*%
X92314000Y-89457500D03*
X92314000Y-87582500D03*
%TD*%
%TO.C,D20*%
X190814000Y-89457500D03*
X190814000Y-87582500D03*
%TD*%
%TO.C,D20*%
X289314000Y-89457500D03*
X289314000Y-87582500D03*
%TD*%
%TO.C,D20*%
X92314000Y-137457500D03*
X92314000Y-135582500D03*
%TD*%
%TO.C,D20*%
X190814000Y-137457500D03*
X190814000Y-135582500D03*
%TD*%
%TO.C,D20*%
X289314000Y-137457500D03*
X289314000Y-135582500D03*
%TD*%
%TO.C,D20*%
X92314000Y-185457500D03*
X92314000Y-183582500D03*
%TD*%
%TO.C,D20*%
X190814000Y-185457500D03*
X190814000Y-183582500D03*
%TD*%
%TO.C,D20*%
X289314000Y-185457500D03*
X289314000Y-183582500D03*
%TD*%
%TO.C,D20*%
X92314000Y-233457500D03*
X92314000Y-231582500D03*
%TD*%
%TO.C,D20*%
X190814000Y-233457500D03*
X190814000Y-231582500D03*
%TD*%
%TO.C,D20*%
X289314000Y-233457500D03*
X289314000Y-231582500D03*
%TD*%
D15*
%TO.C,D4*%
X25250000Y-45062500D03*
X25250000Y-46937500D03*
%TD*%
%TO.C,D4*%
X123750000Y-45062500D03*
X123750000Y-46937500D03*
%TD*%
%TO.C,D4*%
X222250000Y-45062500D03*
X222250000Y-46937500D03*
%TD*%
%TO.C,D4*%
X25250000Y-93062500D03*
X25250000Y-94937500D03*
%TD*%
%TO.C,D4*%
X123750000Y-93062500D03*
X123750000Y-94937500D03*
%TD*%
%TO.C,D4*%
X222250000Y-93062500D03*
X222250000Y-94937500D03*
%TD*%
%TO.C,D4*%
X25250000Y-141062500D03*
X25250000Y-142937500D03*
%TD*%
%TO.C,D4*%
X123750000Y-141062500D03*
X123750000Y-142937500D03*
%TD*%
%TO.C,D4*%
X222250000Y-141062500D03*
X222250000Y-142937500D03*
%TD*%
%TO.C,D4*%
X25250000Y-189062500D03*
X25250000Y-190937500D03*
%TD*%
%TO.C,D4*%
X123750000Y-189062500D03*
X123750000Y-190937500D03*
%TD*%
%TO.C,D4*%
X222250000Y-189062500D03*
X222250000Y-190937500D03*
%TD*%
%TO.C,D4*%
X25250000Y-237062500D03*
X25250000Y-238937500D03*
%TD*%
%TO.C,D4*%
X123750000Y-237062500D03*
X123750000Y-238937500D03*
%TD*%
%TO.C,D4*%
X222250000Y-237062500D03*
X222250000Y-238937500D03*
%TD*%
D14*
%TO.C,D19*%
X85187500Y-29000000D03*
X83312500Y-29000000D03*
%TD*%
%TO.C,D19*%
X183687500Y-29000000D03*
X181812500Y-29000000D03*
%TD*%
%TO.C,D19*%
X282187500Y-29000000D03*
X280312500Y-29000000D03*
%TD*%
%TO.C,D19*%
X85187500Y-77000000D03*
X83312500Y-77000000D03*
%TD*%
%TO.C,D19*%
X183687500Y-77000000D03*
X181812500Y-77000000D03*
%TD*%
%TO.C,D19*%
X282187500Y-77000000D03*
X280312500Y-77000000D03*
%TD*%
%TO.C,D19*%
X85187500Y-125000000D03*
X83312500Y-125000000D03*
%TD*%
%TO.C,D19*%
X183687500Y-125000000D03*
X181812500Y-125000000D03*
%TD*%
%TO.C,D19*%
X282187500Y-125000000D03*
X280312500Y-125000000D03*
%TD*%
%TO.C,D19*%
X85187500Y-173000000D03*
X83312500Y-173000000D03*
%TD*%
%TO.C,D19*%
X183687500Y-173000000D03*
X181812500Y-173000000D03*
%TD*%
%TO.C,D19*%
X282187500Y-173000000D03*
X280312500Y-173000000D03*
%TD*%
%TO.C,D19*%
X85187500Y-221000000D03*
X83312500Y-221000000D03*
%TD*%
%TO.C,D19*%
X183687500Y-221000000D03*
X181812500Y-221000000D03*
%TD*%
%TO.C,D19*%
X282187500Y-221000000D03*
X280312500Y-221000000D03*
%TD*%
D10*
%TO.C,D28*%
X88250000Y-48315500D03*
X88250000Y-46440500D03*
%TD*%
%TO.C,D28*%
X186750000Y-48315500D03*
X186750000Y-46440500D03*
%TD*%
%TO.C,D28*%
X285250000Y-48315500D03*
X285250000Y-46440500D03*
%TD*%
%TO.C,D28*%
X88250000Y-96315500D03*
X88250000Y-94440500D03*
%TD*%
%TO.C,D28*%
X186750000Y-96315500D03*
X186750000Y-94440500D03*
%TD*%
%TO.C,D28*%
X285250000Y-96315500D03*
X285250000Y-94440500D03*
%TD*%
%TO.C,D28*%
X88250000Y-144315500D03*
X88250000Y-142440500D03*
%TD*%
%TO.C,D28*%
X186750000Y-144315500D03*
X186750000Y-142440500D03*
%TD*%
%TO.C,D28*%
X285250000Y-144315500D03*
X285250000Y-142440500D03*
%TD*%
%TO.C,D28*%
X88250000Y-192315500D03*
X88250000Y-190440500D03*
%TD*%
%TO.C,D28*%
X186750000Y-192315500D03*
X186750000Y-190440500D03*
%TD*%
%TO.C,D28*%
X285250000Y-192315500D03*
X285250000Y-190440500D03*
%TD*%
%TO.C,D28*%
X88250000Y-240315500D03*
X88250000Y-238440500D03*
%TD*%
%TO.C,D28*%
X186750000Y-240315500D03*
X186750000Y-238440500D03*
%TD*%
%TO.C,D28*%
X285250000Y-240315500D03*
X285250000Y-238440500D03*
%TD*%
D12*
%TO.C,D25*%
X83312500Y-36964000D03*
X85187500Y-36964000D03*
%TD*%
%TO.C,D25*%
X181812500Y-36964000D03*
X183687500Y-36964000D03*
%TD*%
%TO.C,D25*%
X280312500Y-36964000D03*
X282187500Y-36964000D03*
%TD*%
%TO.C,D25*%
X280312500Y-84964000D03*
X282187500Y-84964000D03*
%TD*%
%TO.C,D25*%
X83312500Y-84964000D03*
X85187500Y-84964000D03*
%TD*%
%TO.C,D25*%
X181812500Y-84964000D03*
X183687500Y-84964000D03*
%TD*%
%TO.C,D25*%
X83312500Y-132964000D03*
X85187500Y-132964000D03*
%TD*%
%TO.C,D25*%
X181812500Y-132964000D03*
X183687500Y-132964000D03*
%TD*%
%TO.C,D25*%
X280312500Y-132964000D03*
X282187500Y-132964000D03*
%TD*%
%TO.C,D25*%
X83312500Y-180964000D03*
X85187500Y-180964000D03*
%TD*%
%TO.C,D25*%
X181812500Y-180964000D03*
X183687500Y-180964000D03*
%TD*%
%TO.C,D25*%
X280312500Y-180964000D03*
X282187500Y-180964000D03*
%TD*%
%TO.C,D25*%
X83312500Y-228964000D03*
X85187500Y-228964000D03*
%TD*%
%TO.C,D25*%
X181812500Y-228964000D03*
X183687500Y-228964000D03*
%TD*%
%TO.C,D25*%
X280312500Y-228964000D03*
X282187500Y-228964000D03*
%TD*%
%TO.C,D8*%
X39312500Y-137000000D03*
X41187500Y-137000000D03*
%TD*%
%TO.C,D8*%
X137812500Y-137000000D03*
X139687500Y-137000000D03*
%TD*%
%TO.C,D8*%
X236312500Y-137000000D03*
X238187500Y-137000000D03*
%TD*%
%TO.C,D8*%
X39312500Y-185000000D03*
X41187500Y-185000000D03*
%TD*%
%TO.C,D8*%
X137812500Y-185000000D03*
X139687500Y-185000000D03*
%TD*%
%TO.C,D8*%
X236312500Y-185000000D03*
X238187500Y-185000000D03*
%TD*%
%TO.C,D8*%
X39312500Y-233000000D03*
X41187500Y-233000000D03*
%TD*%
%TO.C,D8*%
X137812500Y-233000000D03*
X139687500Y-233000000D03*
%TD*%
%TO.C,D8*%
X236312500Y-233000000D03*
X238187500Y-233000000D03*
%TD*%
%TO.C,D8*%
X39312500Y-41000000D03*
X41187500Y-41000000D03*
%TD*%
%TO.C,D8*%
X137812500Y-41000000D03*
X139687500Y-41000000D03*
%TD*%
%TO.C,D8*%
X236312500Y-41000000D03*
X238187500Y-41000000D03*
%TD*%
%TO.C,D8*%
X39312500Y-89000000D03*
X41187500Y-89000000D03*
%TD*%
%TO.C,D8*%
X137812500Y-89000000D03*
X139687500Y-89000000D03*
%TD*%
%TO.C,D8*%
X236312500Y-89000000D03*
X238187500Y-89000000D03*
%TD*%
M02*
