M48
; DRILL file {KiCad 7.0.1-3b83917a11~171~ubuntu20.04.1} date 2023. okt. 26., csütörtök, 02:20:03 CEST
; FORMAT={-:-/ absolute / metric / decimal}
; #@! TF.CreationDate,2023-10-26T02:20:03+02:00
; #@! TF.GenerationSoftware,Kicad,Pcbnew,7.0.1-3b83917a11~171~ubuntu20.04.1
; #@! TF.FileFunction,Plated,1,2,PTH
FMAT,2
METRIC
; #@! TA.AperFunction,Plated,PTH,ComponentDrill
T1C1.000
; #@! TA.AperFunction,Plated,PTH,ViaDrill
T2C4.000
%
G90
G05
T1
X13.2Y-23.7
X13.2Y-66.7
X13.2Y-75.7
X13.2Y-118.7
X13.2Y-127.7
X13.2Y-170.7
X13.2Y-179.7
X13.2Y-222.7
X13.2Y-231.7
X13.2Y-274.7
X82.2Y-23.7
X82.2Y-66.7
X82.2Y-75.7
X82.2Y-118.7
X82.2Y-127.7
X82.2Y-170.7
X82.2Y-179.7
X82.2Y-222.7
X82.2Y-231.7
X82.2Y-274.7
X113.2Y-23.7
X113.2Y-66.7
X113.2Y-75.7
X113.2Y-118.7
X113.2Y-127.7
X113.2Y-170.7
X113.2Y-179.7
X113.2Y-222.7
X113.2Y-231.7
X113.2Y-274.7
X182.2Y-23.7
X182.2Y-66.7
X182.2Y-75.7
X182.2Y-118.7
X182.2Y-127.7
X182.2Y-170.7
X182.2Y-179.7
X182.2Y-222.7
X182.2Y-231.7
X182.2Y-274.7
X213.2Y-23.7
X213.2Y-66.7
X213.2Y-75.7
X213.2Y-118.7
X213.2Y-127.7
X213.2Y-170.7
X213.2Y-179.7
X213.2Y-222.7
X213.2Y-231.7
X213.2Y-274.7
X282.2Y-23.7
X282.2Y-66.7
X282.2Y-75.7
X282.2Y-118.7
X282.2Y-127.7
X282.2Y-170.7
X282.2Y-179.7
X282.2Y-222.7
X282.2Y-231.7
X282.2Y-274.7
T2
X7.7Y-57.2
X7.7Y-109.2
X7.7Y-161.2
X7.7Y-213.2
X7.7Y-265.2
X107.7Y-57.2
X107.7Y-109.2
X107.7Y-161.2
X107.7Y-213.2
X107.7Y-265.2
X207.7Y-57.2
X207.7Y-109.2
X207.7Y-161.2
X207.7Y-213.2
X207.7Y-265.2
T0
M30
