%TF.GenerationSoftware,KiCad,Pcbnew,7.0.1-3b83917a11~171~ubuntu20.04.1*%
%TF.CreationDate,2023-10-26T02:19:52+02:00*%
%TF.ProjectId,panel_top,70616e65-6c5f-4746-9f70-2e6b69636164,rev?*%
%TF.SameCoordinates,Original*%
%TF.FileFunction,Soldermask,Bot*%
%TF.FilePolarity,Negative*%
%FSLAX46Y46*%
G04 Gerber Fmt 4.6, Leading zero omitted, Abs format (unit mm)*
G04 Created by KiCad (PCBNEW 7.0.1-3b83917a11~171~ubuntu20.04.1) date 2023-10-26 02:19:52*
%MOMM*%
%LPD*%
G01*
G04 APERTURE LIST*
%ADD10C,0.500000*%
%ADD11R,1.700000X1.700000*%
G04 APERTURE END LIST*
D10*
%TO.C,KiKit_MB_44_4*%
X97300000Y-140666666D03*
%TD*%
%TO.C,KiKit_MB_15_3*%
X225000000Y-69800000D03*
%TD*%
%TO.C,KiKit_MB_8_4*%
X197300000Y-36666667D03*
%TD*%
%TO.C,KiKit_MB_100_4*%
X73000000Y-228200000D03*
%TD*%
%TO.C,KiKit_MB_26_1*%
X99700000Y-91666666D03*
%TD*%
%TO.C,KiKit_MB_75_6*%
X22000000Y-225800000D03*
%TD*%
%TO.C,KiKit_MB_93_7*%
X221000000Y-225800000D03*
%TD*%
%TO.C,KiKit_MB_29_1*%
X197300000Y-102333333D03*
%TD*%
%TO.C,KiKit_MB_81_7*%
X197300000Y-212333333D03*
%TD*%
%TO.C,KiKit_MB_58_6*%
X175000000Y-124200000D03*
%TD*%
%TO.C,KiKit_MB_95_2*%
X275000000Y-225800000D03*
%TD*%
%TO.C,KiKit_MB_84_4*%
X173000000Y-176200000D03*
%TD*%
%TO.C,KiKit_MB_72_2*%
X22000000Y-176200000D03*
%TD*%
%TO.C,KiKit_MB_69_4*%
X273000000Y-173800000D03*
%TD*%
%TO.C,KiKit_MB_83_3*%
X147500000Y-176200000D03*
%TD*%
%TO.C,KiKit_MB_109_5*%
X199700000Y-260333333D03*
%TD*%
%TO.C,KiKit_MB_10_2*%
X126000000Y-69800000D03*
%TD*%
%TO.C,KiKit_MB_95_3*%
X274000000Y-225800000D03*
%TD*%
%TO.C,KiKit_MB_11_4*%
X148500000Y-69800000D03*
%TD*%
%TO.C,KiKit_MB_25_4*%
X73000000Y-121800000D03*
%TD*%
%TO.C,KiKit_MB_108_6*%
X199700000Y-242666666D03*
%TD*%
%TO.C,KiKit_MB_59_1*%
X127000000Y-173800000D03*
%TD*%
%TO.C,KiKit_MB_99_5*%
X49500000Y-228200000D03*
%TD*%
%TO.C,KiKit_MB_106_1*%
X145500000Y-228200000D03*
%TD*%
%TO.C,KiKit_MB_108_1*%
X199700000Y-247666666D03*
%TD*%
%TO.C,KiKit_MB_92_6*%
X275000000Y-176200000D03*
%TD*%
%TO.C,KiKit_MB_51_1*%
X76000000Y-173800000D03*
%TD*%
%TO.C,KiKit_MB_52_3*%
X99700000Y-141666666D03*
%TD*%
%TO.C,KiKit_MB_22_6*%
X75000000Y-72200000D03*
%TD*%
%TO.C,KiKit_MB_32_6*%
X175000000Y-72200000D03*
%TD*%
%TO.C,KiKit_MB_91_1*%
X245500000Y-176200000D03*
%TD*%
%TO.C,KiKit_MB_14_5*%
X199700000Y-52333333D03*
%TD*%
%TO.C,KiKit_MB_76_5*%
X47500000Y-225800000D03*
%TD*%
%TO.C,KiKit_MB_89_3*%
X199700000Y-210333333D03*
%TD*%
%TO.C,KiKit_MB_46_1*%
X21000000Y-124200000D03*
%TD*%
%TO.C,KiKit_MB_80_5*%
X197300000Y-193666666D03*
%TD*%
%TO.C,KiKit_MB_48_4*%
X73000000Y-124200000D03*
%TD*%
%TO.C,KiKit_MB_5_4*%
X73000000Y-69800000D03*
%TD*%
%TO.C,KiKit_MB_43_5*%
X272000000Y-121800000D03*
%TD*%
%TO.C,KiKit_MB_43_4*%
X273000000Y-121800000D03*
%TD*%
%TO.C,KiKit_MB_100_7*%
X76000000Y-228200000D03*
%TD*%
%TO.C,KiKit_MB_52_1*%
X99700000Y-143666666D03*
%TD*%
%TO.C,KiKit_MB_55_7*%
X197300000Y-160333333D03*
%TD*%
%TO.C,KiKit_MB_102_2*%
X99700000Y-263333333D03*
%TD*%
%TO.C,KiKit_MB_112_3*%
X272000000Y-228200000D03*
%TD*%
%TO.C,KiKit_MB_22_4*%
X73000000Y-72200000D03*
%TD*%
%TO.C,KiKit_MB_92_2*%
X271000000Y-176200000D03*
%TD*%
%TO.C,KiKit_MB_106_4*%
X148500000Y-228200000D03*
%TD*%
%TO.C,KiKit_MB_84_2*%
X171000000Y-176200000D03*
%TD*%
%TO.C,KiKit_MB_112_4*%
X273000000Y-228200000D03*
%TD*%
%TO.C,KiKit_MB_29_2*%
X197300000Y-103333333D03*
%TD*%
%TO.C,KiKit_MB_89_4*%
X199700000Y-209333333D03*
%TD*%
%TO.C,KiKit_MB_7_6*%
X99700000Y-51333333D03*
%TD*%
%TO.C,KiKit_MB_71_6*%
X97300000Y-211333333D03*
%TD*%
%TO.C,KiKit_MB_103_6*%
X197300000Y-246666666D03*
%TD*%
%TO.C,KiKit_MB_105_6*%
X126000000Y-228200000D03*
%TD*%
%TO.C,KiKit_MB_104_6*%
X197300000Y-263333333D03*
%TD*%
%TO.C,KiKit_MB_57_3*%
X147500000Y-124200000D03*
%TD*%
%TO.C,KiKit_MB_11_1*%
X151500000Y-69800000D03*
%TD*%
%TO.C,KiKit_MB_7_7*%
X99700000Y-50333333D03*
%TD*%
%TO.C,KiKit_MB_6_7*%
X99700000Y-33666667D03*
%TD*%
%TO.C,KiKit_MB_72_5*%
X25000000Y-176200000D03*
%TD*%
%TO.C,KiKit_MB_35_5*%
X172000000Y-121800000D03*
%TD*%
%TO.C,KiKit_MB_76_6*%
X46500000Y-225800000D03*
%TD*%
%TO.C,KiKit_MB_95_1*%
X276000000Y-225800000D03*
%TD*%
%TO.C,KiKit_MB_89_5*%
X199700000Y-208333333D03*
%TD*%
%TO.C,KiKit_MB_5_2*%
X75000000Y-69800000D03*
%TD*%
%TO.C,KiKit_MB_68_6*%
X246500000Y-173800000D03*
%TD*%
%TO.C,KiKit_MB_90_2*%
X222000000Y-176200000D03*
%TD*%
%TO.C,KiKit_MB_30_7*%
X127000000Y-72200000D03*
%TD*%
%TO.C,KiKit_MB_2_4*%
X97300000Y-53333333D03*
%TD*%
%TO.C,KiKit_MB_56_7*%
X127000000Y-124200000D03*
%TD*%
%TO.C,KiKit_MB_20_4*%
X24000000Y-72200000D03*
%TD*%
%TO.C,KiKit_MB_105_3*%
X123000000Y-228200000D03*
%TD*%
%TO.C,KiKit_MB_86_7*%
X145500000Y-225800000D03*
%TD*%
%TO.C,KiKit_MB_27_6*%
X99700000Y-103333333D03*
%TD*%
%TO.C,KiKit_MB_32_1*%
X170000000Y-72200000D03*
%TD*%
%TO.C,KiKit_MB_61_6*%
X171000000Y-173800000D03*
%TD*%
%TO.C,KiKit_MB_6_5*%
X99700000Y-35666667D03*
%TD*%
%TO.C,KiKit_MB_47_2*%
X46500000Y-124200000D03*
%TD*%
%TO.C,KiKit_MB_35_3*%
X174000000Y-121800000D03*
%TD*%
%TO.C,KiKit_MB_54_3*%
X197300000Y-139666666D03*
%TD*%
%TO.C,KiKit_MB_76_1*%
X51500000Y-225800000D03*
%TD*%
%TO.C,KiKit_MB_77_2*%
X75000000Y-225800000D03*
%TD*%
%TO.C,KiKit_MB_91_5*%
X249500000Y-176200000D03*
%TD*%
%TO.C,KiKit_MB_4_4*%
X48500000Y-69800000D03*
%TD*%
%TO.C,KiKit_MB_11_3*%
X149500000Y-69800000D03*
%TD*%
%TO.C,KiKit_MB_27_4*%
X99700000Y-105333333D03*
%TD*%
%TO.C,KiKit_MB_60_4*%
X148500000Y-173800000D03*
%TD*%
%TO.C,KiKit_MB_31_3*%
X147500000Y-72200000D03*
%TD*%
%TO.C,KiKit_MB_87_3*%
X174000000Y-225800000D03*
%TD*%
%TO.C,KiKit_MB_50_1*%
X51500000Y-173800000D03*
%TD*%
%TO.C,KiKit_MB_75_7*%
X21000000Y-225800000D03*
%TD*%
%TO.C,KiKit_MB_73_3*%
X47500000Y-176200000D03*
%TD*%
%TO.C,KiKit_MB_72_3*%
X23000000Y-176200000D03*
%TD*%
%TO.C,KiKit_MB_57_4*%
X148500000Y-124200000D03*
%TD*%
%TO.C,KiKit_MB_35_6*%
X171000000Y-121800000D03*
%TD*%
%TO.C,KiKit_MB_89_7*%
X199700000Y-206333333D03*
%TD*%
%TO.C,KiKit_MB_37_3*%
X199700000Y-106333333D03*
%TD*%
%TO.C,KiKit_MB_15_7*%
X221000000Y-69800000D03*
%TD*%
%TO.C,KiKit_MB_90_3*%
X223000000Y-176200000D03*
%TD*%
%TO.C,KiKit_MB_43_7*%
X270000000Y-121800000D03*
%TD*%
%TO.C,KiKit_MB_70_2*%
X97300000Y-190666666D03*
%TD*%
%TO.C,KiKit_MB_25_2*%
X75000000Y-121800000D03*
%TD*%
%TO.C,KiKit_MB_103_4*%
X197300000Y-244666666D03*
%TD*%
%TO.C,KiKit_MB_74_2*%
X71000000Y-176200000D03*
%TD*%
%TO.C,KiKit_MB_97_2*%
X97300000Y-259333333D03*
%TD*%
%TO.C,KiKit_MB_20_1*%
X21000000Y-72200000D03*
%TD*%
%TO.C,KiKit_MB_46_7*%
X27000000Y-124200000D03*
%TD*%
%TO.C,KiKit_MB_18_6*%
X97300000Y-90666666D03*
%TD*%
%TO.C,KiKit_MB_13_3*%
X199700000Y-37666667D03*
%TD*%
%TO.C,KiKit_MB_89_6*%
X199700000Y-207333333D03*
%TD*%
%TO.C,KiKit_MB_48_1*%
X70000000Y-124200000D03*
%TD*%
%TO.C,KiKit_MB_4_3*%
X49500000Y-69800000D03*
%TD*%
%TO.C,KiKit_MB_6_1*%
X99700000Y-39666667D03*
%TD*%
%TO.C,KiKit_MB_37_7*%
X199700000Y-102333333D03*
%TD*%
%TO.C,KiKit_MB_26_2*%
X99700000Y-90666666D03*
%TD*%
%TO.C,KiKit_MB_67_6*%
X222000000Y-173800000D03*
%TD*%
%TO.C,KiKit_MB_86_1*%
X151500000Y-225800000D03*
%TD*%
%TO.C,KiKit_MB_88_5*%
X199700000Y-191666666D03*
%TD*%
%TO.C,KiKit_MB_61_2*%
X175000000Y-173800000D03*
%TD*%
%TO.C,KiKit_MB_28_4*%
X197300000Y-88666666D03*
%TD*%
%TO.C,KiKit_MB_20_5*%
X25000000Y-72200000D03*
%TD*%
%TO.C,KiKit_MB_20_2*%
X22000000Y-72200000D03*
%TD*%
%TO.C,KiKit_MB_83_6*%
X150500000Y-176200000D03*
%TD*%
%TO.C,KiKit_MB_21_6*%
X50500000Y-72200000D03*
%TD*%
%TO.C,KiKit_MB_55_1*%
X197300000Y-154333333D03*
%TD*%
%TO.C,KiKit_MB_31_7*%
X151500000Y-72200000D03*
%TD*%
%TO.C,KiKit_MB_44_2*%
X97300000Y-138666666D03*
%TD*%
%TO.C,KiKit_MB_87_6*%
X171000000Y-225800000D03*
%TD*%
%TO.C,KiKit_MB_7_4*%
X99700000Y-53333333D03*
%TD*%
%TO.C,KiKit_MB_72_7*%
X27000000Y-176200000D03*
%TD*%
%TO.C,KiKit_MB_65_3*%
X247500000Y-124200000D03*
%TD*%
%TO.C,KiKit_MB_67_4*%
X224000000Y-173800000D03*
%TD*%
%TO.C,KiKit_MB_74_3*%
X72000000Y-176200000D03*
%TD*%
%TO.C,KiKit_MB_49_1*%
X27000000Y-173800000D03*
%TD*%
%TO.C,KiKit_MB_54_5*%
X197300000Y-141666666D03*
%TD*%
%TO.C,KiKit_MB_1_5*%
X97300000Y-37666667D03*
%TD*%
%TO.C,KiKit_MB_104_2*%
X197300000Y-259333333D03*
%TD*%
%TO.C,KiKit_MB_22_5*%
X74000000Y-72200000D03*
%TD*%
%TO.C,KiKit_MB_39_7*%
X251500000Y-72200000D03*
%TD*%
%TO.C,KiKit_MB_111_1*%
X245500000Y-228200000D03*
%TD*%
%TO.C,KiKit_MB_111_5*%
X249500000Y-228200000D03*
%TD*%
%TO.C,KiKit_MB_88_6*%
X199700000Y-190666666D03*
%TD*%
%TO.C,KiKit_MB_34_3*%
X149500000Y-121800000D03*
%TD*%
%TO.C,KiKit_MB_76_7*%
X45500000Y-225800000D03*
%TD*%
%TO.C,KiKit_MB_111_6*%
X250500000Y-228200000D03*
%TD*%
%TO.C,KiKit_MB_36_6*%
X199700000Y-86666666D03*
%TD*%
%TO.C,KiKit_MB_20_7*%
X27000000Y-72200000D03*
%TD*%
%TO.C,KiKit_MB_81_1*%
X197300000Y-206333333D03*
%TD*%
%TO.C,KiKit_MB_104_4*%
X197300000Y-261333333D03*
%TD*%
%TO.C,KiKit_MB_37_6*%
X199700000Y-103333333D03*
%TD*%
%TO.C,KiKit_MB_110_4*%
X224000000Y-228200000D03*
%TD*%
%TO.C,KiKit_MB_96_1*%
X97300000Y-241666666D03*
%TD*%
%TO.C,KiKit_MB_88_3*%
X199700000Y-193666666D03*
%TD*%
%TO.C,KiKit_MB_99_3*%
X47500000Y-228200000D03*
%TD*%
%TO.C,KiKit_MB_12_2*%
X175000000Y-69800000D03*
%TD*%
%TO.C,KiKit_MB_75_4*%
X24000000Y-225800000D03*
%TD*%
%TO.C,KiKit_MB_42_7*%
X245500000Y-121800000D03*
%TD*%
%TO.C,KiKit_MB_45_2*%
X97300000Y-155333333D03*
%TD*%
%TO.C,KiKit_MB_58_2*%
X171000000Y-124200000D03*
%TD*%
%TO.C,KiKit_MB_73_5*%
X49500000Y-176200000D03*
%TD*%
%TO.C,KiKit_MB_55_6*%
X197300000Y-159333333D03*
%TD*%
%TO.C,KiKit_MB_91_4*%
X248500000Y-176200000D03*
%TD*%
%TO.C,KiKit_MB_71_2*%
X97300000Y-207333333D03*
%TD*%
%TO.C,KiKit_MB_19_1*%
X97300000Y-102333333D03*
%TD*%
%TO.C,KiKit_MB_58_4*%
X173000000Y-124200000D03*
%TD*%
%TO.C,KiKit_MB_72_6*%
X26000000Y-176200000D03*
%TD*%
%TO.C,KiKit_MB_61_7*%
X170000000Y-173800000D03*
%TD*%
%TO.C,KiKit_MB_105_2*%
X122000000Y-228200000D03*
%TD*%
%TO.C,KiKit_MB_31_5*%
X149500000Y-72200000D03*
%TD*%
%TO.C,KiKit_MB_45_6*%
X97300000Y-159333333D03*
%TD*%
%TO.C,KiKit_MB_35_2*%
X175000000Y-121800000D03*
%TD*%
%TO.C,KiKit_MB_58_5*%
X174000000Y-124200000D03*
%TD*%
%TO.C,KiKit_MB_30_4*%
X124000000Y-72200000D03*
%TD*%
%TO.C,KiKit_MB_3_7*%
X21000000Y-69800000D03*
%TD*%
%TO.C,KiKit_MB_93_2*%
X226000000Y-225800000D03*
%TD*%
%TO.C,KiKit_MB_31_6*%
X150500000Y-72200000D03*
%TD*%
%TO.C,KiKit_MB_42_3*%
X249500000Y-121800000D03*
%TD*%
%TO.C,KiKit_MB_83_7*%
X151500000Y-176200000D03*
%TD*%
%TO.C,KiKit_MB_81_6*%
X197300000Y-211333333D03*
%TD*%
%TO.C,KiKit_MB_85_6*%
X122000000Y-225800000D03*
%TD*%
%TO.C,KiKit_MB_34_2*%
X150500000Y-121800000D03*
%TD*%
%TO.C,KiKit_MB_55_2*%
X197300000Y-155333333D03*
%TD*%
%TO.C,KiKit_MB_50_6*%
X46500000Y-173800000D03*
%TD*%
%TO.C,KiKit_MB_53_3*%
X99700000Y-158333333D03*
%TD*%
%TO.C,KiKit_MB_82_5*%
X125000000Y-176200000D03*
%TD*%
%TO.C,KiKit_MB_63_3*%
X199700000Y-158333333D03*
%TD*%
%TO.C,KiKit_MB_103_3*%
X197300000Y-243666666D03*
%TD*%
%TO.C,KiKit_MB_21_5*%
X49500000Y-72200000D03*
%TD*%
%TO.C,KiKit_MB_80_1*%
X197300000Y-189666666D03*
%TD*%
%TO.C,KiKit_MB_72_1*%
X21000000Y-176200000D03*
%TD*%
%TO.C,KiKit_MB_44_3*%
X97300000Y-139666666D03*
%TD*%
%TO.C,KiKit_MB_77_5*%
X72000000Y-225800000D03*
%TD*%
%TO.C,KiKit_MB_107_2*%
X171000000Y-228200000D03*
%TD*%
%TO.C,KiKit_MB_108_3*%
X199700000Y-245666666D03*
%TD*%
%TO.C,KiKit_MB_51_3*%
X74000000Y-173800000D03*
%TD*%
%TO.C,KiKit_MB_32_5*%
X174000000Y-72200000D03*
%TD*%
%TO.C,KiKit_MB_11_6*%
X146500000Y-69800000D03*
%TD*%
%TO.C,KiKit_MB_18_3*%
X97300000Y-87666666D03*
%TD*%
%TO.C,KiKit_MB_37_5*%
X199700000Y-104333333D03*
%TD*%
%TO.C,KiKit_MB_79_3*%
X99700000Y-210333333D03*
%TD*%
%TO.C,KiKit_MB_105_4*%
X124000000Y-228200000D03*
%TD*%
%TO.C,KiKit_MB_86_3*%
X149500000Y-225800000D03*
%TD*%
%TO.C,KiKit_MB_10_7*%
X121000000Y-69800000D03*
%TD*%
%TO.C,KiKit_MB_33_5*%
X123000000Y-121800000D03*
%TD*%
%TO.C,KiKit_MB_18_5*%
X97300000Y-89666666D03*
%TD*%
%TO.C,KiKit_MB_97_6*%
X97300000Y-263333333D03*
%TD*%
%TO.C,KiKit_MB_71_3*%
X97300000Y-208333333D03*
%TD*%
%TO.C,KiKit_MB_13_4*%
X199700000Y-36666667D03*
%TD*%
%TO.C,KiKit_MB_37_4*%
X199700000Y-105333333D03*
%TD*%
%TO.C,KiKit_MB_58_3*%
X172000000Y-124200000D03*
%TD*%
%TO.C,KiKit_MB_54_4*%
X197300000Y-140666666D03*
%TD*%
%TO.C,KiKit_MB_8_1*%
X197300000Y-33666667D03*
%TD*%
%TO.C,KiKit_MB_4_5*%
X47500000Y-69800000D03*
%TD*%
%TO.C,KiKit_MB_34_5*%
X147500000Y-121800000D03*
%TD*%
%TO.C,KiKit_MB_9_4*%
X197300000Y-53333333D03*
%TD*%
%TO.C,KiKit_MB_57_7*%
X151500000Y-124200000D03*
%TD*%
%TO.C,KiKit_MB_38_3*%
X223000000Y-72200000D03*
%TD*%
%TO.C,KiKit_MB_59_4*%
X124000000Y-173800000D03*
%TD*%
D11*
%TO.C,J7*%
X182200000Y-75700000D03*
%TD*%
%TO.C,J7*%
X282200000Y-75700000D03*
%TD*%
%TO.C,J7*%
X82200000Y-127700000D03*
%TD*%
%TO.C,J7*%
X182200000Y-23700000D03*
%TD*%
%TO.C,J7*%
X282200000Y-23700000D03*
%TD*%
%TO.C,J7*%
X82200000Y-75700000D03*
%TD*%
%TO.C,J7*%
X82200000Y-23700000D03*
%TD*%
%TO.C,J7*%
X182200000Y-179700000D03*
%TD*%
%TO.C,J7*%
X282200000Y-179700000D03*
%TD*%
%TO.C,J7*%
X82200000Y-231700000D03*
%TD*%
%TO.C,J7*%
X182200000Y-231700000D03*
%TD*%
%TO.C,J7*%
X282200000Y-231700000D03*
%TD*%
%TO.C,J7*%
X182200000Y-127700000D03*
%TD*%
%TO.C,J7*%
X282200000Y-127700000D03*
%TD*%
%TO.C,J7*%
X82200000Y-179700000D03*
%TD*%
D10*
%TO.C,KiKit_MB_24_6*%
X46500000Y-121800000D03*
%TD*%
%TO.C,KiKit_MB_85_1*%
X127000000Y-225800000D03*
%TD*%
%TO.C,KiKit_MB_82_1*%
X121000000Y-176200000D03*
%TD*%
%TO.C,KiKit_MB_105_5*%
X125000000Y-228200000D03*
%TD*%
%TO.C,KiKit_MB_82_7*%
X127000000Y-176200000D03*
%TD*%
%TO.C,KiKit_MB_69_3*%
X274000000Y-173800000D03*
%TD*%
%TO.C,KiKit_MB_10_4*%
X124000000Y-69800000D03*
%TD*%
%TO.C,KiKit_MB_101_6*%
X99700000Y-242666666D03*
%TD*%
%TO.C,KiKit_MB_16_2*%
X250500000Y-69800000D03*
%TD*%
%TO.C,KiKit_MB_12_6*%
X171000000Y-69800000D03*
%TD*%
%TO.C,KiKit_MB_73_6*%
X50500000Y-176200000D03*
%TD*%
%TO.C,KiKit_MB_47_7*%
X51500000Y-124200000D03*
%TD*%
%TO.C,KiKit_MB_15_1*%
X227000000Y-69800000D03*
%TD*%
%TO.C,KiKit_MB_66_3*%
X272000000Y-124200000D03*
%TD*%
%TO.C,KiKit_MB_96_4*%
X97300000Y-244666666D03*
%TD*%
%TO.C,KiKit_MB_74_4*%
X73000000Y-176200000D03*
%TD*%
%TO.C,KiKit_MB_36_2*%
X199700000Y-90666666D03*
%TD*%
%TO.C,KiKit_MB_44_1*%
X97300000Y-137666666D03*
%TD*%
%TO.C,KiKit_MB_23_1*%
X27000000Y-121800000D03*
%TD*%
%TO.C,KiKit_MB_10_5*%
X123000000Y-69800000D03*
%TD*%
%TO.C,KiKit_MB_67_1*%
X227000000Y-173800000D03*
%TD*%
%TO.C,KiKit_MB_99_7*%
X51500000Y-228200000D03*
%TD*%
%TO.C,KiKit_MB_36_3*%
X199700000Y-89666666D03*
%TD*%
%TO.C,KiKit_MB_15_2*%
X226000000Y-69800000D03*
%TD*%
%TO.C,KiKit_MB_25_7*%
X70000000Y-121800000D03*
%TD*%
%TO.C,KiKit_MB_16_6*%
X246500000Y-69800000D03*
%TD*%
%TO.C,KiKit_MB_101_2*%
X99700000Y-246666666D03*
%TD*%
%TO.C,KiKit_MB_48_3*%
X72000000Y-124200000D03*
%TD*%
%TO.C,KiKit_MB_107_7*%
X176000000Y-228200000D03*
%TD*%
%TO.C,KiKit_MB_42_2*%
X250500000Y-121800000D03*
%TD*%
%TO.C,KiKit_MB_43_2*%
X275000000Y-121800000D03*
%TD*%
%TO.C,KiKit_MB_39_1*%
X245500000Y-72200000D03*
%TD*%
%TO.C,KiKit_MB_86_5*%
X147500000Y-225800000D03*
%TD*%
%TO.C,KiKit_MB_104_7*%
X197300000Y-264333333D03*
%TD*%
%TO.C,KiKit_MB_4_7*%
X45500000Y-69800000D03*
%TD*%
%TO.C,KiKit_MB_25_1*%
X76000000Y-121800000D03*
%TD*%
%TO.C,KiKit_MB_21_3*%
X47500000Y-72200000D03*
%TD*%
%TO.C,KiKit_MB_89_2*%
X199700000Y-211333333D03*
%TD*%
%TO.C,KiKit_MB_23_6*%
X22000000Y-121800000D03*
%TD*%
%TO.C,KiKit_MB_23_2*%
X26000000Y-121800000D03*
%TD*%
%TO.C,KiKit_MB_59_5*%
X123000000Y-173800000D03*
%TD*%
%TO.C,KiKit_MB_108_5*%
X199700000Y-243666666D03*
%TD*%
%TO.C,KiKit_MB_110_3*%
X223000000Y-228200000D03*
%TD*%
%TO.C,KiKit_MB_103_1*%
X197300000Y-241666666D03*
%TD*%
%TO.C,KiKit_MB_40_6*%
X275000000Y-72200000D03*
%TD*%
%TO.C,KiKit_MB_54_6*%
X197300000Y-142666666D03*
%TD*%
%TO.C,KiKit_MB_96_2*%
X97300000Y-242666666D03*
%TD*%
%TO.C,KiKit_MB_24_2*%
X50500000Y-121800000D03*
%TD*%
%TO.C,KiKit_MB_57_5*%
X149500000Y-124200000D03*
%TD*%
%TO.C,KiKit_MB_27_3*%
X99700000Y-106333333D03*
%TD*%
%TO.C,KiKit_MB_60_6*%
X146500000Y-173800000D03*
%TD*%
%TO.C,KiKit_MB_45_4*%
X97300000Y-157333333D03*
%TD*%
%TO.C,KiKit_MB_30_6*%
X126000000Y-72200000D03*
%TD*%
%TO.C,KiKit_MB_111_7*%
X251500000Y-228200000D03*
%TD*%
%TO.C,KiKit_MB_49_7*%
X21000000Y-173800000D03*
%TD*%
%TO.C,KiKit_MB_108_7*%
X199700000Y-241666666D03*
%TD*%
%TO.C,KiKit_MB_54_2*%
X197300000Y-138666666D03*
%TD*%
%TO.C,KiKit_MB_69_6*%
X271000000Y-173800000D03*
%TD*%
%TO.C,KiKit_MB_52_6*%
X99700000Y-138666666D03*
%TD*%
%TO.C,KiKit_MB_65_4*%
X248500000Y-124200000D03*
%TD*%
%TO.C,KiKit_MB_43_3*%
X274000000Y-121800000D03*
%TD*%
%TO.C,KiKit_MB_104_5*%
X197300000Y-262333333D03*
%TD*%
%TO.C,KiKit_MB_55_5*%
X197300000Y-158333333D03*
%TD*%
%TO.C,KiKit_MB_60_2*%
X150500000Y-173800000D03*
%TD*%
%TO.C,KiKit_MB_47_1*%
X45500000Y-124200000D03*
%TD*%
%TO.C,KiKit_MB_59_3*%
X125000000Y-173800000D03*
%TD*%
%TO.C,KiKit_MB_13_5*%
X199700000Y-35666667D03*
%TD*%
%TO.C,KiKit_MB_1_3*%
X97300000Y-35666667D03*
%TD*%
%TO.C,KiKit_MB_64_2*%
X222000000Y-124200000D03*
%TD*%
%TO.C,KiKit_MB_63_7*%
X199700000Y-154333333D03*
%TD*%
%TO.C,KiKit_MB_50_2*%
X50500000Y-173800000D03*
%TD*%
%TO.C,KiKit_MB_74_7*%
X76000000Y-176200000D03*
%TD*%
%TO.C,KiKit_MB_8_6*%
X197300000Y-38666667D03*
%TD*%
%TO.C,KiKit_MB_18_1*%
X97300000Y-85666666D03*
%TD*%
%TO.C,KiKit_MB_49_6*%
X22000000Y-173800000D03*
%TD*%
%TO.C,KiKit_MB_98_6*%
X26000000Y-228200000D03*
%TD*%
%TO.C,KiKit_MB_107_5*%
X174000000Y-228200000D03*
%TD*%
%TO.C,KiKit_MB_3_1*%
X27000000Y-69800000D03*
%TD*%
%TO.C,KiKit_MB_79_5*%
X99700000Y-208333333D03*
%TD*%
%TO.C,KiKit_MB_76_2*%
X50500000Y-225800000D03*
%TD*%
%TO.C,KiKit_MB_99_6*%
X50500000Y-228200000D03*
%TD*%
%TO.C,KiKit_MB_6_4*%
X99700000Y-36666667D03*
%TD*%
%TO.C,KiKit_MB_93_6*%
X222000000Y-225800000D03*
%TD*%
%TO.C,KiKit_MB_63_4*%
X199700000Y-157333333D03*
%TD*%
%TO.C,KiKit_MB_21_1*%
X45500000Y-72200000D03*
%TD*%
%TO.C,KiKit_MB_83_4*%
X148500000Y-176200000D03*
%TD*%
%TO.C,KiKit_MB_10_3*%
X125000000Y-69800000D03*
%TD*%
%TO.C,KiKit_MB_106_5*%
X149500000Y-228200000D03*
%TD*%
%TO.C,KiKit_MB_7_3*%
X99700000Y-54333333D03*
%TD*%
%TO.C,KiKit_MB_109_4*%
X199700000Y-261333333D03*
%TD*%
%TO.C,KiKit_MB_103_7*%
X197300000Y-247666666D03*
%TD*%
%TO.C,KiKit_MB_60_5*%
X147500000Y-173800000D03*
%TD*%
%TO.C,KiKit_MB_12_7*%
X170000000Y-69800000D03*
%TD*%
%TO.C,KiKit_MB_13_6*%
X199700000Y-34666667D03*
%TD*%
%TO.C,KiKit_MB_62_3*%
X199700000Y-141666666D03*
%TD*%
%TO.C,KiKit_MB_82_4*%
X124000000Y-176200000D03*
%TD*%
%TO.C,KiKit_MB_26_4*%
X99700000Y-88666666D03*
%TD*%
%TO.C,KiKit_MB_32_7*%
X176000000Y-72200000D03*
%TD*%
%TO.C,KiKit_MB_74_5*%
X74000000Y-176200000D03*
%TD*%
%TO.C,KiKit_MB_33_6*%
X122000000Y-121800000D03*
%TD*%
%TO.C,KiKit_MB_94_5*%
X247500000Y-225800000D03*
%TD*%
%TO.C,KiKit_MB_9_7*%
X197300000Y-56333333D03*
%TD*%
%TO.C,KiKit_MB_75_1*%
X27000000Y-225800000D03*
%TD*%
%TO.C,KiKit_MB_74_6*%
X75000000Y-176200000D03*
%TD*%
%TO.C,KiKit_MB_20_3*%
X23000000Y-72200000D03*
%TD*%
%TO.C,KiKit_MB_99_4*%
X48500000Y-228200000D03*
%TD*%
%TO.C,KiKit_MB_101_4*%
X99700000Y-244666666D03*
%TD*%
%TO.C,KiKit_MB_39_5*%
X249500000Y-72200000D03*
%TD*%
%TO.C,KiKit_MB_100_6*%
X75000000Y-228200000D03*
%TD*%
%TO.C,KiKit_MB_105_7*%
X127000000Y-228200000D03*
%TD*%
%TO.C,KiKit_MB_24_5*%
X47500000Y-121800000D03*
%TD*%
%TO.C,KiKit_MB_19_4*%
X97300000Y-105333333D03*
%TD*%
%TO.C,KiKit_MB_106_2*%
X146500000Y-228200000D03*
%TD*%
%TO.C,KiKit_MB_24_4*%
X48500000Y-121800000D03*
%TD*%
%TO.C,KiKit_MB_73_7*%
X51500000Y-176200000D03*
%TD*%
%TO.C,KiKit_MB_14_1*%
X199700000Y-56333333D03*
%TD*%
%TO.C,KiKit_MB_12_4*%
X173000000Y-69800000D03*
%TD*%
%TO.C,KiKit_MB_45_7*%
X97300000Y-160333333D03*
%TD*%
%TO.C,KiKit_MB_42_5*%
X247500000Y-121800000D03*
%TD*%
%TO.C,KiKit_MB_23_3*%
X25000000Y-121800000D03*
%TD*%
%TO.C,KiKit_MB_5_3*%
X74000000Y-69800000D03*
%TD*%
%TO.C,KiKit_MB_87_2*%
X175000000Y-225800000D03*
%TD*%
%TO.C,KiKit_MB_25_6*%
X71000000Y-121800000D03*
%TD*%
%TO.C,KiKit_MB_53_1*%
X99700000Y-160333333D03*
%TD*%
%TO.C,KiKit_MB_83_2*%
X146500000Y-176200000D03*
%TD*%
%TO.C,KiKit_MB_103_5*%
X197300000Y-245666666D03*
%TD*%
%TO.C,KiKit_MB_41_3*%
X225000000Y-121800000D03*
%TD*%
%TO.C,KiKit_MB_85_2*%
X126000000Y-225800000D03*
%TD*%
%TO.C,KiKit_MB_17_2*%
X275000000Y-69800000D03*
%TD*%
%TO.C,KiKit_MB_4_6*%
X46500000Y-69800000D03*
%TD*%
%TO.C,KiKit_MB_50_7*%
X45500000Y-173800000D03*
%TD*%
%TO.C,KiKit_MB_64_3*%
X223000000Y-124200000D03*
%TD*%
%TO.C,KiKit_MB_106_7*%
X151500000Y-228200000D03*
%TD*%
%TO.C,KiKit_MB_65_1*%
X245500000Y-124200000D03*
%TD*%
%TO.C,KiKit_MB_74_1*%
X70000000Y-176200000D03*
%TD*%
%TO.C,KiKit_MB_40_1*%
X270000000Y-72200000D03*
%TD*%
%TO.C,KiKit_MB_100_5*%
X74000000Y-228200000D03*
%TD*%
%TO.C,KiKit_MB_97_5*%
X97300000Y-262333333D03*
%TD*%
%TO.C,KiKit_MB_11_7*%
X145500000Y-69800000D03*
%TD*%
%TO.C,KiKit_MB_83_1*%
X145500000Y-176200000D03*
%TD*%
%TO.C,KiKit_MB_24_1*%
X51500000Y-121800000D03*
%TD*%
%TO.C,KiKit_MB_62_1*%
X199700000Y-143666666D03*
%TD*%
%TO.C,KiKit_MB_30_5*%
X125000000Y-72200000D03*
%TD*%
%TO.C,KiKit_MB_37_1*%
X199700000Y-108333333D03*
%TD*%
%TO.C,KiKit_MB_84_1*%
X170000000Y-176200000D03*
%TD*%
%TO.C,KiKit_MB_85_5*%
X123000000Y-225800000D03*
%TD*%
%TO.C,KiKit_MB_102_5*%
X99700000Y-260333333D03*
%TD*%
%TO.C,KiKit_MB_29_7*%
X197300000Y-108333333D03*
%TD*%
%TO.C,KiKit_MB_97_1*%
X97300000Y-258333333D03*
%TD*%
%TO.C,KiKit_MB_45_1*%
X97300000Y-154333333D03*
%TD*%
%TO.C,KiKit_MB_70_7*%
X97300000Y-195666666D03*
%TD*%
%TO.C,KiKit_MB_4_2*%
X50500000Y-69800000D03*
%TD*%
%TO.C,KiKit_MB_3_3*%
X25000000Y-69800000D03*
%TD*%
%TO.C,KiKit_MB_70_5*%
X97300000Y-193666666D03*
%TD*%
%TO.C,KiKit_MB_8_3*%
X197300000Y-35666667D03*
%TD*%
%TO.C,KiKit_MB_101_5*%
X99700000Y-243666666D03*
%TD*%
%TO.C,KiKit_MB_32_4*%
X173000000Y-72200000D03*
%TD*%
%TO.C,KiKit_MB_19_2*%
X97300000Y-103333333D03*
%TD*%
%TO.C,KiKit_MB_9_2*%
X197300000Y-51333333D03*
%TD*%
%TO.C,KiKit_MB_71_5*%
X97300000Y-210333333D03*
%TD*%
%TO.C,KiKit_MB_15_6*%
X222000000Y-69800000D03*
%TD*%
%TO.C,KiKit_MB_82_3*%
X123000000Y-176200000D03*
%TD*%
%TO.C,KiKit_MB_80_6*%
X197300000Y-194666666D03*
%TD*%
%TO.C,KiKit_MB_15_4*%
X224000000Y-69800000D03*
%TD*%
%TO.C,KiKit_MB_84_7*%
X176000000Y-176200000D03*
%TD*%
%TO.C,KiKit_MB_66_1*%
X270000000Y-124200000D03*
%TD*%
%TO.C,KiKit_MB_67_5*%
X223000000Y-173800000D03*
%TD*%
%TO.C,KiKit_MB_36_1*%
X199700000Y-91666666D03*
%TD*%
%TO.C,KiKit_MB_41_4*%
X224000000Y-121800000D03*
%TD*%
%TO.C,KiKit_MB_2_1*%
X97300000Y-50333333D03*
%TD*%
%TO.C,KiKit_MB_58_1*%
X170000000Y-124200000D03*
%TD*%
%TO.C,KiKit_MB_28_6*%
X197300000Y-90666666D03*
%TD*%
%TO.C,KiKit_MB_64_5*%
X225000000Y-124200000D03*
%TD*%
%TO.C,KiKit_MB_19_6*%
X97300000Y-107333333D03*
%TD*%
%TO.C,KiKit_MB_56_5*%
X125000000Y-124200000D03*
%TD*%
%TO.C,KiKit_MB_55_3*%
X197300000Y-156333333D03*
%TD*%
%TO.C,KiKit_MB_64_1*%
X221000000Y-124200000D03*
%TD*%
%TO.C,KiKit_MB_48_5*%
X74000000Y-124200000D03*
%TD*%
%TO.C,KiKit_MB_41_7*%
X221000000Y-121800000D03*
%TD*%
%TO.C,KiKit_MB_23_5*%
X23000000Y-121800000D03*
%TD*%
%TO.C,KiKit_MB_31_4*%
X148500000Y-72200000D03*
%TD*%
%TO.C,KiKit_MB_26_7*%
X99700000Y-85666666D03*
%TD*%
%TO.C,KiKit_MB_46_4*%
X24000000Y-124200000D03*
%TD*%
%TO.C,KiKit_MB_67_2*%
X226000000Y-173800000D03*
%TD*%
%TO.C,KiKit_MB_91_2*%
X246500000Y-176200000D03*
%TD*%
%TO.C,KiKit_MB_61_3*%
X174000000Y-173800000D03*
%TD*%
%TO.C,KiKit_MB_100_3*%
X72000000Y-228200000D03*
%TD*%
%TO.C,KiKit_MB_2_7*%
X97300000Y-56333333D03*
%TD*%
%TO.C,KiKit_MB_111_2*%
X246500000Y-228200000D03*
%TD*%
%TO.C,KiKit_MB_6_3*%
X99700000Y-37666667D03*
%TD*%
%TO.C,KiKit_MB_41_1*%
X227000000Y-121800000D03*
%TD*%
%TO.C,KiKit_MB_75_2*%
X26000000Y-225800000D03*
%TD*%
%TO.C,KiKit_MB_19_3*%
X97300000Y-104333333D03*
%TD*%
%TO.C,KiKit_MB_17_3*%
X274000000Y-69800000D03*
%TD*%
%TO.C,KiKit_MB_16_5*%
X247500000Y-69800000D03*
%TD*%
%TO.C,KiKit_MB_17_7*%
X270000000Y-69800000D03*
%TD*%
%TO.C,KiKit_MB_70_4*%
X97300000Y-192666666D03*
%TD*%
%TO.C,KiKit_MB_22_1*%
X70000000Y-72200000D03*
%TD*%
%TO.C,KiKit_MB_62_4*%
X199700000Y-140666666D03*
%TD*%
%TO.C,KiKit_MB_106_3*%
X147500000Y-228200000D03*
%TD*%
%TO.C,KiKit_MB_20_6*%
X26000000Y-72200000D03*
%TD*%
%TO.C,KiKit_MB_45_3*%
X97300000Y-156333333D03*
%TD*%
%TO.C,KiKit_MB_14_4*%
X199700000Y-53333333D03*
%TD*%
%TO.C,KiKit_MB_79_6*%
X99700000Y-207333333D03*
%TD*%
%TO.C,KiKit_MB_66_2*%
X271000000Y-124200000D03*
%TD*%
%TO.C,KiKit_MB_112_6*%
X275000000Y-228200000D03*
%TD*%
%TO.C,KiKit_MB_39_6*%
X250500000Y-72200000D03*
%TD*%
%TO.C,KiKit_MB_68_2*%
X250500000Y-173800000D03*
%TD*%
%TO.C,KiKit_MB_11_2*%
X150500000Y-69800000D03*
%TD*%
%TO.C,KiKit_MB_97_3*%
X97300000Y-260333333D03*
%TD*%
D11*
%TO.C,J5*%
X182200000Y-66700000D03*
%TD*%
%TO.C,J5*%
X282200000Y-66700000D03*
%TD*%
%TO.C,J5*%
X82200000Y-118700000D03*
%TD*%
%TO.C,J5*%
X182200000Y-118700000D03*
%TD*%
%TO.C,J5*%
X282200000Y-118700000D03*
%TD*%
%TO.C,J5*%
X82200000Y-170700000D03*
%TD*%
%TO.C,J5*%
X182200000Y-170700000D03*
%TD*%
%TO.C,J5*%
X282200000Y-170700000D03*
%TD*%
%TO.C,J5*%
X82200000Y-222700000D03*
%TD*%
%TO.C,J5*%
X182200000Y-222700000D03*
%TD*%
%TO.C,J5*%
X282200000Y-222700000D03*
%TD*%
%TO.C,J5*%
X82200000Y-274700000D03*
%TD*%
%TO.C,J5*%
X182200000Y-274700000D03*
%TD*%
%TO.C,J5*%
X282200000Y-274700000D03*
%TD*%
%TO.C,J5*%
X82200000Y-66700000D03*
%TD*%
D10*
%TO.C,KiKit_MB_90_1*%
X221000000Y-176200000D03*
%TD*%
%TO.C,KiKit_MB_90_5*%
X225000000Y-176200000D03*
%TD*%
%TO.C,KiKit_MB_102_7*%
X99700000Y-258333333D03*
%TD*%
%TO.C,KiKit_MB_85_4*%
X124000000Y-225800000D03*
%TD*%
%TO.C,KiKit_MB_79_1*%
X99700000Y-212333333D03*
%TD*%
%TO.C,KiKit_MB_84_5*%
X174000000Y-176200000D03*
%TD*%
%TO.C,KiKit_MB_59_2*%
X126000000Y-173800000D03*
%TD*%
%TO.C,KiKit_MB_38_6*%
X226000000Y-72200000D03*
%TD*%
%TO.C,KiKit_MB_62_7*%
X199700000Y-137666666D03*
%TD*%
%TO.C,KiKit_MB_102_3*%
X99700000Y-262333333D03*
%TD*%
%TO.C,KiKit_MB_69_1*%
X276000000Y-173800000D03*
%TD*%
%TO.C,KiKit_MB_28_7*%
X197300000Y-91666666D03*
%TD*%
%TO.C,KiKit_MB_92_5*%
X274000000Y-176200000D03*
%TD*%
%TO.C,KiKit_MB_57_2*%
X146500000Y-124200000D03*
%TD*%
%TO.C,KiKit_MB_101_3*%
X99700000Y-245666666D03*
%TD*%
%TO.C,KiKit_MB_82_2*%
X122000000Y-176200000D03*
%TD*%
%TO.C,KiKit_MB_83_5*%
X149500000Y-176200000D03*
%TD*%
%TO.C,KiKit_MB_17_5*%
X272000000Y-69800000D03*
%TD*%
%TO.C,KiKit_MB_90_7*%
X227000000Y-176200000D03*
%TD*%
%TO.C,KiKit_MB_85_7*%
X121000000Y-225800000D03*
%TD*%
%TO.C,KiKit_MB_33_2*%
X126000000Y-121800000D03*
%TD*%
%TO.C,KiKit_MB_41_2*%
X226000000Y-121800000D03*
%TD*%
%TO.C,KiKit_MB_111_3*%
X247500000Y-228200000D03*
%TD*%
%TO.C,KiKit_MB_53_7*%
X99700000Y-154333333D03*
%TD*%
%TO.C,KiKit_MB_5_6*%
X71000000Y-69800000D03*
%TD*%
%TO.C,KiKit_MB_86_6*%
X146500000Y-225800000D03*
%TD*%
%TO.C,KiKit_MB_87_1*%
X176000000Y-225800000D03*
%TD*%
%TO.C,KiKit_MB_101_1*%
X99700000Y-247666666D03*
%TD*%
%TO.C,KiKit_MB_104_1*%
X197300000Y-258333333D03*
%TD*%
%TO.C,KiKit_MB_79_2*%
X99700000Y-211333333D03*
%TD*%
%TO.C,KiKit_MB_81_3*%
X197300000Y-208333333D03*
%TD*%
%TO.C,KiKit_MB_48_2*%
X71000000Y-124200000D03*
%TD*%
%TO.C,KiKit_MB_40_3*%
X272000000Y-72200000D03*
%TD*%
%TO.C,KiKit_MB_107_1*%
X170000000Y-228200000D03*
%TD*%
%TO.C,KiKit_MB_44_6*%
X97300000Y-142666666D03*
%TD*%
%TO.C,KiKit_MB_1_7*%
X97300000Y-39666667D03*
%TD*%
%TO.C,KiKit_MB_56_2*%
X122000000Y-124200000D03*
%TD*%
%TO.C,KiKit_MB_63_2*%
X199700000Y-159333333D03*
%TD*%
%TO.C,KiKit_MB_67_3*%
X225000000Y-173800000D03*
%TD*%
%TO.C,KiKit_MB_19_7*%
X97300000Y-108333333D03*
%TD*%
%TO.C,KiKit_MB_46_5*%
X25000000Y-124200000D03*
%TD*%
%TO.C,KiKit_MB_94_7*%
X245500000Y-225800000D03*
%TD*%
D11*
%TO.C,J2*%
X213200000Y-222700000D03*
%TD*%
%TO.C,J2*%
X13200000Y-118700000D03*
%TD*%
%TO.C,J2*%
X113200000Y-118700000D03*
%TD*%
%TO.C,J2*%
X213200000Y-118700000D03*
%TD*%
%TO.C,J2*%
X13200000Y-170700000D03*
%TD*%
%TO.C,J2*%
X113200000Y-170700000D03*
%TD*%
%TO.C,J2*%
X213200000Y-170700000D03*
%TD*%
%TO.C,J2*%
X13200000Y-222700000D03*
%TD*%
%TO.C,J2*%
X113200000Y-222700000D03*
%TD*%
%TO.C,J2*%
X13200000Y-274700000D03*
%TD*%
%TO.C,J2*%
X113200000Y-274700000D03*
%TD*%
%TO.C,J2*%
X213200000Y-274700000D03*
%TD*%
%TO.C,J2*%
X13200000Y-66700000D03*
%TD*%
%TO.C,J2*%
X113200000Y-66700000D03*
%TD*%
%TO.C,J2*%
X213200000Y-66700000D03*
%TD*%
D10*
%TO.C,KiKit_MB_21_4*%
X48500000Y-72200000D03*
%TD*%
%TO.C,KiKit_MB_46_6*%
X26000000Y-124200000D03*
%TD*%
%TO.C,KiKit_MB_95_5*%
X272000000Y-225800000D03*
%TD*%
%TO.C,KiKit_MB_54_7*%
X197300000Y-143666666D03*
%TD*%
%TO.C,KiKit_MB_8_7*%
X197300000Y-39666667D03*
%TD*%
%TO.C,KiKit_MB_53_4*%
X99700000Y-157333333D03*
%TD*%
%TO.C,KiKit_MB_67_7*%
X221000000Y-173800000D03*
%TD*%
%TO.C,KiKit_MB_27_2*%
X99700000Y-107333333D03*
%TD*%
%TO.C,KiKit_MB_41_6*%
X222000000Y-121800000D03*
%TD*%
%TO.C,KiKit_MB_46_2*%
X22000000Y-124200000D03*
%TD*%
%TO.C,KiKit_MB_94_3*%
X249500000Y-225800000D03*
%TD*%
%TO.C,KiKit_MB_94_2*%
X250500000Y-225800000D03*
%TD*%
%TO.C,KiKit_MB_16_1*%
X251500000Y-69800000D03*
%TD*%
%TO.C,KiKit_MB_40_7*%
X276000000Y-72200000D03*
%TD*%
%TO.C,KiKit_MB_109_2*%
X199700000Y-263333333D03*
%TD*%
%TO.C,KiKit_MB_93_3*%
X225000000Y-225800000D03*
%TD*%
%TO.C,KiKit_MB_92_1*%
X270000000Y-176200000D03*
%TD*%
%TO.C,KiKit_MB_66_4*%
X273000000Y-124200000D03*
%TD*%
%TO.C,KiKit_MB_36_4*%
X199700000Y-88666666D03*
%TD*%
%TO.C,KiKit_MB_23_7*%
X21000000Y-121800000D03*
%TD*%
%TO.C,KiKit_MB_35_4*%
X173000000Y-121800000D03*
%TD*%
%TO.C,KiKit_MB_93_1*%
X227000000Y-225800000D03*
%TD*%
%TO.C,KiKit_MB_10_6*%
X122000000Y-69800000D03*
%TD*%
%TO.C,KiKit_MB_110_6*%
X226000000Y-228200000D03*
%TD*%
%TO.C,KiKit_MB_16_3*%
X249500000Y-69800000D03*
%TD*%
%TO.C,KiKit_MB_35_1*%
X176000000Y-121800000D03*
%TD*%
%TO.C,KiKit_MB_59_7*%
X121000000Y-173800000D03*
%TD*%
%TO.C,KiKit_MB_68_5*%
X247500000Y-173800000D03*
%TD*%
%TO.C,KiKit_MB_50_5*%
X47500000Y-173800000D03*
%TD*%
%TO.C,KiKit_MB_34_1*%
X151500000Y-121800000D03*
%TD*%
%TO.C,KiKit_MB_43_1*%
X276000000Y-121800000D03*
%TD*%
%TO.C,KiKit_MB_38_7*%
X227000000Y-72200000D03*
%TD*%
%TO.C,KiKit_MB_80_4*%
X197300000Y-192666666D03*
%TD*%
%TO.C,KiKit_MB_70_1*%
X97300000Y-189666666D03*
%TD*%
%TO.C,KiKit_MB_61_1*%
X176000000Y-173800000D03*
%TD*%
%TO.C,KiKit_MB_73_1*%
X45500000Y-176200000D03*
%TD*%
%TO.C,KiKit_MB_38_4*%
X224000000Y-72200000D03*
%TD*%
%TO.C,KiKit_MB_22_2*%
X71000000Y-72200000D03*
%TD*%
%TO.C,KiKit_MB_71_1*%
X97300000Y-206333333D03*
%TD*%
%TO.C,KiKit_MB_91_3*%
X247500000Y-176200000D03*
%TD*%
%TO.C,KiKit_MB_75_5*%
X23000000Y-225800000D03*
%TD*%
%TO.C,KiKit_MB_108_4*%
X199700000Y-244666666D03*
%TD*%
%TO.C,KiKit_MB_38_5*%
X225000000Y-72200000D03*
%TD*%
%TO.C,KiKit_MB_9_1*%
X197300000Y-50333333D03*
%TD*%
%TO.C,KiKit_MB_5_7*%
X70000000Y-69800000D03*
%TD*%
%TO.C,KiKit_MB_108_2*%
X199700000Y-246666666D03*
%TD*%
%TO.C,KiKit_MB_110_7*%
X227000000Y-228200000D03*
%TD*%
%TO.C,KiKit_MB_5_5*%
X72000000Y-69800000D03*
%TD*%
%TO.C,KiKit_MB_94_4*%
X248500000Y-225800000D03*
%TD*%
%TO.C,KiKit_MB_52_7*%
X99700000Y-137666666D03*
%TD*%
%TO.C,KiKit_MB_58_7*%
X176000000Y-124200000D03*
%TD*%
%TO.C,KiKit_MB_70_3*%
X97300000Y-191666666D03*
%TD*%
%TO.C,KiKit_MB_59_6*%
X122000000Y-173800000D03*
%TD*%
%TO.C,KiKit_MB_8_2*%
X197300000Y-34666667D03*
%TD*%
%TO.C,KiKit_MB_17_6*%
X271000000Y-69800000D03*
%TD*%
%TO.C,KiKit_MB_69_5*%
X272000000Y-173800000D03*
%TD*%
%TO.C,KiKit_MB_30_2*%
X122000000Y-72200000D03*
%TD*%
%TO.C,KiKit_MB_62_6*%
X199700000Y-138666666D03*
%TD*%
%TO.C,KiKit_MB_56_3*%
X123000000Y-124200000D03*
%TD*%
%TO.C,KiKit_MB_64_4*%
X224000000Y-124200000D03*
%TD*%
%TO.C,KiKit_MB_50_4*%
X48500000Y-173800000D03*
%TD*%
%TO.C,KiKit_MB_109_6*%
X199700000Y-259333333D03*
%TD*%
%TO.C,KiKit_MB_39_4*%
X248500000Y-72200000D03*
%TD*%
%TO.C,KiKit_MB_91_7*%
X251500000Y-176200000D03*
%TD*%
%TO.C,KiKit_MB_40_2*%
X271000000Y-72200000D03*
%TD*%
%TO.C,KiKit_MB_73_2*%
X46500000Y-176200000D03*
%TD*%
%TO.C,KiKit_MB_100_1*%
X70000000Y-228200000D03*
%TD*%
%TO.C,KiKit_MB_7_5*%
X99700000Y-52333333D03*
%TD*%
%TO.C,KiKit_MB_32_3*%
X172000000Y-72200000D03*
%TD*%
%TO.C,KiKit_MB_28_1*%
X197300000Y-85666666D03*
%TD*%
%TO.C,KiKit_MB_81_5*%
X197300000Y-210333333D03*
%TD*%
%TO.C,KiKit_MB_66_6*%
X275000000Y-124200000D03*
%TD*%
%TO.C,KiKit_MB_97_7*%
X97300000Y-264333333D03*
%TD*%
%TO.C,KiKit_MB_3_5*%
X23000000Y-69800000D03*
%TD*%
%TO.C,KiKit_MB_98_7*%
X27000000Y-228200000D03*
%TD*%
%TO.C,KiKit_MB_52_5*%
X99700000Y-139666666D03*
%TD*%
%TO.C,KiKit_MB_98_3*%
X23000000Y-228200000D03*
%TD*%
%TO.C,KiKit_MB_38_2*%
X222000000Y-72200000D03*
%TD*%
%TO.C,KiKit_MB_77_6*%
X71000000Y-225800000D03*
%TD*%
%TO.C,KiKit_MB_77_7*%
X70000000Y-225800000D03*
%TD*%
%TO.C,KiKit_MB_98_2*%
X22000000Y-228200000D03*
%TD*%
%TO.C,KiKit_MB_92_3*%
X272000000Y-176200000D03*
%TD*%
%TO.C,KiKit_MB_39_3*%
X247500000Y-72200000D03*
%TD*%
%TO.C,KiKit_MB_78_1*%
X99700000Y-195666666D03*
%TD*%
%TO.C,KiKit_MB_49_5*%
X23000000Y-173800000D03*
%TD*%
%TO.C,KiKit_MB_52_2*%
X99700000Y-142666666D03*
%TD*%
%TO.C,KiKit_MB_90_4*%
X224000000Y-176200000D03*
%TD*%
%TO.C,KiKit_MB_30_3*%
X123000000Y-72200000D03*
%TD*%
%TO.C,KiKit_MB_112_5*%
X274000000Y-228200000D03*
%TD*%
%TO.C,KiKit_MB_104_3*%
X197300000Y-260333333D03*
%TD*%
%TO.C,KiKit_MB_71_4*%
X97300000Y-209333333D03*
%TD*%
%TO.C,KiKit_MB_60_7*%
X145500000Y-173800000D03*
%TD*%
%TO.C,KiKit_MB_107_6*%
X175000000Y-228200000D03*
%TD*%
%TO.C,KiKit_MB_75_3*%
X25000000Y-225800000D03*
%TD*%
%TO.C,KiKit_MB_98_5*%
X25000000Y-228200000D03*
%TD*%
%TO.C,KiKit_MB_28_3*%
X197300000Y-87666666D03*
%TD*%
%TO.C,KiKit_MB_60_1*%
X151500000Y-173800000D03*
%TD*%
%TO.C,KiKit_MB_22_7*%
X76000000Y-72200000D03*
%TD*%
%TO.C,KiKit_MB_80_7*%
X197300000Y-195666666D03*
%TD*%
%TO.C,KiKit_MB_43_6*%
X271000000Y-121800000D03*
%TD*%
%TO.C,KiKit_MB_99_2*%
X46500000Y-228200000D03*
%TD*%
%TO.C,KiKit_MB_88_2*%
X199700000Y-194666666D03*
%TD*%
%TO.C,KiKit_MB_94_1*%
X251500000Y-225800000D03*
%TD*%
%TO.C,KiKit_MB_89_1*%
X199700000Y-212333333D03*
%TD*%
%TO.C,KiKit_MB_94_6*%
X246500000Y-225800000D03*
%TD*%
%TO.C,KiKit_MB_99_1*%
X45500000Y-228200000D03*
%TD*%
%TO.C,KiKit_MB_102_6*%
X99700000Y-259333333D03*
%TD*%
%TO.C,KiKit_MB_105_1*%
X121000000Y-228200000D03*
%TD*%
%TO.C,KiKit_MB_78_5*%
X99700000Y-191666666D03*
%TD*%
%TO.C,KiKit_MB_109_1*%
X199700000Y-264333333D03*
%TD*%
%TO.C,KiKit_MB_77_4*%
X73000000Y-225800000D03*
%TD*%
%TO.C,KiKit_MB_11_5*%
X147500000Y-69800000D03*
%TD*%
%TO.C,KiKit_MB_110_1*%
X221000000Y-228200000D03*
%TD*%
%TO.C,KiKit_MB_92_4*%
X273000000Y-176200000D03*
%TD*%
%TO.C,KiKit_MB_88_4*%
X199700000Y-192666666D03*
%TD*%
%TO.C,KiKit_MB_39_2*%
X246500000Y-72200000D03*
%TD*%
%TO.C,KiKit_MB_51_4*%
X73000000Y-173800000D03*
%TD*%
%TO.C,KiKit_MB_17_4*%
X273000000Y-69800000D03*
%TD*%
%TO.C,KiKit_MB_48_6*%
X75000000Y-124200000D03*
%TD*%
%TO.C,KiKit_MB_64_6*%
X226000000Y-124200000D03*
%TD*%
%TO.C,KiKit_MB_95_7*%
X270000000Y-225800000D03*
%TD*%
%TO.C,KiKit_MB_64_7*%
X227000000Y-124200000D03*
%TD*%
%TO.C,KiKit_MB_86_2*%
X150500000Y-225800000D03*
%TD*%
%TO.C,KiKit_MB_51_2*%
X75000000Y-173800000D03*
%TD*%
%TO.C,KiKit_MB_80_3*%
X197300000Y-191666666D03*
%TD*%
%TO.C,KiKit_MB_52_4*%
X99700000Y-140666666D03*
%TD*%
%TO.C,KiKit_MB_73_4*%
X48500000Y-176200000D03*
%TD*%
%TO.C,KiKit_MB_7_1*%
X99700000Y-56333333D03*
%TD*%
%TO.C,KiKit_MB_60_3*%
X149500000Y-173800000D03*
%TD*%
%TO.C,KiKit_MB_61_4*%
X173000000Y-173800000D03*
%TD*%
%TO.C,KiKit_MB_32_2*%
X171000000Y-72200000D03*
%TD*%
%TO.C,KiKit_MB_65_7*%
X251500000Y-124200000D03*
%TD*%
%TO.C,KiKit_MB_79_7*%
X99700000Y-206333333D03*
%TD*%
%TO.C,KiKit_MB_97_4*%
X97300000Y-261333333D03*
%TD*%
%TO.C,KiKit_MB_107_4*%
X173000000Y-228200000D03*
%TD*%
%TO.C,KiKit_MB_26_6*%
X99700000Y-86666666D03*
%TD*%
%TO.C,KiKit_MB_22_3*%
X72000000Y-72200000D03*
%TD*%
%TO.C,KiKit_MB_34_4*%
X148500000Y-121800000D03*
%TD*%
%TO.C,KiKit_MB_33_1*%
X127000000Y-121800000D03*
%TD*%
%TO.C,KiKit_MB_62_2*%
X199700000Y-142666666D03*
%TD*%
%TO.C,KiKit_MB_25_5*%
X72000000Y-121800000D03*
%TD*%
%TO.C,KiKit_MB_110_5*%
X225000000Y-228200000D03*
%TD*%
%TO.C,KiKit_MB_25_3*%
X74000000Y-121800000D03*
%TD*%
%TO.C,KiKit_MB_112_2*%
X271000000Y-228200000D03*
%TD*%
%TO.C,KiKit_MB_7_2*%
X99700000Y-55333333D03*
%TD*%
%TO.C,KiKit_MB_19_5*%
X97300000Y-106333333D03*
%TD*%
%TO.C,KiKit_MB_68_1*%
X251500000Y-173800000D03*
%TD*%
%TO.C,KiKit_MB_65_6*%
X250500000Y-124200000D03*
%TD*%
%TO.C,KiKit_MB_21_2*%
X46500000Y-72200000D03*
%TD*%
%TO.C,KiKit_MB_47_6*%
X50500000Y-124200000D03*
%TD*%
%TO.C,KiKit_MB_100_2*%
X71000000Y-228200000D03*
%TD*%
%TO.C,KiKit_MB_14_7*%
X199700000Y-50333333D03*
%TD*%
%TO.C,KiKit_MB_88_1*%
X199700000Y-195666666D03*
%TD*%
%TO.C,KiKit_MB_68_3*%
X249500000Y-173800000D03*
%TD*%
%TO.C,KiKit_MB_51_5*%
X72000000Y-173800000D03*
%TD*%
%TO.C,KiKit_MB_26_3*%
X99700000Y-89666666D03*
%TD*%
%TO.C,KiKit_MB_40_5*%
X274000000Y-72200000D03*
%TD*%
%TO.C,KiKit_MB_29_6*%
X197300000Y-107333333D03*
%TD*%
%TO.C,KiKit_MB_36_5*%
X199700000Y-87666666D03*
%TD*%
%TO.C,KiKit_MB_93_5*%
X223000000Y-225800000D03*
%TD*%
%TO.C,KiKit_MB_40_4*%
X273000000Y-72200000D03*
%TD*%
%TO.C,KiKit_MB_63_6*%
X199700000Y-155333333D03*
%TD*%
%TO.C,KiKit_MB_2_6*%
X97300000Y-55333333D03*
%TD*%
%TO.C,KiKit_MB_65_2*%
X246500000Y-124200000D03*
%TD*%
%TO.C,KiKit_MB_29_5*%
X197300000Y-106333333D03*
%TD*%
%TO.C,KiKit_MB_3_4*%
X24000000Y-69800000D03*
%TD*%
%TO.C,KiKit_MB_14_3*%
X199700000Y-54333333D03*
%TD*%
%TO.C,KiKit_MB_33_7*%
X121000000Y-121800000D03*
%TD*%
%TO.C,KiKit_MB_37_2*%
X199700000Y-107333333D03*
%TD*%
%TO.C,KiKit_MB_47_3*%
X47500000Y-124200000D03*
%TD*%
%TO.C,KiKit_MB_49_3*%
X25000000Y-173800000D03*
%TD*%
%TO.C,KiKit_MB_29_4*%
X197300000Y-105333333D03*
%TD*%
%TO.C,KiKit_MB_49_4*%
X24000000Y-173800000D03*
%TD*%
%TO.C,KiKit_MB_95_6*%
X271000000Y-225800000D03*
%TD*%
%TO.C,KiKit_MB_9_6*%
X197300000Y-55333333D03*
%TD*%
%TO.C,KiKit_MB_55_4*%
X197300000Y-157333333D03*
%TD*%
%TO.C,KiKit_MB_13_2*%
X199700000Y-38666667D03*
%TD*%
%TO.C,KiKit_MB_112_1*%
X270000000Y-228200000D03*
%TD*%
%TO.C,KiKit_MB_31_1*%
X145500000Y-72200000D03*
%TD*%
%TO.C,KiKit_MB_3_6*%
X22000000Y-69800000D03*
%TD*%
%TO.C,KiKit_MB_107_3*%
X172000000Y-228200000D03*
%TD*%
%TO.C,KiKit_MB_5_1*%
X76000000Y-69800000D03*
%TD*%
%TO.C,KiKit_MB_30_1*%
X121000000Y-72200000D03*
%TD*%
%TO.C,KiKit_MB_13_7*%
X199700000Y-33666667D03*
%TD*%
%TO.C,KiKit_MB_91_6*%
X250500000Y-176200000D03*
%TD*%
%TO.C,KiKit_MB_87_5*%
X172000000Y-225800000D03*
%TD*%
%TO.C,KiKit_MB_71_7*%
X97300000Y-212333333D03*
%TD*%
%TO.C,KiKit_MB_24_7*%
X45500000Y-121800000D03*
%TD*%
%TO.C,KiKit_MB_28_5*%
X197300000Y-89666666D03*
%TD*%
%TO.C,KiKit_MB_109_3*%
X199700000Y-262333333D03*
%TD*%
%TO.C,KiKit_MB_24_3*%
X49500000Y-121800000D03*
%TD*%
%TO.C,KiKit_MB_66_5*%
X274000000Y-124200000D03*
%TD*%
%TO.C,KiKit_MB_41_5*%
X223000000Y-121800000D03*
%TD*%
%TO.C,KiKit_MB_17_1*%
X276000000Y-69800000D03*
%TD*%
%TO.C,KiKit_MB_13_1*%
X199700000Y-39666667D03*
%TD*%
%TO.C,KiKit_MB_15_5*%
X223000000Y-69800000D03*
%TD*%
%TO.C,KiKit_MB_66_7*%
X276000000Y-124200000D03*
%TD*%
%TO.C,KiKit_MB_2_5*%
X97300000Y-54333333D03*
%TD*%
%TO.C,KiKit_MB_16_4*%
X248500000Y-69800000D03*
%TD*%
%TO.C,KiKit_MB_51_7*%
X70000000Y-173800000D03*
%TD*%
%TO.C,KiKit_MB_10_1*%
X127000000Y-69800000D03*
%TD*%
%TO.C,KiKit_MB_72_4*%
X24000000Y-176200000D03*
%TD*%
%TO.C,KiKit_MB_84_6*%
X175000000Y-176200000D03*
%TD*%
%TO.C,KiKit_MB_110_2*%
X222000000Y-228200000D03*
%TD*%
%TO.C,KiKit_MB_9_5*%
X197300000Y-54333333D03*
%TD*%
%TO.C,KiKit_MB_36_7*%
X199700000Y-85666666D03*
%TD*%
%TO.C,KiKit_MB_68_7*%
X245500000Y-173800000D03*
%TD*%
%TO.C,KiKit_MB_12_1*%
X176000000Y-69800000D03*
%TD*%
%TO.C,KiKit_MB_8_5*%
X197300000Y-37666667D03*
%TD*%
%TO.C,KiKit_MB_81_2*%
X197300000Y-207333333D03*
%TD*%
%TO.C,KiKit_MB_82_6*%
X126000000Y-176200000D03*
%TD*%
%TO.C,KiKit_MB_80_2*%
X197300000Y-190666666D03*
%TD*%
%TO.C,KiKit_MB_78_2*%
X99700000Y-194666666D03*
%TD*%
%TO.C,KiKit_MB_27_1*%
X99700000Y-108333333D03*
%TD*%
%TO.C,KiKit_MB_1_2*%
X97300000Y-34666667D03*
%TD*%
%TO.C,KiKit_MB_112_7*%
X276000000Y-228200000D03*
%TD*%
%TO.C,KiKit_MB_57_1*%
X145500000Y-124200000D03*
%TD*%
%TO.C,KiKit_MB_48_7*%
X76000000Y-124200000D03*
%TD*%
%TO.C,KiKit_MB_86_4*%
X148500000Y-225800000D03*
%TD*%
%TO.C,KiKit_MB_61_5*%
X172000000Y-173800000D03*
%TD*%
%TO.C,KiKit_MB_53_6*%
X99700000Y-155333333D03*
%TD*%
%TO.C,KiKit_MB_92_7*%
X276000000Y-176200000D03*
%TD*%
%TO.C,KiKit_MB_68_4*%
X248500000Y-173800000D03*
%TD*%
%TO.C,KiKit_MB_47_4*%
X48500000Y-124200000D03*
%TD*%
%TO.C,KiKit_MB_81_4*%
X197300000Y-209333333D03*
%TD*%
%TO.C,KiKit_MB_78_4*%
X99700000Y-192666666D03*
%TD*%
%TO.C,KiKit_MB_42_6*%
X246500000Y-121800000D03*
%TD*%
%TO.C,KiKit_MB_85_3*%
X125000000Y-225800000D03*
%TD*%
%TO.C,KiKit_MB_23_4*%
X24000000Y-121800000D03*
%TD*%
%TO.C,KiKit_MB_78_7*%
X99700000Y-189666666D03*
%TD*%
%TO.C,KiKit_MB_106_6*%
X150500000Y-228200000D03*
%TD*%
%TO.C,KiKit_MB_34_6*%
X146500000Y-121800000D03*
%TD*%
%TO.C,KiKit_MB_45_5*%
X97300000Y-158333333D03*
%TD*%
%TO.C,KiKit_MB_1_1*%
X97300000Y-33666667D03*
%TD*%
%TO.C,KiKit_MB_18_7*%
X97300000Y-91666666D03*
%TD*%
%TO.C,KiKit_MB_56_1*%
X121000000Y-124200000D03*
%TD*%
%TO.C,KiKit_MB_65_5*%
X249500000Y-124200000D03*
%TD*%
%TO.C,KiKit_MB_76_3*%
X49500000Y-225800000D03*
%TD*%
%TO.C,KiKit_MB_21_7*%
X51500000Y-72200000D03*
%TD*%
%TO.C,KiKit_MB_53_5*%
X99700000Y-156333333D03*
%TD*%
%TO.C,KiKit_MB_63_5*%
X199700000Y-156333333D03*
%TD*%
%TO.C,KiKit_MB_56_4*%
X124000000Y-124200000D03*
%TD*%
%TO.C,KiKit_MB_103_2*%
X197300000Y-242666666D03*
%TD*%
%TO.C,KiKit_MB_78_6*%
X99700000Y-190666666D03*
%TD*%
%TO.C,KiKit_MB_4_1*%
X51500000Y-69800000D03*
%TD*%
%TO.C,KiKit_MB_33_3*%
X125000000Y-121800000D03*
%TD*%
%TO.C,KiKit_MB_69_7*%
X270000000Y-173800000D03*
%TD*%
%TO.C,KiKit_MB_84_3*%
X172000000Y-176200000D03*
%TD*%
%TO.C,KiKit_MB_49_2*%
X26000000Y-173800000D03*
%TD*%
%TO.C,KiKit_MB_42_1*%
X251500000Y-121800000D03*
%TD*%
%TO.C,KiKit_MB_88_7*%
X199700000Y-189666666D03*
%TD*%
%TO.C,KiKit_MB_28_2*%
X197300000Y-86666666D03*
%TD*%
%TO.C,KiKit_MB_78_3*%
X99700000Y-193666666D03*
%TD*%
%TO.C,KiKit_MB_93_4*%
X224000000Y-225800000D03*
%TD*%
%TO.C,KiKit_MB_27_5*%
X99700000Y-104333333D03*
%TD*%
%TO.C,KiKit_MB_96_6*%
X97300000Y-246666666D03*
%TD*%
%TO.C,KiKit_MB_87_4*%
X173000000Y-225800000D03*
%TD*%
%TO.C,KiKit_MB_98_1*%
X21000000Y-228200000D03*
%TD*%
%TO.C,KiKit_MB_111_4*%
X248500000Y-228200000D03*
%TD*%
%TO.C,KiKit_MB_12_3*%
X174000000Y-69800000D03*
%TD*%
%TO.C,KiKit_MB_90_6*%
X226000000Y-176200000D03*
%TD*%
%TO.C,KiKit_MB_27_7*%
X99700000Y-102333333D03*
%TD*%
%TO.C,KiKit_MB_46_3*%
X23000000Y-124200000D03*
%TD*%
%TO.C,KiKit_MB_102_1*%
X99700000Y-264333333D03*
%TD*%
%TO.C,KiKit_MB_35_7*%
X170000000Y-121800000D03*
%TD*%
%TO.C,KiKit_MB_44_7*%
X97300000Y-143666666D03*
%TD*%
%TO.C,KiKit_MB_50_3*%
X49500000Y-173800000D03*
%TD*%
%TO.C,KiKit_MB_54_1*%
X197300000Y-137666666D03*
%TD*%
%TO.C,KiKit_MB_96_3*%
X97300000Y-243666666D03*
%TD*%
%TO.C,KiKit_MB_57_6*%
X150500000Y-124200000D03*
%TD*%
%TO.C,KiKit_MB_2_3*%
X97300000Y-52333333D03*
%TD*%
%TO.C,KiKit_MB_79_4*%
X99700000Y-209333333D03*
%TD*%
%TO.C,KiKit_MB_109_7*%
X199700000Y-258333333D03*
%TD*%
%TO.C,KiKit_MB_102_4*%
X99700000Y-261333333D03*
%TD*%
%TO.C,KiKit_MB_44_5*%
X97300000Y-141666666D03*
%TD*%
%TO.C,KiKit_MB_76_4*%
X48500000Y-225800000D03*
%TD*%
%TO.C,KiKit_MB_96_5*%
X97300000Y-245666666D03*
%TD*%
%TO.C,KiKit_MB_18_2*%
X97300000Y-86666666D03*
%TD*%
%TO.C,KiKit_MB_38_1*%
X221000000Y-72200000D03*
%TD*%
%TO.C,KiKit_MB_77_1*%
X76000000Y-225800000D03*
%TD*%
%TO.C,KiKit_MB_26_5*%
X99700000Y-87666666D03*
%TD*%
%TO.C,KiKit_MB_16_7*%
X245500000Y-69800000D03*
%TD*%
%TO.C,KiKit_MB_14_6*%
X199700000Y-51333333D03*
%TD*%
%TO.C,KiKit_MB_77_3*%
X74000000Y-225800000D03*
%TD*%
%TO.C,KiKit_MB_87_7*%
X170000000Y-225800000D03*
%TD*%
%TO.C,KiKit_MB_18_4*%
X97300000Y-88666666D03*
%TD*%
%TO.C,KiKit_MB_70_6*%
X97300000Y-194666666D03*
%TD*%
%TO.C,KiKit_MB_12_5*%
X172000000Y-69800000D03*
%TD*%
%TO.C,KiKit_MB_95_4*%
X273000000Y-225800000D03*
%TD*%
%TO.C,KiKit_MB_47_5*%
X49500000Y-124200000D03*
%TD*%
%TO.C,KiKit_MB_31_2*%
X146500000Y-72200000D03*
%TD*%
%TO.C,KiKit_MB_14_2*%
X199700000Y-55333333D03*
%TD*%
%TO.C,KiKit_MB_63_1*%
X199700000Y-160333333D03*
%TD*%
%TO.C,KiKit_MB_101_7*%
X99700000Y-241666666D03*
%TD*%
%TO.C,KiKit_MB_34_7*%
X145500000Y-121800000D03*
%TD*%
%TO.C,KiKit_MB_69_2*%
X275000000Y-173800000D03*
%TD*%
%TO.C,KiKit_MB_33_4*%
X124000000Y-121800000D03*
%TD*%
D11*
%TO.C,J9*%
X13200000Y-23700000D03*
%TD*%
%TO.C,J9*%
X113200000Y-23700000D03*
%TD*%
%TO.C,J9*%
X213200000Y-23700000D03*
%TD*%
%TO.C,J9*%
X13200000Y-75700000D03*
%TD*%
%TO.C,J9*%
X113200000Y-75700000D03*
%TD*%
%TO.C,J9*%
X213200000Y-75700000D03*
%TD*%
%TO.C,J9*%
X13200000Y-127700000D03*
%TD*%
%TO.C,J9*%
X113200000Y-127700000D03*
%TD*%
%TO.C,J9*%
X213200000Y-127700000D03*
%TD*%
%TO.C,J9*%
X13200000Y-179700000D03*
%TD*%
%TO.C,J9*%
X113200000Y-179700000D03*
%TD*%
%TO.C,J9*%
X213200000Y-179700000D03*
%TD*%
%TO.C,J9*%
X13200000Y-231700000D03*
%TD*%
%TO.C,J9*%
X113200000Y-231700000D03*
%TD*%
%TO.C,J9*%
X213200000Y-231700000D03*
%TD*%
D10*
%TO.C,KiKit_MB_42_4*%
X248500000Y-121800000D03*
%TD*%
%TO.C,KiKit_MB_1_4*%
X97300000Y-36666667D03*
%TD*%
%TO.C,KiKit_MB_96_7*%
X97300000Y-247666666D03*
%TD*%
%TO.C,KiKit_MB_2_2*%
X97300000Y-51333333D03*
%TD*%
%TO.C,KiKit_MB_53_2*%
X99700000Y-159333333D03*
%TD*%
%TO.C,KiKit_MB_6_6*%
X99700000Y-34666667D03*
%TD*%
%TO.C,KiKit_MB_3_2*%
X26000000Y-69800000D03*
%TD*%
%TO.C,KiKit_MB_56_6*%
X126000000Y-124200000D03*
%TD*%
%TO.C,KiKit_MB_6_2*%
X99700000Y-38666667D03*
%TD*%
%TO.C,KiKit_MB_98_4*%
X24000000Y-228200000D03*
%TD*%
%TO.C,KiKit_MB_62_5*%
X199700000Y-139666666D03*
%TD*%
%TO.C,KiKit_MB_1_6*%
X97300000Y-38666667D03*
%TD*%
%TO.C,KiKit_MB_51_6*%
X71000000Y-173800000D03*
%TD*%
%TO.C,KiKit_MB_29_3*%
X197300000Y-104333333D03*
%TD*%
%TO.C,KiKit_MB_9_3*%
X197300000Y-52333333D03*
%TD*%
M02*
