M48
; DRILL file {KiCad 7.0.1-3b83917a11~171~ubuntu20.04.1} date 2023. okt. 26., csütörtök, 23:57:50 CEST
; FORMAT={-:-/ absolute / metric / decimal}
; #@! TF.CreationDate,2023-10-26T23:57:50+02:00
; #@! TF.GenerationSoftware,Kicad,Pcbnew,7.0.1-3b83917a11~171~ubuntu20.04.1
; #@! TF.FileFunction,Plated,1,2,PTH
FMAT,2
METRIC
; #@! TA.AperFunction,Plated,PTH,ViaDrill
T1C0.400
; #@! TA.AperFunction,Plated,PTH,ComponentDrill
T2C0.650
; #@! TA.AperFunction,Plated,PTH,ComponentDrill
T3C1.000
; #@! TA.AperFunction,Plated,PTH,ComponentDrill
T4C1.300
%
G90
G05
T1
X16.25Y-57.2
X16.25Y-105.2
X16.25Y-153.2
X16.25Y-201.2
X16.25Y-249.2
X18.65Y-45.4
X18.65Y-93.4
X18.65Y-141.4
X18.65Y-189.4
X18.65Y-237.4
X31.05Y-57.6
X31.05Y-105.6
X31.05Y-153.6
X31.05Y-201.6
X31.05Y-249.6
X37.25Y-56.8
X37.25Y-104.8
X37.25Y-152.8
X37.25Y-200.8
X37.25Y-248.8
X41.45Y-59.0
X41.45Y-107.0
X41.45Y-155.0
X41.45Y-203.0
X41.45Y-251.0
X48.05Y-57.6
X48.05Y-105.6
X48.05Y-153.6
X48.05Y-201.6
X48.05Y-249.6
X48.85Y-59.4
X48.85Y-107.4
X48.85Y-155.4
X48.85Y-203.4
X48.85Y-251.4
X57.85Y-59.4
X57.85Y-107.4
X57.85Y-155.4
X57.85Y-203.4
X57.85Y-251.4
X62.85Y-54.4
X62.85Y-102.4
X62.85Y-150.4
X62.85Y-198.4
X62.85Y-246.4
X67.25Y-62.8
X67.25Y-64.472
X67.25Y-110.8
X67.25Y-112.472
X67.25Y-158.8
X67.25Y-160.472
X67.25Y-206.8
X67.25Y-208.472
X67.25Y-254.8
X67.25Y-256.472
X67.45Y-56.4
X67.45Y-104.4
X67.45Y-152.4
X67.45Y-200.4
X67.45Y-248.4
X67.65Y-52.0
X67.65Y-100.0
X67.65Y-148.0
X67.65Y-196.0
X67.65Y-244.0
X78.65Y-60.0
X78.65Y-108.0
X78.65Y-156.0
X78.65Y-204.0
X78.65Y-252.0
X90.35Y-58.9
X90.35Y-106.9
X90.35Y-154.9
X90.35Y-202.9
X90.35Y-250.9
X114.75Y-57.2
X114.75Y-105.2
X114.75Y-153.2
X114.75Y-201.2
X114.75Y-249.2
X117.15Y-45.4
X117.15Y-93.4
X117.15Y-141.4
X117.15Y-189.4
X117.15Y-237.4
X129.55Y-57.6
X129.55Y-105.6
X129.55Y-153.6
X129.55Y-201.6
X129.55Y-249.6
X135.75Y-56.8
X135.75Y-104.8
X135.75Y-152.8
X135.75Y-200.8
X135.75Y-248.8
X139.95Y-59.0
X139.95Y-107.0
X139.95Y-155.0
X139.95Y-203.0
X139.95Y-251.0
X146.55Y-57.6
X146.55Y-105.6
X146.55Y-153.6
X146.55Y-201.6
X146.55Y-249.6
X147.35Y-59.4
X147.35Y-107.4
X147.35Y-155.4
X147.35Y-203.4
X147.35Y-251.4
X156.35Y-59.4
X156.35Y-107.4
X156.35Y-155.4
X156.35Y-203.4
X156.35Y-251.4
X161.35Y-54.4
X161.35Y-102.4
X161.35Y-150.4
X161.35Y-198.4
X161.35Y-246.4
X165.75Y-62.8
X165.75Y-64.472
X165.75Y-110.8
X165.75Y-112.472
X165.75Y-158.8
X165.75Y-160.472
X165.75Y-206.8
X165.75Y-208.472
X165.75Y-254.8
X165.75Y-256.472
X165.95Y-56.4
X165.95Y-104.4
X165.95Y-152.4
X165.95Y-200.4
X165.95Y-248.4
X166.15Y-52.0
X166.15Y-100.0
X166.15Y-148.0
X166.15Y-196.0
X166.15Y-244.0
X177.15Y-60.0
X177.15Y-108.0
X177.15Y-156.0
X177.15Y-204.0
X177.15Y-252.0
X188.85Y-58.9
X188.85Y-106.9
X188.85Y-154.9
X188.85Y-202.9
X188.85Y-250.9
X213.25Y-57.2
X213.25Y-105.2
X213.25Y-153.2
X213.25Y-201.2
X213.25Y-249.2
X215.65Y-45.4
X215.65Y-93.4
X215.65Y-141.4
X215.65Y-189.4
X215.65Y-237.4
X228.05Y-57.6
X228.05Y-105.6
X228.05Y-153.6
X228.05Y-201.6
X228.05Y-249.6
X234.25Y-56.8
X234.25Y-104.8
X234.25Y-152.8
X234.25Y-200.8
X234.25Y-248.8
X238.45Y-59.0
X238.45Y-107.0
X238.45Y-155.0
X238.45Y-203.0
X238.45Y-251.0
X245.05Y-57.6
X245.05Y-105.6
X245.05Y-153.6
X245.05Y-201.6
X245.05Y-249.6
X245.85Y-59.4
X245.85Y-107.4
X245.85Y-155.4
X245.85Y-203.4
X245.85Y-251.4
X254.85Y-59.4
X254.85Y-107.4
X254.85Y-155.4
X254.85Y-203.4
X254.85Y-251.4
X259.85Y-54.4
X259.85Y-102.4
X259.85Y-150.4
X259.85Y-198.4
X259.85Y-246.4
X264.25Y-62.8
X264.25Y-64.472
X264.25Y-110.8
X264.25Y-112.472
X264.25Y-158.8
X264.25Y-160.472
X264.25Y-206.8
X264.25Y-208.472
X264.25Y-254.8
X264.25Y-256.472
X264.45Y-56.4
X264.45Y-104.4
X264.45Y-152.4
X264.45Y-200.4
X264.45Y-248.4
X264.65Y-52.0
X264.65Y-100.0
X264.65Y-148.0
X264.65Y-196.0
X264.65Y-244.0
X275.65Y-60.0
X275.65Y-108.0
X275.65Y-156.0
X275.65Y-204.0
X275.65Y-252.0
X287.35Y-58.9
X287.35Y-106.9
X287.35Y-154.9
X287.35Y-202.9
X287.35Y-250.9
T2
X77.98Y-58.2
X77.98Y-106.2
X77.98Y-154.2
X77.98Y-202.2
X77.98Y-250.2
X79.25Y-58.2
X79.25Y-106.2
X79.25Y-154.2
X79.25Y-202.2
X79.25Y-250.2
X80.52Y-58.2
X80.52Y-106.2
X80.52Y-154.2
X80.52Y-202.2
X80.52Y-250.2
X81.79Y-58.2
X81.79Y-106.2
X81.79Y-154.2
X81.79Y-202.2
X81.79Y-250.2
X176.48Y-58.2
X176.48Y-106.2
X176.48Y-154.2
X176.48Y-202.2
X176.48Y-250.2
X177.75Y-58.2
X177.75Y-106.2
X177.75Y-154.2
X177.75Y-202.2
X177.75Y-250.2
X179.02Y-58.2
X179.02Y-106.2
X179.02Y-154.2
X179.02Y-202.2
X179.02Y-250.2
X180.29Y-58.2
X180.29Y-106.2
X180.29Y-154.2
X180.29Y-202.2
X180.29Y-250.2
X274.98Y-58.2
X274.98Y-106.2
X274.98Y-154.2
X274.98Y-202.2
X274.98Y-250.2
X276.25Y-58.2
X276.25Y-106.2
X276.25Y-154.2
X276.25Y-202.2
X276.25Y-250.2
X277.52Y-58.2
X277.52Y-106.2
X277.52Y-154.2
X277.52Y-202.2
X277.52Y-250.2
X278.79Y-58.2
X278.79Y-106.2
X278.79Y-154.2
X278.79Y-202.2
X278.79Y-250.2
T3
X14.75Y-64.0
X14.75Y-112.0
X14.75Y-160.0
X14.75Y-208.0
X14.75Y-256.0
X14.85Y-22.0
X14.85Y-70.0
X14.85Y-118.0
X14.85Y-166.0
X14.85Y-214.0
X32.25Y-23.0
X32.25Y-71.0
X32.25Y-119.0
X32.25Y-167.0
X32.25Y-215.0
X62.25Y-23.0
X62.25Y-71.0
X62.25Y-119.0
X62.25Y-167.0
X62.25Y-215.0
X83.75Y-22.0
X83.75Y-64.0
X83.75Y-70.0
X83.75Y-112.0
X83.75Y-118.0
X83.75Y-160.0
X83.75Y-166.0
X83.75Y-208.0
X83.75Y-214.0
X83.75Y-256.0
X113.25Y-64.0
X113.25Y-112.0
X113.25Y-160.0
X113.25Y-208.0
X113.25Y-256.0
X113.35Y-22.0
X113.35Y-70.0
X113.35Y-118.0
X113.35Y-166.0
X113.35Y-214.0
X130.75Y-23.0
X130.75Y-71.0
X130.75Y-119.0
X130.75Y-167.0
X130.75Y-215.0
X160.75Y-23.0
X160.75Y-71.0
X160.75Y-119.0
X160.75Y-167.0
X160.75Y-215.0
X182.25Y-22.0
X182.25Y-64.0
X182.25Y-70.0
X182.25Y-112.0
X182.25Y-118.0
X182.25Y-160.0
X182.25Y-166.0
X182.25Y-208.0
X182.25Y-214.0
X182.25Y-256.0
X211.75Y-64.0
X211.75Y-112.0
X211.75Y-160.0
X211.75Y-208.0
X211.75Y-256.0
X211.85Y-22.0
X211.85Y-70.0
X211.85Y-118.0
X211.85Y-166.0
X211.85Y-214.0
X229.25Y-23.0
X229.25Y-71.0
X229.25Y-119.0
X229.25Y-167.0
X229.25Y-215.0
X259.25Y-23.0
X259.25Y-71.0
X259.25Y-119.0
X259.25Y-167.0
X259.25Y-215.0
X280.75Y-22.0
X280.75Y-64.0
X280.75Y-70.0
X280.75Y-112.0
X280.75Y-118.0
X280.75Y-160.0
X280.75Y-166.0
X280.75Y-208.0
X280.75Y-214.0
X280.75Y-256.0
T4
X9.281Y-43.619
X9.281Y-91.619
X9.281Y-139.619
X9.281Y-187.619
X9.281Y-235.619
X29.281Y-43.619
X29.281Y-91.619
X29.281Y-139.619
X29.281Y-187.619
X29.281Y-235.619
X107.781Y-43.619
X107.781Y-91.619
X107.781Y-139.619
X107.781Y-187.619
X107.781Y-235.619
X127.781Y-43.619
X127.781Y-91.619
X127.781Y-139.619
X127.781Y-187.619
X127.781Y-235.619
X206.281Y-43.619
X206.281Y-91.619
X206.281Y-139.619
X206.281Y-187.619
X206.281Y-235.619
X226.281Y-43.619
X226.281Y-91.619
X226.281Y-139.619
X226.281Y-187.619
X226.281Y-235.619
T0
M30
