%TF.GenerationSoftware,KiCad,Pcbnew,7.0.1-3b83917a11~171~ubuntu20.04.1*%
%TF.CreationDate,2023-10-27T13:40:09+02:00*%
%TF.ProjectId,panel_bottom,70616e65-6c5f-4626-9f74-746f6d2e6b69,rev?*%
%TF.SameCoordinates,PX1ab3f0PY1312d00*%
%TF.FileFunction,Soldermask,Bot*%
%TF.FilePolarity,Negative*%
%FSLAX46Y46*%
G04 Gerber Fmt 4.6, Leading zero omitted, Abs format (unit mm)*
G04 Created by KiCad (PCBNEW 7.0.1-3b83917a11~171~ubuntu20.04.1) date 2023-10-27 13:40:09*
%MOMM*%
%LPD*%
G01*
G04 APERTURE LIST*
%ADD10C,0.500000*%
%ADD11R,1.700000X1.700000*%
%ADD12R,2.100000X2.100000*%
%ADD13C,2.100000*%
%ADD14R,1.000000X1.000000*%
%ADD15O,1.000000X1.000000*%
G04 APERTURE END LIST*
D10*
%TO.C,KiKit_MB_7_1*%
X113600000Y-45800000D03*
%TD*%
%TO.C,KiKit_MB_2_3*%
X96300000Y-35000000D03*
%TD*%
%TO.C,KiKit_MB_37_3*%
X13100000Y-96200000D03*
%TD*%
%TO.C,KiKit_MB_1_5*%
X96300000Y-12200000D03*
%TD*%
%TO.C,KiKit_MB_9_3*%
X98700000Y-10600000D03*
%TD*%
%TO.C,KiKit_MB_23_3*%
X111600000Y-93800000D03*
%TD*%
%TO.C,KiKit_MB_29_5*%
X208100000Y-93800000D03*
%TD*%
%TO.C,KiKit_MB_20_4*%
X83100000Y-48200000D03*
%TD*%
%TO.C,KiKit_MB_46_3*%
X210100000Y-96200000D03*
%TD*%
%TO.C,KiKit_MB_44_3*%
X98700000Y-131000000D03*
%TD*%
%TO.C,KiKit_MB_8_5*%
X178600000Y-45800000D03*
%TD*%
%TO.C,KiKit_MB_8_3*%
X180600000Y-45800000D03*
%TD*%
%TO.C,KiKit_MB_32_3*%
X210100000Y-48200000D03*
%TD*%
%TO.C,KiKit_MB_32_1*%
X208100000Y-48200000D03*
%TD*%
%TO.C,KiKit_MB_45_1*%
X197200000Y-108600000D03*
%TD*%
%TO.C,KiKit_MB_27_5*%
X182600000Y-48200000D03*
%TD*%
%TO.C,KiKit_MB_25_3*%
X98700000Y-58600000D03*
%TD*%
%TO.C,KiKit_MB_34_5*%
X197200000Y-81000000D03*
%TD*%
%TO.C,KiKit_MB_31_2*%
X197200000Y-59600000D03*
%TD*%
%TO.C,KiKit_MB_5_4*%
X194800000Y-11200000D03*
%TD*%
%TO.C,KiKit_MB_37_4*%
X14100000Y-96200000D03*
%TD*%
%TO.C,KiKit_MB_16_2*%
X96300000Y-82000000D03*
%TD*%
%TO.C,KiKit_MB_7_5*%
X109600000Y-45800000D03*
%TD*%
%TO.C,KiKit_MB_3_1*%
X15100000Y-45800000D03*
%TD*%
%TO.C,KiKit_MB_22_3*%
X194800000Y-83000000D03*
%TD*%
%TO.C,KiKit_MB_8_1*%
X182600000Y-45800000D03*
%TD*%
%TO.C,KiKit_MB_42_4*%
X112600000Y-96200000D03*
%TD*%
%TO.C,KiKit_MB_39_1*%
X194800000Y-104200000D03*
%TD*%
%TO.C,KiKit_MB_33_5*%
X281100000Y-48200000D03*
%TD*%
%TO.C,KiKit_MB_27_1*%
X178600000Y-48200000D03*
%TD*%
D11*
%TO.C,J3*%
X13100000Y-2000000D03*
%TD*%
%TO.C,J3*%
X111600000Y-2000000D03*
%TD*%
%TO.C,J3*%
X210100000Y-2000000D03*
%TD*%
%TO.C,J3*%
X13100000Y-50000000D03*
%TD*%
%TO.C,J3*%
X111600000Y-50000000D03*
%TD*%
%TO.C,J3*%
X210100000Y-50000000D03*
%TD*%
%TO.C,J3*%
X13100000Y-98000000D03*
%TD*%
%TO.C,J3*%
X111600000Y-98000000D03*
%TD*%
%TO.C,J3*%
X210100000Y-98000000D03*
%TD*%
D10*
%TO.C,KiKit_MB_34_4*%
X197200000Y-82000000D03*
%TD*%
D11*
%TO.C,J2*%
X30500000Y-3000000D03*
%TD*%
%TO.C,J2*%
X129000000Y-3000000D03*
%TD*%
%TO.C,J2*%
X227500000Y-3000000D03*
%TD*%
%TO.C,J2*%
X30500000Y-51000000D03*
%TD*%
%TO.C,J2*%
X129000000Y-51000000D03*
%TD*%
%TO.C,J2*%
X227500000Y-51000000D03*
%TD*%
%TO.C,J2*%
X30500000Y-99000000D03*
%TD*%
%TO.C,J2*%
X129000000Y-99000000D03*
%TD*%
%TO.C,J2*%
X227500000Y-99000000D03*
%TD*%
D10*
%TO.C,KiKit_MB_24_4*%
X179600000Y-93800000D03*
%TD*%
%TO.C,KiKit_MB_8_4*%
X179600000Y-45800000D03*
%TD*%
%TO.C,KiKit_MB_20_1*%
X80100000Y-48200000D03*
%TD*%
%TO.C,KiKit_MB_28_3*%
X98700000Y-83000000D03*
%TD*%
%TO.C,KiKit_MB_43_4*%
X181600000Y-96200000D03*
%TD*%
%TO.C,KiKit_MB_27_2*%
X179600000Y-48200000D03*
%TD*%
%TO.C,KiKit_MB_7_3*%
X111600000Y-45800000D03*
%TD*%
%TO.C,KiKit_MB_15_1*%
X96300000Y-56200000D03*
%TD*%
%TO.C,KiKit_MB_47_4*%
X280100000Y-96200000D03*
%TD*%
%TO.C,KiKit_MB_19_5*%
X15100000Y-48200000D03*
%TD*%
%TO.C,KiKit_MB_45_5*%
X197200000Y-104600000D03*
%TD*%
%TO.C,KiKit_MB_14_4*%
X197200000Y-34000000D03*
%TD*%
%TO.C,KiKit_MB_47_2*%
X278100000Y-96200000D03*
%TD*%
%TO.C,KiKit_MB_10_2*%
X98700000Y-36000000D03*
%TD*%
%TO.C,KiKit_MB_47_5*%
X281100000Y-96200000D03*
%TD*%
%TO.C,KiKit_MB_25_1*%
X98700000Y-60600000D03*
%TD*%
%TO.C,KiKit_MB_41_1*%
X98700000Y-108600000D03*
%TD*%
%TO.C,KiKit_MB_13_2*%
X197200000Y-11600000D03*
%TD*%
%TO.C,KiKit_MB_6_1*%
X194800000Y-33000000D03*
%TD*%
%TO.C,KiKit_MB_35_3*%
X96300000Y-106200000D03*
%TD*%
%TO.C,KiKit_MB_30_2*%
X280100000Y-93800000D03*
%TD*%
%TO.C,KiKit_MB_5_2*%
X194800000Y-9200000D03*
%TD*%
%TO.C,KiKit_MB_17_4*%
X12100000Y-93800000D03*
%TD*%
D11*
%TO.C,J8*%
X13000000Y-44000000D03*
%TD*%
%TO.C,J8*%
X111500000Y-44000000D03*
%TD*%
%TO.C,J8*%
X210000000Y-44000000D03*
%TD*%
%TO.C,J8*%
X13000000Y-92000000D03*
%TD*%
%TO.C,J8*%
X111500000Y-92000000D03*
%TD*%
%TO.C,J8*%
X210000000Y-92000000D03*
%TD*%
%TO.C,J8*%
X13000000Y-140000000D03*
%TD*%
%TO.C,J8*%
X111500000Y-140000000D03*
%TD*%
%TO.C,J8*%
X210000000Y-140000000D03*
%TD*%
D10*
%TO.C,KiKit_MB_48_3*%
X197200000Y-131000000D03*
%TD*%
%TO.C,KiKit_MB_13_5*%
X197200000Y-8600000D03*
%TD*%
%TO.C,KiKit_MB_41_3*%
X98700000Y-106600000D03*
%TD*%
%TO.C,KiKit_MB_46_4*%
X211100000Y-96200000D03*
%TD*%
%TO.C,KiKit_MB_11_3*%
X210100000Y-45800000D03*
%TD*%
%TO.C,KiKit_MB_45_2*%
X197200000Y-107600000D03*
%TD*%
%TO.C,KiKit_MB_28_5*%
X98700000Y-81000000D03*
%TD*%
%TO.C,KiKit_MB_31_5*%
X197200000Y-56600000D03*
%TD*%
%TO.C,KiKit_MB_26_1*%
X109600000Y-48200000D03*
%TD*%
%TO.C,KiKit_MB_40_5*%
X194800000Y-133000000D03*
%TD*%
%TO.C,KiKit_MB_43_3*%
X180600000Y-96200000D03*
%TD*%
%TO.C,KiKit_MB_22_1*%
X194800000Y-81000000D03*
%TD*%
%TO.C,KiKit_MB_37_5*%
X15100000Y-96200000D03*
%TD*%
%TO.C,KiKit_MB_18_5*%
X80100000Y-93800000D03*
%TD*%
D12*
%TO.C,BT1*%
X7531400Y-23618800D03*
D13*
X27531400Y-23618800D03*
%TD*%
D12*
%TO.C,BT1*%
X106031400Y-23618800D03*
D13*
X126031400Y-23618800D03*
%TD*%
D12*
%TO.C,BT1*%
X204531400Y-23618800D03*
D13*
X224531400Y-23618800D03*
%TD*%
D12*
%TO.C,BT1*%
X7531400Y-71618800D03*
D13*
X27531400Y-71618800D03*
%TD*%
D12*
%TO.C,BT1*%
X106031400Y-71618800D03*
D13*
X126031400Y-71618800D03*
%TD*%
D12*
%TO.C,BT1*%
X204531400Y-71618800D03*
D13*
X224531400Y-71618800D03*
%TD*%
D12*
%TO.C,BT1*%
X7531400Y-119618800D03*
D13*
X27531400Y-119618800D03*
%TD*%
D12*
%TO.C,BT1*%
X106031400Y-119618800D03*
D13*
X126031400Y-119618800D03*
%TD*%
D12*
%TO.C,BT1*%
X204531400Y-119618800D03*
D13*
X224531400Y-119618800D03*
%TD*%
D10*
%TO.C,KiKit_MB_11_4*%
X209100000Y-45800000D03*
%TD*%
%TO.C,KiKit_MB_10_3*%
X98700000Y-35000000D03*
%TD*%
%TO.C,KiKit_MB_39_3*%
X194800000Y-106200000D03*
%TD*%
%TO.C,KiKit_MB_37_1*%
X11100000Y-96200000D03*
%TD*%
%TO.C,KiKit_MB_19_1*%
X11100000Y-48200000D03*
%TD*%
%TO.C,KiKit_MB_18_1*%
X84100000Y-93800000D03*
%TD*%
%TO.C,KiKit_MB_46_5*%
X212100000Y-96200000D03*
%TD*%
%TO.C,KiKit_MB_3_4*%
X12100000Y-45800000D03*
%TD*%
%TO.C,KiKit_MB_13_4*%
X197200000Y-9600000D03*
%TD*%
%TO.C,KiKit_MB_28_4*%
X98700000Y-82000000D03*
%TD*%
%TO.C,KiKit_MB_20_5*%
X84100000Y-48200000D03*
%TD*%
%TO.C,KiKit_MB_14_2*%
X197200000Y-36000000D03*
%TD*%
%TO.C,KiKit_MB_22_5*%
X194800000Y-85000000D03*
%TD*%
%TO.C,KiKit_MB_40_4*%
X194800000Y-132000000D03*
%TD*%
%TO.C,KiKit_MB_37_2*%
X12100000Y-96200000D03*
%TD*%
%TO.C,KiKit_MB_44_2*%
X98700000Y-132000000D03*
%TD*%
%TO.C,KiKit_MB_40_2*%
X194800000Y-130000000D03*
%TD*%
%TO.C,KiKit_MB_17_1*%
X15100000Y-93800000D03*
%TD*%
%TO.C,KiKit_MB_21_2*%
X194800000Y-57200000D03*
%TD*%
%TO.C,KiKit_MB_36_3*%
X96300000Y-131000000D03*
%TD*%
%TO.C,KiKit_MB_29_3*%
X210100000Y-93800000D03*
%TD*%
%TO.C,KiKit_MB_35_4*%
X96300000Y-107200000D03*
%TD*%
%TO.C,KiKit_MB_38_2*%
X81100000Y-96200000D03*
%TD*%
%TO.C,KiKit_MB_44_5*%
X98700000Y-129000000D03*
%TD*%
%TO.C,KiKit_MB_4_4*%
X81100000Y-45800000D03*
%TD*%
%TO.C,KiKit_MB_17_3*%
X13100000Y-93800000D03*
%TD*%
%TO.C,KiKit_MB_15_2*%
X96300000Y-57200000D03*
%TD*%
%TO.C,KiKit_MB_38_5*%
X84100000Y-96200000D03*
%TD*%
%TO.C,KiKit_MB_46_2*%
X209100000Y-96200000D03*
%TD*%
%TO.C,KiKit_MB_15_3*%
X96300000Y-58200000D03*
%TD*%
%TO.C,KiKit_MB_4_3*%
X82100000Y-45800000D03*
%TD*%
%TO.C,KiKit_MB_48_1*%
X197200000Y-133000000D03*
%TD*%
%TO.C,KiKit_MB_18_3*%
X82100000Y-93800000D03*
%TD*%
%TO.C,KiKit_MB_8_2*%
X181600000Y-45800000D03*
%TD*%
%TO.C,KiKit_MB_20_2*%
X81100000Y-48200000D03*
%TD*%
%TO.C,KiKit_MB_19_3*%
X13100000Y-48200000D03*
%TD*%
%TO.C,KiKit_MB_12_5*%
X277100000Y-45800000D03*
%TD*%
%TO.C,KiKit_MB_40_1*%
X194800000Y-129000000D03*
%TD*%
%TO.C,KiKit_MB_5_5*%
X194800000Y-12200000D03*
%TD*%
%TO.C,KiKit_MB_26_3*%
X111600000Y-48200000D03*
%TD*%
%TO.C,KiKit_MB_47_1*%
X277100000Y-96200000D03*
%TD*%
%TO.C,KiKit_MB_45_4*%
X197200000Y-105600000D03*
%TD*%
%TO.C,KiKit_MB_38_4*%
X83100000Y-96200000D03*
%TD*%
%TO.C,KiKit_MB_18_2*%
X83100000Y-93800000D03*
%TD*%
%TO.C,KiKit_MB_47_3*%
X279100000Y-96200000D03*
%TD*%
%TO.C,KiKit_MB_7_2*%
X112600000Y-45800000D03*
%TD*%
%TO.C,KiKit_MB_32_5*%
X212100000Y-48200000D03*
%TD*%
%TO.C,KiKit_MB_9_4*%
X98700000Y-9600000D03*
%TD*%
%TO.C,KiKit_MB_12_2*%
X280100000Y-45800000D03*
%TD*%
%TO.C,KiKit_MB_39_4*%
X194800000Y-107200000D03*
%TD*%
%TO.C,KiKit_MB_48_4*%
X197200000Y-130000000D03*
%TD*%
%TO.C,KiKit_MB_42_3*%
X111600000Y-96200000D03*
%TD*%
D11*
%TO.C,J6*%
X82000000Y-2000000D03*
%TD*%
%TO.C,J6*%
X180500000Y-2000000D03*
%TD*%
%TO.C,J6*%
X279000000Y-2000000D03*
%TD*%
%TO.C,J6*%
X82000000Y-50000000D03*
%TD*%
%TO.C,J6*%
X180500000Y-50000000D03*
%TD*%
%TO.C,J6*%
X279000000Y-50000000D03*
%TD*%
%TO.C,J6*%
X82000000Y-98000000D03*
%TD*%
%TO.C,J6*%
X180500000Y-98000000D03*
%TD*%
%TO.C,J6*%
X279000000Y-98000000D03*
%TD*%
D10*
%TO.C,KiKit_MB_36_1*%
X96300000Y-129000000D03*
%TD*%
%TO.C,KiKit_MB_39_5*%
X194800000Y-108200000D03*
%TD*%
%TO.C,KiKit_MB_5_3*%
X194800000Y-10200000D03*
%TD*%
%TO.C,KiKit_MB_16_4*%
X96300000Y-84000000D03*
%TD*%
%TO.C,KiKit_MB_34_3*%
X197200000Y-83000000D03*
%TD*%
%TO.C,KiKit_MB_16_3*%
X96300000Y-83000000D03*
%TD*%
%TO.C,KiKit_MB_27_3*%
X180600000Y-48200000D03*
%TD*%
%TO.C,KiKit_MB_2_1*%
X96300000Y-33000000D03*
%TD*%
%TO.C,KiKit_MB_23_1*%
X113600000Y-93800000D03*
%TD*%
%TO.C,KiKit_MB_48_5*%
X197200000Y-129000000D03*
%TD*%
%TO.C,KiKit_MB_32_4*%
X211100000Y-48200000D03*
%TD*%
%TO.C,KiKit_MB_34_2*%
X197200000Y-84000000D03*
%TD*%
%TO.C,KiKit_MB_15_5*%
X96300000Y-60200000D03*
%TD*%
%TO.C,KiKit_MB_45_3*%
X197200000Y-106600000D03*
%TD*%
%TO.C,KiKit_MB_43_2*%
X179600000Y-96200000D03*
%TD*%
%TO.C,KiKit_MB_5_1*%
X194800000Y-8200000D03*
%TD*%
%TO.C,KiKit_MB_9_1*%
X98700000Y-12600000D03*
%TD*%
%TO.C,KiKit_MB_10_4*%
X98700000Y-34000000D03*
%TD*%
%TO.C,KiKit_MB_29_1*%
X212100000Y-93800000D03*
%TD*%
%TO.C,KiKit_MB_31_4*%
X197200000Y-57600000D03*
%TD*%
%TO.C,KiKit_MB_25_5*%
X98700000Y-56600000D03*
%TD*%
%TO.C,KiKit_MB_2_4*%
X96300000Y-36000000D03*
%TD*%
%TO.C,KiKit_MB_41_5*%
X98700000Y-104600000D03*
%TD*%
%TO.C,KiKit_MB_18_4*%
X81100000Y-93800000D03*
%TD*%
%TO.C,KiKit_MB_23_2*%
X112600000Y-93800000D03*
%TD*%
%TO.C,KiKit_MB_6_2*%
X194800000Y-34000000D03*
%TD*%
%TO.C,KiKit_MB_30_4*%
X278100000Y-93800000D03*
%TD*%
%TO.C,KiKit_MB_1_2*%
X96300000Y-9200000D03*
%TD*%
%TO.C,KiKit_MB_4_1*%
X84100000Y-45800000D03*
%TD*%
%TO.C,KiKit_MB_26_2*%
X110600000Y-48200000D03*
%TD*%
%TO.C,KiKit_MB_33_3*%
X279100000Y-48200000D03*
%TD*%
%TO.C,KiKit_MB_10_5*%
X98700000Y-33000000D03*
%TD*%
%TO.C,KiKit_MB_9_2*%
X98700000Y-11600000D03*
%TD*%
%TO.C,KiKit_MB_31_1*%
X197200000Y-60600000D03*
%TD*%
%TO.C,KiKit_MB_6_4*%
X194800000Y-36000000D03*
%TD*%
%TO.C,KiKit_MB_7_4*%
X110600000Y-45800000D03*
%TD*%
%TO.C,KiKit_MB_26_4*%
X112600000Y-48200000D03*
%TD*%
%TO.C,KiKit_MB_35_1*%
X96300000Y-104200000D03*
%TD*%
%TO.C,KiKit_MB_41_2*%
X98700000Y-107600000D03*
%TD*%
%TO.C,KiKit_MB_39_2*%
X194800000Y-105200000D03*
%TD*%
%TO.C,KiKit_MB_44_4*%
X98700000Y-130000000D03*
%TD*%
%TO.C,KiKit_MB_42_2*%
X110600000Y-96200000D03*
%TD*%
%TO.C,KiKit_MB_28_1*%
X98700000Y-85000000D03*
%TD*%
%TO.C,KiKit_MB_20_3*%
X82100000Y-48200000D03*
%TD*%
%TO.C,KiKit_MB_4_5*%
X80100000Y-45800000D03*
%TD*%
%TO.C,KiKit_MB_30_3*%
X279100000Y-93800000D03*
%TD*%
%TO.C,KiKit_MB_6_5*%
X194800000Y-37000000D03*
%TD*%
%TO.C,KiKit_MB_33_2*%
X278100000Y-48200000D03*
%TD*%
%TO.C,KiKit_MB_2_5*%
X96300000Y-37000000D03*
%TD*%
%TO.C,KiKit_MB_23_5*%
X109600000Y-93800000D03*
%TD*%
%TO.C,KiKit_MB_24_3*%
X180600000Y-93800000D03*
%TD*%
%TO.C,KiKit_MB_48_2*%
X197200000Y-132000000D03*
%TD*%
D11*
%TO.C,J5*%
X60500000Y-3000000D03*
%TD*%
%TO.C,J5*%
X159000000Y-3000000D03*
%TD*%
%TO.C,J5*%
X257500000Y-3000000D03*
%TD*%
%TO.C,J5*%
X60500000Y-51000000D03*
%TD*%
%TO.C,J5*%
X159000000Y-51000000D03*
%TD*%
%TO.C,J5*%
X257500000Y-51000000D03*
%TD*%
%TO.C,J5*%
X60500000Y-99000000D03*
%TD*%
%TO.C,J5*%
X159000000Y-99000000D03*
%TD*%
%TO.C,J5*%
X257500000Y-99000000D03*
%TD*%
D10*
%TO.C,KiKit_MB_11_5*%
X208100000Y-45800000D03*
%TD*%
%TO.C,KiKit_MB_31_3*%
X197200000Y-58600000D03*
%TD*%
%TO.C,KiKit_MB_19_4*%
X14100000Y-48200000D03*
%TD*%
D11*
%TO.C,J4*%
X82000000Y-44000000D03*
%TD*%
%TO.C,J4*%
X180500000Y-44000000D03*
%TD*%
%TO.C,J4*%
X279000000Y-44000000D03*
%TD*%
%TO.C,J4*%
X82000000Y-92000000D03*
%TD*%
%TO.C,J4*%
X180500000Y-92000000D03*
%TD*%
%TO.C,J4*%
X279000000Y-92000000D03*
%TD*%
%TO.C,J4*%
X82000000Y-140000000D03*
%TD*%
%TO.C,J4*%
X180500000Y-140000000D03*
%TD*%
%TO.C,J4*%
X279000000Y-140000000D03*
%TD*%
D10*
%TO.C,KiKit_MB_12_1*%
X281100000Y-45800000D03*
%TD*%
%TO.C,KiKit_MB_29_2*%
X211100000Y-93800000D03*
%TD*%
%TO.C,KiKit_MB_44_1*%
X98700000Y-133000000D03*
%TD*%
%TO.C,KiKit_MB_6_3*%
X194800000Y-35000000D03*
%TD*%
%TO.C,KiKit_MB_22_4*%
X194800000Y-84000000D03*
%TD*%
%TO.C,KiKit_MB_17_5*%
X11100000Y-93800000D03*
%TD*%
%TO.C,KiKit_MB_30_1*%
X281100000Y-93800000D03*
%TD*%
%TO.C,KiKit_MB_14_1*%
X197200000Y-37000000D03*
%TD*%
%TO.C,KiKit_MB_17_2*%
X14100000Y-93800000D03*
%TD*%
%TO.C,KiKit_MB_21_4*%
X194800000Y-59200000D03*
%TD*%
%TO.C,KiKit_MB_9_5*%
X98700000Y-8600000D03*
%TD*%
%TO.C,KiKit_MB_11_1*%
X212100000Y-45800000D03*
%TD*%
%TO.C,KiKit_MB_3_3*%
X13100000Y-45800000D03*
%TD*%
%TO.C,KiKit_MB_23_4*%
X110600000Y-93800000D03*
%TD*%
%TO.C,KiKit_MB_26_5*%
X113600000Y-48200000D03*
%TD*%
%TO.C,KiKit_MB_33_1*%
X277100000Y-48200000D03*
%TD*%
%TO.C,KiKit_MB_40_3*%
X194800000Y-131000000D03*
%TD*%
%TO.C,KiKit_MB_12_3*%
X279100000Y-45800000D03*
%TD*%
%TO.C,KiKit_MB_1_3*%
X96300000Y-10200000D03*
%TD*%
D14*
%TO.C,J1*%
X76230000Y-38200000D03*
D15*
X77500000Y-38200000D03*
X78770000Y-38200000D03*
X80040000Y-38200000D03*
%TD*%
D14*
%TO.C,J1*%
X174730000Y-38200000D03*
D15*
X176000000Y-38200000D03*
X177270000Y-38200000D03*
X178540000Y-38200000D03*
%TD*%
D14*
%TO.C,J1*%
X273230000Y-38200000D03*
D15*
X274500000Y-38200000D03*
X275770000Y-38200000D03*
X277040000Y-38200000D03*
%TD*%
D14*
%TO.C,J1*%
X76230000Y-86200000D03*
D15*
X77500000Y-86200000D03*
X78770000Y-86200000D03*
X80040000Y-86200000D03*
%TD*%
D14*
%TO.C,J1*%
X174730000Y-86200000D03*
D15*
X176000000Y-86200000D03*
X177270000Y-86200000D03*
X178540000Y-86200000D03*
%TD*%
D14*
%TO.C,J1*%
X273230000Y-86200000D03*
D15*
X274500000Y-86200000D03*
X275770000Y-86200000D03*
X277040000Y-86200000D03*
%TD*%
D14*
%TO.C,J1*%
X76230000Y-134200000D03*
D15*
X77500000Y-134200000D03*
X78770000Y-134200000D03*
X80040000Y-134200000D03*
%TD*%
D14*
%TO.C,J1*%
X174730000Y-134200000D03*
D15*
X176000000Y-134200000D03*
X177270000Y-134200000D03*
X178540000Y-134200000D03*
%TD*%
D14*
%TO.C,J1*%
X273230000Y-134200000D03*
D15*
X274500000Y-134200000D03*
X275770000Y-134200000D03*
X277040000Y-134200000D03*
%TD*%
D10*
%TO.C,KiKit_MB_24_2*%
X181600000Y-93800000D03*
%TD*%
%TO.C,KiKit_MB_14_5*%
X197200000Y-33000000D03*
%TD*%
%TO.C,KiKit_MB_13_1*%
X197200000Y-12600000D03*
%TD*%
%TO.C,KiKit_MB_38_1*%
X80100000Y-96200000D03*
%TD*%
%TO.C,KiKit_MB_28_2*%
X98700000Y-84000000D03*
%TD*%
%TO.C,KiKit_MB_46_1*%
X208100000Y-96200000D03*
%TD*%
%TO.C,KiKit_MB_16_5*%
X96300000Y-85000000D03*
%TD*%
%TO.C,KiKit_MB_43_5*%
X182600000Y-96200000D03*
%TD*%
%TO.C,KiKit_MB_11_2*%
X211100000Y-45800000D03*
%TD*%
%TO.C,KiKit_MB_41_4*%
X98700000Y-105600000D03*
%TD*%
%TO.C,KiKit_MB_32_2*%
X209100000Y-48200000D03*
%TD*%
%TO.C,KiKit_MB_34_1*%
X197200000Y-85000000D03*
%TD*%
%TO.C,KiKit_MB_42_5*%
X113600000Y-96200000D03*
%TD*%
%TO.C,KiKit_MB_19_2*%
X12100000Y-48200000D03*
%TD*%
%TO.C,KiKit_MB_35_2*%
X96300000Y-105200000D03*
%TD*%
%TO.C,KiKit_MB_15_4*%
X96300000Y-59200000D03*
%TD*%
%TO.C,KiKit_MB_22_2*%
X194800000Y-82000000D03*
%TD*%
%TO.C,KiKit_MB_30_5*%
X277100000Y-93800000D03*
%TD*%
%TO.C,KiKit_MB_14_3*%
X197200000Y-35000000D03*
%TD*%
%TO.C,KiKit_MB_12_4*%
X278100000Y-45800000D03*
%TD*%
%TO.C,KiKit_MB_21_5*%
X194800000Y-60200000D03*
%TD*%
%TO.C,KiKit_MB_4_2*%
X83100000Y-45800000D03*
%TD*%
%TO.C,KiKit_MB_16_1*%
X96300000Y-81000000D03*
%TD*%
%TO.C,KiKit_MB_36_4*%
X96300000Y-132000000D03*
%TD*%
%TO.C,KiKit_MB_3_2*%
X14100000Y-45800000D03*
%TD*%
%TO.C,KiKit_MB_38_3*%
X82100000Y-96200000D03*
%TD*%
%TO.C,KiKit_MB_25_2*%
X98700000Y-59600000D03*
%TD*%
%TO.C,KiKit_MB_3_5*%
X11100000Y-45800000D03*
%TD*%
%TO.C,KiKit_MB_43_1*%
X178600000Y-96200000D03*
%TD*%
%TO.C,KiKit_MB_25_4*%
X98700000Y-57600000D03*
%TD*%
%TO.C,KiKit_MB_13_3*%
X197200000Y-10600000D03*
%TD*%
%TO.C,KiKit_MB_33_4*%
X280100000Y-48200000D03*
%TD*%
%TO.C,KiKit_MB_42_1*%
X109600000Y-96200000D03*
%TD*%
%TO.C,KiKit_MB_10_1*%
X98700000Y-37000000D03*
%TD*%
%TO.C,KiKit_MB_24_1*%
X182600000Y-93800000D03*
%TD*%
%TO.C,KiKit_MB_35_5*%
X96300000Y-108200000D03*
%TD*%
%TO.C,KiKit_MB_21_1*%
X194800000Y-56200000D03*
%TD*%
%TO.C,KiKit_MB_29_4*%
X209100000Y-93800000D03*
%TD*%
%TO.C,KiKit_MB_1_1*%
X96300000Y-8200000D03*
%TD*%
%TO.C,KiKit_MB_2_2*%
X96300000Y-34000000D03*
%TD*%
%TO.C,KiKit_MB_36_5*%
X96300000Y-133000000D03*
%TD*%
%TO.C,KiKit_MB_36_2*%
X96300000Y-130000000D03*
%TD*%
%TO.C,KiKit_MB_1_4*%
X96300000Y-11200000D03*
%TD*%
%TO.C,KiKit_MB_27_4*%
X181600000Y-48200000D03*
%TD*%
%TO.C,KiKit_MB_24_5*%
X178600000Y-93800000D03*
%TD*%
%TO.C,KiKit_MB_21_3*%
X194800000Y-58200000D03*
%TD*%
M02*
