%TF.GenerationSoftware,KiCad,Pcbnew,7.0.1-3b83917a11~171~ubuntu20.04.1*%
%TF.CreationDate,2023-10-27T13:40:08+02:00*%
%TF.ProjectId,panel_bottom,70616e65-6c5f-4626-9f74-746f6d2e6b69,rev?*%
%TF.SameCoordinates,PX1ab3f0PY1312d00*%
%TF.FileFunction,Paste,Top*%
%TF.FilePolarity,Positive*%
%FSLAX46Y46*%
G04 Gerber Fmt 4.6, Leading zero omitted, Abs format (unit mm)*
G04 Created by KiCad (PCBNEW 7.0.1-3b83917a11~171~ubuntu20.04.1) date 2023-10-27 13:40:08*
%MOMM*%
%LPD*%
G01*
G04 APERTURE LIST*
G04 Aperture macros list*
%AMRoundRect*
0 Rectangle with rounded corners*
0 $1 Rounding radius*
0 $2 $3 $4 $5 $6 $7 $8 $9 X,Y pos of 4 corners*
0 Add a 4 corners polygon primitive as box body*
4,1,4,$2,$3,$4,$5,$6,$7,$8,$9,$2,$3,0*
0 Add four circle primitives for the rounded corners*
1,1,$1+$1,$2,$3*
1,1,$1+$1,$4,$5*
1,1,$1+$1,$6,$7*
1,1,$1+$1,$8,$9*
0 Add four rect primitives between the rounded corners*
20,1,$1+$1,$2,$3,$4,$5,0*
20,1,$1+$1,$4,$5,$6,$7,0*
20,1,$1+$1,$6,$7,$8,$9,0*
20,1,$1+$1,$8,$9,$2,$3,0*%
G04 Aperture macros list end*
%ADD10RoundRect,0.243750X0.456250X-0.243750X0.456250X0.243750X-0.456250X0.243750X-0.456250X-0.243750X0*%
%ADD11RoundRect,0.250000X0.850000X-0.375000X0.850000X0.375000X-0.850000X0.375000X-0.850000X-0.375000X0*%
%ADD12RoundRect,0.243750X-0.243750X-0.456250X0.243750X-0.456250X0.243750X0.456250X-0.243750X0.456250X0*%
%ADD13RoundRect,0.150000X0.150000X-0.587500X0.150000X0.587500X-0.150000X0.587500X-0.150000X-0.587500X0*%
%ADD14RoundRect,0.243750X0.243750X0.456250X-0.243750X0.456250X-0.243750X-0.456250X0.243750X-0.456250X0*%
%ADD15RoundRect,0.243750X-0.456250X0.243750X-0.456250X-0.243750X0.456250X-0.243750X0.456250X0.243750X0*%
%ADD16RoundRect,0.200000X0.275000X-0.200000X0.275000X0.200000X-0.275000X0.200000X-0.275000X-0.200000X0*%
%ADD17RoundRect,0.200000X0.200000X0.275000X-0.200000X0.275000X-0.200000X-0.275000X0.200000X-0.275000X0*%
%ADD18RoundRect,0.250000X-0.475000X0.250000X-0.475000X-0.250000X0.475000X-0.250000X0.475000X0.250000X0*%
%ADD19R,1.000000X0.750000*%
%ADD20RoundRect,0.200000X-0.275000X0.200000X-0.275000X-0.200000X0.275000X-0.200000X0.275000X0.200000X0*%
%ADD21RoundRect,0.250000X0.375000X0.850000X-0.375000X0.850000X-0.375000X-0.850000X0.375000X-0.850000X0*%
%ADD22RoundRect,0.137500X-0.662500X-0.137500X0.662500X-0.137500X0.662500X0.137500X-0.662500X0.137500X0*%
%ADD23RoundRect,0.150000X0.587500X0.150000X-0.587500X0.150000X-0.587500X-0.150000X0.587500X-0.150000X0*%
%ADD24RoundRect,0.200000X-0.200000X-0.275000X0.200000X-0.275000X0.200000X0.275000X-0.200000X0.275000X0*%
G04 APERTURE END LIST*
D10*
%TO.C,D21*%
X60592000Y-20695500D03*
X60592000Y-18820500D03*
%TD*%
%TO.C,D21*%
X159092000Y-20695500D03*
X159092000Y-18820500D03*
%TD*%
%TO.C,D21*%
X257592000Y-20695500D03*
X257592000Y-18820500D03*
%TD*%
%TO.C,D21*%
X60592000Y-68695500D03*
X60592000Y-66820500D03*
%TD*%
%TO.C,D21*%
X159092000Y-68695500D03*
X159092000Y-66820500D03*
%TD*%
%TO.C,D21*%
X257592000Y-68695500D03*
X257592000Y-66820500D03*
%TD*%
%TO.C,D21*%
X60592000Y-116695500D03*
X60592000Y-114820500D03*
%TD*%
%TO.C,D21*%
X159092000Y-116695500D03*
X159092000Y-114820500D03*
%TD*%
%TO.C,D21*%
X257592000Y-116695500D03*
X257592000Y-114820500D03*
%TD*%
D11*
%TO.C,L2*%
X283154000Y-84811000D03*
X283154000Y-82661000D03*
%TD*%
%TO.C,L2*%
X86154000Y-132811000D03*
X86154000Y-130661000D03*
%TD*%
%TO.C,L2*%
X184654000Y-132811000D03*
X184654000Y-130661000D03*
%TD*%
%TO.C,L2*%
X283154000Y-132811000D03*
X283154000Y-130661000D03*
%TD*%
%TO.C,L2*%
X86154000Y-36811000D03*
X86154000Y-34661000D03*
%TD*%
%TO.C,L2*%
X184654000Y-36811000D03*
X184654000Y-34661000D03*
%TD*%
%TO.C,L2*%
X283154000Y-36811000D03*
X283154000Y-34661000D03*
%TD*%
%TO.C,L2*%
X86154000Y-84811000D03*
X86154000Y-82661000D03*
%TD*%
%TO.C,L2*%
X184654000Y-84811000D03*
X184654000Y-82661000D03*
%TD*%
D12*
%TO.C,D22*%
X91834000Y-34998000D03*
X93709000Y-34998000D03*
%TD*%
%TO.C,D22*%
X190334000Y-34998000D03*
X192209000Y-34998000D03*
%TD*%
%TO.C,D22*%
X288834000Y-34998000D03*
X290709000Y-34998000D03*
%TD*%
%TO.C,D22*%
X91834000Y-82998000D03*
X93709000Y-82998000D03*
%TD*%
%TO.C,D22*%
X190334000Y-82998000D03*
X192209000Y-82998000D03*
%TD*%
%TO.C,D22*%
X288834000Y-82998000D03*
X290709000Y-82998000D03*
%TD*%
%TO.C,D22*%
X91834000Y-130998000D03*
X93709000Y-130998000D03*
%TD*%
%TO.C,D22*%
X190334000Y-130998000D03*
X192209000Y-130998000D03*
%TD*%
%TO.C,D22*%
X288834000Y-130998000D03*
X290709000Y-130998000D03*
%TD*%
D11*
%TO.C,L5*%
X42100000Y-32350000D03*
X42100000Y-30200000D03*
%TD*%
%TO.C,L5*%
X140600000Y-32350000D03*
X140600000Y-30200000D03*
%TD*%
%TO.C,L5*%
X239100000Y-32350000D03*
X239100000Y-30200000D03*
%TD*%
%TO.C,L5*%
X42100000Y-80350000D03*
X42100000Y-78200000D03*
%TD*%
%TO.C,L5*%
X140600000Y-80350000D03*
X140600000Y-78200000D03*
%TD*%
%TO.C,L5*%
X239100000Y-80350000D03*
X239100000Y-78200000D03*
%TD*%
%TO.C,L5*%
X42100000Y-128350000D03*
X42100000Y-126200000D03*
%TD*%
%TO.C,L5*%
X140600000Y-128350000D03*
X140600000Y-126200000D03*
%TD*%
%TO.C,L5*%
X239100000Y-128350000D03*
X239100000Y-126200000D03*
%TD*%
D13*
%TO.C,Q2*%
X41100000Y-39275000D03*
X43000000Y-39275000D03*
X42050000Y-37400000D03*
%TD*%
%TO.C,Q2*%
X139600000Y-39275000D03*
X141500000Y-39275000D03*
X140550000Y-37400000D03*
%TD*%
%TO.C,Q2*%
X238100000Y-39275000D03*
X240000000Y-39275000D03*
X239050000Y-37400000D03*
%TD*%
%TO.C,Q2*%
X41100000Y-87275000D03*
X43000000Y-87275000D03*
X42050000Y-85400000D03*
%TD*%
%TO.C,Q2*%
X139600000Y-87275000D03*
X141500000Y-87275000D03*
X140550000Y-85400000D03*
%TD*%
%TO.C,Q2*%
X238100000Y-87275000D03*
X240000000Y-87275000D03*
X239050000Y-85400000D03*
%TD*%
%TO.C,Q2*%
X41100000Y-135275000D03*
X43000000Y-135275000D03*
X42050000Y-133400000D03*
%TD*%
%TO.C,Q2*%
X139600000Y-135275000D03*
X141500000Y-135275000D03*
X140550000Y-133400000D03*
%TD*%
%TO.C,Q2*%
X238100000Y-135275000D03*
X240000000Y-135275000D03*
X239050000Y-133400000D03*
%TD*%
D12*
%TO.C,D5*%
X16562500Y-30000000D03*
X18437500Y-30000000D03*
%TD*%
%TO.C,D5*%
X115062500Y-30000000D03*
X116937500Y-30000000D03*
%TD*%
%TO.C,D5*%
X213562500Y-30000000D03*
X215437500Y-30000000D03*
%TD*%
%TO.C,D5*%
X16562500Y-78000000D03*
X18437500Y-78000000D03*
%TD*%
%TO.C,D5*%
X115062500Y-78000000D03*
X116937500Y-78000000D03*
%TD*%
%TO.C,D5*%
X213562500Y-78000000D03*
X215437500Y-78000000D03*
%TD*%
%TO.C,D5*%
X16562500Y-126000000D03*
X18437500Y-126000000D03*
%TD*%
%TO.C,D5*%
X115062500Y-126000000D03*
X116937500Y-126000000D03*
%TD*%
%TO.C,D5*%
X213562500Y-126000000D03*
X215437500Y-126000000D03*
%TD*%
D14*
%TO.C,D13*%
X35437500Y-35000000D03*
X33562500Y-35000000D03*
%TD*%
%TO.C,D13*%
X133937500Y-35000000D03*
X132062500Y-35000000D03*
%TD*%
%TO.C,D13*%
X232437500Y-35000000D03*
X230562500Y-35000000D03*
%TD*%
%TO.C,D13*%
X35437500Y-83000000D03*
X33562500Y-83000000D03*
%TD*%
%TO.C,D13*%
X133937500Y-83000000D03*
X132062500Y-83000000D03*
%TD*%
%TO.C,D13*%
X232437500Y-83000000D03*
X230562500Y-83000000D03*
%TD*%
%TO.C,D13*%
X35437500Y-131000000D03*
X33562500Y-131000000D03*
%TD*%
%TO.C,D13*%
X133937500Y-131000000D03*
X132062500Y-131000000D03*
%TD*%
%TO.C,D13*%
X232437500Y-131000000D03*
X230562500Y-131000000D03*
%TD*%
D10*
%TO.C,D26*%
X78626000Y-21711500D03*
X78626000Y-19836500D03*
%TD*%
%TO.C,D26*%
X177126000Y-21711500D03*
X177126000Y-19836500D03*
%TD*%
%TO.C,D26*%
X275626000Y-21711500D03*
X275626000Y-19836500D03*
%TD*%
%TO.C,D26*%
X78626000Y-69711500D03*
X78626000Y-67836500D03*
%TD*%
%TO.C,D26*%
X177126000Y-69711500D03*
X177126000Y-67836500D03*
%TD*%
%TO.C,D26*%
X275626000Y-69711500D03*
X275626000Y-67836500D03*
%TD*%
%TO.C,D26*%
X78626000Y-117711500D03*
X78626000Y-115836500D03*
%TD*%
%TO.C,D26*%
X177126000Y-117711500D03*
X177126000Y-115836500D03*
%TD*%
%TO.C,D26*%
X275626000Y-117711500D03*
X275626000Y-115836500D03*
%TD*%
D12*
%TO.C,D1*%
X16562500Y-12000000D03*
X18437500Y-12000000D03*
%TD*%
%TO.C,D1*%
X115062500Y-12000000D03*
X116937500Y-12000000D03*
%TD*%
%TO.C,D1*%
X213562500Y-12000000D03*
X215437500Y-12000000D03*
%TD*%
%TO.C,D1*%
X16562500Y-60000000D03*
X18437500Y-60000000D03*
%TD*%
%TO.C,D1*%
X115062500Y-60000000D03*
X116937500Y-60000000D03*
%TD*%
%TO.C,D1*%
X213562500Y-60000000D03*
X215437500Y-60000000D03*
%TD*%
%TO.C,D1*%
X16562500Y-108000000D03*
X18437500Y-108000000D03*
%TD*%
%TO.C,D1*%
X115062500Y-108000000D03*
X116937500Y-108000000D03*
%TD*%
%TO.C,D1*%
X213562500Y-108000000D03*
X215437500Y-108000000D03*
%TD*%
D15*
%TO.C,D2*%
X10500000Y-16062500D03*
X10500000Y-17937500D03*
%TD*%
%TO.C,D2*%
X109000000Y-16062500D03*
X109000000Y-17937500D03*
%TD*%
%TO.C,D2*%
X207500000Y-16062500D03*
X207500000Y-17937500D03*
%TD*%
%TO.C,D2*%
X10500000Y-64062500D03*
X10500000Y-65937500D03*
%TD*%
%TO.C,D2*%
X109000000Y-64062500D03*
X109000000Y-65937500D03*
%TD*%
%TO.C,D2*%
X207500000Y-64062500D03*
X207500000Y-65937500D03*
%TD*%
%TO.C,D2*%
X10500000Y-112062500D03*
X10500000Y-113937500D03*
%TD*%
%TO.C,D2*%
X109000000Y-112062500D03*
X109000000Y-113937500D03*
%TD*%
%TO.C,D2*%
X207500000Y-112062500D03*
X207500000Y-113937500D03*
%TD*%
D16*
%TO.C,R8*%
X55300000Y-18450000D03*
X55300000Y-16800000D03*
%TD*%
%TO.C,R8*%
X153800000Y-18450000D03*
X153800000Y-16800000D03*
%TD*%
%TO.C,R8*%
X252300000Y-18450000D03*
X252300000Y-16800000D03*
%TD*%
%TO.C,R8*%
X55300000Y-66450000D03*
X55300000Y-64800000D03*
%TD*%
%TO.C,R8*%
X153800000Y-66450000D03*
X153800000Y-64800000D03*
%TD*%
%TO.C,R8*%
X252300000Y-66450000D03*
X252300000Y-64800000D03*
%TD*%
%TO.C,R8*%
X55300000Y-114450000D03*
X55300000Y-112800000D03*
%TD*%
%TO.C,R8*%
X153800000Y-114450000D03*
X153800000Y-112800000D03*
%TD*%
%TO.C,R8*%
X252300000Y-114450000D03*
X252300000Y-112800000D03*
%TD*%
D12*
%TO.C,D10*%
X37562500Y-30000000D03*
X39437500Y-30000000D03*
%TD*%
%TO.C,D10*%
X136062500Y-30000000D03*
X137937500Y-30000000D03*
%TD*%
%TO.C,D10*%
X234562500Y-30000000D03*
X236437500Y-30000000D03*
%TD*%
%TO.C,D10*%
X37562500Y-78000000D03*
X39437500Y-78000000D03*
%TD*%
%TO.C,D10*%
X136062500Y-78000000D03*
X137937500Y-78000000D03*
%TD*%
%TO.C,D10*%
X234562500Y-78000000D03*
X236437500Y-78000000D03*
%TD*%
%TO.C,D10*%
X37562500Y-126000000D03*
X39437500Y-126000000D03*
%TD*%
%TO.C,D10*%
X136062500Y-126000000D03*
X137937500Y-126000000D03*
%TD*%
%TO.C,D10*%
X234562500Y-126000000D03*
X236437500Y-126000000D03*
%TD*%
D17*
%TO.C,R12*%
X92700000Y-38600000D03*
X91050000Y-38600000D03*
%TD*%
%TO.C,R12*%
X191200000Y-38600000D03*
X189550000Y-38600000D03*
%TD*%
%TO.C,R12*%
X289700000Y-38600000D03*
X288050000Y-38600000D03*
%TD*%
%TO.C,R12*%
X92700000Y-86600000D03*
X91050000Y-86600000D03*
%TD*%
%TO.C,R12*%
X191200000Y-86600000D03*
X189550000Y-86600000D03*
%TD*%
%TO.C,R12*%
X289700000Y-86600000D03*
X288050000Y-86600000D03*
%TD*%
%TO.C,R12*%
X92700000Y-134600000D03*
X91050000Y-134600000D03*
%TD*%
%TO.C,R12*%
X191200000Y-134600000D03*
X189550000Y-134600000D03*
%TD*%
%TO.C,R12*%
X289700000Y-134600000D03*
X288050000Y-134600000D03*
%TD*%
D12*
%TO.C,D15*%
X59654500Y-9090000D03*
X61529500Y-9090000D03*
%TD*%
%TO.C,D15*%
X158154500Y-9090000D03*
X160029500Y-9090000D03*
%TD*%
%TO.C,D15*%
X256654500Y-9090000D03*
X258529500Y-9090000D03*
%TD*%
%TO.C,D15*%
X59654500Y-57090000D03*
X61529500Y-57090000D03*
%TD*%
%TO.C,D15*%
X158154500Y-57090000D03*
X160029500Y-57090000D03*
%TD*%
%TO.C,D15*%
X256654500Y-57090000D03*
X258529500Y-57090000D03*
%TD*%
%TO.C,D15*%
X59654500Y-105090000D03*
X61529500Y-105090000D03*
%TD*%
%TO.C,D15*%
X158154500Y-105090000D03*
X160029500Y-105090000D03*
%TD*%
%TO.C,D15*%
X256654500Y-105090000D03*
X258529500Y-105090000D03*
%TD*%
%TO.C,D14*%
X51562500Y-35000000D03*
X53437500Y-35000000D03*
%TD*%
%TO.C,D14*%
X150062500Y-35000000D03*
X151937500Y-35000000D03*
%TD*%
%TO.C,D14*%
X248562500Y-35000000D03*
X250437500Y-35000000D03*
%TD*%
%TO.C,D14*%
X51562500Y-83000000D03*
X53437500Y-83000000D03*
%TD*%
%TO.C,D14*%
X150062500Y-83000000D03*
X151937500Y-83000000D03*
%TD*%
%TO.C,D14*%
X248562500Y-83000000D03*
X250437500Y-83000000D03*
%TD*%
%TO.C,D14*%
X51562500Y-131000000D03*
X53437500Y-131000000D03*
%TD*%
%TO.C,D14*%
X150062500Y-131000000D03*
X151937500Y-131000000D03*
%TD*%
%TO.C,D14*%
X248562500Y-131000000D03*
X250437500Y-131000000D03*
%TD*%
D18*
%TO.C,C3*%
X207808000Y-119600000D03*
X207808000Y-121500000D03*
%TD*%
%TO.C,C3*%
X10808000Y-23600000D03*
X10808000Y-25500000D03*
%TD*%
%TO.C,C3*%
X109308000Y-23600000D03*
X109308000Y-25500000D03*
%TD*%
%TO.C,C3*%
X207808000Y-23600000D03*
X207808000Y-25500000D03*
%TD*%
%TO.C,C3*%
X10808000Y-71600000D03*
X10808000Y-73500000D03*
%TD*%
%TO.C,C3*%
X109308000Y-71600000D03*
X109308000Y-73500000D03*
%TD*%
%TO.C,C3*%
X207808000Y-71600000D03*
X207808000Y-73500000D03*
%TD*%
%TO.C,C3*%
X10808000Y-119600000D03*
X10808000Y-121500000D03*
%TD*%
%TO.C,C3*%
X109308000Y-119600000D03*
X109308000Y-121500000D03*
%TD*%
D12*
%TO.C,D11*%
X15666500Y-35002000D03*
X17437500Y-35000000D03*
%TD*%
%TO.C,D11*%
X114166500Y-35002000D03*
X115937500Y-35000000D03*
%TD*%
%TO.C,D11*%
X212666500Y-35002000D03*
X214437500Y-35000000D03*
%TD*%
%TO.C,D11*%
X15666500Y-83002000D03*
X17437500Y-83000000D03*
%TD*%
%TO.C,D11*%
X114166500Y-83002000D03*
X115937500Y-83000000D03*
%TD*%
%TO.C,D11*%
X212666500Y-83002000D03*
X214437500Y-83000000D03*
%TD*%
%TO.C,D11*%
X15666500Y-131002000D03*
X17437500Y-131000000D03*
%TD*%
%TO.C,D11*%
X114166500Y-131002000D03*
X115937500Y-131000000D03*
%TD*%
%TO.C,D11*%
X212666500Y-131002000D03*
X214437500Y-131000000D03*
%TD*%
D19*
%TO.C,SW1*%
X10450000Y-36825000D03*
X4450000Y-36825000D03*
X10450000Y-33075000D03*
X4450000Y-33075000D03*
%TD*%
%TO.C,SW1*%
X108950000Y-36825000D03*
X102950000Y-36825000D03*
X108950000Y-33075000D03*
X102950000Y-33075000D03*
%TD*%
%TO.C,SW1*%
X207450000Y-36825000D03*
X201450000Y-36825000D03*
X207450000Y-33075000D03*
X201450000Y-33075000D03*
%TD*%
%TO.C,SW1*%
X10450000Y-84825000D03*
X4450000Y-84825000D03*
X10450000Y-81075000D03*
X4450000Y-81075000D03*
%TD*%
%TO.C,SW1*%
X108950000Y-84825000D03*
X102950000Y-84825000D03*
X108950000Y-81075000D03*
X102950000Y-81075000D03*
%TD*%
%TO.C,SW1*%
X207450000Y-84825000D03*
X201450000Y-84825000D03*
X207450000Y-81075000D03*
X201450000Y-81075000D03*
%TD*%
%TO.C,SW1*%
X10450000Y-132825000D03*
X4450000Y-132825000D03*
X10450000Y-129075000D03*
X4450000Y-129075000D03*
%TD*%
%TO.C,SW1*%
X108950000Y-132825000D03*
X102950000Y-132825000D03*
X108950000Y-129075000D03*
X102950000Y-129075000D03*
%TD*%
%TO.C,SW1*%
X207450000Y-132825000D03*
X201450000Y-132825000D03*
X207450000Y-129075000D03*
X201450000Y-129075000D03*
%TD*%
D13*
%TO.C,Q3*%
X64214000Y-28315500D03*
X66114000Y-28315500D03*
X65164000Y-26440500D03*
%TD*%
%TO.C,Q3*%
X162714000Y-28315500D03*
X164614000Y-28315500D03*
X163664000Y-26440500D03*
%TD*%
%TO.C,Q3*%
X261214000Y-28315500D03*
X263114000Y-28315500D03*
X262164000Y-26440500D03*
%TD*%
%TO.C,Q3*%
X64214000Y-76315500D03*
X66114000Y-76315500D03*
X65164000Y-74440500D03*
%TD*%
%TO.C,Q3*%
X162714000Y-76315500D03*
X164614000Y-76315500D03*
X163664000Y-74440500D03*
%TD*%
%TO.C,Q3*%
X261214000Y-76315500D03*
X263114000Y-76315500D03*
X262164000Y-74440500D03*
%TD*%
%TO.C,Q3*%
X64214000Y-124315500D03*
X66114000Y-124315500D03*
X65164000Y-122440500D03*
%TD*%
%TO.C,Q3*%
X162714000Y-124315500D03*
X164614000Y-124315500D03*
X163664000Y-122440500D03*
%TD*%
%TO.C,Q3*%
X261214000Y-124315500D03*
X263114000Y-124315500D03*
X262164000Y-122440500D03*
%TD*%
D20*
%TO.C,R2*%
X31100000Y-35950000D03*
X31100000Y-37600000D03*
%TD*%
%TO.C,R2*%
X129600000Y-35950000D03*
X129600000Y-37600000D03*
%TD*%
%TO.C,R2*%
X228100000Y-35950000D03*
X228100000Y-37600000D03*
%TD*%
%TO.C,R2*%
X31100000Y-83950000D03*
X31100000Y-85600000D03*
%TD*%
%TO.C,R2*%
X129600000Y-83950000D03*
X129600000Y-85600000D03*
%TD*%
%TO.C,R2*%
X228100000Y-83950000D03*
X228100000Y-85600000D03*
%TD*%
%TO.C,R2*%
X31100000Y-131950000D03*
X31100000Y-133600000D03*
%TD*%
%TO.C,R2*%
X129600000Y-131950000D03*
X129600000Y-133600000D03*
%TD*%
%TO.C,R2*%
X228100000Y-131950000D03*
X228100000Y-133600000D03*
%TD*%
D21*
%TO.C,L4*%
X25100000Y-40600000D03*
X22950000Y-40600000D03*
%TD*%
%TO.C,L4*%
X123600000Y-40600000D03*
X121450000Y-40600000D03*
%TD*%
%TO.C,L4*%
X222100000Y-40600000D03*
X219950000Y-40600000D03*
%TD*%
%TO.C,L4*%
X25100000Y-88600000D03*
X22950000Y-88600000D03*
%TD*%
%TO.C,L4*%
X123600000Y-88600000D03*
X121450000Y-88600000D03*
%TD*%
%TO.C,L4*%
X222100000Y-88600000D03*
X219950000Y-88600000D03*
%TD*%
%TO.C,L4*%
X25100000Y-136600000D03*
X22950000Y-136600000D03*
%TD*%
%TO.C,L4*%
X123600000Y-136600000D03*
X121450000Y-136600000D03*
%TD*%
%TO.C,L4*%
X222100000Y-136600000D03*
X219950000Y-136600000D03*
%TD*%
D12*
%TO.C,D27*%
X82006500Y-24076000D03*
X83881500Y-24076000D03*
%TD*%
%TO.C,D27*%
X180506500Y-24076000D03*
X182381500Y-24076000D03*
%TD*%
%TO.C,D27*%
X279006500Y-24076000D03*
X280881500Y-24076000D03*
%TD*%
%TO.C,D27*%
X82006500Y-72076000D03*
X83881500Y-72076000D03*
%TD*%
%TO.C,D27*%
X180506500Y-72076000D03*
X182381500Y-72076000D03*
%TD*%
%TO.C,D27*%
X279006500Y-72076000D03*
X280881500Y-72076000D03*
%TD*%
%TO.C,D27*%
X82006500Y-120076000D03*
X83881500Y-120076000D03*
%TD*%
%TO.C,D27*%
X180506500Y-120076000D03*
X182381500Y-120076000D03*
%TD*%
%TO.C,D27*%
X279006500Y-120076000D03*
X280881500Y-120076000D03*
%TD*%
D13*
%TO.C,Q4*%
X84950000Y-40737500D03*
X86850000Y-40737500D03*
X85900000Y-38862500D03*
%TD*%
%TO.C,Q4*%
X183450000Y-40737500D03*
X185350000Y-40737500D03*
X184400000Y-38862500D03*
%TD*%
%TO.C,Q4*%
X281950000Y-40737500D03*
X283850000Y-40737500D03*
X282900000Y-38862500D03*
%TD*%
%TO.C,Q4*%
X84950000Y-88737500D03*
X86850000Y-88737500D03*
X85900000Y-86862500D03*
%TD*%
%TO.C,Q4*%
X183450000Y-88737500D03*
X185350000Y-88737500D03*
X184400000Y-86862500D03*
%TD*%
%TO.C,Q4*%
X281950000Y-88737500D03*
X283850000Y-88737500D03*
X282900000Y-86862500D03*
%TD*%
%TO.C,Q4*%
X84950000Y-136737500D03*
X86850000Y-136737500D03*
X85900000Y-134862500D03*
%TD*%
%TO.C,Q4*%
X183450000Y-136737500D03*
X185350000Y-136737500D03*
X184400000Y-134862500D03*
%TD*%
%TO.C,Q4*%
X281950000Y-136737500D03*
X283850000Y-136737500D03*
X282900000Y-134862500D03*
%TD*%
D12*
%TO.C,D6*%
X37562500Y-12000000D03*
X39437500Y-12000000D03*
%TD*%
%TO.C,D6*%
X136062500Y-12000000D03*
X137937500Y-12000000D03*
%TD*%
%TO.C,D6*%
X234562500Y-12000000D03*
X236437500Y-12000000D03*
%TD*%
%TO.C,D6*%
X37562500Y-108000000D03*
X39437500Y-108000000D03*
%TD*%
%TO.C,D6*%
X37562500Y-60000000D03*
X39437500Y-60000000D03*
%TD*%
%TO.C,D6*%
X136062500Y-60000000D03*
X137937500Y-60000000D03*
%TD*%
%TO.C,D6*%
X234562500Y-60000000D03*
X236437500Y-60000000D03*
%TD*%
%TO.C,D6*%
X136062500Y-108000000D03*
X137937500Y-108000000D03*
%TD*%
%TO.C,D6*%
X234562500Y-108000000D03*
X236437500Y-108000000D03*
%TD*%
D10*
%TO.C,D24*%
X68720000Y-20695500D03*
X68720000Y-18820500D03*
%TD*%
%TO.C,D24*%
X167220000Y-20695500D03*
X167220000Y-18820500D03*
%TD*%
%TO.C,D24*%
X265720000Y-20695500D03*
X265720000Y-18820500D03*
%TD*%
%TO.C,D24*%
X68720000Y-68695500D03*
X68720000Y-66820500D03*
%TD*%
%TO.C,D24*%
X167220000Y-68695500D03*
X167220000Y-66820500D03*
%TD*%
%TO.C,D24*%
X265720000Y-68695500D03*
X265720000Y-66820500D03*
%TD*%
%TO.C,D24*%
X68720000Y-116695500D03*
X68720000Y-114820500D03*
%TD*%
%TO.C,D24*%
X167220000Y-116695500D03*
X167220000Y-114820500D03*
%TD*%
%TO.C,D24*%
X265720000Y-116695500D03*
X265720000Y-114820500D03*
%TD*%
D15*
%TO.C,D7*%
X31500000Y-16062500D03*
X31500000Y-17937500D03*
%TD*%
%TO.C,D7*%
X130000000Y-16062500D03*
X130000000Y-17937500D03*
%TD*%
%TO.C,D7*%
X228500000Y-16062500D03*
X228500000Y-17937500D03*
%TD*%
%TO.C,D7*%
X31500000Y-64062500D03*
X31500000Y-65937500D03*
%TD*%
%TO.C,D7*%
X130000000Y-64062500D03*
X130000000Y-65937500D03*
%TD*%
%TO.C,D7*%
X228500000Y-64062500D03*
X228500000Y-65937500D03*
%TD*%
%TO.C,D7*%
X31500000Y-112062500D03*
X31500000Y-113937500D03*
%TD*%
%TO.C,D7*%
X130000000Y-112062500D03*
X130000000Y-113937500D03*
%TD*%
%TO.C,D7*%
X228500000Y-112062500D03*
X228500000Y-113937500D03*
%TD*%
D11*
%TO.C,L1*%
X65164000Y-24135000D03*
X65164000Y-21985000D03*
%TD*%
%TO.C,L1*%
X163664000Y-24135000D03*
X163664000Y-21985000D03*
%TD*%
%TO.C,L1*%
X262164000Y-24135000D03*
X262164000Y-21985000D03*
%TD*%
%TO.C,L1*%
X65164000Y-72135000D03*
X65164000Y-69985000D03*
%TD*%
%TO.C,L1*%
X163664000Y-72135000D03*
X163664000Y-69985000D03*
%TD*%
%TO.C,L1*%
X262164000Y-72135000D03*
X262164000Y-69985000D03*
%TD*%
%TO.C,L1*%
X65164000Y-120135000D03*
X65164000Y-117985000D03*
%TD*%
%TO.C,L1*%
X163664000Y-120135000D03*
X163664000Y-117985000D03*
%TD*%
%TO.C,L1*%
X262164000Y-120135000D03*
X262164000Y-117985000D03*
%TD*%
D22*
%TO.C,U1*%
X58136800Y-35582200D03*
X58136800Y-36852200D03*
X58136800Y-38122200D03*
X58136800Y-39392200D03*
X58136800Y-40662200D03*
X58136800Y-41932200D03*
X58136800Y-43202200D03*
X58136800Y-44472200D03*
X63436800Y-44472200D03*
X63436800Y-43202200D03*
X63436800Y-41932200D03*
X63436800Y-40662200D03*
X63436800Y-39392200D03*
X63436800Y-38122200D03*
X63436800Y-36852200D03*
X63436800Y-35582200D03*
%TD*%
%TO.C,U1*%
X156636800Y-35582200D03*
X156636800Y-36852200D03*
X156636800Y-38122200D03*
X156636800Y-39392200D03*
X156636800Y-40662200D03*
X156636800Y-41932200D03*
X156636800Y-43202200D03*
X156636800Y-44472200D03*
X161936800Y-44472200D03*
X161936800Y-43202200D03*
X161936800Y-41932200D03*
X161936800Y-40662200D03*
X161936800Y-39392200D03*
X161936800Y-38122200D03*
X161936800Y-36852200D03*
X161936800Y-35582200D03*
%TD*%
%TO.C,U1*%
X255136800Y-35582200D03*
X255136800Y-36852200D03*
X255136800Y-38122200D03*
X255136800Y-39392200D03*
X255136800Y-40662200D03*
X255136800Y-41932200D03*
X255136800Y-43202200D03*
X255136800Y-44472200D03*
X260436800Y-44472200D03*
X260436800Y-43202200D03*
X260436800Y-41932200D03*
X260436800Y-40662200D03*
X260436800Y-39392200D03*
X260436800Y-38122200D03*
X260436800Y-36852200D03*
X260436800Y-35582200D03*
%TD*%
%TO.C,U1*%
X58136800Y-83582200D03*
X58136800Y-84852200D03*
X58136800Y-86122200D03*
X58136800Y-87392200D03*
X58136800Y-88662200D03*
X58136800Y-89932200D03*
X58136800Y-91202200D03*
X58136800Y-92472200D03*
X63436800Y-92472200D03*
X63436800Y-91202200D03*
X63436800Y-89932200D03*
X63436800Y-88662200D03*
X63436800Y-87392200D03*
X63436800Y-86122200D03*
X63436800Y-84852200D03*
X63436800Y-83582200D03*
%TD*%
%TO.C,U1*%
X156636800Y-83582200D03*
X156636800Y-84852200D03*
X156636800Y-86122200D03*
X156636800Y-87392200D03*
X156636800Y-88662200D03*
X156636800Y-89932200D03*
X156636800Y-91202200D03*
X156636800Y-92472200D03*
X161936800Y-92472200D03*
X161936800Y-91202200D03*
X161936800Y-89932200D03*
X161936800Y-88662200D03*
X161936800Y-87392200D03*
X161936800Y-86122200D03*
X161936800Y-84852200D03*
X161936800Y-83582200D03*
%TD*%
%TO.C,U1*%
X255136800Y-83582200D03*
X255136800Y-84852200D03*
X255136800Y-86122200D03*
X255136800Y-87392200D03*
X255136800Y-88662200D03*
X255136800Y-89932200D03*
X255136800Y-91202200D03*
X255136800Y-92472200D03*
X260436800Y-92472200D03*
X260436800Y-91202200D03*
X260436800Y-89932200D03*
X260436800Y-88662200D03*
X260436800Y-87392200D03*
X260436800Y-86122200D03*
X260436800Y-84852200D03*
X260436800Y-83582200D03*
%TD*%
%TO.C,U1*%
X58136800Y-131582200D03*
X58136800Y-132852200D03*
X58136800Y-134122200D03*
X58136800Y-135392200D03*
X58136800Y-136662200D03*
X58136800Y-137932200D03*
X58136800Y-139202200D03*
X58136800Y-140472200D03*
X63436800Y-140472200D03*
X63436800Y-139202200D03*
X63436800Y-137932200D03*
X63436800Y-136662200D03*
X63436800Y-135392200D03*
X63436800Y-134122200D03*
X63436800Y-132852200D03*
X63436800Y-131582200D03*
%TD*%
%TO.C,U1*%
X156636800Y-131582200D03*
X156636800Y-132852200D03*
X156636800Y-134122200D03*
X156636800Y-135392200D03*
X156636800Y-136662200D03*
X156636800Y-137932200D03*
X156636800Y-139202200D03*
X156636800Y-140472200D03*
X161936800Y-140472200D03*
X161936800Y-139202200D03*
X161936800Y-137932200D03*
X161936800Y-136662200D03*
X161936800Y-135392200D03*
X161936800Y-134122200D03*
X161936800Y-132852200D03*
X161936800Y-131582200D03*
%TD*%
%TO.C,U1*%
X255136800Y-131582200D03*
X255136800Y-132852200D03*
X255136800Y-134122200D03*
X255136800Y-135392200D03*
X255136800Y-136662200D03*
X255136800Y-137932200D03*
X255136800Y-139202200D03*
X255136800Y-140472200D03*
X260436800Y-140472200D03*
X260436800Y-139202200D03*
X260436800Y-137932200D03*
X260436800Y-136662200D03*
X260436800Y-135392200D03*
X260436800Y-134122200D03*
X260436800Y-132852200D03*
X260436800Y-131582200D03*
%TD*%
D12*
%TO.C,D29*%
X81562500Y-31188000D03*
X83437500Y-31188000D03*
%TD*%
%TO.C,D29*%
X180062500Y-31188000D03*
X181937500Y-31188000D03*
%TD*%
%TO.C,D29*%
X278562500Y-31188000D03*
X280437500Y-31188000D03*
%TD*%
%TO.C,D29*%
X81562500Y-79188000D03*
X83437500Y-79188000D03*
%TD*%
%TO.C,D29*%
X180062500Y-79188000D03*
X181937500Y-79188000D03*
%TD*%
%TO.C,D29*%
X278562500Y-79188000D03*
X280437500Y-79188000D03*
%TD*%
%TO.C,D29*%
X81562500Y-127188000D03*
X83437500Y-127188000D03*
%TD*%
%TO.C,D29*%
X180062500Y-127188000D03*
X181937500Y-127188000D03*
%TD*%
%TO.C,D29*%
X278562500Y-127188000D03*
X280437500Y-127188000D03*
%TD*%
D17*
%TO.C,R5*%
X72593000Y-31950000D03*
X70943000Y-31950000D03*
%TD*%
%TO.C,R5*%
X171093000Y-31950000D03*
X169443000Y-31950000D03*
%TD*%
%TO.C,R5*%
X269593000Y-31950000D03*
X267943000Y-31950000D03*
%TD*%
%TO.C,R5*%
X72593000Y-79950000D03*
X70943000Y-79950000D03*
%TD*%
%TO.C,R5*%
X171093000Y-79950000D03*
X169443000Y-79950000D03*
%TD*%
%TO.C,R5*%
X269593000Y-79950000D03*
X267943000Y-79950000D03*
%TD*%
%TO.C,R5*%
X72593000Y-127950000D03*
X70943000Y-127950000D03*
%TD*%
%TO.C,R5*%
X171093000Y-127950000D03*
X169443000Y-127950000D03*
%TD*%
%TO.C,R5*%
X269593000Y-127950000D03*
X267943000Y-127950000D03*
%TD*%
D15*
%TO.C,D9*%
X31500000Y-25062500D03*
X31500000Y-26937500D03*
%TD*%
%TO.C,D9*%
X130000000Y-25062500D03*
X130000000Y-26937500D03*
%TD*%
%TO.C,D9*%
X228500000Y-25062500D03*
X228500000Y-26937500D03*
%TD*%
%TO.C,D9*%
X31500000Y-73062500D03*
X31500000Y-74937500D03*
%TD*%
%TO.C,D9*%
X130000000Y-73062500D03*
X130000000Y-74937500D03*
%TD*%
%TO.C,D9*%
X228500000Y-73062500D03*
X228500000Y-74937500D03*
%TD*%
%TO.C,D9*%
X31500000Y-121062500D03*
X31500000Y-122937500D03*
%TD*%
%TO.C,D9*%
X130000000Y-121062500D03*
X130000000Y-122937500D03*
%TD*%
%TO.C,D9*%
X228500000Y-121062500D03*
X228500000Y-122937500D03*
%TD*%
D17*
%TO.C,R1*%
X42875000Y-40998500D03*
X41225000Y-40998500D03*
%TD*%
%TO.C,R1*%
X141375000Y-40998500D03*
X139725000Y-40998500D03*
%TD*%
%TO.C,R1*%
X239875000Y-40998500D03*
X238225000Y-40998500D03*
%TD*%
%TO.C,R1*%
X42875000Y-88998500D03*
X41225000Y-88998500D03*
%TD*%
%TO.C,R1*%
X141375000Y-88998500D03*
X139725000Y-88998500D03*
%TD*%
%TO.C,R1*%
X239875000Y-88998500D03*
X238225000Y-88998500D03*
%TD*%
%TO.C,R1*%
X42875000Y-136998500D03*
X41225000Y-136998500D03*
%TD*%
%TO.C,R1*%
X141375000Y-136998500D03*
X139725000Y-136998500D03*
%TD*%
%TO.C,R1*%
X239875000Y-136998500D03*
X238225000Y-136998500D03*
%TD*%
D10*
%TO.C,D23*%
X52464000Y-21965500D03*
X52464000Y-20090500D03*
%TD*%
%TO.C,D23*%
X150964000Y-21965500D03*
X150964000Y-20090500D03*
%TD*%
%TO.C,D23*%
X249464000Y-21965500D03*
X249464000Y-20090500D03*
%TD*%
%TO.C,D23*%
X52464000Y-69965500D03*
X52464000Y-68090500D03*
%TD*%
%TO.C,D23*%
X150964000Y-69965500D03*
X150964000Y-68090500D03*
%TD*%
%TO.C,D23*%
X249464000Y-69965500D03*
X249464000Y-68090500D03*
%TD*%
%TO.C,D23*%
X52464000Y-117965500D03*
X52464000Y-116090500D03*
%TD*%
%TO.C,D23*%
X150964000Y-117965500D03*
X150964000Y-116090500D03*
%TD*%
%TO.C,D23*%
X249464000Y-117965500D03*
X249464000Y-116090500D03*
%TD*%
D15*
%TO.C,D12*%
X60592000Y-28472500D03*
X60592000Y-30347500D03*
%TD*%
%TO.C,D12*%
X159092000Y-28472500D03*
X159092000Y-30347500D03*
%TD*%
%TO.C,D12*%
X257592000Y-28472500D03*
X257592000Y-30347500D03*
%TD*%
%TO.C,D12*%
X60592000Y-76472500D03*
X60592000Y-78347500D03*
%TD*%
%TO.C,D12*%
X159092000Y-76472500D03*
X159092000Y-78347500D03*
%TD*%
%TO.C,D12*%
X257592000Y-76472500D03*
X257592000Y-78347500D03*
%TD*%
%TO.C,D12*%
X60592000Y-124472500D03*
X60592000Y-126347500D03*
%TD*%
%TO.C,D12*%
X159092000Y-124472500D03*
X159092000Y-126347500D03*
%TD*%
%TO.C,D12*%
X257592000Y-124472500D03*
X257592000Y-126347500D03*
%TD*%
D23*
%TO.C,Q1*%
X226100000Y-137575000D03*
X226100000Y-135675000D03*
X224225000Y-136625000D03*
%TD*%
%TO.C,Q1*%
X29100000Y-41575000D03*
X29100000Y-39675000D03*
X27225000Y-40625000D03*
%TD*%
%TO.C,Q1*%
X127600000Y-41575000D03*
X127600000Y-39675000D03*
X125725000Y-40625000D03*
%TD*%
%TO.C,Q1*%
X226100000Y-41575000D03*
X226100000Y-39675000D03*
X224225000Y-40625000D03*
%TD*%
%TO.C,Q1*%
X29100000Y-89575000D03*
X29100000Y-87675000D03*
X27225000Y-88625000D03*
%TD*%
%TO.C,Q1*%
X127600000Y-89575000D03*
X127600000Y-87675000D03*
X125725000Y-88625000D03*
%TD*%
%TO.C,Q1*%
X226100000Y-89575000D03*
X226100000Y-87675000D03*
X224225000Y-88625000D03*
%TD*%
%TO.C,Q1*%
X29100000Y-137575000D03*
X29100000Y-135675000D03*
X27225000Y-136625000D03*
%TD*%
%TO.C,Q1*%
X127600000Y-137575000D03*
X127600000Y-135675000D03*
X125725000Y-136625000D03*
%TD*%
D18*
%TO.C,C4*%
X14100000Y-23600000D03*
X14100000Y-25500000D03*
%TD*%
%TO.C,C4*%
X112600000Y-23600000D03*
X112600000Y-25500000D03*
%TD*%
%TO.C,C4*%
X211100000Y-23600000D03*
X211100000Y-25500000D03*
%TD*%
%TO.C,C4*%
X14100000Y-71600000D03*
X14100000Y-73500000D03*
%TD*%
%TO.C,C4*%
X112600000Y-71600000D03*
X112600000Y-73500000D03*
%TD*%
%TO.C,C4*%
X211100000Y-71600000D03*
X211100000Y-73500000D03*
%TD*%
%TO.C,C4*%
X14100000Y-119600000D03*
X14100000Y-121500000D03*
%TD*%
%TO.C,C4*%
X112600000Y-119600000D03*
X112600000Y-121500000D03*
%TD*%
%TO.C,C4*%
X211100000Y-119600000D03*
X211100000Y-121500000D03*
%TD*%
D24*
%TO.C,R4*%
X64593000Y-12138000D03*
X66243000Y-12138000D03*
%TD*%
%TO.C,R4*%
X163093000Y-12138000D03*
X164743000Y-12138000D03*
%TD*%
%TO.C,R4*%
X261593000Y-12138000D03*
X263243000Y-12138000D03*
%TD*%
%TO.C,R4*%
X64593000Y-60138000D03*
X66243000Y-60138000D03*
%TD*%
%TO.C,R4*%
X163093000Y-60138000D03*
X164743000Y-60138000D03*
%TD*%
%TO.C,R4*%
X261593000Y-60138000D03*
X263243000Y-60138000D03*
%TD*%
%TO.C,R4*%
X64593000Y-108138000D03*
X66243000Y-108138000D03*
%TD*%
%TO.C,R4*%
X163093000Y-108138000D03*
X164743000Y-108138000D03*
%TD*%
%TO.C,R4*%
X261593000Y-108138000D03*
X263243000Y-108138000D03*
%TD*%
D12*
%TO.C,D3*%
X16562500Y-21000000D03*
X18437500Y-21000000D03*
%TD*%
%TO.C,D3*%
X115062500Y-21000000D03*
X116937500Y-21000000D03*
%TD*%
%TO.C,D3*%
X213562500Y-21000000D03*
X215437500Y-21000000D03*
%TD*%
%TO.C,D3*%
X16562500Y-69000000D03*
X18437500Y-69000000D03*
%TD*%
%TO.C,D3*%
X115062500Y-69000000D03*
X116937500Y-69000000D03*
%TD*%
%TO.C,D3*%
X213562500Y-69000000D03*
X215437500Y-69000000D03*
%TD*%
%TO.C,D3*%
X16562500Y-117000000D03*
X18437500Y-117000000D03*
%TD*%
%TO.C,D3*%
X115062500Y-117000000D03*
X116937500Y-117000000D03*
%TD*%
%TO.C,D3*%
X213562500Y-117000000D03*
X215437500Y-117000000D03*
%TD*%
D17*
%TO.C,R3*%
X49700000Y-32600000D03*
X48050000Y-32600000D03*
%TD*%
%TO.C,R3*%
X148200000Y-32600000D03*
X146550000Y-32600000D03*
%TD*%
%TO.C,R3*%
X246700000Y-32600000D03*
X245050000Y-32600000D03*
%TD*%
%TO.C,R3*%
X49700000Y-80600000D03*
X48050000Y-80600000D03*
%TD*%
%TO.C,R3*%
X148200000Y-80600000D03*
X146550000Y-80600000D03*
%TD*%
%TO.C,R3*%
X246700000Y-80600000D03*
X245050000Y-80600000D03*
%TD*%
%TO.C,R3*%
X49700000Y-128600000D03*
X48050000Y-128600000D03*
%TD*%
%TO.C,R3*%
X148200000Y-128600000D03*
X146550000Y-128600000D03*
%TD*%
%TO.C,R3*%
X246700000Y-128600000D03*
X245050000Y-128600000D03*
%TD*%
%TO.C,R6*%
X65926000Y-30172000D03*
X64276000Y-30172000D03*
%TD*%
%TO.C,R6*%
X164426000Y-30172000D03*
X162776000Y-30172000D03*
%TD*%
%TO.C,R6*%
X262926000Y-30172000D03*
X261276000Y-30172000D03*
%TD*%
%TO.C,R6*%
X65926000Y-78172000D03*
X64276000Y-78172000D03*
%TD*%
%TO.C,R6*%
X164426000Y-78172000D03*
X162776000Y-78172000D03*
%TD*%
%TO.C,R6*%
X262926000Y-78172000D03*
X261276000Y-78172000D03*
%TD*%
%TO.C,R6*%
X65926000Y-126172000D03*
X64276000Y-126172000D03*
%TD*%
%TO.C,R6*%
X164426000Y-126172000D03*
X162776000Y-126172000D03*
%TD*%
%TO.C,R6*%
X262926000Y-126172000D03*
X261276000Y-126172000D03*
%TD*%
D12*
%TO.C,D17*%
X70830500Y-34998000D03*
X72705500Y-34998000D03*
%TD*%
%TO.C,D17*%
X169330500Y-34998000D03*
X171205500Y-34998000D03*
%TD*%
%TO.C,D17*%
X267830500Y-34998000D03*
X269705500Y-34998000D03*
%TD*%
%TO.C,D17*%
X70830500Y-82998000D03*
X72705500Y-82998000D03*
%TD*%
%TO.C,D17*%
X169330500Y-82998000D03*
X171205500Y-82998000D03*
%TD*%
%TO.C,D17*%
X267830500Y-82998000D03*
X269705500Y-82998000D03*
%TD*%
%TO.C,D17*%
X70830500Y-130998000D03*
X72705500Y-130998000D03*
%TD*%
%TO.C,D17*%
X169330500Y-130998000D03*
X171205500Y-130998000D03*
%TD*%
%TO.C,D17*%
X267830500Y-130998000D03*
X269705500Y-130998000D03*
%TD*%
D20*
%TO.C,R11*%
X30962500Y-39600000D03*
X30962500Y-41250000D03*
%TD*%
%TO.C,R11*%
X129462500Y-39600000D03*
X129462500Y-41250000D03*
%TD*%
%TO.C,R11*%
X227962500Y-39600000D03*
X227962500Y-41250000D03*
%TD*%
%TO.C,R11*%
X30962500Y-87600000D03*
X30962500Y-89250000D03*
%TD*%
%TO.C,R11*%
X129462500Y-87600000D03*
X129462500Y-89250000D03*
%TD*%
%TO.C,R11*%
X227962500Y-87600000D03*
X227962500Y-89250000D03*
%TD*%
%TO.C,R11*%
X30962500Y-135600000D03*
X30962500Y-137250000D03*
%TD*%
%TO.C,R11*%
X129462500Y-135600000D03*
X129462500Y-137250000D03*
%TD*%
%TO.C,R11*%
X227962500Y-135600000D03*
X227962500Y-137250000D03*
%TD*%
D10*
%TO.C,D18*%
X74562000Y-20441500D03*
X74562000Y-18566500D03*
%TD*%
%TO.C,D18*%
X173062000Y-20441500D03*
X173062000Y-18566500D03*
%TD*%
%TO.C,D18*%
X271562000Y-20441500D03*
X271562000Y-18566500D03*
%TD*%
%TO.C,D18*%
X74562000Y-68441500D03*
X74562000Y-66566500D03*
%TD*%
%TO.C,D18*%
X173062000Y-68441500D03*
X173062000Y-66566500D03*
%TD*%
%TO.C,D18*%
X271562000Y-68441500D03*
X271562000Y-66566500D03*
%TD*%
%TO.C,D18*%
X74562000Y-116441500D03*
X74562000Y-114566500D03*
%TD*%
%TO.C,D18*%
X173062000Y-116441500D03*
X173062000Y-114566500D03*
%TD*%
%TO.C,D18*%
X271562000Y-116441500D03*
X271562000Y-114566500D03*
%TD*%
D17*
%TO.C,R7*%
X78925000Y-11200000D03*
X77275000Y-11200000D03*
%TD*%
%TO.C,R7*%
X177425000Y-11200000D03*
X175775000Y-11200000D03*
%TD*%
%TO.C,R7*%
X275925000Y-11200000D03*
X274275000Y-11200000D03*
%TD*%
%TO.C,R7*%
X78925000Y-59200000D03*
X77275000Y-59200000D03*
%TD*%
%TO.C,R7*%
X177425000Y-59200000D03*
X175775000Y-59200000D03*
%TD*%
%TO.C,R7*%
X275925000Y-59200000D03*
X274275000Y-59200000D03*
%TD*%
%TO.C,R7*%
X78925000Y-107200000D03*
X77275000Y-107200000D03*
%TD*%
%TO.C,R7*%
X177425000Y-107200000D03*
X175775000Y-107200000D03*
%TD*%
%TO.C,R7*%
X275925000Y-107200000D03*
X274275000Y-107200000D03*
%TD*%
%TO.C,R9*%
X86916000Y-42515500D03*
X85266000Y-42515500D03*
%TD*%
%TO.C,R9*%
X185416000Y-42515500D03*
X183766000Y-42515500D03*
%TD*%
%TO.C,R9*%
X283916000Y-42515500D03*
X282266000Y-42515500D03*
%TD*%
%TO.C,R9*%
X86916000Y-90515500D03*
X85266000Y-90515500D03*
%TD*%
%TO.C,R9*%
X185416000Y-90515500D03*
X183766000Y-90515500D03*
%TD*%
%TO.C,R9*%
X283916000Y-90515500D03*
X282266000Y-90515500D03*
%TD*%
%TO.C,R9*%
X86916000Y-138515500D03*
X85266000Y-138515500D03*
%TD*%
%TO.C,R9*%
X185416000Y-138515500D03*
X183766000Y-138515500D03*
%TD*%
%TO.C,R9*%
X283916000Y-138515500D03*
X282266000Y-138515500D03*
%TD*%
D10*
%TO.C,D20*%
X90564000Y-21457500D03*
X90564000Y-19582500D03*
%TD*%
%TO.C,D20*%
X189064000Y-21457500D03*
X189064000Y-19582500D03*
%TD*%
%TO.C,D20*%
X287564000Y-21457500D03*
X287564000Y-19582500D03*
%TD*%
%TO.C,D20*%
X90564000Y-69457500D03*
X90564000Y-67582500D03*
%TD*%
%TO.C,D20*%
X189064000Y-69457500D03*
X189064000Y-67582500D03*
%TD*%
%TO.C,D20*%
X287564000Y-69457500D03*
X287564000Y-67582500D03*
%TD*%
%TO.C,D20*%
X90564000Y-117457500D03*
X90564000Y-115582500D03*
%TD*%
%TO.C,D20*%
X189064000Y-117457500D03*
X189064000Y-115582500D03*
%TD*%
%TO.C,D20*%
X287564000Y-117457500D03*
X287564000Y-115582500D03*
%TD*%
D15*
%TO.C,D4*%
X23500000Y-25062500D03*
X23500000Y-26937500D03*
%TD*%
%TO.C,D4*%
X122000000Y-25062500D03*
X122000000Y-26937500D03*
%TD*%
%TO.C,D4*%
X220500000Y-25062500D03*
X220500000Y-26937500D03*
%TD*%
%TO.C,D4*%
X23500000Y-73062500D03*
X23500000Y-74937500D03*
%TD*%
%TO.C,D4*%
X122000000Y-73062500D03*
X122000000Y-74937500D03*
%TD*%
%TO.C,D4*%
X220500000Y-73062500D03*
X220500000Y-74937500D03*
%TD*%
%TO.C,D4*%
X23500000Y-121062500D03*
X23500000Y-122937500D03*
%TD*%
%TO.C,D4*%
X122000000Y-121062500D03*
X122000000Y-122937500D03*
%TD*%
%TO.C,D4*%
X220500000Y-121062500D03*
X220500000Y-122937500D03*
%TD*%
D14*
%TO.C,D19*%
X83437500Y-9000000D03*
X81562500Y-9000000D03*
%TD*%
%TO.C,D19*%
X181937500Y-9000000D03*
X180062500Y-9000000D03*
%TD*%
%TO.C,D19*%
X280437500Y-9000000D03*
X278562500Y-9000000D03*
%TD*%
%TO.C,D19*%
X83437500Y-57000000D03*
X81562500Y-57000000D03*
%TD*%
%TO.C,D19*%
X181937500Y-57000000D03*
X180062500Y-57000000D03*
%TD*%
%TO.C,D19*%
X280437500Y-57000000D03*
X278562500Y-57000000D03*
%TD*%
%TO.C,D19*%
X83437500Y-105000000D03*
X81562500Y-105000000D03*
%TD*%
%TO.C,D19*%
X181937500Y-105000000D03*
X180062500Y-105000000D03*
%TD*%
%TO.C,D19*%
X280437500Y-105000000D03*
X278562500Y-105000000D03*
%TD*%
D10*
%TO.C,D28*%
X283500000Y-28315500D03*
X283500000Y-26440500D03*
%TD*%
%TO.C,D28*%
X86500000Y-76315500D03*
X86500000Y-74440500D03*
%TD*%
%TO.C,D28*%
X185000000Y-76315500D03*
X185000000Y-74440500D03*
%TD*%
%TO.C,D28*%
X283500000Y-76315500D03*
X283500000Y-74440500D03*
%TD*%
%TO.C,D28*%
X86500000Y-124315500D03*
X86500000Y-122440500D03*
%TD*%
%TO.C,D28*%
X185000000Y-124315500D03*
X185000000Y-122440500D03*
%TD*%
%TO.C,D28*%
X283500000Y-124315500D03*
X283500000Y-122440500D03*
%TD*%
%TO.C,D28*%
X86500000Y-28315500D03*
X86500000Y-26440500D03*
%TD*%
%TO.C,D28*%
X185000000Y-28315500D03*
X185000000Y-26440500D03*
%TD*%
D12*
%TO.C,D25*%
X81562500Y-16964000D03*
X83437500Y-16964000D03*
%TD*%
%TO.C,D25*%
X180062500Y-16964000D03*
X181937500Y-16964000D03*
%TD*%
%TO.C,D25*%
X278562500Y-16964000D03*
X280437500Y-16964000D03*
%TD*%
%TO.C,D25*%
X278562500Y-64964000D03*
X280437500Y-64964000D03*
%TD*%
%TO.C,D25*%
X81562500Y-64964000D03*
X83437500Y-64964000D03*
%TD*%
%TO.C,D25*%
X180062500Y-64964000D03*
X181937500Y-64964000D03*
%TD*%
%TO.C,D25*%
X81562500Y-112964000D03*
X83437500Y-112964000D03*
%TD*%
%TO.C,D25*%
X180062500Y-112964000D03*
X181937500Y-112964000D03*
%TD*%
%TO.C,D25*%
X278562500Y-112964000D03*
X280437500Y-112964000D03*
%TD*%
%TO.C,D8*%
X37562500Y-21000000D03*
X39437500Y-21000000D03*
%TD*%
%TO.C,D8*%
X136062500Y-21000000D03*
X137937500Y-21000000D03*
%TD*%
%TO.C,D8*%
X234562500Y-21000000D03*
X236437500Y-21000000D03*
%TD*%
%TO.C,D8*%
X37562500Y-69000000D03*
X39437500Y-69000000D03*
%TD*%
%TO.C,D8*%
X136062500Y-69000000D03*
X137937500Y-69000000D03*
%TD*%
%TO.C,D8*%
X234562500Y-69000000D03*
X236437500Y-69000000D03*
%TD*%
%TO.C,D8*%
X37562500Y-117000000D03*
X39437500Y-117000000D03*
%TD*%
%TO.C,D8*%
X136062500Y-117000000D03*
X137937500Y-117000000D03*
%TD*%
%TO.C,D8*%
X234562500Y-117000000D03*
X236437500Y-117000000D03*
%TD*%
M02*
