M48
; DRILL file {KiCad 7.0.1-3b83917a11~171~ubuntu20.04.1} date 2023. okt. 26., csütörtök, 02:20:03 CEST
; FORMAT={-:-/ absolute / metric / decimal}
; #@! TF.CreationDate,2023-10-26T02:20:03+02:00
; #@! TF.GenerationSoftware,Kicad,Pcbnew,7.0.1-3b83917a11~171~ubuntu20.04.1
; #@! TF.FileFunction,NonPlated,1,2,NPTH
FMAT,2
METRIC
; #@! TA.AperFunction,NonPlated,NPTH,ComponentDrill
T1C0.500
%
G90
G05
T1
X21.0Y-69.8
X21.0Y-72.2
X21.0Y-121.8
X21.0Y-124.2
X21.0Y-173.8
X21.0Y-176.2
X21.0Y-225.8
X21.0Y-228.2
X22.0Y-69.8
X22.0Y-72.2
X22.0Y-121.8
X22.0Y-124.2
X22.0Y-173.8
X22.0Y-176.2
X22.0Y-225.8
X22.0Y-228.2
X23.0Y-69.8
X23.0Y-72.2
X23.0Y-121.8
X23.0Y-124.2
X23.0Y-173.8
X23.0Y-176.2
X23.0Y-225.8
X23.0Y-228.2
X24.0Y-69.8
X24.0Y-72.2
X24.0Y-121.8
X24.0Y-124.2
X24.0Y-173.8
X24.0Y-176.2
X24.0Y-225.8
X24.0Y-228.2
X25.0Y-69.8
X25.0Y-72.2
X25.0Y-121.8
X25.0Y-124.2
X25.0Y-173.8
X25.0Y-176.2
X25.0Y-225.8
X25.0Y-228.2
X26.0Y-69.8
X26.0Y-72.2
X26.0Y-121.8
X26.0Y-124.2
X26.0Y-173.8
X26.0Y-176.2
X26.0Y-225.8
X26.0Y-228.2
X27.0Y-69.8
X27.0Y-72.2
X27.0Y-121.8
X27.0Y-124.2
X27.0Y-173.8
X27.0Y-176.2
X27.0Y-225.8
X27.0Y-228.2
X45.5Y-69.8
X45.5Y-72.2
X45.5Y-121.8
X45.5Y-124.2
X45.5Y-173.8
X45.5Y-176.2
X45.5Y-225.8
X45.5Y-228.2
X46.5Y-69.8
X46.5Y-72.2
X46.5Y-121.8
X46.5Y-124.2
X46.5Y-173.8
X46.5Y-176.2
X46.5Y-225.8
X46.5Y-228.2
X47.5Y-69.8
X47.5Y-72.2
X47.5Y-121.8
X47.5Y-124.2
X47.5Y-173.8
X47.5Y-176.2
X47.5Y-225.8
X47.5Y-228.2
X48.5Y-69.8
X48.5Y-72.2
X48.5Y-121.8
X48.5Y-124.2
X48.5Y-173.8
X48.5Y-176.2
X48.5Y-225.8
X48.5Y-228.2
X49.5Y-69.8
X49.5Y-72.2
X49.5Y-121.8
X49.5Y-124.2
X49.5Y-173.8
X49.5Y-176.2
X49.5Y-225.8
X49.5Y-228.2
X50.5Y-69.8
X50.5Y-72.2
X50.5Y-121.8
X50.5Y-124.2
X50.5Y-173.8
X50.5Y-176.2
X50.5Y-225.8
X50.5Y-228.2
X51.5Y-69.8
X51.5Y-72.2
X51.5Y-121.8
X51.5Y-124.2
X51.5Y-173.8
X51.5Y-176.2
X51.5Y-225.8
X51.5Y-228.2
X70.0Y-69.8
X70.0Y-72.2
X70.0Y-121.8
X70.0Y-124.2
X70.0Y-173.8
X70.0Y-176.2
X70.0Y-225.8
X70.0Y-228.2
X71.0Y-69.8
X71.0Y-72.2
X71.0Y-121.8
X71.0Y-124.2
X71.0Y-173.8
X71.0Y-176.2
X71.0Y-225.8
X71.0Y-228.2
X72.0Y-69.8
X72.0Y-72.2
X72.0Y-121.8
X72.0Y-124.2
X72.0Y-173.8
X72.0Y-176.2
X72.0Y-225.8
X72.0Y-228.2
X73.0Y-69.8
X73.0Y-72.2
X73.0Y-121.8
X73.0Y-124.2
X73.0Y-173.8
X73.0Y-176.2
X73.0Y-225.8
X73.0Y-228.2
X74.0Y-69.8
X74.0Y-72.2
X74.0Y-121.8
X74.0Y-124.2
X74.0Y-173.8
X74.0Y-176.2
X74.0Y-225.8
X74.0Y-228.2
X75.0Y-69.8
X75.0Y-72.2
X75.0Y-121.8
X75.0Y-124.2
X75.0Y-173.8
X75.0Y-176.2
X75.0Y-225.8
X75.0Y-228.2
X76.0Y-69.8
X76.0Y-72.2
X76.0Y-121.8
X76.0Y-124.2
X76.0Y-173.8
X76.0Y-176.2
X76.0Y-225.8
X76.0Y-228.2
X97.3Y-33.667
X97.3Y-34.667
X97.3Y-35.667
X97.3Y-36.667
X97.3Y-37.667
X97.3Y-38.667
X97.3Y-39.667
X97.3Y-50.333
X97.3Y-51.333
X97.3Y-52.333
X97.3Y-53.333
X97.3Y-54.333
X97.3Y-55.333
X97.3Y-56.333
X97.3Y-85.667
X97.3Y-86.667
X97.3Y-87.667
X97.3Y-88.667
X97.3Y-89.667
X97.3Y-90.667
X97.3Y-91.667
X97.3Y-102.333
X97.3Y-103.333
X97.3Y-104.333
X97.3Y-105.333
X97.3Y-106.333
X97.3Y-107.333
X97.3Y-108.333
X97.3Y-137.667
X97.3Y-138.667
X97.3Y-139.667
X97.3Y-140.667
X97.3Y-141.667
X97.3Y-142.667
X97.3Y-143.667
X97.3Y-154.333
X97.3Y-155.333
X97.3Y-156.333
X97.3Y-157.333
X97.3Y-158.333
X97.3Y-159.333
X97.3Y-160.333
X97.3Y-189.667
X97.3Y-190.667
X97.3Y-191.667
X97.3Y-192.667
X97.3Y-193.667
X97.3Y-194.667
X97.3Y-195.667
X97.3Y-206.333
X97.3Y-207.333
X97.3Y-208.333
X97.3Y-209.333
X97.3Y-210.333
X97.3Y-211.333
X97.3Y-212.333
X97.3Y-241.667
X97.3Y-242.667
X97.3Y-243.667
X97.3Y-244.667
X97.3Y-245.667
X97.3Y-246.667
X97.3Y-247.667
X97.3Y-258.333
X97.3Y-259.333
X97.3Y-260.333
X97.3Y-261.333
X97.3Y-262.333
X97.3Y-263.333
X97.3Y-264.333
X99.7Y-33.667
X99.7Y-34.667
X99.7Y-35.667
X99.7Y-36.667
X99.7Y-37.667
X99.7Y-38.667
X99.7Y-39.667
X99.7Y-50.333
X99.7Y-51.333
X99.7Y-52.333
X99.7Y-53.333
X99.7Y-54.333
X99.7Y-55.333
X99.7Y-56.333
X99.7Y-85.667
X99.7Y-86.667
X99.7Y-87.667
X99.7Y-88.667
X99.7Y-89.667
X99.7Y-90.667
X99.7Y-91.667
X99.7Y-102.333
X99.7Y-103.333
X99.7Y-104.333
X99.7Y-105.333
X99.7Y-106.333
X99.7Y-107.333
X99.7Y-108.333
X99.7Y-137.667
X99.7Y-138.667
X99.7Y-139.667
X99.7Y-140.667
X99.7Y-141.667
X99.7Y-142.667
X99.7Y-143.667
X99.7Y-154.333
X99.7Y-155.333
X99.7Y-156.333
X99.7Y-157.333
X99.7Y-158.333
X99.7Y-159.333
X99.7Y-160.333
X99.7Y-189.667
X99.7Y-190.667
X99.7Y-191.667
X99.7Y-192.667
X99.7Y-193.667
X99.7Y-194.667
X99.7Y-195.667
X99.7Y-206.333
X99.7Y-207.333
X99.7Y-208.333
X99.7Y-209.333
X99.7Y-210.333
X99.7Y-211.333
X99.7Y-212.333
X99.7Y-241.667
X99.7Y-242.667
X99.7Y-243.667
X99.7Y-244.667
X99.7Y-245.667
X99.7Y-246.667
X99.7Y-247.667
X99.7Y-258.333
X99.7Y-259.333
X99.7Y-260.333
X99.7Y-261.333
X99.7Y-262.333
X99.7Y-263.333
X99.7Y-264.333
X121.0Y-69.8
X121.0Y-72.2
X121.0Y-121.8
X121.0Y-124.2
X121.0Y-173.8
X121.0Y-176.2
X121.0Y-225.8
X121.0Y-228.2
X122.0Y-69.8
X122.0Y-72.2
X122.0Y-121.8
X122.0Y-124.2
X122.0Y-173.8
X122.0Y-176.2
X122.0Y-225.8
X122.0Y-228.2
X123.0Y-69.8
X123.0Y-72.2
X123.0Y-121.8
X123.0Y-124.2
X123.0Y-173.8
X123.0Y-176.2
X123.0Y-225.8
X123.0Y-228.2
X124.0Y-69.8
X124.0Y-72.2
X124.0Y-121.8
X124.0Y-124.2
X124.0Y-173.8
X124.0Y-176.2
X124.0Y-225.8
X124.0Y-228.2
X125.0Y-69.8
X125.0Y-72.2
X125.0Y-121.8
X125.0Y-124.2
X125.0Y-173.8
X125.0Y-176.2
X125.0Y-225.8
X125.0Y-228.2
X126.0Y-69.8
X126.0Y-72.2
X126.0Y-121.8
X126.0Y-124.2
X126.0Y-173.8
X126.0Y-176.2
X126.0Y-225.8
X126.0Y-228.2
X127.0Y-69.8
X127.0Y-72.2
X127.0Y-121.8
X127.0Y-124.2
X127.0Y-173.8
X127.0Y-176.2
X127.0Y-225.8
X127.0Y-228.2
X145.5Y-69.8
X145.5Y-72.2
X145.5Y-121.8
X145.5Y-124.2
X145.5Y-173.8
X145.5Y-176.2
X145.5Y-225.8
X145.5Y-228.2
X146.5Y-69.8
X146.5Y-72.2
X146.5Y-121.8
X146.5Y-124.2
X146.5Y-173.8
X146.5Y-176.2
X146.5Y-225.8
X146.5Y-228.2
X147.5Y-69.8
X147.5Y-72.2
X147.5Y-121.8
X147.5Y-124.2
X147.5Y-173.8
X147.5Y-176.2
X147.5Y-225.8
X147.5Y-228.2
X148.5Y-69.8
X148.5Y-72.2
X148.5Y-121.8
X148.5Y-124.2
X148.5Y-173.8
X148.5Y-176.2
X148.5Y-225.8
X148.5Y-228.2
X149.5Y-69.8
X149.5Y-72.2
X149.5Y-121.8
X149.5Y-124.2
X149.5Y-173.8
X149.5Y-176.2
X149.5Y-225.8
X149.5Y-228.2
X150.5Y-69.8
X150.5Y-72.2
X150.5Y-121.8
X150.5Y-124.2
X150.5Y-173.8
X150.5Y-176.2
X150.5Y-225.8
X150.5Y-228.2
X151.5Y-69.8
X151.5Y-72.2
X151.5Y-121.8
X151.5Y-124.2
X151.5Y-173.8
X151.5Y-176.2
X151.5Y-225.8
X151.5Y-228.2
X170.0Y-69.8
X170.0Y-72.2
X170.0Y-121.8
X170.0Y-124.2
X170.0Y-173.8
X170.0Y-176.2
X170.0Y-225.8
X170.0Y-228.2
X171.0Y-69.8
X171.0Y-72.2
X171.0Y-121.8
X171.0Y-124.2
X171.0Y-173.8
X171.0Y-176.2
X171.0Y-225.8
X171.0Y-228.2
X172.0Y-69.8
X172.0Y-72.2
X172.0Y-121.8
X172.0Y-124.2
X172.0Y-173.8
X172.0Y-176.2
X172.0Y-225.8
X172.0Y-228.2
X173.0Y-69.8
X173.0Y-72.2
X173.0Y-121.8
X173.0Y-124.2
X173.0Y-173.8
X173.0Y-176.2
X173.0Y-225.8
X173.0Y-228.2
X174.0Y-69.8
X174.0Y-72.2
X174.0Y-121.8
X174.0Y-124.2
X174.0Y-173.8
X174.0Y-176.2
X174.0Y-225.8
X174.0Y-228.2
X175.0Y-69.8
X175.0Y-72.2
X175.0Y-121.8
X175.0Y-124.2
X175.0Y-173.8
X175.0Y-176.2
X175.0Y-225.8
X175.0Y-228.2
X176.0Y-69.8
X176.0Y-72.2
X176.0Y-121.8
X176.0Y-124.2
X176.0Y-173.8
X176.0Y-176.2
X176.0Y-225.8
X176.0Y-228.2
X197.3Y-33.667
X197.3Y-34.667
X197.3Y-35.667
X197.3Y-36.667
X197.3Y-37.667
X197.3Y-38.667
X197.3Y-39.667
X197.3Y-50.333
X197.3Y-51.333
X197.3Y-52.333
X197.3Y-53.333
X197.3Y-54.333
X197.3Y-55.333
X197.3Y-56.333
X197.3Y-85.667
X197.3Y-86.667
X197.3Y-87.667
X197.3Y-88.667
X197.3Y-89.667
X197.3Y-90.667
X197.3Y-91.667
X197.3Y-102.333
X197.3Y-103.333
X197.3Y-104.333
X197.3Y-105.333
X197.3Y-106.333
X197.3Y-107.333
X197.3Y-108.333
X197.3Y-137.667
X197.3Y-138.667
X197.3Y-139.667
X197.3Y-140.667
X197.3Y-141.667
X197.3Y-142.667
X197.3Y-143.667
X197.3Y-154.333
X197.3Y-155.333
X197.3Y-156.333
X197.3Y-157.333
X197.3Y-158.333
X197.3Y-159.333
X197.3Y-160.333
X197.3Y-189.667
X197.3Y-190.667
X197.3Y-191.667
X197.3Y-192.667
X197.3Y-193.667
X197.3Y-194.667
X197.3Y-195.667
X197.3Y-206.333
X197.3Y-207.333
X197.3Y-208.333
X197.3Y-209.333
X197.3Y-210.333
X197.3Y-211.333
X197.3Y-212.333
X197.3Y-241.667
X197.3Y-242.667
X197.3Y-243.667
X197.3Y-244.667
X197.3Y-245.667
X197.3Y-246.667
X197.3Y-247.667
X197.3Y-258.333
X197.3Y-259.333
X197.3Y-260.333
X197.3Y-261.333
X197.3Y-262.333
X197.3Y-263.333
X197.3Y-264.333
X199.7Y-33.667
X199.7Y-34.667
X199.7Y-35.667
X199.7Y-36.667
X199.7Y-37.667
X199.7Y-38.667
X199.7Y-39.667
X199.7Y-50.333
X199.7Y-51.333
X199.7Y-52.333
X199.7Y-53.333
X199.7Y-54.333
X199.7Y-55.333
X199.7Y-56.333
X199.7Y-85.667
X199.7Y-86.667
X199.7Y-87.667
X199.7Y-88.667
X199.7Y-89.667
X199.7Y-90.667
X199.7Y-91.667
X199.7Y-102.333
X199.7Y-103.333
X199.7Y-104.333
X199.7Y-105.333
X199.7Y-106.333
X199.7Y-107.333
X199.7Y-108.333
X199.7Y-137.667
X199.7Y-138.667
X199.7Y-139.667
X199.7Y-140.667
X199.7Y-141.667
X199.7Y-142.667
X199.7Y-143.667
X199.7Y-154.333
X199.7Y-155.333
X199.7Y-156.333
X199.7Y-157.333
X199.7Y-158.333
X199.7Y-159.333
X199.7Y-160.333
X199.7Y-189.667
X199.7Y-190.667
X199.7Y-191.667
X199.7Y-192.667
X199.7Y-193.667
X199.7Y-194.667
X199.7Y-195.667
X199.7Y-206.333
X199.7Y-207.333
X199.7Y-208.333
X199.7Y-209.333
X199.7Y-210.333
X199.7Y-211.333
X199.7Y-212.333
X199.7Y-241.667
X199.7Y-242.667
X199.7Y-243.667
X199.7Y-244.667
X199.7Y-245.667
X199.7Y-246.667
X199.7Y-247.667
X199.7Y-258.333
X199.7Y-259.333
X199.7Y-260.333
X199.7Y-261.333
X199.7Y-262.333
X199.7Y-263.333
X199.7Y-264.333
X221.0Y-69.8
X221.0Y-72.2
X221.0Y-121.8
X221.0Y-124.2
X221.0Y-173.8
X221.0Y-176.2
X221.0Y-225.8
X221.0Y-228.2
X222.0Y-69.8
X222.0Y-72.2
X222.0Y-121.8
X222.0Y-124.2
X222.0Y-173.8
X222.0Y-176.2
X222.0Y-225.8
X222.0Y-228.2
X223.0Y-69.8
X223.0Y-72.2
X223.0Y-121.8
X223.0Y-124.2
X223.0Y-173.8
X223.0Y-176.2
X223.0Y-225.8
X223.0Y-228.2
X224.0Y-69.8
X224.0Y-72.2
X224.0Y-121.8
X224.0Y-124.2
X224.0Y-173.8
X224.0Y-176.2
X224.0Y-225.8
X224.0Y-228.2
X225.0Y-69.8
X225.0Y-72.2
X225.0Y-121.8
X225.0Y-124.2
X225.0Y-173.8
X225.0Y-176.2
X225.0Y-225.8
X225.0Y-228.2
X226.0Y-69.8
X226.0Y-72.2
X226.0Y-121.8
X226.0Y-124.2
X226.0Y-173.8
X226.0Y-176.2
X226.0Y-225.8
X226.0Y-228.2
X227.0Y-69.8
X227.0Y-72.2
X227.0Y-121.8
X227.0Y-124.2
X227.0Y-173.8
X227.0Y-176.2
X227.0Y-225.8
X227.0Y-228.2
X245.5Y-69.8
X245.5Y-72.2
X245.5Y-121.8
X245.5Y-124.2
X245.5Y-173.8
X245.5Y-176.2
X245.5Y-225.8
X245.5Y-228.2
X246.5Y-69.8
X246.5Y-72.2
X246.5Y-121.8
X246.5Y-124.2
X246.5Y-173.8
X246.5Y-176.2
X246.5Y-225.8
X246.5Y-228.2
X247.5Y-69.8
X247.5Y-72.2
X247.5Y-121.8
X247.5Y-124.2
X247.5Y-173.8
X247.5Y-176.2
X247.5Y-225.8
X247.5Y-228.2
X248.5Y-69.8
X248.5Y-72.2
X248.5Y-121.8
X248.5Y-124.2
X248.5Y-173.8
X248.5Y-176.2
X248.5Y-225.8
X248.5Y-228.2
X249.5Y-69.8
X249.5Y-72.2
X249.5Y-121.8
X249.5Y-124.2
X249.5Y-173.8
X249.5Y-176.2
X249.5Y-225.8
X249.5Y-228.2
X250.5Y-69.8
X250.5Y-72.2
X250.5Y-121.8
X250.5Y-124.2
X250.5Y-173.8
X250.5Y-176.2
X250.5Y-225.8
X250.5Y-228.2
X251.5Y-69.8
X251.5Y-72.2
X251.5Y-121.8
X251.5Y-124.2
X251.5Y-173.8
X251.5Y-176.2
X251.5Y-225.8
X251.5Y-228.2
X270.0Y-69.8
X270.0Y-72.2
X270.0Y-121.8
X270.0Y-124.2
X270.0Y-173.8
X270.0Y-176.2
X270.0Y-225.8
X270.0Y-228.2
X271.0Y-69.8
X271.0Y-72.2
X271.0Y-121.8
X271.0Y-124.2
X271.0Y-173.8
X271.0Y-176.2
X271.0Y-225.8
X271.0Y-228.2
X272.0Y-69.8
X272.0Y-72.2
X272.0Y-121.8
X272.0Y-124.2
X272.0Y-173.8
X272.0Y-176.2
X272.0Y-225.8
X272.0Y-228.2
X273.0Y-69.8
X273.0Y-72.2
X273.0Y-121.8
X273.0Y-124.2
X273.0Y-173.8
X273.0Y-176.2
X273.0Y-225.8
X273.0Y-228.2
X274.0Y-69.8
X274.0Y-72.2
X274.0Y-121.8
X274.0Y-124.2
X274.0Y-173.8
X274.0Y-176.2
X274.0Y-225.8
X274.0Y-228.2
X275.0Y-69.8
X275.0Y-72.2
X275.0Y-121.8
X275.0Y-124.2
X275.0Y-173.8
X275.0Y-176.2
X275.0Y-225.8
X275.0Y-228.2
X276.0Y-69.8
X276.0Y-72.2
X276.0Y-121.8
X276.0Y-124.2
X276.0Y-173.8
X276.0Y-176.2
X276.0Y-225.8
X276.0Y-228.2
T0
M30
