%TF.GenerationSoftware,KiCad,Pcbnew,7.0.1-3b83917a11~171~ubuntu20.04.1*%
%TF.CreationDate,2023-10-27T13:40:09+02:00*%
%TF.ProjectId,panel_bottom,70616e65-6c5f-4626-9f74-746f6d2e6b69,rev?*%
%TF.SameCoordinates,PX1ab3f0PY1312d00*%
%TF.FileFunction,Soldermask,Top*%
%TF.FilePolarity,Negative*%
%FSLAX46Y46*%
G04 Gerber Fmt 4.6, Leading zero omitted, Abs format (unit mm)*
G04 Created by KiCad (PCBNEW 7.0.1-3b83917a11~171~ubuntu20.04.1) date 2023-10-27 13:40:09*
%MOMM*%
%LPD*%
G01*
G04 APERTURE LIST*
G04 Aperture macros list*
%AMRoundRect*
0 Rectangle with rounded corners*
0 $1 Rounding radius*
0 $2 $3 $4 $5 $6 $7 $8 $9 X,Y pos of 4 corners*
0 Add a 4 corners polygon primitive as box body*
4,1,4,$2,$3,$4,$5,$6,$7,$8,$9,$2,$3,0*
0 Add four circle primitives for the rounded corners*
1,1,$1+$1,$2,$3*
1,1,$1+$1,$4,$5*
1,1,$1+$1,$6,$7*
1,1,$1+$1,$8,$9*
0 Add four rect primitives between the rounded corners*
20,1,$1+$1,$2,$3,$4,$5,0*
20,1,$1+$1,$4,$5,$6,$7,0*
20,1,$1+$1,$6,$7,$8,$9,0*
20,1,$1+$1,$8,$9,$2,$3,0*%
G04 Aperture macros list end*
%ADD10C,0.500000*%
%ADD11RoundRect,0.243750X0.456250X-0.243750X0.456250X0.243750X-0.456250X0.243750X-0.456250X-0.243750X0*%
%ADD12RoundRect,0.250000X0.850000X-0.375000X0.850000X0.375000X-0.850000X0.375000X-0.850000X-0.375000X0*%
%ADD13RoundRect,0.243750X-0.243750X-0.456250X0.243750X-0.456250X0.243750X0.456250X-0.243750X0.456250X0*%
%ADD14RoundRect,0.150000X0.150000X-0.587500X0.150000X0.587500X-0.150000X0.587500X-0.150000X-0.587500X0*%
%ADD15R,1.700000X1.700000*%
%ADD16RoundRect,0.243750X0.243750X0.456250X-0.243750X0.456250X-0.243750X-0.456250X0.243750X-0.456250X0*%
%ADD17RoundRect,0.243750X-0.456250X0.243750X-0.456250X-0.243750X0.456250X-0.243750X0.456250X0.243750X0*%
%ADD18RoundRect,0.200000X0.275000X-0.200000X0.275000X0.200000X-0.275000X0.200000X-0.275000X-0.200000X0*%
%ADD19R,2.100000X2.100000*%
%ADD20C,2.100000*%
%ADD21RoundRect,0.200000X0.200000X0.275000X-0.200000X0.275000X-0.200000X-0.275000X0.200000X-0.275000X0*%
%ADD22RoundRect,0.250000X-0.475000X0.250000X-0.475000X-0.250000X0.475000X-0.250000X0.475000X0.250000X0*%
%ADD23R,1.000000X0.750000*%
%ADD24RoundRect,0.200000X-0.275000X0.200000X-0.275000X-0.200000X0.275000X-0.200000X0.275000X0.200000X0*%
%ADD25RoundRect,0.250000X0.375000X0.850000X-0.375000X0.850000X-0.375000X-0.850000X0.375000X-0.850000X0*%
%ADD26RoundRect,0.137500X-0.662500X-0.137500X0.662500X-0.137500X0.662500X0.137500X-0.662500X0.137500X0*%
%ADD27RoundRect,0.150000X0.587500X0.150000X-0.587500X0.150000X-0.587500X-0.150000X0.587500X-0.150000X0*%
%ADD28RoundRect,0.200000X-0.200000X-0.275000X0.200000X-0.275000X0.200000X0.275000X-0.200000X0.275000X0*%
%ADD29R,1.000000X1.000000*%
%ADD30O,1.000000X1.000000*%
G04 APERTURE END LIST*
D10*
%TO.C,KiKit_MB_7_1*%
X113600000Y-45800000D03*
%TD*%
%TO.C,KiKit_MB_2_3*%
X96300000Y-35000000D03*
%TD*%
%TO.C,KiKit_MB_37_3*%
X13100000Y-96200000D03*
%TD*%
D11*
%TO.C,D21*%
X60592000Y-20695500D03*
X60592000Y-18820500D03*
%TD*%
%TO.C,D21*%
X159092000Y-20695500D03*
X159092000Y-18820500D03*
%TD*%
%TO.C,D21*%
X257592000Y-20695500D03*
X257592000Y-18820500D03*
%TD*%
%TO.C,D21*%
X60592000Y-68695500D03*
X60592000Y-66820500D03*
%TD*%
%TO.C,D21*%
X159092000Y-68695500D03*
X159092000Y-66820500D03*
%TD*%
%TO.C,D21*%
X257592000Y-68695500D03*
X257592000Y-66820500D03*
%TD*%
%TO.C,D21*%
X60592000Y-116695500D03*
X60592000Y-114820500D03*
%TD*%
%TO.C,D21*%
X159092000Y-116695500D03*
X159092000Y-114820500D03*
%TD*%
%TO.C,D21*%
X257592000Y-116695500D03*
X257592000Y-114820500D03*
%TD*%
D10*
%TO.C,KiKit_MB_1_5*%
X96300000Y-12200000D03*
%TD*%
D12*
%TO.C,L2*%
X283154000Y-84811000D03*
X283154000Y-82661000D03*
%TD*%
%TO.C,L2*%
X86154000Y-132811000D03*
X86154000Y-130661000D03*
%TD*%
%TO.C,L2*%
X184654000Y-132811000D03*
X184654000Y-130661000D03*
%TD*%
%TO.C,L2*%
X283154000Y-132811000D03*
X283154000Y-130661000D03*
%TD*%
%TO.C,L2*%
X86154000Y-36811000D03*
X86154000Y-34661000D03*
%TD*%
%TO.C,L2*%
X184654000Y-36811000D03*
X184654000Y-34661000D03*
%TD*%
%TO.C,L2*%
X283154000Y-36811000D03*
X283154000Y-34661000D03*
%TD*%
%TO.C,L2*%
X86154000Y-84811000D03*
X86154000Y-82661000D03*
%TD*%
%TO.C,L2*%
X184654000Y-84811000D03*
X184654000Y-82661000D03*
%TD*%
D10*
%TO.C,KiKit_MB_9_3*%
X98700000Y-10600000D03*
%TD*%
%TO.C,KiKit_MB_23_3*%
X111600000Y-93800000D03*
%TD*%
%TO.C,KiKit_MB_29_5*%
X208100000Y-93800000D03*
%TD*%
%TO.C,KiKit_MB_20_4*%
X83100000Y-48200000D03*
%TD*%
%TO.C,KiKit_MB_46_3*%
X210100000Y-96200000D03*
%TD*%
%TO.C,KiKit_MB_44_3*%
X98700000Y-131000000D03*
%TD*%
%TO.C,KiKit_MB_8_5*%
X178600000Y-45800000D03*
%TD*%
%TO.C,KiKit_MB_8_3*%
X180600000Y-45800000D03*
%TD*%
%TO.C,KiKit_MB_32_3*%
X210100000Y-48200000D03*
%TD*%
%TO.C,KiKit_MB_32_1*%
X208100000Y-48200000D03*
%TD*%
%TO.C,KiKit_MB_45_1*%
X197200000Y-108600000D03*
%TD*%
%TO.C,KiKit_MB_27_5*%
X182600000Y-48200000D03*
%TD*%
%TO.C,KiKit_MB_25_3*%
X98700000Y-58600000D03*
%TD*%
D13*
%TO.C,D22*%
X91834000Y-34998000D03*
X93709000Y-34998000D03*
%TD*%
%TO.C,D22*%
X190334000Y-34998000D03*
X192209000Y-34998000D03*
%TD*%
%TO.C,D22*%
X288834000Y-34998000D03*
X290709000Y-34998000D03*
%TD*%
%TO.C,D22*%
X91834000Y-82998000D03*
X93709000Y-82998000D03*
%TD*%
%TO.C,D22*%
X190334000Y-82998000D03*
X192209000Y-82998000D03*
%TD*%
%TO.C,D22*%
X288834000Y-82998000D03*
X290709000Y-82998000D03*
%TD*%
%TO.C,D22*%
X91834000Y-130998000D03*
X93709000Y-130998000D03*
%TD*%
%TO.C,D22*%
X190334000Y-130998000D03*
X192209000Y-130998000D03*
%TD*%
%TO.C,D22*%
X288834000Y-130998000D03*
X290709000Y-130998000D03*
%TD*%
D10*
%TO.C,KiKit_MB_34_5*%
X197200000Y-81000000D03*
%TD*%
%TO.C,KiKit_MB_31_2*%
X197200000Y-59600000D03*
%TD*%
%TO.C,KiKit_MB_5_4*%
X194800000Y-11200000D03*
%TD*%
D12*
%TO.C,L5*%
X42100000Y-32350000D03*
X42100000Y-30200000D03*
%TD*%
%TO.C,L5*%
X140600000Y-32350000D03*
X140600000Y-30200000D03*
%TD*%
%TO.C,L5*%
X239100000Y-32350000D03*
X239100000Y-30200000D03*
%TD*%
%TO.C,L5*%
X42100000Y-80350000D03*
X42100000Y-78200000D03*
%TD*%
%TO.C,L5*%
X140600000Y-80350000D03*
X140600000Y-78200000D03*
%TD*%
%TO.C,L5*%
X239100000Y-80350000D03*
X239100000Y-78200000D03*
%TD*%
%TO.C,L5*%
X42100000Y-128350000D03*
X42100000Y-126200000D03*
%TD*%
%TO.C,L5*%
X140600000Y-128350000D03*
X140600000Y-126200000D03*
%TD*%
%TO.C,L5*%
X239100000Y-128350000D03*
X239100000Y-126200000D03*
%TD*%
D10*
%TO.C,KiKit_MB_37_4*%
X14100000Y-96200000D03*
%TD*%
%TO.C,KiKit_MB_16_2*%
X96300000Y-82000000D03*
%TD*%
D14*
%TO.C,Q2*%
X41100000Y-39275000D03*
X43000000Y-39275000D03*
X42050000Y-37400000D03*
%TD*%
%TO.C,Q2*%
X139600000Y-39275000D03*
X141500000Y-39275000D03*
X140550000Y-37400000D03*
%TD*%
%TO.C,Q2*%
X238100000Y-39275000D03*
X240000000Y-39275000D03*
X239050000Y-37400000D03*
%TD*%
%TO.C,Q2*%
X41100000Y-87275000D03*
X43000000Y-87275000D03*
X42050000Y-85400000D03*
%TD*%
%TO.C,Q2*%
X139600000Y-87275000D03*
X141500000Y-87275000D03*
X140550000Y-85400000D03*
%TD*%
%TO.C,Q2*%
X238100000Y-87275000D03*
X240000000Y-87275000D03*
X239050000Y-85400000D03*
%TD*%
%TO.C,Q2*%
X41100000Y-135275000D03*
X43000000Y-135275000D03*
X42050000Y-133400000D03*
%TD*%
%TO.C,Q2*%
X139600000Y-135275000D03*
X141500000Y-135275000D03*
X140550000Y-133400000D03*
%TD*%
%TO.C,Q2*%
X238100000Y-135275000D03*
X240000000Y-135275000D03*
X239050000Y-133400000D03*
%TD*%
D10*
%TO.C,KiKit_MB_7_5*%
X109600000Y-45800000D03*
%TD*%
%TO.C,KiKit_MB_3_1*%
X15100000Y-45800000D03*
%TD*%
%TO.C,KiKit_MB_22_3*%
X194800000Y-83000000D03*
%TD*%
%TO.C,KiKit_MB_8_1*%
X182600000Y-45800000D03*
%TD*%
%TO.C,KiKit_MB_42_4*%
X112600000Y-96200000D03*
%TD*%
%TO.C,KiKit_MB_39_1*%
X194800000Y-104200000D03*
%TD*%
%TO.C,KiKit_MB_33_5*%
X281100000Y-48200000D03*
%TD*%
%TO.C,KiKit_MB_27_1*%
X178600000Y-48200000D03*
%TD*%
D15*
%TO.C,J3*%
X13100000Y-2000000D03*
%TD*%
%TO.C,J3*%
X111600000Y-2000000D03*
%TD*%
%TO.C,J3*%
X210100000Y-2000000D03*
%TD*%
%TO.C,J3*%
X13100000Y-50000000D03*
%TD*%
%TO.C,J3*%
X111600000Y-50000000D03*
%TD*%
%TO.C,J3*%
X210100000Y-50000000D03*
%TD*%
%TO.C,J3*%
X13100000Y-98000000D03*
%TD*%
%TO.C,J3*%
X111600000Y-98000000D03*
%TD*%
%TO.C,J3*%
X210100000Y-98000000D03*
%TD*%
D13*
%TO.C,D5*%
X16562500Y-30000000D03*
X18437500Y-30000000D03*
%TD*%
%TO.C,D5*%
X115062500Y-30000000D03*
X116937500Y-30000000D03*
%TD*%
%TO.C,D5*%
X213562500Y-30000000D03*
X215437500Y-30000000D03*
%TD*%
%TO.C,D5*%
X16562500Y-78000000D03*
X18437500Y-78000000D03*
%TD*%
%TO.C,D5*%
X115062500Y-78000000D03*
X116937500Y-78000000D03*
%TD*%
%TO.C,D5*%
X213562500Y-78000000D03*
X215437500Y-78000000D03*
%TD*%
%TO.C,D5*%
X16562500Y-126000000D03*
X18437500Y-126000000D03*
%TD*%
%TO.C,D5*%
X115062500Y-126000000D03*
X116937500Y-126000000D03*
%TD*%
%TO.C,D5*%
X213562500Y-126000000D03*
X215437500Y-126000000D03*
%TD*%
D10*
%TO.C,KiKit_MB_34_4*%
X197200000Y-82000000D03*
%TD*%
D15*
%TO.C,J2*%
X30500000Y-3000000D03*
%TD*%
%TO.C,J2*%
X129000000Y-3000000D03*
%TD*%
%TO.C,J2*%
X227500000Y-3000000D03*
%TD*%
%TO.C,J2*%
X30500000Y-51000000D03*
%TD*%
%TO.C,J2*%
X129000000Y-51000000D03*
%TD*%
%TO.C,J2*%
X227500000Y-51000000D03*
%TD*%
%TO.C,J2*%
X30500000Y-99000000D03*
%TD*%
%TO.C,J2*%
X129000000Y-99000000D03*
%TD*%
%TO.C,J2*%
X227500000Y-99000000D03*
%TD*%
D10*
%TO.C,KiKit_MB_24_4*%
X179600000Y-93800000D03*
%TD*%
%TO.C,KiKit_MB_8_4*%
X179600000Y-45800000D03*
%TD*%
%TO.C,KiKit_MB_20_1*%
X80100000Y-48200000D03*
%TD*%
%TO.C,KiKit_MB_28_3*%
X98700000Y-83000000D03*
%TD*%
%TO.C,KiKit_MB_43_4*%
X181600000Y-96200000D03*
%TD*%
%TO.C,KiKit_MB_27_2*%
X179600000Y-48200000D03*
%TD*%
D16*
%TO.C,D13*%
X35437500Y-35000000D03*
X33562500Y-35000000D03*
%TD*%
%TO.C,D13*%
X133937500Y-35000000D03*
X132062500Y-35000000D03*
%TD*%
%TO.C,D13*%
X232437500Y-35000000D03*
X230562500Y-35000000D03*
%TD*%
%TO.C,D13*%
X35437500Y-83000000D03*
X33562500Y-83000000D03*
%TD*%
%TO.C,D13*%
X133937500Y-83000000D03*
X132062500Y-83000000D03*
%TD*%
%TO.C,D13*%
X232437500Y-83000000D03*
X230562500Y-83000000D03*
%TD*%
%TO.C,D13*%
X35437500Y-131000000D03*
X33562500Y-131000000D03*
%TD*%
%TO.C,D13*%
X133937500Y-131000000D03*
X132062500Y-131000000D03*
%TD*%
%TO.C,D13*%
X232437500Y-131000000D03*
X230562500Y-131000000D03*
%TD*%
D10*
%TO.C,KiKit_MB_7_3*%
X111600000Y-45800000D03*
%TD*%
D11*
%TO.C,D26*%
X78626000Y-21711500D03*
X78626000Y-19836500D03*
%TD*%
%TO.C,D26*%
X177126000Y-21711500D03*
X177126000Y-19836500D03*
%TD*%
%TO.C,D26*%
X275626000Y-21711500D03*
X275626000Y-19836500D03*
%TD*%
%TO.C,D26*%
X78626000Y-69711500D03*
X78626000Y-67836500D03*
%TD*%
%TO.C,D26*%
X177126000Y-69711500D03*
X177126000Y-67836500D03*
%TD*%
%TO.C,D26*%
X275626000Y-69711500D03*
X275626000Y-67836500D03*
%TD*%
%TO.C,D26*%
X78626000Y-117711500D03*
X78626000Y-115836500D03*
%TD*%
%TO.C,D26*%
X177126000Y-117711500D03*
X177126000Y-115836500D03*
%TD*%
%TO.C,D26*%
X275626000Y-117711500D03*
X275626000Y-115836500D03*
%TD*%
D10*
%TO.C,KiKit_MB_15_1*%
X96300000Y-56200000D03*
%TD*%
%TO.C,KiKit_MB_47_4*%
X280100000Y-96200000D03*
%TD*%
%TO.C,KiKit_MB_19_5*%
X15100000Y-48200000D03*
%TD*%
%TO.C,KiKit_MB_45_5*%
X197200000Y-104600000D03*
%TD*%
D13*
%TO.C,D1*%
X16562500Y-12000000D03*
X18437500Y-12000000D03*
%TD*%
%TO.C,D1*%
X115062500Y-12000000D03*
X116937500Y-12000000D03*
%TD*%
%TO.C,D1*%
X213562500Y-12000000D03*
X215437500Y-12000000D03*
%TD*%
%TO.C,D1*%
X16562500Y-60000000D03*
X18437500Y-60000000D03*
%TD*%
%TO.C,D1*%
X115062500Y-60000000D03*
X116937500Y-60000000D03*
%TD*%
%TO.C,D1*%
X213562500Y-60000000D03*
X215437500Y-60000000D03*
%TD*%
%TO.C,D1*%
X16562500Y-108000000D03*
X18437500Y-108000000D03*
%TD*%
%TO.C,D1*%
X115062500Y-108000000D03*
X116937500Y-108000000D03*
%TD*%
%TO.C,D1*%
X213562500Y-108000000D03*
X215437500Y-108000000D03*
%TD*%
D10*
%TO.C,KiKit_MB_14_4*%
X197200000Y-34000000D03*
%TD*%
%TO.C,KiKit_MB_47_2*%
X278100000Y-96200000D03*
%TD*%
%TO.C,KiKit_MB_10_2*%
X98700000Y-36000000D03*
%TD*%
%TO.C,KiKit_MB_47_5*%
X281100000Y-96200000D03*
%TD*%
D17*
%TO.C,D2*%
X10500000Y-16062500D03*
X10500000Y-17937500D03*
%TD*%
%TO.C,D2*%
X109000000Y-16062500D03*
X109000000Y-17937500D03*
%TD*%
%TO.C,D2*%
X207500000Y-16062500D03*
X207500000Y-17937500D03*
%TD*%
%TO.C,D2*%
X10500000Y-64062500D03*
X10500000Y-65937500D03*
%TD*%
%TO.C,D2*%
X109000000Y-64062500D03*
X109000000Y-65937500D03*
%TD*%
%TO.C,D2*%
X207500000Y-64062500D03*
X207500000Y-65937500D03*
%TD*%
%TO.C,D2*%
X10500000Y-112062500D03*
X10500000Y-113937500D03*
%TD*%
%TO.C,D2*%
X109000000Y-112062500D03*
X109000000Y-113937500D03*
%TD*%
%TO.C,D2*%
X207500000Y-112062500D03*
X207500000Y-113937500D03*
%TD*%
D10*
%TO.C,KiKit_MB_25_1*%
X98700000Y-60600000D03*
%TD*%
%TO.C,KiKit_MB_41_1*%
X98700000Y-108600000D03*
%TD*%
%TO.C,KiKit_MB_13_2*%
X197200000Y-11600000D03*
%TD*%
%TO.C,KiKit_MB_6_1*%
X194800000Y-33000000D03*
%TD*%
%TO.C,KiKit_MB_35_3*%
X96300000Y-106200000D03*
%TD*%
D18*
%TO.C,R8*%
X55300000Y-18450000D03*
X55300000Y-16800000D03*
%TD*%
%TO.C,R8*%
X153800000Y-18450000D03*
X153800000Y-16800000D03*
%TD*%
%TO.C,R8*%
X252300000Y-18450000D03*
X252300000Y-16800000D03*
%TD*%
%TO.C,R8*%
X55300000Y-66450000D03*
X55300000Y-64800000D03*
%TD*%
%TO.C,R8*%
X153800000Y-66450000D03*
X153800000Y-64800000D03*
%TD*%
%TO.C,R8*%
X252300000Y-66450000D03*
X252300000Y-64800000D03*
%TD*%
%TO.C,R8*%
X55300000Y-114450000D03*
X55300000Y-112800000D03*
%TD*%
%TO.C,R8*%
X153800000Y-114450000D03*
X153800000Y-112800000D03*
%TD*%
%TO.C,R8*%
X252300000Y-114450000D03*
X252300000Y-112800000D03*
%TD*%
D10*
%TO.C,KiKit_MB_30_2*%
X280100000Y-93800000D03*
%TD*%
%TO.C,KiKit_MB_5_2*%
X194800000Y-9200000D03*
%TD*%
%TO.C,KiKit_MB_17_4*%
X12100000Y-93800000D03*
%TD*%
D13*
%TO.C,D10*%
X37562500Y-30000000D03*
X39437500Y-30000000D03*
%TD*%
%TO.C,D10*%
X136062500Y-30000000D03*
X137937500Y-30000000D03*
%TD*%
%TO.C,D10*%
X234562500Y-30000000D03*
X236437500Y-30000000D03*
%TD*%
%TO.C,D10*%
X37562500Y-78000000D03*
X39437500Y-78000000D03*
%TD*%
%TO.C,D10*%
X136062500Y-78000000D03*
X137937500Y-78000000D03*
%TD*%
%TO.C,D10*%
X234562500Y-78000000D03*
X236437500Y-78000000D03*
%TD*%
%TO.C,D10*%
X37562500Y-126000000D03*
X39437500Y-126000000D03*
%TD*%
%TO.C,D10*%
X136062500Y-126000000D03*
X137937500Y-126000000D03*
%TD*%
%TO.C,D10*%
X234562500Y-126000000D03*
X236437500Y-126000000D03*
%TD*%
D15*
%TO.C,J8*%
X13000000Y-44000000D03*
%TD*%
%TO.C,J8*%
X111500000Y-44000000D03*
%TD*%
%TO.C,J8*%
X210000000Y-44000000D03*
%TD*%
%TO.C,J8*%
X13000000Y-92000000D03*
%TD*%
%TO.C,J8*%
X111500000Y-92000000D03*
%TD*%
%TO.C,J8*%
X210000000Y-92000000D03*
%TD*%
%TO.C,J8*%
X13000000Y-140000000D03*
%TD*%
%TO.C,J8*%
X111500000Y-140000000D03*
%TD*%
%TO.C,J8*%
X210000000Y-140000000D03*
%TD*%
D10*
%TO.C,KiKit_MB_48_3*%
X197200000Y-131000000D03*
%TD*%
%TO.C,KiKit_MB_13_5*%
X197200000Y-8600000D03*
%TD*%
%TO.C,KiKit_MB_41_3*%
X98700000Y-106600000D03*
%TD*%
%TO.C,KiKit_MB_46_4*%
X211100000Y-96200000D03*
%TD*%
%TO.C,KiKit_MB_11_3*%
X210100000Y-45800000D03*
%TD*%
%TO.C,KiKit_MB_45_2*%
X197200000Y-107600000D03*
%TD*%
%TO.C,KiKit_MB_28_5*%
X98700000Y-81000000D03*
%TD*%
%TO.C,KiKit_MB_31_5*%
X197200000Y-56600000D03*
%TD*%
%TO.C,KiKit_MB_26_1*%
X109600000Y-48200000D03*
%TD*%
%TO.C,KiKit_MB_40_5*%
X194800000Y-133000000D03*
%TD*%
%TO.C,KiKit_MB_43_3*%
X180600000Y-96200000D03*
%TD*%
%TO.C,KiKit_MB_22_1*%
X194800000Y-81000000D03*
%TD*%
%TO.C,KiKit_MB_37_5*%
X15100000Y-96200000D03*
%TD*%
%TO.C,KiKit_MB_18_5*%
X80100000Y-93800000D03*
%TD*%
D19*
%TO.C,BT1*%
X7531400Y-23618800D03*
D20*
X27531400Y-23618800D03*
%TD*%
D19*
%TO.C,BT1*%
X106031400Y-23618800D03*
D20*
X126031400Y-23618800D03*
%TD*%
D19*
%TO.C,BT1*%
X204531400Y-23618800D03*
D20*
X224531400Y-23618800D03*
%TD*%
D19*
%TO.C,BT1*%
X7531400Y-71618800D03*
D20*
X27531400Y-71618800D03*
%TD*%
D19*
%TO.C,BT1*%
X106031400Y-71618800D03*
D20*
X126031400Y-71618800D03*
%TD*%
D19*
%TO.C,BT1*%
X204531400Y-71618800D03*
D20*
X224531400Y-71618800D03*
%TD*%
D19*
%TO.C,BT1*%
X7531400Y-119618800D03*
D20*
X27531400Y-119618800D03*
%TD*%
D19*
%TO.C,BT1*%
X106031400Y-119618800D03*
D20*
X126031400Y-119618800D03*
%TD*%
D19*
%TO.C,BT1*%
X204531400Y-119618800D03*
D20*
X224531400Y-119618800D03*
%TD*%
D10*
%TO.C,KiKit_MB_11_4*%
X209100000Y-45800000D03*
%TD*%
%TO.C,KiKit_MB_10_3*%
X98700000Y-35000000D03*
%TD*%
%TO.C,KiKit_MB_39_3*%
X194800000Y-106200000D03*
%TD*%
D21*
%TO.C,R12*%
X92700000Y-38600000D03*
X91050000Y-38600000D03*
%TD*%
%TO.C,R12*%
X191200000Y-38600000D03*
X189550000Y-38600000D03*
%TD*%
%TO.C,R12*%
X289700000Y-38600000D03*
X288050000Y-38600000D03*
%TD*%
%TO.C,R12*%
X92700000Y-86600000D03*
X91050000Y-86600000D03*
%TD*%
%TO.C,R12*%
X191200000Y-86600000D03*
X189550000Y-86600000D03*
%TD*%
%TO.C,R12*%
X289700000Y-86600000D03*
X288050000Y-86600000D03*
%TD*%
%TO.C,R12*%
X92700000Y-134600000D03*
X91050000Y-134600000D03*
%TD*%
%TO.C,R12*%
X191200000Y-134600000D03*
X189550000Y-134600000D03*
%TD*%
%TO.C,R12*%
X289700000Y-134600000D03*
X288050000Y-134600000D03*
%TD*%
D10*
%TO.C,KiKit_MB_37_1*%
X11100000Y-96200000D03*
%TD*%
D13*
%TO.C,D15*%
X59654500Y-9090000D03*
X61529500Y-9090000D03*
%TD*%
%TO.C,D15*%
X158154500Y-9090000D03*
X160029500Y-9090000D03*
%TD*%
%TO.C,D15*%
X256654500Y-9090000D03*
X258529500Y-9090000D03*
%TD*%
%TO.C,D15*%
X59654500Y-57090000D03*
X61529500Y-57090000D03*
%TD*%
%TO.C,D15*%
X158154500Y-57090000D03*
X160029500Y-57090000D03*
%TD*%
%TO.C,D15*%
X256654500Y-57090000D03*
X258529500Y-57090000D03*
%TD*%
%TO.C,D15*%
X59654500Y-105090000D03*
X61529500Y-105090000D03*
%TD*%
%TO.C,D15*%
X158154500Y-105090000D03*
X160029500Y-105090000D03*
%TD*%
%TO.C,D15*%
X256654500Y-105090000D03*
X258529500Y-105090000D03*
%TD*%
D10*
%TO.C,KiKit_MB_19_1*%
X11100000Y-48200000D03*
%TD*%
%TO.C,KiKit_MB_18_1*%
X84100000Y-93800000D03*
%TD*%
%TO.C,KiKit_MB_46_5*%
X212100000Y-96200000D03*
%TD*%
D13*
%TO.C,D14*%
X51562500Y-35000000D03*
X53437500Y-35000000D03*
%TD*%
%TO.C,D14*%
X150062500Y-35000000D03*
X151937500Y-35000000D03*
%TD*%
%TO.C,D14*%
X248562500Y-35000000D03*
X250437500Y-35000000D03*
%TD*%
%TO.C,D14*%
X51562500Y-83000000D03*
X53437500Y-83000000D03*
%TD*%
%TO.C,D14*%
X150062500Y-83000000D03*
X151937500Y-83000000D03*
%TD*%
%TO.C,D14*%
X248562500Y-83000000D03*
X250437500Y-83000000D03*
%TD*%
%TO.C,D14*%
X51562500Y-131000000D03*
X53437500Y-131000000D03*
%TD*%
%TO.C,D14*%
X150062500Y-131000000D03*
X151937500Y-131000000D03*
%TD*%
%TO.C,D14*%
X248562500Y-131000000D03*
X250437500Y-131000000D03*
%TD*%
D10*
%TO.C,KiKit_MB_3_4*%
X12100000Y-45800000D03*
%TD*%
%TO.C,KiKit_MB_13_4*%
X197200000Y-9600000D03*
%TD*%
%TO.C,KiKit_MB_28_4*%
X98700000Y-82000000D03*
%TD*%
D22*
%TO.C,C3*%
X207808000Y-119600000D03*
X207808000Y-121500000D03*
%TD*%
%TO.C,C3*%
X10808000Y-23600000D03*
X10808000Y-25500000D03*
%TD*%
%TO.C,C3*%
X109308000Y-23600000D03*
X109308000Y-25500000D03*
%TD*%
%TO.C,C3*%
X207808000Y-23600000D03*
X207808000Y-25500000D03*
%TD*%
%TO.C,C3*%
X10808000Y-71600000D03*
X10808000Y-73500000D03*
%TD*%
%TO.C,C3*%
X109308000Y-71600000D03*
X109308000Y-73500000D03*
%TD*%
%TO.C,C3*%
X207808000Y-71600000D03*
X207808000Y-73500000D03*
%TD*%
%TO.C,C3*%
X10808000Y-119600000D03*
X10808000Y-121500000D03*
%TD*%
%TO.C,C3*%
X109308000Y-119600000D03*
X109308000Y-121500000D03*
%TD*%
D10*
%TO.C,KiKit_MB_20_5*%
X84100000Y-48200000D03*
%TD*%
%TO.C,KiKit_MB_14_2*%
X197200000Y-36000000D03*
%TD*%
%TO.C,KiKit_MB_22_5*%
X194800000Y-85000000D03*
%TD*%
D13*
%TO.C,D11*%
X15666500Y-35002000D03*
X17437500Y-35000000D03*
%TD*%
%TO.C,D11*%
X114166500Y-35002000D03*
X115937500Y-35000000D03*
%TD*%
%TO.C,D11*%
X212666500Y-35002000D03*
X214437500Y-35000000D03*
%TD*%
%TO.C,D11*%
X15666500Y-83002000D03*
X17437500Y-83000000D03*
%TD*%
%TO.C,D11*%
X114166500Y-83002000D03*
X115937500Y-83000000D03*
%TD*%
%TO.C,D11*%
X212666500Y-83002000D03*
X214437500Y-83000000D03*
%TD*%
%TO.C,D11*%
X15666500Y-131002000D03*
X17437500Y-131000000D03*
%TD*%
%TO.C,D11*%
X114166500Y-131002000D03*
X115937500Y-131000000D03*
%TD*%
%TO.C,D11*%
X212666500Y-131002000D03*
X214437500Y-131000000D03*
%TD*%
D10*
%TO.C,KiKit_MB_40_4*%
X194800000Y-132000000D03*
%TD*%
%TO.C,KiKit_MB_37_2*%
X12100000Y-96200000D03*
%TD*%
%TO.C,KiKit_MB_44_2*%
X98700000Y-132000000D03*
%TD*%
%TO.C,KiKit_MB_40_2*%
X194800000Y-130000000D03*
%TD*%
%TO.C,KiKit_MB_17_1*%
X15100000Y-93800000D03*
%TD*%
%TO.C,KiKit_MB_21_2*%
X194800000Y-57200000D03*
%TD*%
%TO.C,KiKit_MB_36_3*%
X96300000Y-131000000D03*
%TD*%
%TO.C,KiKit_MB_29_3*%
X210100000Y-93800000D03*
%TD*%
%TO.C,KiKit_MB_35_4*%
X96300000Y-107200000D03*
%TD*%
%TO.C,KiKit_MB_38_2*%
X81100000Y-96200000D03*
%TD*%
%TO.C,KiKit_MB_44_5*%
X98700000Y-129000000D03*
%TD*%
%TO.C,KiKit_MB_4_4*%
X81100000Y-45800000D03*
%TD*%
%TO.C,KiKit_MB_17_3*%
X13100000Y-93800000D03*
%TD*%
%TO.C,KiKit_MB_15_2*%
X96300000Y-57200000D03*
%TD*%
D23*
%TO.C,SW1*%
X10450000Y-36825000D03*
X4450000Y-36825000D03*
X10450000Y-33075000D03*
X4450000Y-33075000D03*
%TD*%
%TO.C,SW1*%
X108950000Y-36825000D03*
X102950000Y-36825000D03*
X108950000Y-33075000D03*
X102950000Y-33075000D03*
%TD*%
%TO.C,SW1*%
X207450000Y-36825000D03*
X201450000Y-36825000D03*
X207450000Y-33075000D03*
X201450000Y-33075000D03*
%TD*%
%TO.C,SW1*%
X10450000Y-84825000D03*
X4450000Y-84825000D03*
X10450000Y-81075000D03*
X4450000Y-81075000D03*
%TD*%
%TO.C,SW1*%
X108950000Y-84825000D03*
X102950000Y-84825000D03*
X108950000Y-81075000D03*
X102950000Y-81075000D03*
%TD*%
%TO.C,SW1*%
X207450000Y-84825000D03*
X201450000Y-84825000D03*
X207450000Y-81075000D03*
X201450000Y-81075000D03*
%TD*%
%TO.C,SW1*%
X10450000Y-132825000D03*
X4450000Y-132825000D03*
X10450000Y-129075000D03*
X4450000Y-129075000D03*
%TD*%
%TO.C,SW1*%
X108950000Y-132825000D03*
X102950000Y-132825000D03*
X108950000Y-129075000D03*
X102950000Y-129075000D03*
%TD*%
%TO.C,SW1*%
X207450000Y-132825000D03*
X201450000Y-132825000D03*
X207450000Y-129075000D03*
X201450000Y-129075000D03*
%TD*%
D14*
%TO.C,Q3*%
X64214000Y-28315500D03*
X66114000Y-28315500D03*
X65164000Y-26440500D03*
%TD*%
%TO.C,Q3*%
X162714000Y-28315500D03*
X164614000Y-28315500D03*
X163664000Y-26440500D03*
%TD*%
%TO.C,Q3*%
X261214000Y-28315500D03*
X263114000Y-28315500D03*
X262164000Y-26440500D03*
%TD*%
%TO.C,Q3*%
X64214000Y-76315500D03*
X66114000Y-76315500D03*
X65164000Y-74440500D03*
%TD*%
%TO.C,Q3*%
X162714000Y-76315500D03*
X164614000Y-76315500D03*
X163664000Y-74440500D03*
%TD*%
%TO.C,Q3*%
X261214000Y-76315500D03*
X263114000Y-76315500D03*
X262164000Y-74440500D03*
%TD*%
%TO.C,Q3*%
X64214000Y-124315500D03*
X66114000Y-124315500D03*
X65164000Y-122440500D03*
%TD*%
%TO.C,Q3*%
X162714000Y-124315500D03*
X164614000Y-124315500D03*
X163664000Y-122440500D03*
%TD*%
%TO.C,Q3*%
X261214000Y-124315500D03*
X263114000Y-124315500D03*
X262164000Y-122440500D03*
%TD*%
D10*
%TO.C,KiKit_MB_38_5*%
X84100000Y-96200000D03*
%TD*%
%TO.C,KiKit_MB_46_2*%
X209100000Y-96200000D03*
%TD*%
%TO.C,KiKit_MB_15_3*%
X96300000Y-58200000D03*
%TD*%
D24*
%TO.C,R2*%
X31100000Y-35950000D03*
X31100000Y-37600000D03*
%TD*%
%TO.C,R2*%
X129600000Y-35950000D03*
X129600000Y-37600000D03*
%TD*%
%TO.C,R2*%
X228100000Y-35950000D03*
X228100000Y-37600000D03*
%TD*%
%TO.C,R2*%
X31100000Y-83950000D03*
X31100000Y-85600000D03*
%TD*%
%TO.C,R2*%
X129600000Y-83950000D03*
X129600000Y-85600000D03*
%TD*%
%TO.C,R2*%
X228100000Y-83950000D03*
X228100000Y-85600000D03*
%TD*%
%TO.C,R2*%
X31100000Y-131950000D03*
X31100000Y-133600000D03*
%TD*%
%TO.C,R2*%
X129600000Y-131950000D03*
X129600000Y-133600000D03*
%TD*%
%TO.C,R2*%
X228100000Y-131950000D03*
X228100000Y-133600000D03*
%TD*%
D10*
%TO.C,KiKit_MB_4_3*%
X82100000Y-45800000D03*
%TD*%
%TO.C,KiKit_MB_48_1*%
X197200000Y-133000000D03*
%TD*%
%TO.C,KiKit_MB_18_3*%
X82100000Y-93800000D03*
%TD*%
%TO.C,KiKit_MB_8_2*%
X181600000Y-45800000D03*
%TD*%
%TO.C,KiKit_MB_20_2*%
X81100000Y-48200000D03*
%TD*%
%TO.C,KiKit_MB_19_3*%
X13100000Y-48200000D03*
%TD*%
%TO.C,KiKit_MB_12_5*%
X277100000Y-45800000D03*
%TD*%
%TO.C,KiKit_MB_40_1*%
X194800000Y-129000000D03*
%TD*%
%TO.C,KiKit_MB_5_5*%
X194800000Y-12200000D03*
%TD*%
%TO.C,KiKit_MB_26_3*%
X111600000Y-48200000D03*
%TD*%
%TO.C,KiKit_MB_47_1*%
X277100000Y-96200000D03*
%TD*%
%TO.C,KiKit_MB_45_4*%
X197200000Y-105600000D03*
%TD*%
D25*
%TO.C,L4*%
X25100000Y-40600000D03*
X22950000Y-40600000D03*
%TD*%
%TO.C,L4*%
X123600000Y-40600000D03*
X121450000Y-40600000D03*
%TD*%
%TO.C,L4*%
X222100000Y-40600000D03*
X219950000Y-40600000D03*
%TD*%
%TO.C,L4*%
X25100000Y-88600000D03*
X22950000Y-88600000D03*
%TD*%
%TO.C,L4*%
X123600000Y-88600000D03*
X121450000Y-88600000D03*
%TD*%
%TO.C,L4*%
X222100000Y-88600000D03*
X219950000Y-88600000D03*
%TD*%
%TO.C,L4*%
X25100000Y-136600000D03*
X22950000Y-136600000D03*
%TD*%
%TO.C,L4*%
X123600000Y-136600000D03*
X121450000Y-136600000D03*
%TD*%
%TO.C,L4*%
X222100000Y-136600000D03*
X219950000Y-136600000D03*
%TD*%
D10*
%TO.C,KiKit_MB_38_4*%
X83100000Y-96200000D03*
%TD*%
%TO.C,KiKit_MB_18_2*%
X83100000Y-93800000D03*
%TD*%
D13*
%TO.C,D27*%
X82006500Y-24076000D03*
X83881500Y-24076000D03*
%TD*%
%TO.C,D27*%
X180506500Y-24076000D03*
X182381500Y-24076000D03*
%TD*%
%TO.C,D27*%
X279006500Y-24076000D03*
X280881500Y-24076000D03*
%TD*%
%TO.C,D27*%
X82006500Y-72076000D03*
X83881500Y-72076000D03*
%TD*%
%TO.C,D27*%
X180506500Y-72076000D03*
X182381500Y-72076000D03*
%TD*%
%TO.C,D27*%
X279006500Y-72076000D03*
X280881500Y-72076000D03*
%TD*%
%TO.C,D27*%
X82006500Y-120076000D03*
X83881500Y-120076000D03*
%TD*%
%TO.C,D27*%
X180506500Y-120076000D03*
X182381500Y-120076000D03*
%TD*%
%TO.C,D27*%
X279006500Y-120076000D03*
X280881500Y-120076000D03*
%TD*%
D10*
%TO.C,KiKit_MB_47_3*%
X279100000Y-96200000D03*
%TD*%
%TO.C,KiKit_MB_7_2*%
X112600000Y-45800000D03*
%TD*%
%TO.C,KiKit_MB_32_5*%
X212100000Y-48200000D03*
%TD*%
%TO.C,KiKit_MB_9_4*%
X98700000Y-9600000D03*
%TD*%
D14*
%TO.C,Q4*%
X84950000Y-40737500D03*
X86850000Y-40737500D03*
X85900000Y-38862500D03*
%TD*%
%TO.C,Q4*%
X183450000Y-40737500D03*
X185350000Y-40737500D03*
X184400000Y-38862500D03*
%TD*%
%TO.C,Q4*%
X281950000Y-40737500D03*
X283850000Y-40737500D03*
X282900000Y-38862500D03*
%TD*%
%TO.C,Q4*%
X84950000Y-88737500D03*
X86850000Y-88737500D03*
X85900000Y-86862500D03*
%TD*%
%TO.C,Q4*%
X183450000Y-88737500D03*
X185350000Y-88737500D03*
X184400000Y-86862500D03*
%TD*%
%TO.C,Q4*%
X281950000Y-88737500D03*
X283850000Y-88737500D03*
X282900000Y-86862500D03*
%TD*%
%TO.C,Q4*%
X84950000Y-136737500D03*
X86850000Y-136737500D03*
X85900000Y-134862500D03*
%TD*%
%TO.C,Q4*%
X183450000Y-136737500D03*
X185350000Y-136737500D03*
X184400000Y-134862500D03*
%TD*%
%TO.C,Q4*%
X281950000Y-136737500D03*
X283850000Y-136737500D03*
X282900000Y-134862500D03*
%TD*%
D13*
%TO.C,D6*%
X37562500Y-12000000D03*
X39437500Y-12000000D03*
%TD*%
%TO.C,D6*%
X136062500Y-12000000D03*
X137937500Y-12000000D03*
%TD*%
%TO.C,D6*%
X234562500Y-12000000D03*
X236437500Y-12000000D03*
%TD*%
%TO.C,D6*%
X37562500Y-108000000D03*
X39437500Y-108000000D03*
%TD*%
%TO.C,D6*%
X37562500Y-60000000D03*
X39437500Y-60000000D03*
%TD*%
%TO.C,D6*%
X136062500Y-60000000D03*
X137937500Y-60000000D03*
%TD*%
%TO.C,D6*%
X234562500Y-60000000D03*
X236437500Y-60000000D03*
%TD*%
%TO.C,D6*%
X136062500Y-108000000D03*
X137937500Y-108000000D03*
%TD*%
%TO.C,D6*%
X234562500Y-108000000D03*
X236437500Y-108000000D03*
%TD*%
D10*
%TO.C,KiKit_MB_12_2*%
X280100000Y-45800000D03*
%TD*%
D11*
%TO.C,D24*%
X68720000Y-20695500D03*
X68720000Y-18820500D03*
%TD*%
%TO.C,D24*%
X167220000Y-20695500D03*
X167220000Y-18820500D03*
%TD*%
%TO.C,D24*%
X265720000Y-20695500D03*
X265720000Y-18820500D03*
%TD*%
%TO.C,D24*%
X68720000Y-68695500D03*
X68720000Y-66820500D03*
%TD*%
%TO.C,D24*%
X167220000Y-68695500D03*
X167220000Y-66820500D03*
%TD*%
%TO.C,D24*%
X265720000Y-68695500D03*
X265720000Y-66820500D03*
%TD*%
%TO.C,D24*%
X68720000Y-116695500D03*
X68720000Y-114820500D03*
%TD*%
%TO.C,D24*%
X167220000Y-116695500D03*
X167220000Y-114820500D03*
%TD*%
%TO.C,D24*%
X265720000Y-116695500D03*
X265720000Y-114820500D03*
%TD*%
D17*
%TO.C,D7*%
X31500000Y-16062500D03*
X31500000Y-17937500D03*
%TD*%
%TO.C,D7*%
X130000000Y-16062500D03*
X130000000Y-17937500D03*
%TD*%
%TO.C,D7*%
X228500000Y-16062500D03*
X228500000Y-17937500D03*
%TD*%
%TO.C,D7*%
X31500000Y-64062500D03*
X31500000Y-65937500D03*
%TD*%
%TO.C,D7*%
X130000000Y-64062500D03*
X130000000Y-65937500D03*
%TD*%
%TO.C,D7*%
X228500000Y-64062500D03*
X228500000Y-65937500D03*
%TD*%
%TO.C,D7*%
X31500000Y-112062500D03*
X31500000Y-113937500D03*
%TD*%
%TO.C,D7*%
X130000000Y-112062500D03*
X130000000Y-113937500D03*
%TD*%
%TO.C,D7*%
X228500000Y-112062500D03*
X228500000Y-113937500D03*
%TD*%
D10*
%TO.C,KiKit_MB_39_4*%
X194800000Y-107200000D03*
%TD*%
%TO.C,KiKit_MB_48_4*%
X197200000Y-130000000D03*
%TD*%
%TO.C,KiKit_MB_42_3*%
X111600000Y-96200000D03*
%TD*%
D15*
%TO.C,J6*%
X82000000Y-2000000D03*
%TD*%
%TO.C,J6*%
X180500000Y-2000000D03*
%TD*%
%TO.C,J6*%
X279000000Y-2000000D03*
%TD*%
%TO.C,J6*%
X82000000Y-50000000D03*
%TD*%
%TO.C,J6*%
X180500000Y-50000000D03*
%TD*%
%TO.C,J6*%
X279000000Y-50000000D03*
%TD*%
%TO.C,J6*%
X82000000Y-98000000D03*
%TD*%
%TO.C,J6*%
X180500000Y-98000000D03*
%TD*%
%TO.C,J6*%
X279000000Y-98000000D03*
%TD*%
D12*
%TO.C,L1*%
X65164000Y-24135000D03*
X65164000Y-21985000D03*
%TD*%
%TO.C,L1*%
X163664000Y-24135000D03*
X163664000Y-21985000D03*
%TD*%
%TO.C,L1*%
X262164000Y-24135000D03*
X262164000Y-21985000D03*
%TD*%
%TO.C,L1*%
X65164000Y-72135000D03*
X65164000Y-69985000D03*
%TD*%
%TO.C,L1*%
X163664000Y-72135000D03*
X163664000Y-69985000D03*
%TD*%
%TO.C,L1*%
X262164000Y-72135000D03*
X262164000Y-69985000D03*
%TD*%
%TO.C,L1*%
X65164000Y-120135000D03*
X65164000Y-117985000D03*
%TD*%
%TO.C,L1*%
X163664000Y-120135000D03*
X163664000Y-117985000D03*
%TD*%
%TO.C,L1*%
X262164000Y-120135000D03*
X262164000Y-117985000D03*
%TD*%
D10*
%TO.C,KiKit_MB_36_1*%
X96300000Y-129000000D03*
%TD*%
%TO.C,KiKit_MB_39_5*%
X194800000Y-108200000D03*
%TD*%
D26*
%TO.C,U1*%
X58136800Y-35582200D03*
X58136800Y-36852200D03*
X58136800Y-38122200D03*
X58136800Y-39392200D03*
X58136800Y-40662200D03*
X58136800Y-41932200D03*
X58136800Y-43202200D03*
X58136800Y-44472200D03*
X63436800Y-44472200D03*
X63436800Y-43202200D03*
X63436800Y-41932200D03*
X63436800Y-40662200D03*
X63436800Y-39392200D03*
X63436800Y-38122200D03*
X63436800Y-36852200D03*
X63436800Y-35582200D03*
%TD*%
%TO.C,U1*%
X156636800Y-35582200D03*
X156636800Y-36852200D03*
X156636800Y-38122200D03*
X156636800Y-39392200D03*
X156636800Y-40662200D03*
X156636800Y-41932200D03*
X156636800Y-43202200D03*
X156636800Y-44472200D03*
X161936800Y-44472200D03*
X161936800Y-43202200D03*
X161936800Y-41932200D03*
X161936800Y-40662200D03*
X161936800Y-39392200D03*
X161936800Y-38122200D03*
X161936800Y-36852200D03*
X161936800Y-35582200D03*
%TD*%
%TO.C,U1*%
X255136800Y-35582200D03*
X255136800Y-36852200D03*
X255136800Y-38122200D03*
X255136800Y-39392200D03*
X255136800Y-40662200D03*
X255136800Y-41932200D03*
X255136800Y-43202200D03*
X255136800Y-44472200D03*
X260436800Y-44472200D03*
X260436800Y-43202200D03*
X260436800Y-41932200D03*
X260436800Y-40662200D03*
X260436800Y-39392200D03*
X260436800Y-38122200D03*
X260436800Y-36852200D03*
X260436800Y-35582200D03*
%TD*%
%TO.C,U1*%
X58136800Y-83582200D03*
X58136800Y-84852200D03*
X58136800Y-86122200D03*
X58136800Y-87392200D03*
X58136800Y-88662200D03*
X58136800Y-89932200D03*
X58136800Y-91202200D03*
X58136800Y-92472200D03*
X63436800Y-92472200D03*
X63436800Y-91202200D03*
X63436800Y-89932200D03*
X63436800Y-88662200D03*
X63436800Y-87392200D03*
X63436800Y-86122200D03*
X63436800Y-84852200D03*
X63436800Y-83582200D03*
%TD*%
%TO.C,U1*%
X156636800Y-83582200D03*
X156636800Y-84852200D03*
X156636800Y-86122200D03*
X156636800Y-87392200D03*
X156636800Y-88662200D03*
X156636800Y-89932200D03*
X156636800Y-91202200D03*
X156636800Y-92472200D03*
X161936800Y-92472200D03*
X161936800Y-91202200D03*
X161936800Y-89932200D03*
X161936800Y-88662200D03*
X161936800Y-87392200D03*
X161936800Y-86122200D03*
X161936800Y-84852200D03*
X161936800Y-83582200D03*
%TD*%
%TO.C,U1*%
X255136800Y-83582200D03*
X255136800Y-84852200D03*
X255136800Y-86122200D03*
X255136800Y-87392200D03*
X255136800Y-88662200D03*
X255136800Y-89932200D03*
X255136800Y-91202200D03*
X255136800Y-92472200D03*
X260436800Y-92472200D03*
X260436800Y-91202200D03*
X260436800Y-89932200D03*
X260436800Y-88662200D03*
X260436800Y-87392200D03*
X260436800Y-86122200D03*
X260436800Y-84852200D03*
X260436800Y-83582200D03*
%TD*%
%TO.C,U1*%
X58136800Y-131582200D03*
X58136800Y-132852200D03*
X58136800Y-134122200D03*
X58136800Y-135392200D03*
X58136800Y-136662200D03*
X58136800Y-137932200D03*
X58136800Y-139202200D03*
X58136800Y-140472200D03*
X63436800Y-140472200D03*
X63436800Y-139202200D03*
X63436800Y-137932200D03*
X63436800Y-136662200D03*
X63436800Y-135392200D03*
X63436800Y-134122200D03*
X63436800Y-132852200D03*
X63436800Y-131582200D03*
%TD*%
%TO.C,U1*%
X156636800Y-131582200D03*
X156636800Y-132852200D03*
X156636800Y-134122200D03*
X156636800Y-135392200D03*
X156636800Y-136662200D03*
X156636800Y-137932200D03*
X156636800Y-139202200D03*
X156636800Y-140472200D03*
X161936800Y-140472200D03*
X161936800Y-139202200D03*
X161936800Y-137932200D03*
X161936800Y-136662200D03*
X161936800Y-135392200D03*
X161936800Y-134122200D03*
X161936800Y-132852200D03*
X161936800Y-131582200D03*
%TD*%
%TO.C,U1*%
X255136800Y-131582200D03*
X255136800Y-132852200D03*
X255136800Y-134122200D03*
X255136800Y-135392200D03*
X255136800Y-136662200D03*
X255136800Y-137932200D03*
X255136800Y-139202200D03*
X255136800Y-140472200D03*
X260436800Y-140472200D03*
X260436800Y-139202200D03*
X260436800Y-137932200D03*
X260436800Y-136662200D03*
X260436800Y-135392200D03*
X260436800Y-134122200D03*
X260436800Y-132852200D03*
X260436800Y-131582200D03*
%TD*%
D10*
%TO.C,KiKit_MB_5_3*%
X194800000Y-10200000D03*
%TD*%
%TO.C,KiKit_MB_16_4*%
X96300000Y-84000000D03*
%TD*%
D13*
%TO.C,D29*%
X81562500Y-31188000D03*
X83437500Y-31188000D03*
%TD*%
%TO.C,D29*%
X180062500Y-31188000D03*
X181937500Y-31188000D03*
%TD*%
%TO.C,D29*%
X278562500Y-31188000D03*
X280437500Y-31188000D03*
%TD*%
%TO.C,D29*%
X81562500Y-79188000D03*
X83437500Y-79188000D03*
%TD*%
%TO.C,D29*%
X180062500Y-79188000D03*
X181937500Y-79188000D03*
%TD*%
%TO.C,D29*%
X278562500Y-79188000D03*
X280437500Y-79188000D03*
%TD*%
%TO.C,D29*%
X81562500Y-127188000D03*
X83437500Y-127188000D03*
%TD*%
%TO.C,D29*%
X180062500Y-127188000D03*
X181937500Y-127188000D03*
%TD*%
%TO.C,D29*%
X278562500Y-127188000D03*
X280437500Y-127188000D03*
%TD*%
D10*
%TO.C,KiKit_MB_34_3*%
X197200000Y-83000000D03*
%TD*%
%TO.C,KiKit_MB_16_3*%
X96300000Y-83000000D03*
%TD*%
%TO.C,KiKit_MB_27_3*%
X180600000Y-48200000D03*
%TD*%
D21*
%TO.C,R5*%
X72593000Y-31950000D03*
X70943000Y-31950000D03*
%TD*%
%TO.C,R5*%
X171093000Y-31950000D03*
X169443000Y-31950000D03*
%TD*%
%TO.C,R5*%
X269593000Y-31950000D03*
X267943000Y-31950000D03*
%TD*%
%TO.C,R5*%
X72593000Y-79950000D03*
X70943000Y-79950000D03*
%TD*%
%TO.C,R5*%
X171093000Y-79950000D03*
X169443000Y-79950000D03*
%TD*%
%TO.C,R5*%
X269593000Y-79950000D03*
X267943000Y-79950000D03*
%TD*%
%TO.C,R5*%
X72593000Y-127950000D03*
X70943000Y-127950000D03*
%TD*%
%TO.C,R5*%
X171093000Y-127950000D03*
X169443000Y-127950000D03*
%TD*%
%TO.C,R5*%
X269593000Y-127950000D03*
X267943000Y-127950000D03*
%TD*%
D10*
%TO.C,KiKit_MB_2_1*%
X96300000Y-33000000D03*
%TD*%
%TO.C,KiKit_MB_23_1*%
X113600000Y-93800000D03*
%TD*%
%TO.C,KiKit_MB_48_5*%
X197200000Y-129000000D03*
%TD*%
%TO.C,KiKit_MB_32_4*%
X211100000Y-48200000D03*
%TD*%
%TO.C,KiKit_MB_34_2*%
X197200000Y-84000000D03*
%TD*%
%TO.C,KiKit_MB_15_5*%
X96300000Y-60200000D03*
%TD*%
%TO.C,KiKit_MB_45_3*%
X197200000Y-106600000D03*
%TD*%
%TO.C,KiKit_MB_43_2*%
X179600000Y-96200000D03*
%TD*%
%TO.C,KiKit_MB_5_1*%
X194800000Y-8200000D03*
%TD*%
%TO.C,KiKit_MB_9_1*%
X98700000Y-12600000D03*
%TD*%
D17*
%TO.C,D9*%
X31500000Y-25062500D03*
X31500000Y-26937500D03*
%TD*%
%TO.C,D9*%
X130000000Y-25062500D03*
X130000000Y-26937500D03*
%TD*%
%TO.C,D9*%
X228500000Y-25062500D03*
X228500000Y-26937500D03*
%TD*%
%TO.C,D9*%
X31500000Y-73062500D03*
X31500000Y-74937500D03*
%TD*%
%TO.C,D9*%
X130000000Y-73062500D03*
X130000000Y-74937500D03*
%TD*%
%TO.C,D9*%
X228500000Y-73062500D03*
X228500000Y-74937500D03*
%TD*%
%TO.C,D9*%
X31500000Y-121062500D03*
X31500000Y-122937500D03*
%TD*%
%TO.C,D9*%
X130000000Y-121062500D03*
X130000000Y-122937500D03*
%TD*%
%TO.C,D9*%
X228500000Y-121062500D03*
X228500000Y-122937500D03*
%TD*%
D10*
%TO.C,KiKit_MB_10_4*%
X98700000Y-34000000D03*
%TD*%
%TO.C,KiKit_MB_29_1*%
X212100000Y-93800000D03*
%TD*%
%TO.C,KiKit_MB_31_4*%
X197200000Y-57600000D03*
%TD*%
%TO.C,KiKit_MB_25_5*%
X98700000Y-56600000D03*
%TD*%
D21*
%TO.C,R1*%
X42875000Y-40998500D03*
X41225000Y-40998500D03*
%TD*%
%TO.C,R1*%
X141375000Y-40998500D03*
X139725000Y-40998500D03*
%TD*%
%TO.C,R1*%
X239875000Y-40998500D03*
X238225000Y-40998500D03*
%TD*%
%TO.C,R1*%
X42875000Y-88998500D03*
X41225000Y-88998500D03*
%TD*%
%TO.C,R1*%
X141375000Y-88998500D03*
X139725000Y-88998500D03*
%TD*%
%TO.C,R1*%
X239875000Y-88998500D03*
X238225000Y-88998500D03*
%TD*%
%TO.C,R1*%
X42875000Y-136998500D03*
X41225000Y-136998500D03*
%TD*%
%TO.C,R1*%
X141375000Y-136998500D03*
X139725000Y-136998500D03*
%TD*%
%TO.C,R1*%
X239875000Y-136998500D03*
X238225000Y-136998500D03*
%TD*%
D10*
%TO.C,KiKit_MB_2_4*%
X96300000Y-36000000D03*
%TD*%
%TO.C,KiKit_MB_41_5*%
X98700000Y-104600000D03*
%TD*%
%TO.C,KiKit_MB_18_4*%
X81100000Y-93800000D03*
%TD*%
D11*
%TO.C,D23*%
X52464000Y-21965500D03*
X52464000Y-20090500D03*
%TD*%
%TO.C,D23*%
X150964000Y-21965500D03*
X150964000Y-20090500D03*
%TD*%
%TO.C,D23*%
X249464000Y-21965500D03*
X249464000Y-20090500D03*
%TD*%
%TO.C,D23*%
X52464000Y-69965500D03*
X52464000Y-68090500D03*
%TD*%
%TO.C,D23*%
X150964000Y-69965500D03*
X150964000Y-68090500D03*
%TD*%
%TO.C,D23*%
X249464000Y-69965500D03*
X249464000Y-68090500D03*
%TD*%
%TO.C,D23*%
X52464000Y-117965500D03*
X52464000Y-116090500D03*
%TD*%
%TO.C,D23*%
X150964000Y-117965500D03*
X150964000Y-116090500D03*
%TD*%
%TO.C,D23*%
X249464000Y-117965500D03*
X249464000Y-116090500D03*
%TD*%
D17*
%TO.C,D12*%
X60592000Y-28472500D03*
X60592000Y-30347500D03*
%TD*%
%TO.C,D12*%
X159092000Y-28472500D03*
X159092000Y-30347500D03*
%TD*%
%TO.C,D12*%
X257592000Y-28472500D03*
X257592000Y-30347500D03*
%TD*%
%TO.C,D12*%
X60592000Y-76472500D03*
X60592000Y-78347500D03*
%TD*%
%TO.C,D12*%
X159092000Y-76472500D03*
X159092000Y-78347500D03*
%TD*%
%TO.C,D12*%
X257592000Y-76472500D03*
X257592000Y-78347500D03*
%TD*%
%TO.C,D12*%
X60592000Y-124472500D03*
X60592000Y-126347500D03*
%TD*%
%TO.C,D12*%
X159092000Y-124472500D03*
X159092000Y-126347500D03*
%TD*%
%TO.C,D12*%
X257592000Y-124472500D03*
X257592000Y-126347500D03*
%TD*%
D10*
%TO.C,KiKit_MB_23_2*%
X112600000Y-93800000D03*
%TD*%
%TO.C,KiKit_MB_6_2*%
X194800000Y-34000000D03*
%TD*%
%TO.C,KiKit_MB_30_4*%
X278100000Y-93800000D03*
%TD*%
%TO.C,KiKit_MB_1_2*%
X96300000Y-9200000D03*
%TD*%
%TO.C,KiKit_MB_4_1*%
X84100000Y-45800000D03*
%TD*%
%TO.C,KiKit_MB_26_2*%
X110600000Y-48200000D03*
%TD*%
%TO.C,KiKit_MB_33_3*%
X279100000Y-48200000D03*
%TD*%
%TO.C,KiKit_MB_10_5*%
X98700000Y-33000000D03*
%TD*%
%TO.C,KiKit_MB_9_2*%
X98700000Y-11600000D03*
%TD*%
%TO.C,KiKit_MB_31_1*%
X197200000Y-60600000D03*
%TD*%
D27*
%TO.C,Q1*%
X226100000Y-137575000D03*
X226100000Y-135675000D03*
X224225000Y-136625000D03*
%TD*%
%TO.C,Q1*%
X29100000Y-41575000D03*
X29100000Y-39675000D03*
X27225000Y-40625000D03*
%TD*%
%TO.C,Q1*%
X127600000Y-41575000D03*
X127600000Y-39675000D03*
X125725000Y-40625000D03*
%TD*%
%TO.C,Q1*%
X226100000Y-41575000D03*
X226100000Y-39675000D03*
X224225000Y-40625000D03*
%TD*%
%TO.C,Q1*%
X29100000Y-89575000D03*
X29100000Y-87675000D03*
X27225000Y-88625000D03*
%TD*%
%TO.C,Q1*%
X127600000Y-89575000D03*
X127600000Y-87675000D03*
X125725000Y-88625000D03*
%TD*%
%TO.C,Q1*%
X226100000Y-89575000D03*
X226100000Y-87675000D03*
X224225000Y-88625000D03*
%TD*%
%TO.C,Q1*%
X29100000Y-137575000D03*
X29100000Y-135675000D03*
X27225000Y-136625000D03*
%TD*%
%TO.C,Q1*%
X127600000Y-137575000D03*
X127600000Y-135675000D03*
X125725000Y-136625000D03*
%TD*%
D10*
%TO.C,KiKit_MB_6_4*%
X194800000Y-36000000D03*
%TD*%
%TO.C,KiKit_MB_7_4*%
X110600000Y-45800000D03*
%TD*%
%TO.C,KiKit_MB_26_4*%
X112600000Y-48200000D03*
%TD*%
%TO.C,KiKit_MB_35_1*%
X96300000Y-104200000D03*
%TD*%
%TO.C,KiKit_MB_41_2*%
X98700000Y-107600000D03*
%TD*%
%TO.C,KiKit_MB_39_2*%
X194800000Y-105200000D03*
%TD*%
%TO.C,KiKit_MB_44_4*%
X98700000Y-130000000D03*
%TD*%
%TO.C,KiKit_MB_42_2*%
X110600000Y-96200000D03*
%TD*%
%TO.C,KiKit_MB_28_1*%
X98700000Y-85000000D03*
%TD*%
%TO.C,KiKit_MB_20_3*%
X82100000Y-48200000D03*
%TD*%
%TO.C,KiKit_MB_4_5*%
X80100000Y-45800000D03*
%TD*%
%TO.C,KiKit_MB_30_3*%
X279100000Y-93800000D03*
%TD*%
%TO.C,KiKit_MB_6_5*%
X194800000Y-37000000D03*
%TD*%
D22*
%TO.C,C4*%
X14100000Y-23600000D03*
X14100000Y-25500000D03*
%TD*%
%TO.C,C4*%
X112600000Y-23600000D03*
X112600000Y-25500000D03*
%TD*%
%TO.C,C4*%
X211100000Y-23600000D03*
X211100000Y-25500000D03*
%TD*%
%TO.C,C4*%
X14100000Y-71600000D03*
X14100000Y-73500000D03*
%TD*%
%TO.C,C4*%
X112600000Y-71600000D03*
X112600000Y-73500000D03*
%TD*%
%TO.C,C4*%
X211100000Y-71600000D03*
X211100000Y-73500000D03*
%TD*%
%TO.C,C4*%
X14100000Y-119600000D03*
X14100000Y-121500000D03*
%TD*%
%TO.C,C4*%
X112600000Y-119600000D03*
X112600000Y-121500000D03*
%TD*%
%TO.C,C4*%
X211100000Y-119600000D03*
X211100000Y-121500000D03*
%TD*%
D10*
%TO.C,KiKit_MB_33_2*%
X278100000Y-48200000D03*
%TD*%
%TO.C,KiKit_MB_2_5*%
X96300000Y-37000000D03*
%TD*%
%TO.C,KiKit_MB_23_5*%
X109600000Y-93800000D03*
%TD*%
%TO.C,KiKit_MB_24_3*%
X180600000Y-93800000D03*
%TD*%
D28*
%TO.C,R4*%
X64593000Y-12138000D03*
X66243000Y-12138000D03*
%TD*%
%TO.C,R4*%
X163093000Y-12138000D03*
X164743000Y-12138000D03*
%TD*%
%TO.C,R4*%
X261593000Y-12138000D03*
X263243000Y-12138000D03*
%TD*%
%TO.C,R4*%
X64593000Y-60138000D03*
X66243000Y-60138000D03*
%TD*%
%TO.C,R4*%
X163093000Y-60138000D03*
X164743000Y-60138000D03*
%TD*%
%TO.C,R4*%
X261593000Y-60138000D03*
X263243000Y-60138000D03*
%TD*%
%TO.C,R4*%
X64593000Y-108138000D03*
X66243000Y-108138000D03*
%TD*%
%TO.C,R4*%
X163093000Y-108138000D03*
X164743000Y-108138000D03*
%TD*%
%TO.C,R4*%
X261593000Y-108138000D03*
X263243000Y-108138000D03*
%TD*%
D10*
%TO.C,KiKit_MB_48_2*%
X197200000Y-132000000D03*
%TD*%
D15*
%TO.C,J5*%
X60500000Y-3000000D03*
%TD*%
%TO.C,J5*%
X159000000Y-3000000D03*
%TD*%
%TO.C,J5*%
X257500000Y-3000000D03*
%TD*%
%TO.C,J5*%
X60500000Y-51000000D03*
%TD*%
%TO.C,J5*%
X159000000Y-51000000D03*
%TD*%
%TO.C,J5*%
X257500000Y-51000000D03*
%TD*%
%TO.C,J5*%
X60500000Y-99000000D03*
%TD*%
%TO.C,J5*%
X159000000Y-99000000D03*
%TD*%
%TO.C,J5*%
X257500000Y-99000000D03*
%TD*%
D10*
%TO.C,KiKit_MB_11_5*%
X208100000Y-45800000D03*
%TD*%
D13*
%TO.C,D3*%
X16562500Y-21000000D03*
X18437500Y-21000000D03*
%TD*%
%TO.C,D3*%
X115062500Y-21000000D03*
X116937500Y-21000000D03*
%TD*%
%TO.C,D3*%
X213562500Y-21000000D03*
X215437500Y-21000000D03*
%TD*%
%TO.C,D3*%
X16562500Y-69000000D03*
X18437500Y-69000000D03*
%TD*%
%TO.C,D3*%
X115062500Y-69000000D03*
X116937500Y-69000000D03*
%TD*%
%TO.C,D3*%
X213562500Y-69000000D03*
X215437500Y-69000000D03*
%TD*%
%TO.C,D3*%
X16562500Y-117000000D03*
X18437500Y-117000000D03*
%TD*%
%TO.C,D3*%
X115062500Y-117000000D03*
X116937500Y-117000000D03*
%TD*%
%TO.C,D3*%
X213562500Y-117000000D03*
X215437500Y-117000000D03*
%TD*%
D10*
%TO.C,KiKit_MB_31_3*%
X197200000Y-58600000D03*
%TD*%
%TO.C,KiKit_MB_19_4*%
X14100000Y-48200000D03*
%TD*%
D15*
%TO.C,J4*%
X82000000Y-44000000D03*
%TD*%
%TO.C,J4*%
X180500000Y-44000000D03*
%TD*%
%TO.C,J4*%
X279000000Y-44000000D03*
%TD*%
%TO.C,J4*%
X82000000Y-92000000D03*
%TD*%
%TO.C,J4*%
X180500000Y-92000000D03*
%TD*%
%TO.C,J4*%
X279000000Y-92000000D03*
%TD*%
%TO.C,J4*%
X82000000Y-140000000D03*
%TD*%
%TO.C,J4*%
X180500000Y-140000000D03*
%TD*%
%TO.C,J4*%
X279000000Y-140000000D03*
%TD*%
D10*
%TO.C,KiKit_MB_12_1*%
X281100000Y-45800000D03*
%TD*%
%TO.C,KiKit_MB_29_2*%
X211100000Y-93800000D03*
%TD*%
%TO.C,KiKit_MB_44_1*%
X98700000Y-133000000D03*
%TD*%
%TO.C,KiKit_MB_6_3*%
X194800000Y-35000000D03*
%TD*%
%TO.C,KiKit_MB_22_4*%
X194800000Y-84000000D03*
%TD*%
%TO.C,KiKit_MB_17_5*%
X11100000Y-93800000D03*
%TD*%
%TO.C,KiKit_MB_30_1*%
X281100000Y-93800000D03*
%TD*%
%TO.C,KiKit_MB_14_1*%
X197200000Y-37000000D03*
%TD*%
%TO.C,KiKit_MB_17_2*%
X14100000Y-93800000D03*
%TD*%
%TO.C,KiKit_MB_21_4*%
X194800000Y-59200000D03*
%TD*%
%TO.C,KiKit_MB_9_5*%
X98700000Y-8600000D03*
%TD*%
%TO.C,KiKit_MB_11_1*%
X212100000Y-45800000D03*
%TD*%
%TO.C,KiKit_MB_3_3*%
X13100000Y-45800000D03*
%TD*%
%TO.C,KiKit_MB_23_4*%
X110600000Y-93800000D03*
%TD*%
D21*
%TO.C,R3*%
X49700000Y-32600000D03*
X48050000Y-32600000D03*
%TD*%
%TO.C,R3*%
X148200000Y-32600000D03*
X146550000Y-32600000D03*
%TD*%
%TO.C,R3*%
X246700000Y-32600000D03*
X245050000Y-32600000D03*
%TD*%
%TO.C,R3*%
X49700000Y-80600000D03*
X48050000Y-80600000D03*
%TD*%
%TO.C,R3*%
X148200000Y-80600000D03*
X146550000Y-80600000D03*
%TD*%
%TO.C,R3*%
X246700000Y-80600000D03*
X245050000Y-80600000D03*
%TD*%
%TO.C,R3*%
X49700000Y-128600000D03*
X48050000Y-128600000D03*
%TD*%
%TO.C,R3*%
X148200000Y-128600000D03*
X146550000Y-128600000D03*
%TD*%
%TO.C,R3*%
X246700000Y-128600000D03*
X245050000Y-128600000D03*
%TD*%
D10*
%TO.C,KiKit_MB_26_5*%
X113600000Y-48200000D03*
%TD*%
%TO.C,KiKit_MB_33_1*%
X277100000Y-48200000D03*
%TD*%
%TO.C,KiKit_MB_40_3*%
X194800000Y-131000000D03*
%TD*%
%TO.C,KiKit_MB_12_3*%
X279100000Y-45800000D03*
%TD*%
D21*
%TO.C,R6*%
X65926000Y-30172000D03*
X64276000Y-30172000D03*
%TD*%
%TO.C,R6*%
X164426000Y-30172000D03*
X162776000Y-30172000D03*
%TD*%
%TO.C,R6*%
X262926000Y-30172000D03*
X261276000Y-30172000D03*
%TD*%
%TO.C,R6*%
X65926000Y-78172000D03*
X64276000Y-78172000D03*
%TD*%
%TO.C,R6*%
X164426000Y-78172000D03*
X162776000Y-78172000D03*
%TD*%
%TO.C,R6*%
X262926000Y-78172000D03*
X261276000Y-78172000D03*
%TD*%
%TO.C,R6*%
X65926000Y-126172000D03*
X64276000Y-126172000D03*
%TD*%
%TO.C,R6*%
X164426000Y-126172000D03*
X162776000Y-126172000D03*
%TD*%
%TO.C,R6*%
X262926000Y-126172000D03*
X261276000Y-126172000D03*
%TD*%
D13*
%TO.C,D17*%
X70830500Y-34998000D03*
X72705500Y-34998000D03*
%TD*%
%TO.C,D17*%
X169330500Y-34998000D03*
X171205500Y-34998000D03*
%TD*%
%TO.C,D17*%
X267830500Y-34998000D03*
X269705500Y-34998000D03*
%TD*%
%TO.C,D17*%
X70830500Y-82998000D03*
X72705500Y-82998000D03*
%TD*%
%TO.C,D17*%
X169330500Y-82998000D03*
X171205500Y-82998000D03*
%TD*%
%TO.C,D17*%
X267830500Y-82998000D03*
X269705500Y-82998000D03*
%TD*%
%TO.C,D17*%
X70830500Y-130998000D03*
X72705500Y-130998000D03*
%TD*%
%TO.C,D17*%
X169330500Y-130998000D03*
X171205500Y-130998000D03*
%TD*%
%TO.C,D17*%
X267830500Y-130998000D03*
X269705500Y-130998000D03*
%TD*%
D10*
%TO.C,KiKit_MB_1_3*%
X96300000Y-10200000D03*
%TD*%
D29*
%TO.C,J1*%
X76230000Y-38200000D03*
D30*
X77500000Y-38200000D03*
X78770000Y-38200000D03*
X80040000Y-38200000D03*
%TD*%
D29*
%TO.C,J1*%
X174730000Y-38200000D03*
D30*
X176000000Y-38200000D03*
X177270000Y-38200000D03*
X178540000Y-38200000D03*
%TD*%
D29*
%TO.C,J1*%
X273230000Y-38200000D03*
D30*
X274500000Y-38200000D03*
X275770000Y-38200000D03*
X277040000Y-38200000D03*
%TD*%
D29*
%TO.C,J1*%
X76230000Y-86200000D03*
D30*
X77500000Y-86200000D03*
X78770000Y-86200000D03*
X80040000Y-86200000D03*
%TD*%
D29*
%TO.C,J1*%
X174730000Y-86200000D03*
D30*
X176000000Y-86200000D03*
X177270000Y-86200000D03*
X178540000Y-86200000D03*
%TD*%
D29*
%TO.C,J1*%
X273230000Y-86200000D03*
D30*
X274500000Y-86200000D03*
X275770000Y-86200000D03*
X277040000Y-86200000D03*
%TD*%
D29*
%TO.C,J1*%
X76230000Y-134200000D03*
D30*
X77500000Y-134200000D03*
X78770000Y-134200000D03*
X80040000Y-134200000D03*
%TD*%
D29*
%TO.C,J1*%
X174730000Y-134200000D03*
D30*
X176000000Y-134200000D03*
X177270000Y-134200000D03*
X178540000Y-134200000D03*
%TD*%
D29*
%TO.C,J1*%
X273230000Y-134200000D03*
D30*
X274500000Y-134200000D03*
X275770000Y-134200000D03*
X277040000Y-134200000D03*
%TD*%
D10*
%TO.C,KiKit_MB_24_2*%
X181600000Y-93800000D03*
%TD*%
%TO.C,KiKit_MB_14_5*%
X197200000Y-33000000D03*
%TD*%
D24*
%TO.C,R11*%
X30962500Y-39600000D03*
X30962500Y-41250000D03*
%TD*%
%TO.C,R11*%
X129462500Y-39600000D03*
X129462500Y-41250000D03*
%TD*%
%TO.C,R11*%
X227962500Y-39600000D03*
X227962500Y-41250000D03*
%TD*%
%TO.C,R11*%
X30962500Y-87600000D03*
X30962500Y-89250000D03*
%TD*%
%TO.C,R11*%
X129462500Y-87600000D03*
X129462500Y-89250000D03*
%TD*%
%TO.C,R11*%
X227962500Y-87600000D03*
X227962500Y-89250000D03*
%TD*%
%TO.C,R11*%
X30962500Y-135600000D03*
X30962500Y-137250000D03*
%TD*%
%TO.C,R11*%
X129462500Y-135600000D03*
X129462500Y-137250000D03*
%TD*%
%TO.C,R11*%
X227962500Y-135600000D03*
X227962500Y-137250000D03*
%TD*%
D11*
%TO.C,D18*%
X74562000Y-20441500D03*
X74562000Y-18566500D03*
%TD*%
%TO.C,D18*%
X173062000Y-20441500D03*
X173062000Y-18566500D03*
%TD*%
%TO.C,D18*%
X271562000Y-20441500D03*
X271562000Y-18566500D03*
%TD*%
%TO.C,D18*%
X74562000Y-68441500D03*
X74562000Y-66566500D03*
%TD*%
%TO.C,D18*%
X173062000Y-68441500D03*
X173062000Y-66566500D03*
%TD*%
%TO.C,D18*%
X271562000Y-68441500D03*
X271562000Y-66566500D03*
%TD*%
%TO.C,D18*%
X74562000Y-116441500D03*
X74562000Y-114566500D03*
%TD*%
%TO.C,D18*%
X173062000Y-116441500D03*
X173062000Y-114566500D03*
%TD*%
%TO.C,D18*%
X271562000Y-116441500D03*
X271562000Y-114566500D03*
%TD*%
D10*
%TO.C,KiKit_MB_13_1*%
X197200000Y-12600000D03*
%TD*%
%TO.C,KiKit_MB_38_1*%
X80100000Y-96200000D03*
%TD*%
%TO.C,KiKit_MB_28_2*%
X98700000Y-84000000D03*
%TD*%
%TO.C,KiKit_MB_46_1*%
X208100000Y-96200000D03*
%TD*%
%TO.C,KiKit_MB_16_5*%
X96300000Y-85000000D03*
%TD*%
%TO.C,KiKit_MB_43_5*%
X182600000Y-96200000D03*
%TD*%
%TO.C,KiKit_MB_11_2*%
X211100000Y-45800000D03*
%TD*%
%TO.C,KiKit_MB_41_4*%
X98700000Y-105600000D03*
%TD*%
%TO.C,KiKit_MB_32_2*%
X209100000Y-48200000D03*
%TD*%
%TO.C,KiKit_MB_34_1*%
X197200000Y-85000000D03*
%TD*%
D21*
%TO.C,R7*%
X78925000Y-11200000D03*
X77275000Y-11200000D03*
%TD*%
%TO.C,R7*%
X177425000Y-11200000D03*
X175775000Y-11200000D03*
%TD*%
%TO.C,R7*%
X275925000Y-11200000D03*
X274275000Y-11200000D03*
%TD*%
%TO.C,R7*%
X78925000Y-59200000D03*
X77275000Y-59200000D03*
%TD*%
%TO.C,R7*%
X177425000Y-59200000D03*
X175775000Y-59200000D03*
%TD*%
%TO.C,R7*%
X275925000Y-59200000D03*
X274275000Y-59200000D03*
%TD*%
%TO.C,R7*%
X78925000Y-107200000D03*
X77275000Y-107200000D03*
%TD*%
%TO.C,R7*%
X177425000Y-107200000D03*
X175775000Y-107200000D03*
%TD*%
%TO.C,R7*%
X275925000Y-107200000D03*
X274275000Y-107200000D03*
%TD*%
D10*
%TO.C,KiKit_MB_42_5*%
X113600000Y-96200000D03*
%TD*%
%TO.C,KiKit_MB_19_2*%
X12100000Y-48200000D03*
%TD*%
%TO.C,KiKit_MB_35_2*%
X96300000Y-105200000D03*
%TD*%
%TO.C,KiKit_MB_15_4*%
X96300000Y-59200000D03*
%TD*%
%TO.C,KiKit_MB_22_2*%
X194800000Y-82000000D03*
%TD*%
%TO.C,KiKit_MB_30_5*%
X277100000Y-93800000D03*
%TD*%
%TO.C,KiKit_MB_14_3*%
X197200000Y-35000000D03*
%TD*%
D21*
%TO.C,R9*%
X86916000Y-42515500D03*
X85266000Y-42515500D03*
%TD*%
%TO.C,R9*%
X185416000Y-42515500D03*
X183766000Y-42515500D03*
%TD*%
%TO.C,R9*%
X283916000Y-42515500D03*
X282266000Y-42515500D03*
%TD*%
%TO.C,R9*%
X86916000Y-90515500D03*
X85266000Y-90515500D03*
%TD*%
%TO.C,R9*%
X185416000Y-90515500D03*
X183766000Y-90515500D03*
%TD*%
%TO.C,R9*%
X283916000Y-90515500D03*
X282266000Y-90515500D03*
%TD*%
%TO.C,R9*%
X86916000Y-138515500D03*
X85266000Y-138515500D03*
%TD*%
%TO.C,R9*%
X185416000Y-138515500D03*
X183766000Y-138515500D03*
%TD*%
%TO.C,R9*%
X283916000Y-138515500D03*
X282266000Y-138515500D03*
%TD*%
D10*
%TO.C,KiKit_MB_12_4*%
X278100000Y-45800000D03*
%TD*%
%TO.C,KiKit_MB_21_5*%
X194800000Y-60200000D03*
%TD*%
%TO.C,KiKit_MB_4_2*%
X83100000Y-45800000D03*
%TD*%
%TO.C,KiKit_MB_16_1*%
X96300000Y-81000000D03*
%TD*%
%TO.C,KiKit_MB_36_4*%
X96300000Y-132000000D03*
%TD*%
%TO.C,KiKit_MB_3_2*%
X14100000Y-45800000D03*
%TD*%
%TO.C,KiKit_MB_38_3*%
X82100000Y-96200000D03*
%TD*%
%TO.C,KiKit_MB_25_2*%
X98700000Y-59600000D03*
%TD*%
%TO.C,KiKit_MB_3_5*%
X11100000Y-45800000D03*
%TD*%
%TO.C,KiKit_MB_43_1*%
X178600000Y-96200000D03*
%TD*%
%TO.C,KiKit_MB_25_4*%
X98700000Y-57600000D03*
%TD*%
D11*
%TO.C,D20*%
X90564000Y-21457500D03*
X90564000Y-19582500D03*
%TD*%
%TO.C,D20*%
X189064000Y-21457500D03*
X189064000Y-19582500D03*
%TD*%
%TO.C,D20*%
X287564000Y-21457500D03*
X287564000Y-19582500D03*
%TD*%
%TO.C,D20*%
X90564000Y-69457500D03*
X90564000Y-67582500D03*
%TD*%
%TO.C,D20*%
X189064000Y-69457500D03*
X189064000Y-67582500D03*
%TD*%
%TO.C,D20*%
X287564000Y-69457500D03*
X287564000Y-67582500D03*
%TD*%
%TO.C,D20*%
X90564000Y-117457500D03*
X90564000Y-115582500D03*
%TD*%
%TO.C,D20*%
X189064000Y-117457500D03*
X189064000Y-115582500D03*
%TD*%
%TO.C,D20*%
X287564000Y-117457500D03*
X287564000Y-115582500D03*
%TD*%
D10*
%TO.C,KiKit_MB_13_3*%
X197200000Y-10600000D03*
%TD*%
%TO.C,KiKit_MB_33_4*%
X280100000Y-48200000D03*
%TD*%
%TO.C,KiKit_MB_42_1*%
X109600000Y-96200000D03*
%TD*%
%TO.C,KiKit_MB_10_1*%
X98700000Y-37000000D03*
%TD*%
%TO.C,KiKit_MB_24_1*%
X182600000Y-93800000D03*
%TD*%
%TO.C,KiKit_MB_35_5*%
X96300000Y-108200000D03*
%TD*%
%TO.C,KiKit_MB_21_1*%
X194800000Y-56200000D03*
%TD*%
%TO.C,KiKit_MB_29_4*%
X209100000Y-93800000D03*
%TD*%
D17*
%TO.C,D4*%
X23500000Y-25062500D03*
X23500000Y-26937500D03*
%TD*%
%TO.C,D4*%
X122000000Y-25062500D03*
X122000000Y-26937500D03*
%TD*%
%TO.C,D4*%
X220500000Y-25062500D03*
X220500000Y-26937500D03*
%TD*%
%TO.C,D4*%
X23500000Y-73062500D03*
X23500000Y-74937500D03*
%TD*%
%TO.C,D4*%
X122000000Y-73062500D03*
X122000000Y-74937500D03*
%TD*%
%TO.C,D4*%
X220500000Y-73062500D03*
X220500000Y-74937500D03*
%TD*%
%TO.C,D4*%
X23500000Y-121062500D03*
X23500000Y-122937500D03*
%TD*%
%TO.C,D4*%
X122000000Y-121062500D03*
X122000000Y-122937500D03*
%TD*%
%TO.C,D4*%
X220500000Y-121062500D03*
X220500000Y-122937500D03*
%TD*%
D10*
%TO.C,KiKit_MB_1_1*%
X96300000Y-8200000D03*
%TD*%
D16*
%TO.C,D19*%
X83437500Y-9000000D03*
X81562500Y-9000000D03*
%TD*%
%TO.C,D19*%
X181937500Y-9000000D03*
X180062500Y-9000000D03*
%TD*%
%TO.C,D19*%
X280437500Y-9000000D03*
X278562500Y-9000000D03*
%TD*%
%TO.C,D19*%
X83437500Y-57000000D03*
X81562500Y-57000000D03*
%TD*%
%TO.C,D19*%
X181937500Y-57000000D03*
X180062500Y-57000000D03*
%TD*%
%TO.C,D19*%
X280437500Y-57000000D03*
X278562500Y-57000000D03*
%TD*%
%TO.C,D19*%
X83437500Y-105000000D03*
X81562500Y-105000000D03*
%TD*%
%TO.C,D19*%
X181937500Y-105000000D03*
X180062500Y-105000000D03*
%TD*%
%TO.C,D19*%
X280437500Y-105000000D03*
X278562500Y-105000000D03*
%TD*%
D10*
%TO.C,KiKit_MB_2_2*%
X96300000Y-34000000D03*
%TD*%
%TO.C,KiKit_MB_36_5*%
X96300000Y-133000000D03*
%TD*%
%TO.C,KiKit_MB_36_2*%
X96300000Y-130000000D03*
%TD*%
D11*
%TO.C,D28*%
X283500000Y-28315500D03*
X283500000Y-26440500D03*
%TD*%
%TO.C,D28*%
X86500000Y-76315500D03*
X86500000Y-74440500D03*
%TD*%
%TO.C,D28*%
X185000000Y-76315500D03*
X185000000Y-74440500D03*
%TD*%
%TO.C,D28*%
X283500000Y-76315500D03*
X283500000Y-74440500D03*
%TD*%
%TO.C,D28*%
X86500000Y-124315500D03*
X86500000Y-122440500D03*
%TD*%
%TO.C,D28*%
X185000000Y-124315500D03*
X185000000Y-122440500D03*
%TD*%
%TO.C,D28*%
X283500000Y-124315500D03*
X283500000Y-122440500D03*
%TD*%
%TO.C,D28*%
X86500000Y-28315500D03*
X86500000Y-26440500D03*
%TD*%
%TO.C,D28*%
X185000000Y-28315500D03*
X185000000Y-26440500D03*
%TD*%
D10*
%TO.C,KiKit_MB_1_4*%
X96300000Y-11200000D03*
%TD*%
%TO.C,KiKit_MB_27_4*%
X181600000Y-48200000D03*
%TD*%
D13*
%TO.C,D25*%
X81562500Y-16964000D03*
X83437500Y-16964000D03*
%TD*%
%TO.C,D25*%
X180062500Y-16964000D03*
X181937500Y-16964000D03*
%TD*%
%TO.C,D25*%
X278562500Y-16964000D03*
X280437500Y-16964000D03*
%TD*%
%TO.C,D25*%
X278562500Y-64964000D03*
X280437500Y-64964000D03*
%TD*%
%TO.C,D25*%
X81562500Y-64964000D03*
X83437500Y-64964000D03*
%TD*%
%TO.C,D25*%
X180062500Y-64964000D03*
X181937500Y-64964000D03*
%TD*%
%TO.C,D25*%
X81562500Y-112964000D03*
X83437500Y-112964000D03*
%TD*%
%TO.C,D25*%
X180062500Y-112964000D03*
X181937500Y-112964000D03*
%TD*%
%TO.C,D25*%
X278562500Y-112964000D03*
X280437500Y-112964000D03*
%TD*%
D10*
%TO.C,KiKit_MB_24_5*%
X178600000Y-93800000D03*
%TD*%
%TO.C,KiKit_MB_21_3*%
X194800000Y-58200000D03*
%TD*%
D13*
%TO.C,D8*%
X37562500Y-21000000D03*
X39437500Y-21000000D03*
%TD*%
%TO.C,D8*%
X136062500Y-21000000D03*
X137937500Y-21000000D03*
%TD*%
%TO.C,D8*%
X234562500Y-21000000D03*
X236437500Y-21000000D03*
%TD*%
%TO.C,D8*%
X37562500Y-69000000D03*
X39437500Y-69000000D03*
%TD*%
%TO.C,D8*%
X136062500Y-69000000D03*
X137937500Y-69000000D03*
%TD*%
%TO.C,D8*%
X234562500Y-69000000D03*
X236437500Y-69000000D03*
%TD*%
%TO.C,D8*%
X37562500Y-117000000D03*
X39437500Y-117000000D03*
%TD*%
%TO.C,D8*%
X136062500Y-117000000D03*
X137937500Y-117000000D03*
%TD*%
%TO.C,D8*%
X234562500Y-117000000D03*
X236437500Y-117000000D03*
%TD*%
M02*
