G04 #@! TF.GenerationSoftware,KiCad,Pcbnew,7.0.1-3b83917a11~171~ubuntu20.04.1*
G04 #@! TF.CreationDate,2023-10-27T13:38:02+02:00*
G04 #@! TF.ProjectId,panel_top,70616e65-6c5f-4746-9f70-2e6b69636164,rev?*
G04 #@! TF.SameCoordinates,PX1ab3f0PY1312d00*
G04 #@! TF.FileFunction,Legend,Top*
G04 #@! TF.FilePolarity,Positive*
%FSLAX46Y46*%
G04 Gerber Fmt 4.6, Leading zero omitted, Abs format (unit mm)*
G04 Created by KiCad (PCBNEW 7.0.1-3b83917a11~171~ubuntu20.04.1) date 2023-10-27 13:38:02*
%MOMM*%
%LPD*%
G01*
G04 APERTURE LIST*
%ADD10C,0.150000*%
%ADD11C,1.000000*%
%ADD12C,0.120000*%
%ADD13C,0.500000*%
%ADD14R,1.700000X1.700000*%
G04 APERTURE END LIST*
D10*
X9514214Y-13014214D02*
X9514214Y-20014214D01*
X108014214Y-13014214D02*
X108014214Y-20014214D01*
X206514214Y-13014214D02*
X206514214Y-20014214D01*
X9514214Y-61014214D02*
X9514214Y-68014214D01*
X108014214Y-61014214D02*
X108014214Y-68014214D01*
X206514214Y-61014214D02*
X206514214Y-68014214D01*
X9514214Y-109014214D02*
X9514214Y-116014214D01*
X108014214Y-109014214D02*
X108014214Y-116014214D01*
X206514214Y-109014214D02*
X206514214Y-116014214D01*
X45514214Y-11014214D02*
X33514214Y-11014214D01*
X144014214Y-11014214D02*
X132014214Y-11014214D01*
X242514214Y-11014214D02*
X230514214Y-11014214D01*
X45514214Y-59014214D02*
X33514214Y-59014214D01*
X144014214Y-59014214D02*
X132014214Y-59014214D01*
X242514214Y-59014214D02*
X230514214Y-59014214D01*
X45514214Y-107014214D02*
X33514214Y-107014214D01*
X144014214Y-107014214D02*
X132014214Y-107014214D01*
X242514214Y-107014214D02*
X230514214Y-107014214D01*
X22514214Y-22014214D02*
X11514214Y-22014214D01*
X121014214Y-22014214D02*
X110014214Y-22014214D01*
X219514214Y-22014214D02*
X208514214Y-22014214D01*
X22514214Y-70014214D02*
X11514214Y-70014214D01*
X121014214Y-70014214D02*
X110014214Y-70014214D01*
X219514214Y-70014214D02*
X208514214Y-70014214D01*
X22514214Y-118014214D02*
X11514214Y-118014214D01*
X121014214Y-118014214D02*
X110014214Y-118014214D01*
X219514214Y-118014214D02*
X208514214Y-118014214D01*
X13514214Y-34014214D02*
X13514214Y-36014214D01*
X112014214Y-34014214D02*
X112014214Y-36014214D01*
X210514214Y-34014214D02*
X210514214Y-36014214D01*
X13514214Y-82014214D02*
X13514214Y-84014214D01*
X112014214Y-82014214D02*
X112014214Y-84014214D01*
X210514214Y-82014214D02*
X210514214Y-84014214D01*
X13514214Y-130014214D02*
X13514214Y-132014214D01*
X112014214Y-130014214D02*
X112014214Y-132014214D01*
X210514214Y-130014214D02*
X210514214Y-132014214D01*
X52514214Y-8014214D02*
X51514214Y-8014214D01*
X151014214Y-8014214D02*
X150014214Y-8014214D01*
X249514214Y-8014214D02*
X248514214Y-8014214D01*
X52514214Y-56014214D02*
X51514214Y-56014214D01*
X151014214Y-56014214D02*
X150014214Y-56014214D01*
X249514214Y-56014214D02*
X248514214Y-56014214D01*
X52514214Y-104014214D02*
X51514214Y-104014214D01*
X151014214Y-104014214D02*
X150014214Y-104014214D01*
X249514214Y-104014214D02*
X248514214Y-104014214D01*
X24514214Y-11014214D02*
X24514214Y-13014214D01*
X123014214Y-11014214D02*
X123014214Y-13014214D01*
X221514214Y-11014214D02*
X221514214Y-13014214D01*
X24514214Y-59014214D02*
X24514214Y-61014214D01*
X123014214Y-59014214D02*
X123014214Y-61014214D01*
X221514214Y-59014214D02*
X221514214Y-61014214D01*
X24514214Y-107014214D02*
X24514214Y-109014214D01*
X123014214Y-107014214D02*
X123014214Y-109014214D01*
X221514214Y-107014214D02*
X221514214Y-109014214D01*
X91514214Y-8014214D02*
X73514214Y-8014214D01*
X190014214Y-8014214D02*
X172014214Y-8014214D01*
X288514214Y-8014214D02*
X270514214Y-8014214D01*
X91514214Y-56014214D02*
X73514214Y-56014214D01*
X190014214Y-56014214D02*
X172014214Y-56014214D01*
X288514214Y-56014214D02*
X270514214Y-56014214D01*
X91514214Y-104014214D02*
X73514214Y-104014214D01*
X190014214Y-104014214D02*
X172014214Y-104014214D01*
X288514214Y-104014214D02*
X270514214Y-104014214D01*
X32514214Y-22014214D02*
X45514214Y-22014214D01*
X131014214Y-22014214D02*
X144014214Y-22014214D01*
X229514214Y-22014214D02*
X242514214Y-22014214D01*
X32514214Y-70014214D02*
X45514214Y-70014214D01*
X131014214Y-70014214D02*
X144014214Y-70014214D01*
X229514214Y-70014214D02*
X242514214Y-70014214D01*
X32514214Y-118014214D02*
X45514214Y-118014214D01*
X131014214Y-118014214D02*
X144014214Y-118014214D01*
X229514214Y-118014214D02*
X242514214Y-118014214D01*
X84514214Y-30014214D02*
G75*
G03*
X85514214Y-29014214I-14J1000014D01*
G01*
X183014214Y-30014214D02*
G75*
G03*
X184014214Y-29014214I-14J1000014D01*
G01*
X281514214Y-30014214D02*
G75*
G03*
X282514214Y-29014214I-14J1000014D01*
G01*
X84514214Y-78014214D02*
G75*
G03*
X85514214Y-77014214I-14J1000014D01*
G01*
X183014214Y-78014214D02*
G75*
G03*
X184014214Y-77014214I-14J1000014D01*
G01*
X281514214Y-78014214D02*
G75*
G03*
X282514214Y-77014214I-14J1000014D01*
G01*
X84514214Y-126014214D02*
G75*
G03*
X85514214Y-125014214I-14J1000014D01*
G01*
X183014214Y-126014214D02*
G75*
G03*
X184014214Y-125014214I-14J1000014D01*
G01*
X281514214Y-126014214D02*
G75*
G03*
X282514214Y-125014214I-14J1000014D01*
G01*
X73514214Y-34014214D02*
X73514214Y-8014214D01*
X172014214Y-34014214D02*
X172014214Y-8014214D01*
X270514214Y-34014214D02*
X270514214Y-8014214D01*
X73514214Y-82014214D02*
X73514214Y-56014214D01*
X172014214Y-82014214D02*
X172014214Y-56014214D01*
X270514214Y-82014214D02*
X270514214Y-56014214D01*
X73514214Y-130014214D02*
X73514214Y-104014214D01*
X172014214Y-130014214D02*
X172014214Y-104014214D01*
X270514214Y-130014214D02*
X270514214Y-104014214D01*
X86514214Y-32014214D02*
G75*
G03*
X87514214Y-31014214I-14J1000014D01*
G01*
X185014214Y-32014214D02*
G75*
G03*
X186014214Y-31014214I-14J1000014D01*
G01*
X283514214Y-32014214D02*
G75*
G03*
X284514214Y-31014214I-14J1000014D01*
G01*
X86514214Y-80014214D02*
G75*
G03*
X87514214Y-79014214I-14J1000014D01*
G01*
X185014214Y-80014214D02*
G75*
G03*
X186014214Y-79014214I-14J1000014D01*
G01*
X283514214Y-80014214D02*
G75*
G03*
X284514214Y-79014214I-14J1000014D01*
G01*
X86514214Y-128014214D02*
G75*
G03*
X87514214Y-127014214I-14J1000014D01*
G01*
X185014214Y-128014214D02*
G75*
G03*
X186014214Y-127014214I-14J1000014D01*
G01*
X283514214Y-128014214D02*
G75*
G03*
X284514214Y-127014214I-14J1000014D01*
G01*
X24514186Y-22014214D02*
G75*
G03*
X22514214Y-20014214I-1999986J14D01*
G01*
X123014186Y-22014214D02*
G75*
G03*
X121014214Y-20014214I-1999986J14D01*
G01*
X221514186Y-22014214D02*
G75*
G03*
X219514214Y-20014214I-1999986J14D01*
G01*
X24514186Y-70014214D02*
G75*
G03*
X22514214Y-68014214I-1999986J14D01*
G01*
X123014186Y-70014214D02*
G75*
G03*
X121014214Y-68014214I-1999986J14D01*
G01*
X221514186Y-70014214D02*
G75*
G03*
X219514214Y-68014214I-1999986J14D01*
G01*
X24514186Y-118014214D02*
G75*
G03*
X22514214Y-116014214I-1999986J14D01*
G01*
X123014186Y-118014214D02*
G75*
G03*
X121014214Y-116014214I-1999986J14D01*
G01*
X221514186Y-118014214D02*
G75*
G03*
X219514214Y-116014214I-1999986J14D01*
G01*
X9514186Y-20014214D02*
G75*
G03*
X11514214Y-22014214I2000014J14D01*
G01*
X108014186Y-20014214D02*
G75*
G03*
X110014214Y-22014214I2000014J14D01*
G01*
X206514186Y-20014214D02*
G75*
G03*
X208514214Y-22014214I2000014J14D01*
G01*
X9514186Y-68014214D02*
G75*
G03*
X11514214Y-70014214I2000014J14D01*
G01*
X108014186Y-68014214D02*
G75*
G03*
X110014214Y-70014214I2000014J14D01*
G01*
X206514186Y-68014214D02*
G75*
G03*
X208514214Y-70014214I2000014J14D01*
G01*
X9514186Y-116014214D02*
G75*
G03*
X11514214Y-118014214I2000014J14D01*
G01*
X108014186Y-116014214D02*
G75*
G03*
X110014214Y-118014214I2000014J14D01*
G01*
X206514186Y-116014214D02*
G75*
G03*
X208514214Y-118014214I2000014J14D01*
G01*
X69514214Y-34014214D02*
X73514214Y-34014214D01*
X168014214Y-34014214D02*
X172014214Y-34014214D01*
X266514214Y-34014214D02*
X270514214Y-34014214D01*
X69514214Y-82014214D02*
X73514214Y-82014214D01*
X168014214Y-82014214D02*
X172014214Y-82014214D01*
X266514214Y-82014214D02*
X270514214Y-82014214D01*
X69514214Y-130014214D02*
X73514214Y-130014214D01*
X168014214Y-130014214D02*
X172014214Y-130014214D01*
X266514214Y-130014214D02*
X270514214Y-130014214D01*
X75514214Y-36014214D02*
X75514214Y-10014214D01*
X174014214Y-36014214D02*
X174014214Y-10014214D01*
X272514214Y-36014214D02*
X272514214Y-10014214D01*
X75514214Y-84014214D02*
X75514214Y-58014214D01*
X174014214Y-84014214D02*
X174014214Y-58014214D01*
X272514214Y-84014214D02*
X272514214Y-58014214D01*
X75514214Y-132014214D02*
X75514214Y-106014214D01*
X174014214Y-132014214D02*
X174014214Y-106014214D01*
X272514214Y-132014214D02*
X272514214Y-106014214D01*
X59514214Y-16014214D02*
X59514214Y-33014214D01*
X158014214Y-16014214D02*
X158014214Y-33014214D01*
X256514214Y-16014214D02*
X256514214Y-33014214D01*
X59514214Y-64014214D02*
X59514214Y-81014214D01*
X158014214Y-64014214D02*
X158014214Y-81014214D01*
X256514214Y-64014214D02*
X256514214Y-81014214D01*
X59514214Y-112014214D02*
X59514214Y-129014214D01*
X158014214Y-112014214D02*
X158014214Y-129014214D01*
X256514214Y-112014214D02*
X256514214Y-129014214D01*
X30514214Y-14014214D02*
X30514214Y-29014214D01*
X129014214Y-14014214D02*
X129014214Y-29014214D01*
X227514214Y-14014214D02*
X227514214Y-29014214D01*
X30514214Y-62014214D02*
X30514214Y-77014214D01*
X129014214Y-62014214D02*
X129014214Y-77014214D01*
X227514214Y-62014214D02*
X227514214Y-77014214D01*
X30514214Y-110014214D02*
X30514214Y-125014214D01*
X129014214Y-110014214D02*
X129014214Y-125014214D01*
X227514214Y-110014214D02*
X227514214Y-125014214D01*
X32514214Y-22014214D02*
X32514214Y-29014214D01*
X131014214Y-22014214D02*
X131014214Y-29014214D01*
X229514214Y-22014214D02*
X229514214Y-29014214D01*
X32514214Y-70014214D02*
X32514214Y-77014214D01*
X131014214Y-70014214D02*
X131014214Y-77014214D01*
X229514214Y-70014214D02*
X229514214Y-77014214D01*
X32514214Y-118014214D02*
X32514214Y-125014214D01*
X131014214Y-118014214D02*
X131014214Y-125014214D01*
X229514214Y-118014214D02*
X229514214Y-125014214D01*
X77514214Y-25014214D02*
X77514214Y-16014214D01*
X176014214Y-25014214D02*
X176014214Y-16014214D01*
X274514214Y-25014214D02*
X274514214Y-16014214D01*
X77514214Y-73014214D02*
X77514214Y-64014214D01*
X176014214Y-73014214D02*
X176014214Y-64014214D01*
X274514214Y-73014214D02*
X274514214Y-64014214D01*
X77514214Y-121014214D02*
X77514214Y-112014214D01*
X176014214Y-121014214D02*
X176014214Y-112014214D01*
X274514214Y-121014214D02*
X274514214Y-112014214D01*
X77514214Y-32014214D02*
X77514214Y-30014214D01*
X176014214Y-32014214D02*
X176014214Y-30014214D01*
X274514214Y-32014214D02*
X274514214Y-30014214D01*
X77514214Y-80014214D02*
X77514214Y-78014214D01*
X176014214Y-80014214D02*
X176014214Y-78014214D01*
X274514214Y-80014214D02*
X274514214Y-78014214D01*
X77514214Y-128014214D02*
X77514214Y-126014214D01*
X176014214Y-128014214D02*
X176014214Y-126014214D01*
X274514214Y-128014214D02*
X274514214Y-126014214D01*
X11514214Y-11014214D02*
G75*
G03*
X9514214Y-13014214I-4J-1999996D01*
G01*
X110014214Y-11014214D02*
G75*
G03*
X108014214Y-13014214I-14J-1999986D01*
G01*
X208514214Y-11014214D02*
G75*
G03*
X206514214Y-13014214I-14J-1999986D01*
G01*
X11514214Y-59014214D02*
G75*
G03*
X9514214Y-61014214I-4J-1999996D01*
G01*
X110014214Y-59014214D02*
G75*
G03*
X108014214Y-61014214I-14J-1999986D01*
G01*
X208514214Y-59014214D02*
G75*
G03*
X206514214Y-61014214I-14J-1999986D01*
G01*
X11514214Y-107014214D02*
G75*
G03*
X9514214Y-109014214I-4J-1999996D01*
G01*
X110014214Y-107014214D02*
G75*
G03*
X108014214Y-109014214I-14J-1999986D01*
G01*
X208514214Y-107014214D02*
G75*
G03*
X206514214Y-109014214I-14J-1999986D01*
G01*
X77514214Y-30014214D02*
X84514214Y-30014214D01*
X176014214Y-30014214D02*
X183014214Y-30014214D01*
X274514214Y-30014214D02*
X281514214Y-30014214D01*
X77514214Y-78014214D02*
X84514214Y-78014214D01*
X176014214Y-78014214D02*
X183014214Y-78014214D01*
X274514214Y-78014214D02*
X281514214Y-78014214D01*
X77514214Y-126014214D02*
X84514214Y-126014214D01*
X176014214Y-126014214D02*
X183014214Y-126014214D01*
X274514214Y-126014214D02*
X281514214Y-126014214D01*
X45514214Y-20014214D02*
X32514214Y-20014214D01*
X144014214Y-20014214D02*
X131014214Y-20014214D01*
X242514214Y-20014214D02*
X229514214Y-20014214D01*
X45514214Y-68014214D02*
X32514214Y-68014214D01*
X144014214Y-68014214D02*
X131014214Y-68014214D01*
X242514214Y-68014214D02*
X229514214Y-68014214D01*
X45514214Y-116014214D02*
X32514214Y-116014214D01*
X144014214Y-116014214D02*
X131014214Y-116014214D01*
X242514214Y-116014214D02*
X229514214Y-116014214D01*
X80514214Y-18014214D02*
G75*
G03*
X79514214Y-19014214I-14J-999986D01*
G01*
X179014214Y-18014214D02*
G75*
G03*
X178014214Y-19014214I-14J-999986D01*
G01*
X277514214Y-18014214D02*
G75*
G03*
X276514214Y-19014214I-14J-999986D01*
G01*
X80514214Y-66014214D02*
G75*
G03*
X79514214Y-67014214I-14J-999986D01*
G01*
X179014214Y-66014214D02*
G75*
G03*
X178014214Y-67014214I-14J-999986D01*
G01*
X277514214Y-66014214D02*
G75*
G03*
X276514214Y-67014214I-14J-999986D01*
G01*
X80514214Y-114014214D02*
G75*
G03*
X79514214Y-115014214I-14J-999986D01*
G01*
X179014214Y-114014214D02*
G75*
G03*
X178014214Y-115014214I-14J-999986D01*
G01*
X277514214Y-114014214D02*
G75*
G03*
X276514214Y-115014214I-14J-999986D01*
G01*
X45514214Y-20014214D02*
X45514214Y-22014214D01*
X144014214Y-20014214D02*
X144014214Y-22014214D01*
X242514214Y-20014214D02*
X242514214Y-22014214D01*
X45514214Y-68014214D02*
X45514214Y-70014214D01*
X144014214Y-68014214D02*
X144014214Y-70014214D01*
X242514214Y-68014214D02*
X242514214Y-70014214D01*
X45514214Y-116014214D02*
X45514214Y-118014214D01*
X144014214Y-116014214D02*
X144014214Y-118014214D01*
X242514214Y-116014214D02*
X242514214Y-118014214D01*
X61514214Y-16014214D02*
X59514214Y-16014214D01*
X160014214Y-16014214D02*
X158014214Y-16014214D01*
X258514214Y-16014214D02*
X256514214Y-16014214D01*
X61514214Y-64014214D02*
X59514214Y-64014214D01*
X160014214Y-64014214D02*
X158014214Y-64014214D01*
X258514214Y-64014214D02*
X256514214Y-64014214D01*
X61514214Y-112014214D02*
X59514214Y-112014214D01*
X160014214Y-112014214D02*
X158014214Y-112014214D01*
X258514214Y-112014214D02*
X256514214Y-112014214D01*
X53514214Y-10014214D02*
X67514214Y-10014214D01*
X152014214Y-10014214D02*
X166014214Y-10014214D01*
X250514214Y-10014214D02*
X264514214Y-10014214D01*
X53514214Y-58014214D02*
X67514214Y-58014214D01*
X152014214Y-58014214D02*
X166014214Y-58014214D01*
X250514214Y-58014214D02*
X264514214Y-58014214D01*
X53514214Y-106014214D02*
X67514214Y-106014214D01*
X152014214Y-106014214D02*
X166014214Y-106014214D01*
X250514214Y-106014214D02*
X264514214Y-106014214D01*
X75514214Y-10014214D02*
X89514214Y-10014214D01*
X174014214Y-10014214D02*
X188014214Y-10014214D01*
X272514214Y-10014214D02*
X286514214Y-10014214D01*
X75514214Y-58014214D02*
X89514214Y-58014214D01*
X174014214Y-58014214D02*
X188014214Y-58014214D01*
X272514214Y-58014214D02*
X286514214Y-58014214D01*
X75514214Y-106014214D02*
X89514214Y-106014214D01*
X174014214Y-106014214D02*
X188014214Y-106014214D01*
X272514214Y-106014214D02*
X286514214Y-106014214D01*
X86514214Y-32014214D02*
X77514214Y-32014214D01*
X185014214Y-32014214D02*
X176014214Y-32014214D01*
X283514214Y-32014214D02*
X274514214Y-32014214D01*
X86514214Y-80014214D02*
X77514214Y-80014214D01*
X185014214Y-80014214D02*
X176014214Y-80014214D01*
X283514214Y-80014214D02*
X274514214Y-80014214D01*
X86514214Y-128014214D02*
X77514214Y-128014214D01*
X185014214Y-128014214D02*
X176014214Y-128014214D01*
X283514214Y-128014214D02*
X274514214Y-128014214D01*
X87514214Y-24014214D02*
X87514214Y-31014214D01*
X186014214Y-24014214D02*
X186014214Y-31014214D01*
X284514214Y-24014214D02*
X284514214Y-31014214D01*
X87514214Y-72014214D02*
X87514214Y-79014214D01*
X186014214Y-72014214D02*
X186014214Y-79014214D01*
X284514214Y-72014214D02*
X284514214Y-79014214D01*
X87514214Y-120014214D02*
X87514214Y-127014214D01*
X186014214Y-120014214D02*
X186014214Y-127014214D01*
X284514214Y-120014214D02*
X284514214Y-127014214D01*
X85514186Y-26014214D02*
G75*
G03*
X84514214Y-25014214I-999986J14D01*
G01*
X184014186Y-26014214D02*
G75*
G03*
X183014214Y-25014214I-999986J14D01*
G01*
X282514186Y-26014214D02*
G75*
G03*
X281514214Y-25014214I-999986J14D01*
G01*
X85514186Y-74014214D02*
G75*
G03*
X84514214Y-73014214I-999986J14D01*
G01*
X184014186Y-74014214D02*
G75*
G03*
X183014214Y-73014214I-999986J14D01*
G01*
X282514186Y-74014214D02*
G75*
G03*
X281514214Y-73014214I-999986J14D01*
G01*
X85514186Y-122014214D02*
G75*
G03*
X84514214Y-121014214I-999986J14D01*
G01*
X184014186Y-122014214D02*
G75*
G03*
X183014214Y-121014214I-999986J14D01*
G01*
X282514186Y-122014214D02*
G75*
G03*
X281514214Y-121014214I-999986J14D01*
G01*
X13514214Y-36014214D02*
X53514214Y-36014214D01*
X112014214Y-36014214D02*
X152014214Y-36014214D01*
X210514214Y-36014214D02*
X250514214Y-36014214D01*
X13514214Y-84014214D02*
X53514214Y-84014214D01*
X112014214Y-84014214D02*
X152014214Y-84014214D01*
X210514214Y-84014214D02*
X250514214Y-84014214D01*
X13514214Y-132014214D02*
X53514214Y-132014214D01*
X112014214Y-132014214D02*
X152014214Y-132014214D01*
X210514214Y-132014214D02*
X250514214Y-132014214D01*
X32514214Y-31014214D02*
X45514214Y-31014214D01*
X131014214Y-31014214D02*
X144014214Y-31014214D01*
X229514214Y-31014214D02*
X242514214Y-31014214D01*
X32514214Y-79014214D02*
X45514214Y-79014214D01*
X131014214Y-79014214D02*
X144014214Y-79014214D01*
X229514214Y-79014214D02*
X242514214Y-79014214D01*
X32514214Y-127014214D02*
X45514214Y-127014214D01*
X131014214Y-127014214D02*
X144014214Y-127014214D01*
X229514214Y-127014214D02*
X242514214Y-127014214D01*
X32514214Y-13014214D02*
X45514214Y-13014214D01*
X131014214Y-13014214D02*
X144014214Y-13014214D01*
X229514214Y-13014214D02*
X242514214Y-13014214D01*
X32514214Y-61014214D02*
X45514214Y-61014214D01*
X131014214Y-61014214D02*
X144014214Y-61014214D01*
X229514214Y-61014214D02*
X242514214Y-61014214D01*
X32514214Y-109014214D02*
X45514214Y-109014214D01*
X131014214Y-109014214D02*
X144014214Y-109014214D01*
X229514214Y-109014214D02*
X242514214Y-109014214D01*
X67514214Y-10014214D02*
X67514214Y-36014214D01*
X166014214Y-10014214D02*
X166014214Y-36014214D01*
X264514214Y-10014214D02*
X264514214Y-36014214D01*
X67514214Y-58014214D02*
X67514214Y-84014214D01*
X166014214Y-58014214D02*
X166014214Y-84014214D01*
X264514214Y-58014214D02*
X264514214Y-84014214D01*
X67514214Y-106014214D02*
X67514214Y-132014214D01*
X166014214Y-106014214D02*
X166014214Y-132014214D01*
X264514214Y-106014214D02*
X264514214Y-132014214D01*
X24514214Y-22014214D02*
X24514214Y-29014214D01*
X123014214Y-22014214D02*
X123014214Y-29014214D01*
X221514214Y-22014214D02*
X221514214Y-29014214D01*
X24514214Y-70014214D02*
X24514214Y-77014214D01*
X123014214Y-70014214D02*
X123014214Y-77014214D01*
X221514214Y-70014214D02*
X221514214Y-77014214D01*
X24514214Y-118014214D02*
X24514214Y-125014214D01*
X123014214Y-118014214D02*
X123014214Y-125014214D01*
X221514214Y-118014214D02*
X221514214Y-125014214D01*
X33514214Y-11014214D02*
G75*
G03*
X30514214Y-14014214I-14J-2999986D01*
G01*
X132014214Y-11014214D02*
G75*
G03*
X129014214Y-14014214I-14J-2999986D01*
G01*
X230514214Y-11014214D02*
G75*
G03*
X227514214Y-14014214I-14J-2999986D01*
G01*
X33514214Y-59014214D02*
G75*
G03*
X30514214Y-62014214I-14J-2999986D01*
G01*
X132014214Y-59014214D02*
G75*
G03*
X129014214Y-62014214I-14J-2999986D01*
G01*
X230514214Y-59014214D02*
G75*
G03*
X227514214Y-62014214I-14J-2999986D01*
G01*
X33514214Y-107014214D02*
G75*
G03*
X30514214Y-110014214I-14J-2999986D01*
G01*
X132014214Y-107014214D02*
G75*
G03*
X129014214Y-110014214I-14J-2999986D01*
G01*
X230514214Y-107014214D02*
G75*
G03*
X227514214Y-110014214I-14J-2999986D01*
G01*
X51514214Y-8014214D02*
X51514214Y-34014214D01*
X150014214Y-8014214D02*
X150014214Y-34014214D01*
X248514214Y-8014214D02*
X248514214Y-34014214D01*
X51514214Y-56014214D02*
X51514214Y-82014214D01*
X150014214Y-56014214D02*
X150014214Y-82014214D01*
X248514214Y-56014214D02*
X248514214Y-82014214D01*
X51514214Y-104014214D02*
X51514214Y-130014214D01*
X150014214Y-104014214D02*
X150014214Y-130014214D01*
X248514214Y-104014214D02*
X248514214Y-130014214D01*
X94514214Y-36014214D02*
X94514214Y-34014214D01*
X193014214Y-36014214D02*
X193014214Y-34014214D01*
X291514214Y-36014214D02*
X291514214Y-34014214D01*
X94514214Y-84014214D02*
X94514214Y-82014214D01*
X193014214Y-84014214D02*
X193014214Y-82014214D01*
X291514214Y-84014214D02*
X291514214Y-82014214D01*
X94514214Y-132014214D02*
X94514214Y-130014214D01*
X193014214Y-132014214D02*
X193014214Y-130014214D01*
X291514214Y-132014214D02*
X291514214Y-130014214D01*
X61514214Y-33014214D02*
X61514214Y-16014214D01*
X160014214Y-33014214D02*
X160014214Y-16014214D01*
X258514214Y-33014214D02*
X258514214Y-16014214D01*
X61514214Y-81014214D02*
X61514214Y-64014214D01*
X160014214Y-81014214D02*
X160014214Y-64014214D01*
X258514214Y-81014214D02*
X258514214Y-64014214D01*
X61514214Y-129014214D02*
X61514214Y-112014214D01*
X160014214Y-129014214D02*
X160014214Y-112014214D01*
X258514214Y-129014214D02*
X258514214Y-112014214D01*
X11514214Y-13014214D02*
X11514214Y-20014214D01*
X110014214Y-13014214D02*
X110014214Y-20014214D01*
X208514214Y-13014214D02*
X208514214Y-20014214D01*
X11514214Y-61014214D02*
X11514214Y-68014214D01*
X110014214Y-61014214D02*
X110014214Y-68014214D01*
X208514214Y-61014214D02*
X208514214Y-68014214D01*
X11514214Y-109014214D02*
X11514214Y-116014214D01*
X110014214Y-109014214D02*
X110014214Y-116014214D01*
X208514214Y-109014214D02*
X208514214Y-116014214D01*
X32514214Y-29014214D02*
X45514214Y-29014214D01*
X131014214Y-29014214D02*
X144014214Y-29014214D01*
X229514214Y-29014214D02*
X242514214Y-29014214D01*
X32514214Y-77014214D02*
X45514214Y-77014214D01*
X131014214Y-77014214D02*
X144014214Y-77014214D01*
X229514214Y-77014214D02*
X242514214Y-77014214D01*
X32514214Y-125014214D02*
X45514214Y-125014214D01*
X131014214Y-125014214D02*
X144014214Y-125014214D01*
X229514214Y-125014214D02*
X242514214Y-125014214D01*
X67514214Y-36014214D02*
X75514214Y-36014214D01*
X166014214Y-36014214D02*
X174014214Y-36014214D01*
X264514214Y-36014214D02*
X272514214Y-36014214D01*
X67514214Y-84014214D02*
X75514214Y-84014214D01*
X166014214Y-84014214D02*
X174014214Y-84014214D01*
X264514214Y-84014214D02*
X272514214Y-84014214D01*
X67514214Y-132014214D02*
X75514214Y-132014214D01*
X166014214Y-132014214D02*
X174014214Y-132014214D01*
X264514214Y-132014214D02*
X272514214Y-132014214D01*
X91514214Y-34014214D02*
X91514214Y-8014214D01*
X190014214Y-34014214D02*
X190014214Y-8014214D01*
X288514214Y-34014214D02*
X288514214Y-8014214D01*
X91514214Y-82014214D02*
X91514214Y-56014214D01*
X190014214Y-82014214D02*
X190014214Y-56014214D01*
X288514214Y-82014214D02*
X288514214Y-56014214D01*
X91514214Y-130014214D02*
X91514214Y-104014214D01*
X190014214Y-130014214D02*
X190014214Y-104014214D01*
X288514214Y-130014214D02*
X288514214Y-104014214D01*
X22514214Y-22014214D02*
X22514214Y-29014214D01*
X121014214Y-22014214D02*
X121014214Y-29014214D01*
X219514214Y-22014214D02*
X219514214Y-29014214D01*
X22514214Y-70014214D02*
X22514214Y-77014214D01*
X121014214Y-70014214D02*
X121014214Y-77014214D01*
X219514214Y-70014214D02*
X219514214Y-77014214D01*
X22514214Y-118014214D02*
X22514214Y-125014214D01*
X121014214Y-118014214D02*
X121014214Y-125014214D01*
X219514214Y-118014214D02*
X219514214Y-125014214D01*
X22514214Y-31014214D02*
G75*
G03*
X24514214Y-29014214I-14J2000014D01*
G01*
X121014214Y-31014214D02*
G75*
G03*
X123014214Y-29014214I-14J2000014D01*
G01*
X219514214Y-31014214D02*
G75*
G03*
X221514214Y-29014214I-14J2000014D01*
G01*
X22514214Y-79014214D02*
G75*
G03*
X24514214Y-77014214I-14J2000014D01*
G01*
X121014214Y-79014214D02*
G75*
G03*
X123014214Y-77014214I-14J2000014D01*
G01*
X219514214Y-79014214D02*
G75*
G03*
X221514214Y-77014214I-14J2000014D01*
G01*
X22514214Y-127014214D02*
G75*
G03*
X24514214Y-125014214I-14J2000014D01*
G01*
X121014214Y-127014214D02*
G75*
G03*
X123014214Y-125014214I-14J2000014D01*
G01*
X219514214Y-127014214D02*
G75*
G03*
X221514214Y-125014214I-14J2000014D01*
G01*
X9514214Y-31014214D02*
X22514214Y-31014214D01*
X108014214Y-31014214D02*
X121014214Y-31014214D01*
X206514214Y-31014214D02*
X219514214Y-31014214D01*
X9514214Y-79014214D02*
X22514214Y-79014214D01*
X108014214Y-79014214D02*
X121014214Y-79014214D01*
X206514214Y-79014214D02*
X219514214Y-79014214D01*
X9514214Y-127014214D02*
X22514214Y-127014214D01*
X108014214Y-127014214D02*
X121014214Y-127014214D01*
X206514214Y-127014214D02*
X219514214Y-127014214D01*
X30514186Y-29014214D02*
G75*
G03*
X32514214Y-31014214I2000014J14D01*
G01*
X129014186Y-29014214D02*
G75*
G03*
X131014214Y-31014214I2000014J14D01*
G01*
X227514186Y-29014214D02*
G75*
G03*
X229514214Y-31014214I2000014J14D01*
G01*
X30514186Y-77014214D02*
G75*
G03*
X32514214Y-79014214I2000014J14D01*
G01*
X129014186Y-77014214D02*
G75*
G03*
X131014214Y-79014214I2000014J14D01*
G01*
X227514186Y-77014214D02*
G75*
G03*
X229514214Y-79014214I2000014J14D01*
G01*
X30514186Y-125014214D02*
G75*
G03*
X32514214Y-127014214I2000014J14D01*
G01*
X129014186Y-125014214D02*
G75*
G03*
X131014214Y-127014214I2000014J14D01*
G01*
X227514186Y-125014214D02*
G75*
G03*
X229514214Y-127014214I2000014J14D01*
G01*
X85514214Y-29014214D02*
X85514214Y-26014214D01*
X184014214Y-29014214D02*
X184014214Y-26014214D01*
X282514214Y-29014214D02*
X282514214Y-26014214D01*
X85514214Y-77014214D02*
X85514214Y-74014214D01*
X184014214Y-77014214D02*
X184014214Y-74014214D01*
X282514214Y-77014214D02*
X282514214Y-74014214D01*
X85514214Y-125014214D02*
X85514214Y-122014214D01*
X184014214Y-125014214D02*
X184014214Y-122014214D01*
X282514214Y-125014214D02*
X282514214Y-122014214D01*
X22514214Y-29014214D02*
X9514214Y-29014214D01*
X121014214Y-29014214D02*
X108014214Y-29014214D01*
X219514214Y-29014214D02*
X206514214Y-29014214D01*
X22514214Y-77014214D02*
X9514214Y-77014214D01*
X121014214Y-77014214D02*
X108014214Y-77014214D01*
X219514214Y-77014214D02*
X206514214Y-77014214D01*
X22514214Y-125014214D02*
X9514214Y-125014214D01*
X121014214Y-125014214D02*
X108014214Y-125014214D01*
X219514214Y-125014214D02*
X206514214Y-125014214D01*
X94514214Y-34014214D02*
X91514214Y-34014214D01*
X193014214Y-34014214D02*
X190014214Y-34014214D01*
X291514214Y-34014214D02*
X288514214Y-34014214D01*
X94514214Y-82014214D02*
X91514214Y-82014214D01*
X193014214Y-82014214D02*
X190014214Y-82014214D01*
X291514214Y-82014214D02*
X288514214Y-82014214D01*
X94514214Y-130014214D02*
X91514214Y-130014214D01*
X193014214Y-130014214D02*
X190014214Y-130014214D01*
X291514214Y-130014214D02*
X288514214Y-130014214D01*
X80514214Y-23014214D02*
X86514214Y-23014214D01*
X179014214Y-23014214D02*
X185014214Y-23014214D01*
X277514214Y-23014214D02*
X283514214Y-23014214D01*
X80514214Y-71014214D02*
X86514214Y-71014214D01*
X179014214Y-71014214D02*
X185014214Y-71014214D01*
X277514214Y-71014214D02*
X283514214Y-71014214D01*
X80514214Y-119014214D02*
X86514214Y-119014214D01*
X179014214Y-119014214D02*
X185014214Y-119014214D01*
X277514214Y-119014214D02*
X283514214Y-119014214D01*
X89514214Y-132014214D02*
X94514214Y-132014214D01*
X188014214Y-132014214D02*
X193014214Y-132014214D01*
X286514214Y-132014214D02*
X291514214Y-132014214D01*
X89514214Y-36014214D02*
X94514214Y-36014214D01*
X188014214Y-36014214D02*
X193014214Y-36014214D01*
X286514214Y-36014214D02*
X291514214Y-36014214D01*
X89514214Y-84014214D02*
X94514214Y-84014214D01*
X188014214Y-84014214D02*
X193014214Y-84014214D01*
X286514214Y-84014214D02*
X291514214Y-84014214D01*
X87514214Y-18014214D02*
X80514214Y-18014214D01*
X186014214Y-18014214D02*
X179014214Y-18014214D01*
X284514214Y-18014214D02*
X277514214Y-18014214D01*
X87514214Y-66014214D02*
X80514214Y-66014214D01*
X186014214Y-66014214D02*
X179014214Y-66014214D01*
X284514214Y-66014214D02*
X277514214Y-66014214D01*
X87514214Y-114014214D02*
X80514214Y-114014214D01*
X186014214Y-114014214D02*
X179014214Y-114014214D01*
X284514214Y-114014214D02*
X277514214Y-114014214D01*
X59514214Y-33014214D02*
X61514214Y-33014214D01*
X158014214Y-33014214D02*
X160014214Y-33014214D01*
X256514214Y-33014214D02*
X258514214Y-33014214D01*
X59514214Y-81014214D02*
X61514214Y-81014214D01*
X158014214Y-81014214D02*
X160014214Y-81014214D01*
X256514214Y-81014214D02*
X258514214Y-81014214D01*
X59514214Y-129014214D02*
X61514214Y-129014214D01*
X158014214Y-129014214D02*
X160014214Y-129014214D01*
X256514214Y-129014214D02*
X258514214Y-129014214D01*
X79514186Y-22014214D02*
G75*
G03*
X80514214Y-23014214I1000014J14D01*
G01*
X178014186Y-22014214D02*
G75*
G03*
X179014214Y-23014214I1000014J14D01*
G01*
X276514186Y-22014214D02*
G75*
G03*
X277514214Y-23014214I1000014J14D01*
G01*
X79514186Y-70014214D02*
G75*
G03*
X80514214Y-71014214I1000014J14D01*
G01*
X178014186Y-70014214D02*
G75*
G03*
X179014214Y-71014214I1000014J14D01*
G01*
X276514186Y-70014214D02*
G75*
G03*
X277514214Y-71014214I1000014J14D01*
G01*
X79514186Y-118014214D02*
G75*
G03*
X80514214Y-119014214I1000014J14D01*
G01*
X178014186Y-118014214D02*
G75*
G03*
X179014214Y-119014214I1000014J14D01*
G01*
X276514186Y-118014214D02*
G75*
G03*
X277514214Y-119014214I1000014J14D01*
G01*
X24514214Y-13014214D02*
X11514214Y-13014214D01*
X123014214Y-13014214D02*
X110014214Y-13014214D01*
X221514214Y-13014214D02*
X208514214Y-13014214D01*
X24514214Y-61014214D02*
X11514214Y-61014214D01*
X123014214Y-61014214D02*
X110014214Y-61014214D01*
X221514214Y-61014214D02*
X208514214Y-61014214D01*
X24514214Y-109014214D02*
X11514214Y-109014214D01*
X123014214Y-109014214D02*
X110014214Y-109014214D01*
X221514214Y-109014214D02*
X208514214Y-109014214D01*
X32514214Y-20014214D02*
X32514214Y-13014214D01*
X131014214Y-20014214D02*
X131014214Y-13014214D01*
X229514214Y-20014214D02*
X229514214Y-13014214D01*
X32514214Y-68014214D02*
X32514214Y-61014214D01*
X131014214Y-68014214D02*
X131014214Y-61014214D01*
X229514214Y-68014214D02*
X229514214Y-61014214D01*
X32514214Y-116014214D02*
X32514214Y-109014214D01*
X131014214Y-116014214D02*
X131014214Y-109014214D01*
X229514214Y-116014214D02*
X229514214Y-109014214D01*
X45514214Y-29014214D02*
X45514214Y-31014214D01*
X144014214Y-29014214D02*
X144014214Y-31014214D01*
X242514214Y-29014214D02*
X242514214Y-31014214D01*
X45514214Y-77014214D02*
X45514214Y-79014214D01*
X144014214Y-77014214D02*
X144014214Y-79014214D01*
X242514214Y-77014214D02*
X242514214Y-79014214D01*
X45514214Y-125014214D02*
X45514214Y-127014214D01*
X144014214Y-125014214D02*
X144014214Y-127014214D01*
X242514214Y-125014214D02*
X242514214Y-127014214D01*
X53514214Y-36014214D02*
X53514214Y-10014214D01*
X152014214Y-36014214D02*
X152014214Y-10014214D01*
X250514214Y-36014214D02*
X250514214Y-10014214D01*
X53514214Y-84014214D02*
X53514214Y-58014214D01*
X152014214Y-84014214D02*
X152014214Y-58014214D01*
X250514214Y-84014214D02*
X250514214Y-58014214D01*
X53514214Y-132014214D02*
X53514214Y-106014214D01*
X152014214Y-132014214D02*
X152014214Y-106014214D01*
X250514214Y-132014214D02*
X250514214Y-106014214D01*
X11514214Y-20014214D02*
X22514214Y-20014214D01*
X110014214Y-20014214D02*
X121014214Y-20014214D01*
X208514214Y-20014214D02*
X219514214Y-20014214D01*
X11514214Y-68014214D02*
X22514214Y-68014214D01*
X110014214Y-68014214D02*
X121014214Y-68014214D01*
X208514214Y-68014214D02*
X219514214Y-68014214D01*
X11514214Y-116014214D02*
X22514214Y-116014214D01*
X110014214Y-116014214D02*
X121014214Y-116014214D01*
X208514214Y-116014214D02*
X219514214Y-116014214D01*
X89514214Y-10014214D02*
X89514214Y-36014214D01*
X188014214Y-10014214D02*
X188014214Y-36014214D01*
X286514214Y-10014214D02*
X286514214Y-36014214D01*
X89514214Y-58014214D02*
X89514214Y-84014214D01*
X188014214Y-58014214D02*
X188014214Y-84014214D01*
X286514214Y-58014214D02*
X286514214Y-84014214D01*
X89514214Y-106014214D02*
X89514214Y-132014214D01*
X188014214Y-106014214D02*
X188014214Y-132014214D01*
X286514214Y-106014214D02*
X286514214Y-132014214D01*
X45514214Y-11014214D02*
X45514214Y-13014214D01*
X144014214Y-11014214D02*
X144014214Y-13014214D01*
X242514214Y-11014214D02*
X242514214Y-13014214D01*
X45514214Y-59014214D02*
X45514214Y-61014214D01*
X144014214Y-59014214D02*
X144014214Y-61014214D01*
X242514214Y-59014214D02*
X242514214Y-61014214D01*
X45514214Y-107014214D02*
X45514214Y-109014214D01*
X144014214Y-107014214D02*
X144014214Y-109014214D01*
X242514214Y-107014214D02*
X242514214Y-109014214D01*
X69514214Y-8014214D02*
X52514214Y-8014214D01*
X168014214Y-8014214D02*
X151014214Y-8014214D01*
X266514214Y-8014214D02*
X249514214Y-8014214D01*
X69514214Y-56014214D02*
X52514214Y-56014214D01*
X168014214Y-56014214D02*
X151014214Y-56014214D01*
X266514214Y-56014214D02*
X249514214Y-56014214D01*
X69514214Y-104014214D02*
X52514214Y-104014214D01*
X168014214Y-104014214D02*
X151014214Y-104014214D01*
X266514214Y-104014214D02*
X249514214Y-104014214D01*
X84514214Y-25014214D02*
X77514214Y-25014214D01*
X183014214Y-25014214D02*
X176014214Y-25014214D01*
X281514214Y-25014214D02*
X274514214Y-25014214D01*
X84514214Y-73014214D02*
X77514214Y-73014214D01*
X183014214Y-73014214D02*
X176014214Y-73014214D01*
X281514214Y-73014214D02*
X274514214Y-73014214D01*
X84514214Y-121014214D02*
X77514214Y-121014214D01*
X183014214Y-121014214D02*
X176014214Y-121014214D01*
X281514214Y-121014214D02*
X274514214Y-121014214D01*
X69514214Y-34014214D02*
X69514214Y-8014214D01*
X168014214Y-34014214D02*
X168014214Y-8014214D01*
X266514214Y-34014214D02*
X266514214Y-8014214D01*
X69514214Y-82014214D02*
X69514214Y-56014214D01*
X168014214Y-82014214D02*
X168014214Y-56014214D01*
X266514214Y-82014214D02*
X266514214Y-56014214D01*
X69514214Y-130014214D02*
X69514214Y-104014214D01*
X168014214Y-130014214D02*
X168014214Y-104014214D01*
X266514214Y-130014214D02*
X266514214Y-104014214D01*
X87514214Y-16014214D02*
X87514214Y-18014214D01*
X186014214Y-16014214D02*
X186014214Y-18014214D01*
X284514214Y-16014214D02*
X284514214Y-18014214D01*
X87514214Y-64014214D02*
X87514214Y-66014214D01*
X186014214Y-64014214D02*
X186014214Y-66014214D01*
X284514214Y-64014214D02*
X284514214Y-66014214D01*
X87514214Y-112014214D02*
X87514214Y-114014214D01*
X186014214Y-112014214D02*
X186014214Y-114014214D01*
X284514214Y-112014214D02*
X284514214Y-114014214D01*
X87514186Y-24014214D02*
G75*
G03*
X86514214Y-23014214I-999986J14D01*
G01*
X186014186Y-24014214D02*
G75*
G03*
X185014214Y-23014214I-999986J14D01*
G01*
X284514186Y-24014214D02*
G75*
G03*
X283514214Y-23014214I-999986J14D01*
G01*
X87514186Y-72014214D02*
G75*
G03*
X86514214Y-71014214I-999986J14D01*
G01*
X186014186Y-72014214D02*
G75*
G03*
X185014214Y-71014214I-999986J14D01*
G01*
X284514186Y-72014214D02*
G75*
G03*
X283514214Y-71014214I-999986J14D01*
G01*
X87514186Y-120014214D02*
G75*
G03*
X86514214Y-119014214I-999986J14D01*
G01*
X186014186Y-120014214D02*
G75*
G03*
X185014214Y-119014214I-999986J14D01*
G01*
X284514186Y-120014214D02*
G75*
G03*
X283514214Y-119014214I-999986J14D01*
G01*
X9514214Y-20014214D02*
X9514214Y-18014214D01*
X108014214Y-20014214D02*
X108014214Y-18014214D01*
X206514214Y-20014214D02*
X206514214Y-18014214D01*
X9514214Y-68014214D02*
X9514214Y-66014214D01*
X108014214Y-68014214D02*
X108014214Y-66014214D01*
X206514214Y-68014214D02*
X206514214Y-66014214D01*
X9514214Y-116014214D02*
X9514214Y-114014214D01*
X108014214Y-116014214D02*
X108014214Y-114014214D01*
X206514214Y-116014214D02*
X206514214Y-114014214D01*
X79514214Y-19014214D02*
X79514214Y-22014214D01*
X178014214Y-19014214D02*
X178014214Y-22014214D01*
X276514214Y-19014214D02*
X276514214Y-22014214D01*
X79514214Y-67014214D02*
X79514214Y-70014214D01*
X178014214Y-67014214D02*
X178014214Y-70014214D01*
X276514214Y-67014214D02*
X276514214Y-70014214D01*
X79514214Y-115014214D02*
X79514214Y-118014214D01*
X178014214Y-115014214D02*
X178014214Y-118014214D01*
X276514214Y-115014214D02*
X276514214Y-118014214D01*
X77514214Y-16014214D02*
X87514214Y-16014214D01*
X176014214Y-16014214D02*
X186014214Y-16014214D01*
X274514214Y-16014214D02*
X284514214Y-16014214D01*
X77514214Y-64014214D02*
X87514214Y-64014214D01*
X176014214Y-64014214D02*
X186014214Y-64014214D01*
X274514214Y-64014214D02*
X284514214Y-64014214D01*
X77514214Y-112014214D02*
X87514214Y-112014214D01*
X176014214Y-112014214D02*
X186014214Y-112014214D01*
X274514214Y-112014214D02*
X284514214Y-112014214D01*
X51514214Y-34014214D02*
X13514214Y-34014214D01*
X150014214Y-34014214D02*
X112014214Y-34014214D01*
X248514214Y-34014214D02*
X210514214Y-34014214D01*
X51514214Y-82014214D02*
X13514214Y-82014214D01*
X150014214Y-82014214D02*
X112014214Y-82014214D01*
X248514214Y-82014214D02*
X210514214Y-82014214D01*
X51514214Y-130014214D02*
X13514214Y-130014214D01*
X150014214Y-130014214D02*
X112014214Y-130014214D01*
X248514214Y-130014214D02*
X210514214Y-130014214D01*
D11*
X9469772Y-35200000D02*
G75*
G03*
X9469772Y-35200000I-1969772J0D01*
G01*
X107969772Y-35200000D02*
G75*
G03*
X107969772Y-35200000I-1969772J0D01*
G01*
X206469772Y-35200000D02*
G75*
G03*
X206469772Y-35200000I-1969772J0D01*
G01*
X9469772Y-83200000D02*
G75*
G03*
X9469772Y-83200000I-1969772J0D01*
G01*
X107969772Y-83200000D02*
G75*
G03*
X107969772Y-83200000I-1969772J0D01*
G01*
X206469772Y-83200000D02*
G75*
G03*
X206469772Y-83200000I-1969772J0D01*
G01*
X9469772Y-131200000D02*
G75*
G03*
X9469772Y-131200000I-1969772J0D01*
G01*
X107969772Y-131200000D02*
G75*
G03*
X107969772Y-131200000I-1969772J0D01*
G01*
X206469772Y-131200000D02*
G75*
G03*
X206469772Y-131200000I-1969772J0D01*
G01*
D10*
X9514214Y-29014214D02*
X9514214Y-31014214D01*
X108014214Y-29014214D02*
X108014214Y-31014214D01*
X206514214Y-29014214D02*
X206514214Y-31014214D01*
X9514214Y-77014214D02*
X9514214Y-79014214D01*
X108014214Y-77014214D02*
X108014214Y-79014214D01*
X206514214Y-77014214D02*
X206514214Y-79014214D01*
X9514214Y-125014214D02*
X9514214Y-127014214D01*
X108014214Y-125014214D02*
X108014214Y-127014214D01*
X206514214Y-125014214D02*
X206514214Y-127014214D01*
X24514214Y-11014214D02*
X11514214Y-11014214D01*
X123014214Y-11014214D02*
X110014214Y-11014214D01*
X221514214Y-11014214D02*
X208514214Y-11014214D01*
X24514214Y-59014214D02*
X11514214Y-59014214D01*
X123014214Y-59014214D02*
X110014214Y-59014214D01*
X221514214Y-59014214D02*
X208514214Y-59014214D01*
X24514214Y-107014214D02*
X11514214Y-107014214D01*
X123014214Y-107014214D02*
X110014214Y-107014214D01*
X221514214Y-107014214D02*
X208514214Y-107014214D01*
D12*
X80670000Y-670000D02*
X82000000Y-670000D01*
X80670000Y-2000000D02*
X80670000Y-670000D01*
X80670000Y-3270000D02*
X80670000Y-3330000D01*
X80670000Y-3270000D02*
X83330000Y-3270000D01*
X80670000Y-3330000D02*
X83330000Y-3330000D01*
X83330000Y-3270000D02*
X83330000Y-3330000D01*
X179170000Y-670000D02*
X180500000Y-670000D01*
X179170000Y-2000000D02*
X179170000Y-670000D01*
X179170000Y-3270000D02*
X179170000Y-3330000D01*
X179170000Y-3270000D02*
X181830000Y-3270000D01*
X179170000Y-3330000D02*
X181830000Y-3330000D01*
X181830000Y-3270000D02*
X181830000Y-3330000D01*
X277670000Y-670000D02*
X279000000Y-670000D01*
X277670000Y-2000000D02*
X277670000Y-670000D01*
X277670000Y-3270000D02*
X277670000Y-3330000D01*
X277670000Y-3270000D02*
X280330000Y-3270000D01*
X277670000Y-3330000D02*
X280330000Y-3330000D01*
X280330000Y-3270000D02*
X280330000Y-3330000D01*
X80670000Y-48670000D02*
X82000000Y-48670000D01*
X80670000Y-50000000D02*
X80670000Y-48670000D01*
X80670000Y-51270000D02*
X80670000Y-51330000D01*
X80670000Y-51270000D02*
X83330000Y-51270000D01*
X80670000Y-51330000D02*
X83330000Y-51330000D01*
X83330000Y-51270000D02*
X83330000Y-51330000D01*
X179170000Y-48670000D02*
X180500000Y-48670000D01*
X179170000Y-50000000D02*
X179170000Y-48670000D01*
X179170000Y-51270000D02*
X179170000Y-51330000D01*
X179170000Y-51270000D02*
X181830000Y-51270000D01*
X179170000Y-51330000D02*
X181830000Y-51330000D01*
X181830000Y-51270000D02*
X181830000Y-51330000D01*
X277670000Y-48670000D02*
X279000000Y-48670000D01*
X277670000Y-50000000D02*
X277670000Y-48670000D01*
X277670000Y-51270000D02*
X277670000Y-51330000D01*
X277670000Y-51270000D02*
X280330000Y-51270000D01*
X277670000Y-51330000D02*
X280330000Y-51330000D01*
X280330000Y-51270000D02*
X280330000Y-51330000D01*
X80670000Y-96670000D02*
X82000000Y-96670000D01*
X80670000Y-98000000D02*
X80670000Y-96670000D01*
X80670000Y-99270000D02*
X80670000Y-99330000D01*
X80670000Y-99270000D02*
X83330000Y-99270000D01*
X80670000Y-99330000D02*
X83330000Y-99330000D01*
X83330000Y-99270000D02*
X83330000Y-99330000D01*
X179170000Y-96670000D02*
X180500000Y-96670000D01*
X179170000Y-98000000D02*
X179170000Y-96670000D01*
X179170000Y-99270000D02*
X179170000Y-99330000D01*
X179170000Y-99270000D02*
X181830000Y-99270000D01*
X179170000Y-99330000D02*
X181830000Y-99330000D01*
X181830000Y-99270000D02*
X181830000Y-99330000D01*
X277670000Y-96670000D02*
X279000000Y-96670000D01*
X277670000Y-98000000D02*
X277670000Y-96670000D01*
X277670000Y-99270000D02*
X277670000Y-99330000D01*
X277670000Y-99270000D02*
X280330000Y-99270000D01*
X277670000Y-99330000D02*
X280330000Y-99330000D01*
X280330000Y-99270000D02*
X280330000Y-99330000D01*
X11670000Y-42670000D02*
X13000000Y-42670000D01*
X11670000Y-44000000D02*
X11670000Y-42670000D01*
X11670000Y-45270000D02*
X11670000Y-45330000D01*
X11670000Y-45270000D02*
X14330000Y-45270000D01*
X11670000Y-45330000D02*
X14330000Y-45330000D01*
X14330000Y-45270000D02*
X14330000Y-45330000D01*
X110170000Y-42670000D02*
X111500000Y-42670000D01*
X110170000Y-44000000D02*
X110170000Y-42670000D01*
X110170000Y-45270000D02*
X110170000Y-45330000D01*
X110170000Y-45270000D02*
X112830000Y-45270000D01*
X110170000Y-45330000D02*
X112830000Y-45330000D01*
X112830000Y-45270000D02*
X112830000Y-45330000D01*
X208670000Y-42670000D02*
X210000000Y-42670000D01*
X208670000Y-44000000D02*
X208670000Y-42670000D01*
X208670000Y-45270000D02*
X208670000Y-45330000D01*
X208670000Y-45270000D02*
X211330000Y-45270000D01*
X208670000Y-45330000D02*
X211330000Y-45330000D01*
X211330000Y-45270000D02*
X211330000Y-45330000D01*
X11670000Y-90670000D02*
X13000000Y-90670000D01*
X11670000Y-92000000D02*
X11670000Y-90670000D01*
X11670000Y-93270000D02*
X11670000Y-93330000D01*
X11670000Y-93270000D02*
X14330000Y-93270000D01*
X11670000Y-93330000D02*
X14330000Y-93330000D01*
X14330000Y-93270000D02*
X14330000Y-93330000D01*
X110170000Y-90670000D02*
X111500000Y-90670000D01*
X110170000Y-92000000D02*
X110170000Y-90670000D01*
X110170000Y-93270000D02*
X110170000Y-93330000D01*
X110170000Y-93270000D02*
X112830000Y-93270000D01*
X110170000Y-93330000D02*
X112830000Y-93330000D01*
X112830000Y-93270000D02*
X112830000Y-93330000D01*
X208670000Y-90670000D02*
X210000000Y-90670000D01*
X208670000Y-92000000D02*
X208670000Y-90670000D01*
X208670000Y-93270000D02*
X208670000Y-93330000D01*
X208670000Y-93270000D02*
X211330000Y-93270000D01*
X208670000Y-93330000D02*
X211330000Y-93330000D01*
X211330000Y-93270000D02*
X211330000Y-93330000D01*
X11670000Y-138670000D02*
X13000000Y-138670000D01*
X11670000Y-140000000D02*
X11670000Y-138670000D01*
X11670000Y-141270000D02*
X11670000Y-141330000D01*
X11670000Y-141270000D02*
X14330000Y-141270000D01*
X11670000Y-141330000D02*
X14330000Y-141330000D01*
X14330000Y-141270000D02*
X14330000Y-141330000D01*
X110170000Y-138670000D02*
X111500000Y-138670000D01*
X110170000Y-140000000D02*
X110170000Y-138670000D01*
X110170000Y-141270000D02*
X110170000Y-141330000D01*
X110170000Y-141270000D02*
X112830000Y-141270000D01*
X110170000Y-141330000D02*
X112830000Y-141330000D01*
X112830000Y-141270000D02*
X112830000Y-141330000D01*
X208670000Y-138670000D02*
X210000000Y-138670000D01*
X208670000Y-140000000D02*
X208670000Y-138670000D01*
X208670000Y-141270000D02*
X208670000Y-141330000D01*
X208670000Y-141270000D02*
X211330000Y-141270000D01*
X208670000Y-141330000D02*
X211330000Y-141330000D01*
X211330000Y-141270000D02*
X211330000Y-141330000D01*
X11670000Y-670000D02*
X13000000Y-670000D01*
X11670000Y-2000000D02*
X11670000Y-670000D01*
X11670000Y-3270000D02*
X11670000Y-3330000D01*
X11670000Y-3270000D02*
X14330000Y-3270000D01*
X11670000Y-3330000D02*
X14330000Y-3330000D01*
X14330000Y-3270000D02*
X14330000Y-3330000D01*
X110170000Y-670000D02*
X111500000Y-670000D01*
X110170000Y-2000000D02*
X110170000Y-670000D01*
X110170000Y-3270000D02*
X110170000Y-3330000D01*
X110170000Y-3270000D02*
X112830000Y-3270000D01*
X110170000Y-3330000D02*
X112830000Y-3330000D01*
X112830000Y-3270000D02*
X112830000Y-3330000D01*
X208670000Y-670000D02*
X210000000Y-670000D01*
X208670000Y-2000000D02*
X208670000Y-670000D01*
X208670000Y-3270000D02*
X208670000Y-3330000D01*
X208670000Y-3270000D02*
X211330000Y-3270000D01*
X208670000Y-3330000D02*
X211330000Y-3330000D01*
X211330000Y-3270000D02*
X211330000Y-3330000D01*
X11670000Y-48670000D02*
X13000000Y-48670000D01*
X11670000Y-50000000D02*
X11670000Y-48670000D01*
X11670000Y-51270000D02*
X11670000Y-51330000D01*
X11670000Y-51270000D02*
X14330000Y-51270000D01*
X11670000Y-51330000D02*
X14330000Y-51330000D01*
X14330000Y-51270000D02*
X14330000Y-51330000D01*
X110170000Y-48670000D02*
X111500000Y-48670000D01*
X110170000Y-50000000D02*
X110170000Y-48670000D01*
X110170000Y-51270000D02*
X110170000Y-51330000D01*
X110170000Y-51270000D02*
X112830000Y-51270000D01*
X110170000Y-51330000D02*
X112830000Y-51330000D01*
X112830000Y-51270000D02*
X112830000Y-51330000D01*
X208670000Y-48670000D02*
X210000000Y-48670000D01*
X208670000Y-50000000D02*
X208670000Y-48670000D01*
X208670000Y-51270000D02*
X208670000Y-51330000D01*
X208670000Y-51270000D02*
X211330000Y-51270000D01*
X208670000Y-51330000D02*
X211330000Y-51330000D01*
X211330000Y-51270000D02*
X211330000Y-51330000D01*
X11670000Y-96670000D02*
X13000000Y-96670000D01*
X11670000Y-98000000D02*
X11670000Y-96670000D01*
X11670000Y-99270000D02*
X11670000Y-99330000D01*
X11670000Y-99270000D02*
X14330000Y-99270000D01*
X11670000Y-99330000D02*
X14330000Y-99330000D01*
X14330000Y-99270000D02*
X14330000Y-99330000D01*
X110170000Y-96670000D02*
X111500000Y-96670000D01*
X110170000Y-98000000D02*
X110170000Y-96670000D01*
X110170000Y-99270000D02*
X110170000Y-99330000D01*
X110170000Y-99270000D02*
X112830000Y-99270000D01*
X110170000Y-99330000D02*
X112830000Y-99330000D01*
X112830000Y-99270000D02*
X112830000Y-99330000D01*
X208670000Y-96670000D02*
X210000000Y-96670000D01*
X208670000Y-98000000D02*
X208670000Y-96670000D01*
X208670000Y-99270000D02*
X208670000Y-99330000D01*
X208670000Y-99270000D02*
X211330000Y-99270000D01*
X208670000Y-99330000D02*
X211330000Y-99330000D01*
X211330000Y-99270000D02*
X211330000Y-99330000D01*
X179170000Y-138670000D02*
X180500000Y-138670000D01*
X179170000Y-140000000D02*
X179170000Y-138670000D01*
X179170000Y-141270000D02*
X179170000Y-141330000D01*
X179170000Y-141270000D02*
X181830000Y-141270000D01*
X179170000Y-141330000D02*
X181830000Y-141330000D01*
X181830000Y-141270000D02*
X181830000Y-141330000D01*
X277670000Y-138670000D02*
X279000000Y-138670000D01*
X277670000Y-140000000D02*
X277670000Y-138670000D01*
X277670000Y-141270000D02*
X277670000Y-141330000D01*
X277670000Y-141270000D02*
X280330000Y-141270000D01*
X277670000Y-141330000D02*
X280330000Y-141330000D01*
X280330000Y-141270000D02*
X280330000Y-141330000D01*
X80670000Y-42670000D02*
X82000000Y-42670000D01*
X80670000Y-44000000D02*
X80670000Y-42670000D01*
X80670000Y-45270000D02*
X80670000Y-45330000D01*
X80670000Y-45270000D02*
X83330000Y-45270000D01*
X80670000Y-45330000D02*
X83330000Y-45330000D01*
X83330000Y-45270000D02*
X83330000Y-45330000D01*
X179170000Y-42670000D02*
X180500000Y-42670000D01*
X179170000Y-44000000D02*
X179170000Y-42670000D01*
X179170000Y-45270000D02*
X179170000Y-45330000D01*
X179170000Y-45270000D02*
X181830000Y-45270000D01*
X179170000Y-45330000D02*
X181830000Y-45330000D01*
X181830000Y-45270000D02*
X181830000Y-45330000D01*
X277670000Y-42670000D02*
X279000000Y-42670000D01*
X277670000Y-44000000D02*
X277670000Y-42670000D01*
X277670000Y-45270000D02*
X277670000Y-45330000D01*
X277670000Y-45270000D02*
X280330000Y-45270000D01*
X277670000Y-45330000D02*
X280330000Y-45330000D01*
X280330000Y-45270000D02*
X280330000Y-45330000D01*
X80670000Y-90670000D02*
X82000000Y-90670000D01*
X80670000Y-92000000D02*
X80670000Y-90670000D01*
X80670000Y-93270000D02*
X80670000Y-93330000D01*
X80670000Y-93270000D02*
X83330000Y-93270000D01*
X80670000Y-93330000D02*
X83330000Y-93330000D01*
X83330000Y-93270000D02*
X83330000Y-93330000D01*
X179170000Y-90670000D02*
X180500000Y-90670000D01*
X179170000Y-92000000D02*
X179170000Y-90670000D01*
X179170000Y-93270000D02*
X179170000Y-93330000D01*
X179170000Y-93270000D02*
X181830000Y-93270000D01*
X179170000Y-93330000D02*
X181830000Y-93330000D01*
X181830000Y-93270000D02*
X181830000Y-93330000D01*
X277670000Y-90670000D02*
X279000000Y-90670000D01*
X277670000Y-92000000D02*
X277670000Y-90670000D01*
X277670000Y-93270000D02*
X277670000Y-93330000D01*
X277670000Y-93270000D02*
X280330000Y-93270000D01*
X277670000Y-93330000D02*
X280330000Y-93330000D01*
X280330000Y-93270000D02*
X280330000Y-93330000D01*
X80670000Y-138670000D02*
X82000000Y-138670000D01*
X80670000Y-140000000D02*
X80670000Y-138670000D01*
X80670000Y-141270000D02*
X80670000Y-141330000D01*
X80670000Y-141270000D02*
X83330000Y-141270000D01*
X80670000Y-141330000D02*
X83330000Y-141330000D01*
X83330000Y-141270000D02*
X83330000Y-141330000D01*
G36*
X264838000Y-48116613D02*
G01*
X264883387Y-48162000D01*
X264900000Y-48224000D01*
X264900000Y-50876000D01*
X264883387Y-50938000D01*
X264838000Y-50983387D01*
X264776000Y-51000000D01*
X248224000Y-51000000D01*
X248162000Y-50983387D01*
X248116613Y-50938000D01*
X248100000Y-50876000D01*
X248100000Y-48224000D01*
X248116613Y-48162000D01*
X248162000Y-48116613D01*
X248224000Y-48100000D01*
X264776000Y-48100000D01*
X264838000Y-48116613D01*
G37*
G36*
X67838000Y-96116613D02*
G01*
X67883387Y-96162000D01*
X67900000Y-96224000D01*
X67900000Y-98876000D01*
X67883387Y-98938000D01*
X67838000Y-98983387D01*
X67776000Y-99000000D01*
X51224000Y-99000000D01*
X51162000Y-98983387D01*
X51116613Y-98938000D01*
X51100000Y-98876000D01*
X51100000Y-96224000D01*
X51116613Y-96162000D01*
X51162000Y-96116613D01*
X51224000Y-96100000D01*
X67776000Y-96100000D01*
X67838000Y-96116613D01*
G37*
G36*
X166338000Y-48116613D02*
G01*
X166383387Y-48162000D01*
X166400000Y-48224000D01*
X166400000Y-50876000D01*
X166383387Y-50938000D01*
X166338000Y-50983387D01*
X166276000Y-51000000D01*
X149724000Y-51000000D01*
X149662000Y-50983387D01*
X149616613Y-50938000D01*
X149600000Y-50876000D01*
X149600000Y-48224000D01*
X149616613Y-48162000D01*
X149662000Y-48116613D01*
X149724000Y-48100000D01*
X166276000Y-48100000D01*
X166338000Y-48116613D01*
G37*
G36*
X166338000Y-116613D02*
G01*
X166383387Y-162000D01*
X166400000Y-224000D01*
X166400000Y-2876000D01*
X166383387Y-2938000D01*
X166338000Y-2983387D01*
X166276000Y-3000000D01*
X149724000Y-3000000D01*
X149662000Y-2983387D01*
X149616613Y-2938000D01*
X149600000Y-2876000D01*
X149600000Y-224000D01*
X149616613Y-162000D01*
X149662000Y-116613D01*
X149724000Y-100000D01*
X166276000Y-100000D01*
X166338000Y-116613D01*
G37*
G36*
X264838000Y-96116613D02*
G01*
X264883387Y-96162000D01*
X264900000Y-96224000D01*
X264900000Y-98876000D01*
X264883387Y-98938000D01*
X264838000Y-98983387D01*
X264776000Y-99000000D01*
X248224000Y-99000000D01*
X248162000Y-98983387D01*
X248116613Y-98938000D01*
X248100000Y-98876000D01*
X248100000Y-96224000D01*
X248116613Y-96162000D01*
X248162000Y-96116613D01*
X248224000Y-96100000D01*
X264776000Y-96100000D01*
X264838000Y-96116613D01*
G37*
G36*
X166338000Y-96116613D02*
G01*
X166383387Y-96162000D01*
X166400000Y-96224000D01*
X166400000Y-98876000D01*
X166383387Y-98938000D01*
X166338000Y-98983387D01*
X166276000Y-99000000D01*
X149724000Y-99000000D01*
X149662000Y-98983387D01*
X149616613Y-98938000D01*
X149600000Y-98876000D01*
X149600000Y-96224000D01*
X149616613Y-96162000D01*
X149662000Y-96116613D01*
X149724000Y-96100000D01*
X166276000Y-96100000D01*
X166338000Y-96116613D01*
G37*
G36*
X67838000Y-116613D02*
G01*
X67883387Y-162000D01*
X67900000Y-224000D01*
X67900000Y-2876000D01*
X67883387Y-2938000D01*
X67838000Y-2983387D01*
X67776000Y-3000000D01*
X51224000Y-3000000D01*
X51162000Y-2983387D01*
X51116613Y-2938000D01*
X51100000Y-2876000D01*
X51100000Y-224000D01*
X51116613Y-162000D01*
X51162000Y-116613D01*
X51224000Y-100000D01*
X67776000Y-100000D01*
X67838000Y-116613D01*
G37*
G36*
X264838000Y-116613D02*
G01*
X264883387Y-162000D01*
X264900000Y-224000D01*
X264900000Y-2876000D01*
X264883387Y-2938000D01*
X264838000Y-2983387D01*
X264776000Y-3000000D01*
X248224000Y-3000000D01*
X248162000Y-2983387D01*
X248116613Y-2938000D01*
X248100000Y-2876000D01*
X248100000Y-224000D01*
X248116613Y-162000D01*
X248162000Y-116613D01*
X248224000Y-100000D01*
X264776000Y-100000D01*
X264838000Y-116613D01*
G37*
G36*
X67838000Y-48116613D02*
G01*
X67883387Y-48162000D01*
X67900000Y-48224000D01*
X67900000Y-50876000D01*
X67883387Y-50938000D01*
X67838000Y-50983387D01*
X67776000Y-51000000D01*
X51224000Y-51000000D01*
X51162000Y-50983387D01*
X51116613Y-50938000D01*
X51100000Y-50876000D01*
X51100000Y-48224000D01*
X51116613Y-48162000D01*
X51162000Y-48116613D01*
X51224000Y-48100000D01*
X67776000Y-48100000D01*
X67838000Y-48116613D01*
G37*
G36*
X240838000Y-48116613D02*
G01*
X240883387Y-48162000D01*
X240900000Y-48224000D01*
X240900000Y-50876000D01*
X240883387Y-50938000D01*
X240838000Y-50983387D01*
X240776000Y-51000000D01*
X224224000Y-51000000D01*
X224162000Y-50983387D01*
X224116613Y-50938000D01*
X224100000Y-50876000D01*
X224100000Y-48224000D01*
X224116613Y-48162000D01*
X224162000Y-48116613D01*
X224224000Y-48100000D01*
X240776000Y-48100000D01*
X240838000Y-48116613D01*
G37*
G36*
X43838000Y-96116613D02*
G01*
X43883387Y-96162000D01*
X43900000Y-96224000D01*
X43900000Y-98876000D01*
X43883387Y-98938000D01*
X43838000Y-98983387D01*
X43776000Y-99000000D01*
X27224000Y-99000000D01*
X27162000Y-98983387D01*
X27116613Y-98938000D01*
X27100000Y-98876000D01*
X27100000Y-96224000D01*
X27116613Y-96162000D01*
X27162000Y-96116613D01*
X27224000Y-96100000D01*
X43776000Y-96100000D01*
X43838000Y-96116613D01*
G37*
G36*
X142338000Y-48116613D02*
G01*
X142383387Y-48162000D01*
X142400000Y-48224000D01*
X142400000Y-50876000D01*
X142383387Y-50938000D01*
X142338000Y-50983387D01*
X142276000Y-51000000D01*
X125724000Y-51000000D01*
X125662000Y-50983387D01*
X125616613Y-50938000D01*
X125600000Y-50876000D01*
X125600000Y-48224000D01*
X125616613Y-48162000D01*
X125662000Y-48116613D01*
X125724000Y-48100000D01*
X142276000Y-48100000D01*
X142338000Y-48116613D01*
G37*
G36*
X240838000Y-96116613D02*
G01*
X240883387Y-96162000D01*
X240900000Y-96224000D01*
X240900000Y-98876000D01*
X240883387Y-98938000D01*
X240838000Y-98983387D01*
X240776000Y-99000000D01*
X224224000Y-99000000D01*
X224162000Y-98983387D01*
X224116613Y-98938000D01*
X224100000Y-98876000D01*
X224100000Y-96224000D01*
X224116613Y-96162000D01*
X224162000Y-96116613D01*
X224224000Y-96100000D01*
X240776000Y-96100000D01*
X240838000Y-96116613D01*
G37*
G36*
X142338000Y-96116613D02*
G01*
X142383387Y-96162000D01*
X142400000Y-96224000D01*
X142400000Y-98876000D01*
X142383387Y-98938000D01*
X142338000Y-98983387D01*
X142276000Y-99000000D01*
X125724000Y-99000000D01*
X125662000Y-98983387D01*
X125616613Y-98938000D01*
X125600000Y-98876000D01*
X125600000Y-96224000D01*
X125616613Y-96162000D01*
X125662000Y-96116613D01*
X125724000Y-96100000D01*
X142276000Y-96100000D01*
X142338000Y-96116613D01*
G37*
G36*
X43838000Y-116613D02*
G01*
X43883387Y-162000D01*
X43900000Y-224000D01*
X43900000Y-2876000D01*
X43883387Y-2938000D01*
X43838000Y-2983387D01*
X43776000Y-3000000D01*
X27224000Y-3000000D01*
X27162000Y-2983387D01*
X27116613Y-2938000D01*
X27100000Y-2876000D01*
X27100000Y-224000D01*
X27116613Y-162000D01*
X27162000Y-116613D01*
X27224000Y-100000D01*
X43776000Y-100000D01*
X43838000Y-116613D01*
G37*
G36*
X240838000Y-116613D02*
G01*
X240883387Y-162000D01*
X240900000Y-224000D01*
X240900000Y-2876000D01*
X240883387Y-2938000D01*
X240838000Y-2983387D01*
X240776000Y-3000000D01*
X224224000Y-3000000D01*
X224162000Y-2983387D01*
X224116613Y-2938000D01*
X224100000Y-2876000D01*
X224100000Y-224000D01*
X224116613Y-162000D01*
X224162000Y-116613D01*
X224224000Y-100000D01*
X240776000Y-100000D01*
X240838000Y-116613D01*
G37*
G36*
X43838000Y-48116613D02*
G01*
X43883387Y-48162000D01*
X43900000Y-48224000D01*
X43900000Y-50876000D01*
X43883387Y-50938000D01*
X43838000Y-50983387D01*
X43776000Y-51000000D01*
X27224000Y-51000000D01*
X27162000Y-50983387D01*
X27116613Y-50938000D01*
X27100000Y-50876000D01*
X27100000Y-48224000D01*
X27116613Y-48162000D01*
X27162000Y-48116613D01*
X27224000Y-48100000D01*
X43776000Y-48100000D01*
X43838000Y-48116613D01*
G37*
G36*
X142338000Y-116613D02*
G01*
X142383387Y-162000D01*
X142400000Y-224000D01*
X142400000Y-2876000D01*
X142383387Y-2938000D01*
X142338000Y-2983387D01*
X142276000Y-3000000D01*
X125724000Y-3000000D01*
X125662000Y-2983387D01*
X125616613Y-2938000D01*
X125600000Y-2876000D01*
X125600000Y-224000D01*
X125616613Y-162000D01*
X125662000Y-116613D01*
X125724000Y-100000D01*
X142276000Y-100000D01*
X142338000Y-116613D01*
G37*
G36*
X67838000Y-43016613D02*
G01*
X67883387Y-43062000D01*
X67900000Y-43124000D01*
X67900000Y-45776000D01*
X67883387Y-45838000D01*
X67838000Y-45883387D01*
X67776000Y-45900000D01*
X51224000Y-45900000D01*
X51162000Y-45883387D01*
X51116613Y-45838000D01*
X51100000Y-45776000D01*
X51100000Y-43124000D01*
X51116613Y-43062000D01*
X51162000Y-43016613D01*
X51224000Y-43000000D01*
X67776000Y-43000000D01*
X67838000Y-43016613D01*
G37*
G36*
X166338000Y-43016613D02*
G01*
X166383387Y-43062000D01*
X166400000Y-43124000D01*
X166400000Y-45776000D01*
X166383387Y-45838000D01*
X166338000Y-45883387D01*
X166276000Y-45900000D01*
X149724000Y-45900000D01*
X149662000Y-45883387D01*
X149616613Y-45838000D01*
X149600000Y-45776000D01*
X149600000Y-43124000D01*
X149616613Y-43062000D01*
X149662000Y-43016613D01*
X149724000Y-43000000D01*
X166276000Y-43000000D01*
X166338000Y-43016613D01*
G37*
G36*
X264838000Y-43016613D02*
G01*
X264883387Y-43062000D01*
X264900000Y-43124000D01*
X264900000Y-45776000D01*
X264883387Y-45838000D01*
X264838000Y-45883387D01*
X264776000Y-45900000D01*
X248224000Y-45900000D01*
X248162000Y-45883387D01*
X248116613Y-45838000D01*
X248100000Y-45776000D01*
X248100000Y-43124000D01*
X248116613Y-43062000D01*
X248162000Y-43016613D01*
X248224000Y-43000000D01*
X264776000Y-43000000D01*
X264838000Y-43016613D01*
G37*
G36*
X67838000Y-91016613D02*
G01*
X67883387Y-91062000D01*
X67900000Y-91124000D01*
X67900000Y-93776000D01*
X67883387Y-93838000D01*
X67838000Y-93883387D01*
X67776000Y-93900000D01*
X51224000Y-93900000D01*
X51162000Y-93883387D01*
X51116613Y-93838000D01*
X51100000Y-93776000D01*
X51100000Y-91124000D01*
X51116613Y-91062000D01*
X51162000Y-91016613D01*
X51224000Y-91000000D01*
X67776000Y-91000000D01*
X67838000Y-91016613D01*
G37*
G36*
X166338000Y-91016613D02*
G01*
X166383387Y-91062000D01*
X166400000Y-91124000D01*
X166400000Y-93776000D01*
X166383387Y-93838000D01*
X166338000Y-93883387D01*
X166276000Y-93900000D01*
X149724000Y-93900000D01*
X149662000Y-93883387D01*
X149616613Y-93838000D01*
X149600000Y-93776000D01*
X149600000Y-91124000D01*
X149616613Y-91062000D01*
X149662000Y-91016613D01*
X149724000Y-91000000D01*
X166276000Y-91000000D01*
X166338000Y-91016613D01*
G37*
G36*
X264838000Y-91016613D02*
G01*
X264883387Y-91062000D01*
X264900000Y-91124000D01*
X264900000Y-93776000D01*
X264883387Y-93838000D01*
X264838000Y-93883387D01*
X264776000Y-93900000D01*
X248224000Y-93900000D01*
X248162000Y-93883387D01*
X248116613Y-93838000D01*
X248100000Y-93776000D01*
X248100000Y-91124000D01*
X248116613Y-91062000D01*
X248162000Y-91016613D01*
X248224000Y-91000000D01*
X264776000Y-91000000D01*
X264838000Y-91016613D01*
G37*
G36*
X67838000Y-139016613D02*
G01*
X67883387Y-139062000D01*
X67900000Y-139124000D01*
X67900000Y-141776000D01*
X67883387Y-141838000D01*
X67838000Y-141883387D01*
X67776000Y-141900000D01*
X51224000Y-141900000D01*
X51162000Y-141883387D01*
X51116613Y-141838000D01*
X51100000Y-141776000D01*
X51100000Y-139124000D01*
X51116613Y-139062000D01*
X51162000Y-139016613D01*
X51224000Y-139000000D01*
X67776000Y-139000000D01*
X67838000Y-139016613D01*
G37*
G36*
X166338000Y-139016613D02*
G01*
X166383387Y-139062000D01*
X166400000Y-139124000D01*
X166400000Y-141776000D01*
X166383387Y-141838000D01*
X166338000Y-141883387D01*
X166276000Y-141900000D01*
X149724000Y-141900000D01*
X149662000Y-141883387D01*
X149616613Y-141838000D01*
X149600000Y-141776000D01*
X149600000Y-139124000D01*
X149616613Y-139062000D01*
X149662000Y-139016613D01*
X149724000Y-139000000D01*
X166276000Y-139000000D01*
X166338000Y-139016613D01*
G37*
G36*
X264838000Y-139016613D02*
G01*
X264883387Y-139062000D01*
X264900000Y-139124000D01*
X264900000Y-141776000D01*
X264883387Y-141838000D01*
X264838000Y-141883387D01*
X264776000Y-141900000D01*
X248224000Y-141900000D01*
X248162000Y-141883387D01*
X248116613Y-141838000D01*
X248100000Y-141776000D01*
X248100000Y-139124000D01*
X248116613Y-139062000D01*
X248162000Y-139016613D01*
X248224000Y-139000000D01*
X264776000Y-139000000D01*
X264838000Y-139016613D01*
G37*
G36*
X89838000Y-43016613D02*
G01*
X89883387Y-43062000D01*
X89900000Y-43124000D01*
X89900000Y-45776000D01*
X89883387Y-45838000D01*
X89838000Y-45883387D01*
X89776000Y-45900000D01*
X74224000Y-45900000D01*
X74162000Y-45883387D01*
X74116613Y-45838000D01*
X74100000Y-45776000D01*
X74100000Y-43124000D01*
X74116613Y-43062000D01*
X74162000Y-43016613D01*
X74224000Y-43000000D01*
X89776000Y-43000000D01*
X89838000Y-43016613D01*
G37*
G36*
X188338000Y-43016613D02*
G01*
X188383387Y-43062000D01*
X188400000Y-43124000D01*
X188400000Y-45776000D01*
X188383387Y-45838000D01*
X188338000Y-45883387D01*
X188276000Y-45900000D01*
X172724000Y-45900000D01*
X172662000Y-45883387D01*
X172616613Y-45838000D01*
X172600000Y-45776000D01*
X172600000Y-43124000D01*
X172616613Y-43062000D01*
X172662000Y-43016613D01*
X172724000Y-43000000D01*
X188276000Y-43000000D01*
X188338000Y-43016613D01*
G37*
G36*
X286838000Y-43016613D02*
G01*
X286883387Y-43062000D01*
X286900000Y-43124000D01*
X286900000Y-45776000D01*
X286883387Y-45838000D01*
X286838000Y-45883387D01*
X286776000Y-45900000D01*
X271224000Y-45900000D01*
X271162000Y-45883387D01*
X271116613Y-45838000D01*
X271100000Y-45776000D01*
X271100000Y-43124000D01*
X271116613Y-43062000D01*
X271162000Y-43016613D01*
X271224000Y-43000000D01*
X286776000Y-43000000D01*
X286838000Y-43016613D01*
G37*
G36*
X89838000Y-91016613D02*
G01*
X89883387Y-91062000D01*
X89900000Y-91124000D01*
X89900000Y-93776000D01*
X89883387Y-93838000D01*
X89838000Y-93883387D01*
X89776000Y-93900000D01*
X74224000Y-93900000D01*
X74162000Y-93883387D01*
X74116613Y-93838000D01*
X74100000Y-93776000D01*
X74100000Y-91124000D01*
X74116613Y-91062000D01*
X74162000Y-91016613D01*
X74224000Y-91000000D01*
X89776000Y-91000000D01*
X89838000Y-91016613D01*
G37*
G36*
X188338000Y-91016613D02*
G01*
X188383387Y-91062000D01*
X188400000Y-91124000D01*
X188400000Y-93776000D01*
X188383387Y-93838000D01*
X188338000Y-93883387D01*
X188276000Y-93900000D01*
X172724000Y-93900000D01*
X172662000Y-93883387D01*
X172616613Y-93838000D01*
X172600000Y-93776000D01*
X172600000Y-91124000D01*
X172616613Y-91062000D01*
X172662000Y-91016613D01*
X172724000Y-91000000D01*
X188276000Y-91000000D01*
X188338000Y-91016613D01*
G37*
G36*
X286838000Y-91016613D02*
G01*
X286883387Y-91062000D01*
X286900000Y-91124000D01*
X286900000Y-93776000D01*
X286883387Y-93838000D01*
X286838000Y-93883387D01*
X286776000Y-93900000D01*
X271224000Y-93900000D01*
X271162000Y-93883387D01*
X271116613Y-93838000D01*
X271100000Y-93776000D01*
X271100000Y-91124000D01*
X271116613Y-91062000D01*
X271162000Y-91016613D01*
X271224000Y-91000000D01*
X286776000Y-91000000D01*
X286838000Y-91016613D01*
G37*
G36*
X89838000Y-139016613D02*
G01*
X89883387Y-139062000D01*
X89900000Y-139124000D01*
X89900000Y-141776000D01*
X89883387Y-141838000D01*
X89838000Y-141883387D01*
X89776000Y-141900000D01*
X74224000Y-141900000D01*
X74162000Y-141883387D01*
X74116613Y-141838000D01*
X74100000Y-141776000D01*
X74100000Y-139124000D01*
X74116613Y-139062000D01*
X74162000Y-139016613D01*
X74224000Y-139000000D01*
X89776000Y-139000000D01*
X89838000Y-139016613D01*
G37*
G36*
X188338000Y-139016613D02*
G01*
X188383387Y-139062000D01*
X188400000Y-139124000D01*
X188400000Y-141776000D01*
X188383387Y-141838000D01*
X188338000Y-141883387D01*
X188276000Y-141900000D01*
X172724000Y-141900000D01*
X172662000Y-141883387D01*
X172616613Y-141838000D01*
X172600000Y-141776000D01*
X172600000Y-139124000D01*
X172616613Y-139062000D01*
X172662000Y-139016613D01*
X172724000Y-139000000D01*
X188276000Y-139000000D01*
X188338000Y-139016613D01*
G37*
G36*
X286838000Y-139016613D02*
G01*
X286883387Y-139062000D01*
X286900000Y-139124000D01*
X286900000Y-141776000D01*
X286883387Y-141838000D01*
X286838000Y-141883387D01*
X286776000Y-141900000D01*
X271224000Y-141900000D01*
X271162000Y-141883387D01*
X271116613Y-141838000D01*
X271100000Y-141776000D01*
X271100000Y-139124000D01*
X271116613Y-139062000D01*
X271162000Y-139016613D01*
X271224000Y-139000000D01*
X286776000Y-139000000D01*
X286838000Y-139016613D01*
G37*
G36*
X21838000Y-116613D02*
G01*
X21883387Y-162000D01*
X21900000Y-224000D01*
X21900000Y-2876000D01*
X21883387Y-2938000D01*
X21838000Y-2983387D01*
X21776000Y-3000000D01*
X4224000Y-3000000D01*
X4162000Y-2983387D01*
X4116613Y-2938000D01*
X4100000Y-2876000D01*
X4100000Y-224000D01*
X4116613Y-162000D01*
X4162000Y-116613D01*
X4224000Y-100000D01*
X21776000Y-100000D01*
X21838000Y-116613D01*
G37*
G36*
X120338000Y-116613D02*
G01*
X120383387Y-162000D01*
X120400000Y-224000D01*
X120400000Y-2876000D01*
X120383387Y-2938000D01*
X120338000Y-2983387D01*
X120276000Y-3000000D01*
X102724000Y-3000000D01*
X102662000Y-2983387D01*
X102616613Y-2938000D01*
X102600000Y-2876000D01*
X102600000Y-224000D01*
X102616613Y-162000D01*
X102662000Y-116613D01*
X102724000Y-100000D01*
X120276000Y-100000D01*
X120338000Y-116613D01*
G37*
G36*
X218838000Y-116613D02*
G01*
X218883387Y-162000D01*
X218900000Y-224000D01*
X218900000Y-2876000D01*
X218883387Y-2938000D01*
X218838000Y-2983387D01*
X218776000Y-3000000D01*
X201224000Y-3000000D01*
X201162000Y-2983387D01*
X201116613Y-2938000D01*
X201100000Y-2876000D01*
X201100000Y-224000D01*
X201116613Y-162000D01*
X201162000Y-116613D01*
X201224000Y-100000D01*
X218776000Y-100000D01*
X218838000Y-116613D01*
G37*
G36*
X21838000Y-48116613D02*
G01*
X21883387Y-48162000D01*
X21900000Y-48224000D01*
X21900000Y-50876000D01*
X21883387Y-50938000D01*
X21838000Y-50983387D01*
X21776000Y-51000000D01*
X4224000Y-51000000D01*
X4162000Y-50983387D01*
X4116613Y-50938000D01*
X4100000Y-50876000D01*
X4100000Y-48224000D01*
X4116613Y-48162000D01*
X4162000Y-48116613D01*
X4224000Y-48100000D01*
X21776000Y-48100000D01*
X21838000Y-48116613D01*
G37*
G36*
X120338000Y-48116613D02*
G01*
X120383387Y-48162000D01*
X120400000Y-48224000D01*
X120400000Y-50876000D01*
X120383387Y-50938000D01*
X120338000Y-50983387D01*
X120276000Y-51000000D01*
X102724000Y-51000000D01*
X102662000Y-50983387D01*
X102616613Y-50938000D01*
X102600000Y-50876000D01*
X102600000Y-48224000D01*
X102616613Y-48162000D01*
X102662000Y-48116613D01*
X102724000Y-48100000D01*
X120276000Y-48100000D01*
X120338000Y-48116613D01*
G37*
G36*
X218838000Y-48116613D02*
G01*
X218883387Y-48162000D01*
X218900000Y-48224000D01*
X218900000Y-50876000D01*
X218883387Y-50938000D01*
X218838000Y-50983387D01*
X218776000Y-51000000D01*
X201224000Y-51000000D01*
X201162000Y-50983387D01*
X201116613Y-50938000D01*
X201100000Y-50876000D01*
X201100000Y-48224000D01*
X201116613Y-48162000D01*
X201162000Y-48116613D01*
X201224000Y-48100000D01*
X218776000Y-48100000D01*
X218838000Y-48116613D01*
G37*
G36*
X21838000Y-96116613D02*
G01*
X21883387Y-96162000D01*
X21900000Y-96224000D01*
X21900000Y-98876000D01*
X21883387Y-98938000D01*
X21838000Y-98983387D01*
X21776000Y-99000000D01*
X4224000Y-99000000D01*
X4162000Y-98983387D01*
X4116613Y-98938000D01*
X4100000Y-98876000D01*
X4100000Y-96224000D01*
X4116613Y-96162000D01*
X4162000Y-96116613D01*
X4224000Y-96100000D01*
X21776000Y-96100000D01*
X21838000Y-96116613D01*
G37*
G36*
X120338000Y-96116613D02*
G01*
X120383387Y-96162000D01*
X120400000Y-96224000D01*
X120400000Y-98876000D01*
X120383387Y-98938000D01*
X120338000Y-98983387D01*
X120276000Y-99000000D01*
X102724000Y-99000000D01*
X102662000Y-98983387D01*
X102616613Y-98938000D01*
X102600000Y-98876000D01*
X102600000Y-96224000D01*
X102616613Y-96162000D01*
X102662000Y-96116613D01*
X102724000Y-96100000D01*
X120276000Y-96100000D01*
X120338000Y-96116613D01*
G37*
G36*
X218838000Y-96116613D02*
G01*
X218883387Y-96162000D01*
X218900000Y-96224000D01*
X218900000Y-98876000D01*
X218883387Y-98938000D01*
X218838000Y-98983387D01*
X218776000Y-99000000D01*
X201224000Y-99000000D01*
X201162000Y-98983387D01*
X201116613Y-98938000D01*
X201100000Y-98876000D01*
X201100000Y-96224000D01*
X201116613Y-96162000D01*
X201162000Y-96116613D01*
X201224000Y-96100000D01*
X218776000Y-96100000D01*
X218838000Y-96116613D01*
G37*
G36*
X89838000Y-116613D02*
G01*
X89883387Y-162000D01*
X89900000Y-224000D01*
X89900000Y-2876000D01*
X89883387Y-2938000D01*
X89838000Y-2983387D01*
X89776000Y-3000000D01*
X74224000Y-3000000D01*
X74162000Y-2983387D01*
X74116613Y-2938000D01*
X74100000Y-2876000D01*
X74100000Y-224000D01*
X74116613Y-162000D01*
X74162000Y-116613D01*
X74224000Y-100000D01*
X89776000Y-100000D01*
X89838000Y-116613D01*
G37*
G36*
X188338000Y-116613D02*
G01*
X188383387Y-162000D01*
X188400000Y-224000D01*
X188400000Y-2876000D01*
X188383387Y-2938000D01*
X188338000Y-2983387D01*
X188276000Y-3000000D01*
X172724000Y-3000000D01*
X172662000Y-2983387D01*
X172616613Y-2938000D01*
X172600000Y-2876000D01*
X172600000Y-224000D01*
X172616613Y-162000D01*
X172662000Y-116613D01*
X172724000Y-100000D01*
X188276000Y-100000D01*
X188338000Y-116613D01*
G37*
G36*
X286838000Y-116613D02*
G01*
X286883387Y-162000D01*
X286900000Y-224000D01*
X286900000Y-2876000D01*
X286883387Y-2938000D01*
X286838000Y-2983387D01*
X286776000Y-3000000D01*
X271224000Y-3000000D01*
X271162000Y-2983387D01*
X271116613Y-2938000D01*
X271100000Y-2876000D01*
X271100000Y-224000D01*
X271116613Y-162000D01*
X271162000Y-116613D01*
X271224000Y-100000D01*
X286776000Y-100000D01*
X286838000Y-116613D01*
G37*
G36*
X89838000Y-48116613D02*
G01*
X89883387Y-48162000D01*
X89900000Y-48224000D01*
X89900000Y-50876000D01*
X89883387Y-50938000D01*
X89838000Y-50983387D01*
X89776000Y-51000000D01*
X74224000Y-51000000D01*
X74162000Y-50983387D01*
X74116613Y-50938000D01*
X74100000Y-50876000D01*
X74100000Y-48224000D01*
X74116613Y-48162000D01*
X74162000Y-48116613D01*
X74224000Y-48100000D01*
X89776000Y-48100000D01*
X89838000Y-48116613D01*
G37*
G36*
X188338000Y-48116613D02*
G01*
X188383387Y-48162000D01*
X188400000Y-48224000D01*
X188400000Y-50876000D01*
X188383387Y-50938000D01*
X188338000Y-50983387D01*
X188276000Y-51000000D01*
X172724000Y-51000000D01*
X172662000Y-50983387D01*
X172616613Y-50938000D01*
X172600000Y-50876000D01*
X172600000Y-48224000D01*
X172616613Y-48162000D01*
X172662000Y-48116613D01*
X172724000Y-48100000D01*
X188276000Y-48100000D01*
X188338000Y-48116613D01*
G37*
G36*
X286838000Y-48116613D02*
G01*
X286883387Y-48162000D01*
X286900000Y-48224000D01*
X286900000Y-50876000D01*
X286883387Y-50938000D01*
X286838000Y-50983387D01*
X286776000Y-51000000D01*
X271224000Y-51000000D01*
X271162000Y-50983387D01*
X271116613Y-50938000D01*
X271100000Y-50876000D01*
X271100000Y-48224000D01*
X271116613Y-48162000D01*
X271162000Y-48116613D01*
X271224000Y-48100000D01*
X286776000Y-48100000D01*
X286838000Y-48116613D01*
G37*
G36*
X89838000Y-96116613D02*
G01*
X89883387Y-96162000D01*
X89900000Y-96224000D01*
X89900000Y-98876000D01*
X89883387Y-98938000D01*
X89838000Y-98983387D01*
X89776000Y-99000000D01*
X74224000Y-99000000D01*
X74162000Y-98983387D01*
X74116613Y-98938000D01*
X74100000Y-98876000D01*
X74100000Y-96224000D01*
X74116613Y-96162000D01*
X74162000Y-96116613D01*
X74224000Y-96100000D01*
X89776000Y-96100000D01*
X89838000Y-96116613D01*
G37*
G36*
X188338000Y-96116613D02*
G01*
X188383387Y-96162000D01*
X188400000Y-96224000D01*
X188400000Y-98876000D01*
X188383387Y-98938000D01*
X188338000Y-98983387D01*
X188276000Y-99000000D01*
X172724000Y-99000000D01*
X172662000Y-98983387D01*
X172616613Y-98938000D01*
X172600000Y-98876000D01*
X172600000Y-96224000D01*
X172616613Y-96162000D01*
X172662000Y-96116613D01*
X172724000Y-96100000D01*
X188276000Y-96100000D01*
X188338000Y-96116613D01*
G37*
G36*
X286838000Y-96116613D02*
G01*
X286883387Y-96162000D01*
X286900000Y-96224000D01*
X286900000Y-98876000D01*
X286883387Y-98938000D01*
X286838000Y-98983387D01*
X286776000Y-99000000D01*
X271224000Y-99000000D01*
X271162000Y-98983387D01*
X271116613Y-98938000D01*
X271100000Y-98876000D01*
X271100000Y-96224000D01*
X271116613Y-96162000D01*
X271162000Y-96116613D01*
X271224000Y-96100000D01*
X286776000Y-96100000D01*
X286838000Y-96116613D01*
G37*
G36*
X43838000Y-43016613D02*
G01*
X43883387Y-43062000D01*
X43900000Y-43124000D01*
X43900000Y-45776000D01*
X43883387Y-45838000D01*
X43838000Y-45883387D01*
X43776000Y-45900000D01*
X27224000Y-45900000D01*
X27162000Y-45883387D01*
X27116613Y-45838000D01*
X27100000Y-45776000D01*
X27100000Y-43124000D01*
X27116613Y-43062000D01*
X27162000Y-43016613D01*
X27224000Y-43000000D01*
X43776000Y-43000000D01*
X43838000Y-43016613D01*
G37*
G36*
X142338000Y-43016613D02*
G01*
X142383387Y-43062000D01*
X142400000Y-43124000D01*
X142400000Y-45776000D01*
X142383387Y-45838000D01*
X142338000Y-45883387D01*
X142276000Y-45900000D01*
X125724000Y-45900000D01*
X125662000Y-45883387D01*
X125616613Y-45838000D01*
X125600000Y-45776000D01*
X125600000Y-43124000D01*
X125616613Y-43062000D01*
X125662000Y-43016613D01*
X125724000Y-43000000D01*
X142276000Y-43000000D01*
X142338000Y-43016613D01*
G37*
G36*
X240838000Y-43016613D02*
G01*
X240883387Y-43062000D01*
X240900000Y-43124000D01*
X240900000Y-45776000D01*
X240883387Y-45838000D01*
X240838000Y-45883387D01*
X240776000Y-45900000D01*
X224224000Y-45900000D01*
X224162000Y-45883387D01*
X224116613Y-45838000D01*
X224100000Y-45776000D01*
X224100000Y-43124000D01*
X224116613Y-43062000D01*
X224162000Y-43016613D01*
X224224000Y-43000000D01*
X240776000Y-43000000D01*
X240838000Y-43016613D01*
G37*
G36*
X43838000Y-91016613D02*
G01*
X43883387Y-91062000D01*
X43900000Y-91124000D01*
X43900000Y-93776000D01*
X43883387Y-93838000D01*
X43838000Y-93883387D01*
X43776000Y-93900000D01*
X27224000Y-93900000D01*
X27162000Y-93883387D01*
X27116613Y-93838000D01*
X27100000Y-93776000D01*
X27100000Y-91124000D01*
X27116613Y-91062000D01*
X27162000Y-91016613D01*
X27224000Y-91000000D01*
X43776000Y-91000000D01*
X43838000Y-91016613D01*
G37*
G36*
X142338000Y-91016613D02*
G01*
X142383387Y-91062000D01*
X142400000Y-91124000D01*
X142400000Y-93776000D01*
X142383387Y-93838000D01*
X142338000Y-93883387D01*
X142276000Y-93900000D01*
X125724000Y-93900000D01*
X125662000Y-93883387D01*
X125616613Y-93838000D01*
X125600000Y-93776000D01*
X125600000Y-91124000D01*
X125616613Y-91062000D01*
X125662000Y-91016613D01*
X125724000Y-91000000D01*
X142276000Y-91000000D01*
X142338000Y-91016613D01*
G37*
G36*
X240838000Y-91016613D02*
G01*
X240883387Y-91062000D01*
X240900000Y-91124000D01*
X240900000Y-93776000D01*
X240883387Y-93838000D01*
X240838000Y-93883387D01*
X240776000Y-93900000D01*
X224224000Y-93900000D01*
X224162000Y-93883387D01*
X224116613Y-93838000D01*
X224100000Y-93776000D01*
X224100000Y-91124000D01*
X224116613Y-91062000D01*
X224162000Y-91016613D01*
X224224000Y-91000000D01*
X240776000Y-91000000D01*
X240838000Y-91016613D01*
G37*
G36*
X43838000Y-139016613D02*
G01*
X43883387Y-139062000D01*
X43900000Y-139124000D01*
X43900000Y-141776000D01*
X43883387Y-141838000D01*
X43838000Y-141883387D01*
X43776000Y-141900000D01*
X27224000Y-141900000D01*
X27162000Y-141883387D01*
X27116613Y-141838000D01*
X27100000Y-141776000D01*
X27100000Y-139124000D01*
X27116613Y-139062000D01*
X27162000Y-139016613D01*
X27224000Y-139000000D01*
X43776000Y-139000000D01*
X43838000Y-139016613D01*
G37*
G36*
X142338000Y-139016613D02*
G01*
X142383387Y-139062000D01*
X142400000Y-139124000D01*
X142400000Y-141776000D01*
X142383387Y-141838000D01*
X142338000Y-141883387D01*
X142276000Y-141900000D01*
X125724000Y-141900000D01*
X125662000Y-141883387D01*
X125616613Y-141838000D01*
X125600000Y-141776000D01*
X125600000Y-139124000D01*
X125616613Y-139062000D01*
X125662000Y-139016613D01*
X125724000Y-139000000D01*
X142276000Y-139000000D01*
X142338000Y-139016613D01*
G37*
G36*
X240838000Y-139016613D02*
G01*
X240883387Y-139062000D01*
X240900000Y-139124000D01*
X240900000Y-141776000D01*
X240883387Y-141838000D01*
X240838000Y-141883387D01*
X240776000Y-141900000D01*
X224224000Y-141900000D01*
X224162000Y-141883387D01*
X224116613Y-141838000D01*
X224100000Y-141776000D01*
X224100000Y-139124000D01*
X224116613Y-139062000D01*
X224162000Y-139016613D01*
X224224000Y-139000000D01*
X240776000Y-139000000D01*
X240838000Y-139016613D01*
G37*
G36*
X21838000Y-43016613D02*
G01*
X21883387Y-43062000D01*
X21900000Y-43124000D01*
X21900000Y-45776000D01*
X21883387Y-45838000D01*
X21838000Y-45883387D01*
X21776000Y-45900000D01*
X4224000Y-45900000D01*
X4162000Y-45883387D01*
X4116613Y-45838000D01*
X4100000Y-45776000D01*
X4100000Y-43124000D01*
X4116613Y-43062000D01*
X4162000Y-43016613D01*
X4224000Y-43000000D01*
X21776000Y-43000000D01*
X21838000Y-43016613D01*
G37*
G36*
X120338000Y-43016613D02*
G01*
X120383387Y-43062000D01*
X120400000Y-43124000D01*
X120400000Y-45776000D01*
X120383387Y-45838000D01*
X120338000Y-45883387D01*
X120276000Y-45900000D01*
X102724000Y-45900000D01*
X102662000Y-45883387D01*
X102616613Y-45838000D01*
X102600000Y-45776000D01*
X102600000Y-43124000D01*
X102616613Y-43062000D01*
X102662000Y-43016613D01*
X102724000Y-43000000D01*
X120276000Y-43000000D01*
X120338000Y-43016613D01*
G37*
G36*
X218838000Y-43016613D02*
G01*
X218883387Y-43062000D01*
X218900000Y-43124000D01*
X218900000Y-45776000D01*
X218883387Y-45838000D01*
X218838000Y-45883387D01*
X218776000Y-45900000D01*
X201224000Y-45900000D01*
X201162000Y-45883387D01*
X201116613Y-45838000D01*
X201100000Y-45776000D01*
X201100000Y-43124000D01*
X201116613Y-43062000D01*
X201162000Y-43016613D01*
X201224000Y-43000000D01*
X218776000Y-43000000D01*
X218838000Y-43016613D01*
G37*
G36*
X21838000Y-91016613D02*
G01*
X21883387Y-91062000D01*
X21900000Y-91124000D01*
X21900000Y-93776000D01*
X21883387Y-93838000D01*
X21838000Y-93883387D01*
X21776000Y-93900000D01*
X4224000Y-93900000D01*
X4162000Y-93883387D01*
X4116613Y-93838000D01*
X4100000Y-93776000D01*
X4100000Y-91124000D01*
X4116613Y-91062000D01*
X4162000Y-91016613D01*
X4224000Y-91000000D01*
X21776000Y-91000000D01*
X21838000Y-91016613D01*
G37*
G36*
X120338000Y-91016613D02*
G01*
X120383387Y-91062000D01*
X120400000Y-91124000D01*
X120400000Y-93776000D01*
X120383387Y-93838000D01*
X120338000Y-93883387D01*
X120276000Y-93900000D01*
X102724000Y-93900000D01*
X102662000Y-93883387D01*
X102616613Y-93838000D01*
X102600000Y-93776000D01*
X102600000Y-91124000D01*
X102616613Y-91062000D01*
X102662000Y-91016613D01*
X102724000Y-91000000D01*
X120276000Y-91000000D01*
X120338000Y-91016613D01*
G37*
G36*
X218838000Y-91016613D02*
G01*
X218883387Y-91062000D01*
X218900000Y-91124000D01*
X218900000Y-93776000D01*
X218883387Y-93838000D01*
X218838000Y-93883387D01*
X218776000Y-93900000D01*
X201224000Y-93900000D01*
X201162000Y-93883387D01*
X201116613Y-93838000D01*
X201100000Y-93776000D01*
X201100000Y-91124000D01*
X201116613Y-91062000D01*
X201162000Y-91016613D01*
X201224000Y-91000000D01*
X218776000Y-91000000D01*
X218838000Y-91016613D01*
G37*
G36*
X21838000Y-139016613D02*
G01*
X21883387Y-139062000D01*
X21900000Y-139124000D01*
X21900000Y-141776000D01*
X21883387Y-141838000D01*
X21838000Y-141883387D01*
X21776000Y-141900000D01*
X4224000Y-141900000D01*
X4162000Y-141883387D01*
X4116613Y-141838000D01*
X4100000Y-141776000D01*
X4100000Y-139124000D01*
X4116613Y-139062000D01*
X4162000Y-139016613D01*
X4224000Y-139000000D01*
X21776000Y-139000000D01*
X21838000Y-139016613D01*
G37*
G36*
X120338000Y-139016613D02*
G01*
X120383387Y-139062000D01*
X120400000Y-139124000D01*
X120400000Y-141776000D01*
X120383387Y-141838000D01*
X120338000Y-141883387D01*
X120276000Y-141900000D01*
X102724000Y-141900000D01*
X102662000Y-141883387D01*
X102616613Y-141838000D01*
X102600000Y-141776000D01*
X102600000Y-139124000D01*
X102616613Y-139062000D01*
X102662000Y-139016613D01*
X102724000Y-139000000D01*
X120276000Y-139000000D01*
X120338000Y-139016613D01*
G37*
G36*
X218838000Y-139016613D02*
G01*
X218883387Y-139062000D01*
X218900000Y-139124000D01*
X218900000Y-141776000D01*
X218883387Y-141838000D01*
X218838000Y-141883387D01*
X218776000Y-141900000D01*
X201224000Y-141900000D01*
X201162000Y-141883387D01*
X201116613Y-141838000D01*
X201100000Y-141776000D01*
X201100000Y-139124000D01*
X201116613Y-139062000D01*
X201162000Y-139016613D01*
X201224000Y-139000000D01*
X218776000Y-139000000D01*
X218838000Y-139016613D01*
G37*
%LPC*%
D13*
X194800000Y-37000000D03*
X113600000Y-93800000D03*
X14100000Y-93800000D03*
X197199999Y-131999999D03*
X179600000Y-45800000D03*
X96300000Y-107400000D03*
X277100000Y-45800000D03*
X98699999Y-129999999D03*
X279100000Y-45800000D03*
X11100000Y-96200000D03*
X98700000Y-58000000D03*
X194800000Y-107400000D03*
X194800000Y-12400000D03*
X178600000Y-96200000D03*
X194800000Y-132000000D03*
X194800000Y-8400000D03*
X110600000Y-45800000D03*
X98699999Y-37999999D03*
X96300000Y-130000000D03*
X82100000Y-48200000D03*
X96300000Y-57400000D03*
X98699999Y-36999999D03*
X15100000Y-48200000D03*
X12100000Y-93800000D03*
X197200000Y-60000000D03*
X96300000Y-83000000D03*
X197200000Y-59000000D03*
X110600000Y-93800000D03*
X96300000Y-108400000D03*
X98700000Y-56000000D03*
X80100000Y-93800000D03*
X98700000Y-105000000D03*
X194800000Y-82000000D03*
X82100000Y-45800000D03*
X13100000Y-96200000D03*
X83100000Y-93800000D03*
X212100000Y-93800000D03*
X84100000Y-48200000D03*
X84100000Y-45800000D03*
X113600000Y-48200000D03*
X194800000Y-56400000D03*
X96300000Y-85000000D03*
X96300000Y-36000000D03*
X96300000Y-37000000D03*
X113600000Y-45800000D03*
X83100000Y-48200000D03*
X96300000Y-105400000D03*
X96300000Y-38000000D03*
X197199999Y-37999999D03*
X182600000Y-96200000D03*
X96300000Y-12400000D03*
X182600000Y-48200000D03*
X212100000Y-48200000D03*
X80100000Y-96200000D03*
X194800000Y-10400000D03*
X210100000Y-93800000D03*
X182600000Y-93800000D03*
X96300000Y-58400000D03*
X197199999Y-132999999D03*
X13100000Y-45800000D03*
X194800000Y-108400000D03*
X197199999Y-33999999D03*
X81100000Y-48200000D03*
X277100000Y-93800000D03*
X197199999Y-34999999D03*
X280100000Y-45800000D03*
X181600000Y-45800000D03*
X211100000Y-93800000D03*
D14*
X82000000Y-2000000D03*
X180500000Y-2000000D03*
X279000000Y-2000000D03*
X82000000Y-50000000D03*
X180500000Y-50000000D03*
X279000000Y-50000000D03*
X82000000Y-98000000D03*
X180500000Y-98000000D03*
X279000000Y-98000000D03*
D13*
X98699999Y-83999999D03*
X211100000Y-48200000D03*
X197200000Y-10000000D03*
X98699999Y-35999999D03*
X12100000Y-48200000D03*
X212100000Y-45800000D03*
D14*
X13000000Y-44000000D03*
X111500000Y-44000000D03*
X210000000Y-44000000D03*
X13000000Y-92000000D03*
X111500000Y-92000000D03*
X210000000Y-92000000D03*
X13000000Y-140000000D03*
X111500000Y-140000000D03*
X210000000Y-140000000D03*
D13*
X11100000Y-93800000D03*
X112600000Y-96200000D03*
X98700000Y-8000000D03*
X194800000Y-131000000D03*
X98700000Y-9000000D03*
X209100000Y-96200000D03*
X194800000Y-35000000D03*
X194800000Y-106400000D03*
X197200000Y-57000000D03*
X181600000Y-93800000D03*
X98700000Y-10000000D03*
X96300000Y-8400000D03*
X98699999Y-133999999D03*
X13100000Y-48200000D03*
X194800000Y-38000000D03*
X111600000Y-93800000D03*
X194800000Y-134000000D03*
X96300000Y-60400000D03*
X98700000Y-60000000D03*
X112600000Y-48200000D03*
X197200000Y-9000000D03*
X98700000Y-108000000D03*
X194800000Y-84000000D03*
X194800000Y-57400000D03*
X279100000Y-93800000D03*
X197199999Y-36999999D03*
X194800000Y-36000000D03*
X197200000Y-58000000D03*
X96300000Y-104400000D03*
X98700000Y-107000000D03*
X96300000Y-131000000D03*
X194800000Y-130000000D03*
X197200000Y-12000000D03*
X197199999Y-83999999D03*
X96300000Y-134000000D03*
D14*
X13000000Y-2000000D03*
X111500000Y-2000000D03*
X210000000Y-2000000D03*
X13000000Y-50000000D03*
X111500000Y-50000000D03*
X210000000Y-50000000D03*
X13000000Y-98000000D03*
X111500000Y-98000000D03*
X210000000Y-98000000D03*
D13*
X179600000Y-48200000D03*
X194800000Y-104400000D03*
X281100000Y-93800000D03*
X197200000Y-105000000D03*
X197200000Y-107000000D03*
X14100000Y-45800000D03*
X98699999Y-82999999D03*
X194800000Y-83000000D03*
X180600000Y-93800000D03*
X180600000Y-45800000D03*
X280100000Y-93800000D03*
X96300000Y-133000000D03*
X96300000Y-10400000D03*
X277100000Y-96200000D03*
X210100000Y-45800000D03*
X209100000Y-93800000D03*
X211100000Y-45800000D03*
X197199999Y-81999999D03*
X13100000Y-93800000D03*
X96300000Y-9400000D03*
X81100000Y-93800000D03*
X208100000Y-93800000D03*
X280100000Y-48200000D03*
X11100000Y-48200000D03*
X179600000Y-93800000D03*
X197200000Y-108000000D03*
X279100000Y-48200000D03*
D14*
X180500000Y-140000000D03*
X279000000Y-140000000D03*
X82000000Y-44000000D03*
X180500000Y-44000000D03*
X279000000Y-44000000D03*
X82000000Y-92000000D03*
X180500000Y-92000000D03*
X279000000Y-92000000D03*
X82000000Y-140000000D03*
D13*
X109600000Y-45800000D03*
X208100000Y-96200000D03*
X98699999Y-33999999D03*
X209100000Y-45800000D03*
X98700000Y-57000000D03*
X209100000Y-48200000D03*
X194800000Y-34000000D03*
X111600000Y-48200000D03*
X278100000Y-45800000D03*
X96300000Y-84000000D03*
X181600000Y-96200000D03*
X194800000Y-85000000D03*
X11100000Y-45800000D03*
X278100000Y-48200000D03*
X180600000Y-48200000D03*
X197200000Y-106000000D03*
X98700000Y-11000000D03*
X98699999Y-132999999D03*
X81100000Y-45800000D03*
X197200000Y-104000000D03*
X82100000Y-93800000D03*
X15100000Y-45800000D03*
X15100000Y-96200000D03*
X194800000Y-11400000D03*
X96300000Y-106400000D03*
X96300000Y-11400000D03*
X98700000Y-12000000D03*
X212100000Y-96200000D03*
X197199999Y-130999999D03*
X96300000Y-86000000D03*
X96300000Y-56400000D03*
X210100000Y-48200000D03*
X208100000Y-48200000D03*
X194800000Y-58400000D03*
X197199999Y-84999999D03*
X83100000Y-96200000D03*
X211100000Y-96200000D03*
X194800000Y-133000000D03*
X109600000Y-93800000D03*
X15100000Y-93800000D03*
X194800000Y-105400000D03*
X281100000Y-96200000D03*
X197199999Y-129999999D03*
X96300000Y-34000000D03*
X98699999Y-130999999D03*
X178600000Y-45800000D03*
X98699999Y-85999999D03*
X98700000Y-59000000D03*
X109600000Y-48200000D03*
X197200000Y-8000000D03*
X111600000Y-45800000D03*
X197199999Y-133999999D03*
X14100000Y-96200000D03*
X180600000Y-96200000D03*
X197199999Y-82999999D03*
X278100000Y-96200000D03*
X278100000Y-93800000D03*
X96300000Y-35000000D03*
X110600000Y-96200000D03*
X197200000Y-11000000D03*
X14100000Y-48200000D03*
X98699999Y-131999999D03*
X98699999Y-81999999D03*
X98699999Y-34999999D03*
X12100000Y-96200000D03*
X96300000Y-82000000D03*
X194800000Y-60400000D03*
X98700000Y-106000000D03*
X194800000Y-9400000D03*
X12100000Y-45800000D03*
X84100000Y-93800000D03*
X281100000Y-45800000D03*
X279100000Y-96200000D03*
X178600000Y-93800000D03*
X194800000Y-86000000D03*
X113600000Y-96200000D03*
X277100000Y-48200000D03*
X83100000Y-45800000D03*
X98700000Y-104000000D03*
X111600000Y-96200000D03*
X194800000Y-59400000D03*
X84100000Y-96200000D03*
X179600000Y-96200000D03*
X96300000Y-132000000D03*
X197199999Y-85999999D03*
X98699999Y-84999999D03*
X181600000Y-48200000D03*
X96300000Y-59400000D03*
X208100000Y-45800000D03*
X197200000Y-56000000D03*
X80100000Y-48200000D03*
X112600000Y-45800000D03*
X110600000Y-48200000D03*
X210100000Y-96200000D03*
X112600000Y-93800000D03*
X281100000Y-48200000D03*
X81100000Y-96200000D03*
X109600000Y-96200000D03*
X280100000Y-96200000D03*
X82100000Y-96200000D03*
X80100000Y-45800000D03*
X182600000Y-45800000D03*
X178600000Y-48200000D03*
X197199999Y-35999999D03*
M02*
