G04 #@! TF.GenerationSoftware,KiCad,Pcbnew,7.0.1-3b83917a11~171~ubuntu20.04.1*
G04 #@! TF.CreationDate,2023-10-27T13:38:02+02:00*
G04 #@! TF.ProjectId,panel_top,70616e65-6c5f-4746-9f70-2e6b69636164,rev?*
G04 #@! TF.SameCoordinates,PX1ab3f0PY1312d00*
G04 #@! TF.FileFunction,Soldermask,Bot*
G04 #@! TF.FilePolarity,Negative*
%FSLAX46Y46*%
G04 Gerber Fmt 4.6, Leading zero omitted, Abs format (unit mm)*
G04 Created by KiCad (PCBNEW 7.0.1-3b83917a11~171~ubuntu20.04.1) date 2023-10-27 13:38:02*
%MOMM*%
%LPD*%
G01*
G04 APERTURE LIST*
%ADD10C,0.500000*%
%ADD11R,1.700000X1.700000*%
G04 APERTURE END LIST*
D10*
X194800000Y-37000000D03*
X113600000Y-93800000D03*
X14100000Y-93800000D03*
X197199999Y-131999999D03*
X179600000Y-45800000D03*
X96300000Y-107400000D03*
X277100000Y-45800000D03*
X98699999Y-129999999D03*
X279100000Y-45800000D03*
X11100000Y-96200000D03*
X98700000Y-58000000D03*
X194800000Y-107400000D03*
X194800000Y-12400000D03*
X178600000Y-96200000D03*
X194800000Y-132000000D03*
X194800000Y-8400000D03*
X110600000Y-45800000D03*
X98699999Y-37999999D03*
X96300000Y-130000000D03*
X82100000Y-48200000D03*
X96300000Y-57400000D03*
X98699999Y-36999999D03*
X15100000Y-48200000D03*
X12100000Y-93800000D03*
X197200000Y-60000000D03*
X96300000Y-83000000D03*
X197200000Y-59000000D03*
X110600000Y-93800000D03*
X96300000Y-108400000D03*
X98700000Y-56000000D03*
X80100000Y-93800000D03*
X98700000Y-105000000D03*
X194800000Y-82000000D03*
X82100000Y-45800000D03*
X13100000Y-96200000D03*
X83100000Y-93800000D03*
X212100000Y-93800000D03*
X84100000Y-48200000D03*
X84100000Y-45800000D03*
X113600000Y-48200000D03*
X194800000Y-56400000D03*
X96300000Y-85000000D03*
X96300000Y-36000000D03*
X96300000Y-37000000D03*
X113600000Y-45800000D03*
X83100000Y-48200000D03*
X96300000Y-105400000D03*
X96300000Y-38000000D03*
X197199999Y-37999999D03*
X182600000Y-96200000D03*
X96300000Y-12400000D03*
X182600000Y-48200000D03*
X212100000Y-48200000D03*
X80100000Y-96200000D03*
X194800000Y-10400000D03*
X210100000Y-93800000D03*
X182600000Y-93800000D03*
X96300000Y-58400000D03*
X197199999Y-132999999D03*
X13100000Y-45800000D03*
X194800000Y-108400000D03*
X197199999Y-33999999D03*
X81100000Y-48200000D03*
X277100000Y-93800000D03*
X197199999Y-34999999D03*
X280100000Y-45800000D03*
X181600000Y-45800000D03*
X211100000Y-93800000D03*
D11*
X82000000Y-2000000D03*
X180500000Y-2000000D03*
X279000000Y-2000000D03*
X82000000Y-50000000D03*
X180500000Y-50000000D03*
X279000000Y-50000000D03*
X82000000Y-98000000D03*
X180500000Y-98000000D03*
X279000000Y-98000000D03*
D10*
X98699999Y-83999999D03*
X211100000Y-48200000D03*
X197200000Y-10000000D03*
X98699999Y-35999999D03*
X12100000Y-48200000D03*
X212100000Y-45800000D03*
D11*
X13000000Y-44000000D03*
X111500000Y-44000000D03*
X210000000Y-44000000D03*
X13000000Y-92000000D03*
X111500000Y-92000000D03*
X210000000Y-92000000D03*
X13000000Y-140000000D03*
X111500000Y-140000000D03*
X210000000Y-140000000D03*
D10*
X11100000Y-93800000D03*
X112600000Y-96200000D03*
X98700000Y-8000000D03*
X194800000Y-131000000D03*
X98700000Y-9000000D03*
X209100000Y-96200000D03*
X194800000Y-35000000D03*
X194800000Y-106400000D03*
X197200000Y-57000000D03*
X181600000Y-93800000D03*
X98700000Y-10000000D03*
X96300000Y-8400000D03*
X98699999Y-133999999D03*
X13100000Y-48200000D03*
X194800000Y-38000000D03*
X111600000Y-93800000D03*
X194800000Y-134000000D03*
X96300000Y-60400000D03*
X98700000Y-60000000D03*
X112600000Y-48200000D03*
X197200000Y-9000000D03*
X98700000Y-108000000D03*
X194800000Y-84000000D03*
X194800000Y-57400000D03*
X279100000Y-93800000D03*
X197199999Y-36999999D03*
X194800000Y-36000000D03*
X197200000Y-58000000D03*
X96300000Y-104400000D03*
X98700000Y-107000000D03*
X96300000Y-131000000D03*
X194800000Y-130000000D03*
X197200000Y-12000000D03*
X197199999Y-83999999D03*
X96300000Y-134000000D03*
D11*
X13000000Y-2000000D03*
X111500000Y-2000000D03*
X210000000Y-2000000D03*
X13000000Y-50000000D03*
X111500000Y-50000000D03*
X210000000Y-50000000D03*
X13000000Y-98000000D03*
X111500000Y-98000000D03*
X210000000Y-98000000D03*
D10*
X179600000Y-48200000D03*
X194800000Y-104400000D03*
X281100000Y-93800000D03*
X197200000Y-105000000D03*
X197200000Y-107000000D03*
X14100000Y-45800000D03*
X98699999Y-82999999D03*
X194800000Y-83000000D03*
X180600000Y-93800000D03*
X180600000Y-45800000D03*
X280100000Y-93800000D03*
X96300000Y-133000000D03*
X96300000Y-10400000D03*
X277100000Y-96200000D03*
X210100000Y-45800000D03*
X209100000Y-93800000D03*
X211100000Y-45800000D03*
X197199999Y-81999999D03*
X13100000Y-93800000D03*
X96300000Y-9400000D03*
X81100000Y-93800000D03*
X208100000Y-93800000D03*
X280100000Y-48200000D03*
X11100000Y-48200000D03*
X179600000Y-93800000D03*
X197200000Y-108000000D03*
X279100000Y-48200000D03*
D11*
X180500000Y-140000000D03*
X279000000Y-140000000D03*
X82000000Y-44000000D03*
X180500000Y-44000000D03*
X279000000Y-44000000D03*
X82000000Y-92000000D03*
X180500000Y-92000000D03*
X279000000Y-92000000D03*
X82000000Y-140000000D03*
D10*
X109600000Y-45800000D03*
X208100000Y-96200000D03*
X98699999Y-33999999D03*
X209100000Y-45800000D03*
X98700000Y-57000000D03*
X209100000Y-48200000D03*
X194800000Y-34000000D03*
X111600000Y-48200000D03*
X278100000Y-45800000D03*
X96300000Y-84000000D03*
X181600000Y-96200000D03*
X194800000Y-85000000D03*
X11100000Y-45800000D03*
X278100000Y-48200000D03*
X180600000Y-48200000D03*
X197200000Y-106000000D03*
X98700000Y-11000000D03*
X98699999Y-132999999D03*
X81100000Y-45800000D03*
X197200000Y-104000000D03*
X82100000Y-93800000D03*
X15100000Y-45800000D03*
X15100000Y-96200000D03*
X194800000Y-11400000D03*
X96300000Y-106400000D03*
X96300000Y-11400000D03*
X98700000Y-12000000D03*
X212100000Y-96200000D03*
X197199999Y-130999999D03*
X96300000Y-86000000D03*
X96300000Y-56400000D03*
X210100000Y-48200000D03*
X208100000Y-48200000D03*
X194800000Y-58400000D03*
X197199999Y-84999999D03*
X83100000Y-96200000D03*
X211100000Y-96200000D03*
X194800000Y-133000000D03*
X109600000Y-93800000D03*
X15100000Y-93800000D03*
X194800000Y-105400000D03*
X281100000Y-96200000D03*
X197199999Y-129999999D03*
X96300000Y-34000000D03*
X98699999Y-130999999D03*
X178600000Y-45800000D03*
X98699999Y-85999999D03*
X98700000Y-59000000D03*
X109600000Y-48200000D03*
X197200000Y-8000000D03*
X111600000Y-45800000D03*
X197199999Y-133999999D03*
X14100000Y-96200000D03*
X180600000Y-96200000D03*
X197199999Y-82999999D03*
X278100000Y-96200000D03*
X278100000Y-93800000D03*
X96300000Y-35000000D03*
X110600000Y-96200000D03*
X197200000Y-11000000D03*
X14100000Y-48200000D03*
X98699999Y-131999999D03*
X98699999Y-81999999D03*
X98699999Y-34999999D03*
X12100000Y-96200000D03*
X96300000Y-82000000D03*
X194800000Y-60400000D03*
X98700000Y-106000000D03*
X194800000Y-9400000D03*
X12100000Y-45800000D03*
X84100000Y-93800000D03*
X281100000Y-45800000D03*
X279100000Y-96200000D03*
X178600000Y-93800000D03*
X194800000Y-86000000D03*
X113600000Y-96200000D03*
X277100000Y-48200000D03*
X83100000Y-45800000D03*
X98700000Y-104000000D03*
X111600000Y-96200000D03*
X194800000Y-59400000D03*
X84100000Y-96200000D03*
X179600000Y-96200000D03*
X96300000Y-132000000D03*
X197199999Y-85999999D03*
X98699999Y-84999999D03*
X181600000Y-48200000D03*
X96300000Y-59400000D03*
X208100000Y-45800000D03*
X197200000Y-56000000D03*
X80100000Y-48200000D03*
X112600000Y-45800000D03*
X110600000Y-48200000D03*
X210100000Y-96200000D03*
X112600000Y-93800000D03*
X281100000Y-48200000D03*
X81100000Y-96200000D03*
X109600000Y-96200000D03*
X280100000Y-96200000D03*
X82100000Y-96200000D03*
X80100000Y-45800000D03*
X182600000Y-45800000D03*
X178600000Y-48200000D03*
X197199999Y-35999999D03*
M02*
