%TF.GenerationSoftware,KiCad,Pcbnew,7.0.1-3b83917a11~171~ubuntu20.04.1*%
%TF.CreationDate,2023-10-27T00:02:38+02:00*%
%TF.ProjectId,panel_top,70616e65-6c5f-4746-9f70-2e6b69636164,rev?*%
%TF.SameCoordinates,Original*%
%TF.FileFunction,Legend,Bot*%
%TF.FilePolarity,Positive*%
%FSLAX46Y46*%
G04 Gerber Fmt 4.6, Leading zero omitted, Abs format (unit mm)*
G04 Created by KiCad (PCBNEW 7.0.1-3b83917a11~171~ubuntu20.04.1) date 2023-10-27 00:02:38*
%MOMM*%
%LPD*%
G01*
G04 APERTURE LIST*
%ADD10C,0.500000*%
%ADD11R,1.700000X1.700000*%
G04 APERTURE END LIST*
%LPC*%
D10*
%TO.C,KiKit_MB_52_3*%
X211850000Y-116200000D03*
%TD*%
%TO.C,KiKit_MB_34_3*%
X280850000Y-113800000D03*
%TD*%
%TO.C,KiKit_MB_21_4*%
X100450000Y-77000000D03*
%TD*%
%TO.C,KiKit_MB_88_1*%
X209850000Y-212200000D03*
%TD*%
%TO.C,KiKit_MB_25_4*%
X114350000Y-68200000D03*
%TD*%
%TO.C,KiKit_MB_51_3*%
X198950000Y-152000000D03*
%TD*%
%TO.C,KiKit_MB_57_4*%
X15850000Y-164200000D03*
%TD*%
%TO.C,KiKit_MB_36_3*%
X98050000Y-152000000D03*
%TD*%
%TO.C,KiKit_MB_86_1*%
X278850000Y-212200000D03*
%TD*%
%TO.C,KiKit_MB_40_4*%
X98050000Y-127400000D03*
%TD*%
D11*
%TO.C,J9*%
X113250000Y-118000000D03*
%TD*%
%TO.C,J9*%
X211750000Y-166000000D03*
%TD*%
%TO.C,J9*%
X14750000Y-214000000D03*
%TD*%
%TO.C,J9*%
X113250000Y-214000000D03*
%TD*%
%TO.C,J9*%
X211750000Y-214000000D03*
%TD*%
%TO.C,J9*%
X14750000Y-70000000D03*
%TD*%
%TO.C,J9*%
X14750000Y-118000000D03*
%TD*%
%TO.C,J9*%
X211750000Y-118000000D03*
%TD*%
%TO.C,J9*%
X14750000Y-166000000D03*
%TD*%
%TO.C,J9*%
X113250000Y-166000000D03*
%TD*%
%TO.C,J9*%
X113250000Y-70000000D03*
%TD*%
%TO.C,J9*%
X14750000Y-22000000D03*
%TD*%
%TO.C,J9*%
X211750000Y-22000000D03*
%TD*%
%TO.C,J9*%
X113250000Y-22000000D03*
%TD*%
%TO.C,J9*%
X211750000Y-70000000D03*
%TD*%
D10*
%TO.C,KiKit_MB_42_5*%
X184350000Y-116200000D03*
%TD*%
%TO.C,KiKit_MB_36_4*%
X98050000Y-153000000D03*
%TD*%
%TO.C,KiKit_MB_20_3*%
X98050000Y-78400000D03*
%TD*%
%TO.C,KiKit_MB_39_1*%
X85850000Y-161800000D03*
%TD*%
%TO.C,KiKit_MB_84_3*%
X196550000Y-222400000D03*
%TD*%
%TO.C,KiKit_MB_10_1*%
X196550000Y-28400000D03*
%TD*%
%TO.C,KiKit_MB_45_3*%
X113350000Y-116200000D03*
%TD*%
%TO.C,KiKit_MB_60_4*%
X98050000Y-175400000D03*
%TD*%
%TO.C,KiKit_MB_26_5*%
X111350000Y-113800000D03*
%TD*%
%TO.C,KiKit_MB_36_1*%
X98050000Y-150000000D03*
%TD*%
%TO.C,KiKit_MB_53_5*%
X209850000Y-161800000D03*
%TD*%
%TO.C,KiKit_MB_86_2*%
X279850000Y-212200000D03*
%TD*%
%TO.C,KiKit_MB_88_5*%
X213850000Y-212200000D03*
%TD*%
%TO.C,KiKit_MB_43_2*%
X100450000Y-153000000D03*
%TD*%
%TO.C,KiKit_MB_83_1*%
X111350000Y-212200000D03*
%TD*%
%TO.C,KiKit_MB_82_2*%
X196550000Y-247000000D03*
%TD*%
%TO.C,KiKit_MB_73_1*%
X213850000Y-209800000D03*
%TD*%
%TO.C,KiKit_MB_75_1*%
X81850000Y-212200000D03*
%TD*%
%TO.C,KiKit_MB_19_4*%
X82850000Y-113800000D03*
%TD*%
%TO.C,KiKit_MB_28_3*%
X196550000Y-78400000D03*
%TD*%
%TO.C,KiKit_MB_14_1*%
X282850000Y-65800000D03*
%TD*%
%TO.C,KiKit_MB_69_4*%
X198950000Y-173000000D03*
%TD*%
%TO.C,KiKit_MB_27_5*%
X180350000Y-113800000D03*
%TD*%
%TO.C,KiKit_MB_29_4*%
X198950000Y-77000000D03*
%TD*%
%TO.C,KiKit_MB_39_4*%
X82850000Y-161800000D03*
%TD*%
%TO.C,KiKit_MB_10_2*%
X196550000Y-29400000D03*
%TD*%
%TO.C,KiKit_MB_4_1*%
X98050000Y-28400000D03*
%TD*%
%TO.C,KiKit_MB_53_3*%
X211850000Y-161800000D03*
%TD*%
%TO.C,KiKit_MB_61_1*%
X100450000Y-176000000D03*
%TD*%
%TO.C,KiKit_MB_78_4*%
X98050000Y-223400000D03*
%TD*%
%TO.C,KiKit_MB_82_3*%
X196550000Y-248000000D03*
%TD*%
%TO.C,KiKit_MB_38_1*%
X16850000Y-161800000D03*
%TD*%
%TO.C,KiKit_MB_43_4*%
X100450000Y-151000000D03*
%TD*%
%TO.C,KiKit_MB_25_2*%
X112350000Y-68200000D03*
%TD*%
%TO.C,KiKit_MB_28_5*%
X196550000Y-80400000D03*
%TD*%
%TO.C,KiKit_MB_22_5*%
X184350000Y-68200000D03*
%TD*%
%TO.C,KiKit_MB_81_5*%
X100450000Y-246000000D03*
%TD*%
%TO.C,KiKit_MB_51_4*%
X198950000Y-151000000D03*
%TD*%
%TO.C,KiKit_MB_30_3*%
X280850000Y-68200000D03*
%TD*%
%TO.C,KiKit_MB_56_4*%
X98050000Y-201000000D03*
%TD*%
%TO.C,KiKit_MB_31_2*%
X198950000Y-105000000D03*
%TD*%
%TO.C,KiKit_MB_26_2*%
X114350000Y-113800000D03*
%TD*%
%TO.C,KiKit_MB_85_4*%
X198950000Y-221000000D03*
%TD*%
%TO.C,KiKit_MB_60_2*%
X98050000Y-173400000D03*
%TD*%
%TO.C,KiKit_MB_40_1*%
X98050000Y-124400000D03*
%TD*%
%TO.C,KiKit_MB_72_2*%
X210850000Y-164200000D03*
%TD*%
%TO.C,KiKit_MB_13_3*%
X211850000Y-65800000D03*
%TD*%
%TO.C,KiKit_MB_41_4*%
X100450000Y-125000000D03*
%TD*%
%TO.C,KiKit_MB_45_4*%
X114350000Y-116200000D03*
%TD*%
%TO.C,KiKit_MB_60_1*%
X98050000Y-172400000D03*
%TD*%
%TO.C,KiKit_MB_34_4*%
X279850000Y-113800000D03*
%TD*%
%TO.C,KiKit_MB_8_4*%
X112350000Y-65800000D03*
%TD*%
%TO.C,KiKit_MB_86_5*%
X282850000Y-212200000D03*
%TD*%
%TO.C,KiKit_MB_11_3*%
X198950000Y-30000000D03*
%TD*%
%TO.C,KiKit_MB_9_4*%
X181350000Y-65800000D03*
%TD*%
%TO.C,KiKit_MB_63_1*%
X100450000Y-202000000D03*
%TD*%
%TO.C,KiKit_MB_8_3*%
X113350000Y-65800000D03*
%TD*%
%TO.C,KiKit_MB_84_1*%
X196550000Y-220400000D03*
%TD*%
%TO.C,KiKit_MB_37_3*%
X14850000Y-116200000D03*
%TD*%
%TO.C,KiKit_MB_78_2*%
X98050000Y-221400000D03*
%TD*%
%TO.C,KiKit_MB_6_1*%
X100450000Y-58000000D03*
%TD*%
%TO.C,KiKit_MB_87_3*%
X198950000Y-248000000D03*
%TD*%
%TO.C,KiKit_MB_67_4*%
X181350000Y-209800000D03*
%TD*%
%TO.C,KiKit_MB_81_3*%
X100450000Y-248000000D03*
%TD*%
%TO.C,KiKit_MB_30_5*%
X282850000Y-68200000D03*
%TD*%
%TO.C,KiKit_MB_46_3*%
X113350000Y-161800000D03*
%TD*%
%TO.C,KiKit_MB_27_4*%
X181350000Y-113800000D03*
%TD*%
%TO.C,KiKit_MB_65_2*%
X112350000Y-164200000D03*
%TD*%
%TO.C,KiKit_MB_74_1*%
X282850000Y-209800000D03*
%TD*%
%TO.C,KiKit_MB_27_3*%
X182350000Y-113800000D03*
%TD*%
%TO.C,KiKit_MB_70_2*%
X279850000Y-164200000D03*
%TD*%
%TO.C,KiKit_MB_42_4*%
X183350000Y-116200000D03*
%TD*%
%TO.C,KiKit_MB_75_3*%
X83850000Y-212200000D03*
%TD*%
%TO.C,KiKit_MB_47_3*%
X182350000Y-161800000D03*
%TD*%
%TO.C,KiKit_MB_16_2*%
X98050000Y-103000000D03*
%TD*%
%TO.C,KiKit_MB_18_5*%
X12850000Y-113800000D03*
%TD*%
%TO.C,KiKit_MB_66_4*%
X112350000Y-209800000D03*
%TD*%
%TO.C,KiKit_MB_79_4*%
X100450000Y-221000000D03*
%TD*%
%TO.C,KiKit_MB_23_3*%
X100450000Y-104000000D03*
%TD*%
%TO.C,KiKit_MB_35_1*%
X81850000Y-116200000D03*
%TD*%
%TO.C,KiKit_MB_80_5*%
X184350000Y-212200000D03*
%TD*%
%TO.C,KiKit_MB_27_2*%
X183350000Y-113800000D03*
%TD*%
%TO.C,KiKit_MB_53_4*%
X210850000Y-161800000D03*
%TD*%
%TO.C,KiKit_MB_12_2*%
X198950000Y-57000000D03*
%TD*%
%TO.C,KiKit_MB_4_2*%
X98050000Y-29400000D03*
%TD*%
%TO.C,KiKit_MB_28_2*%
X196550000Y-77400000D03*
%TD*%
%TO.C,KiKit_MB_52_5*%
X213850000Y-116200000D03*
%TD*%
%TO.C,KiKit_MB_50_3*%
X280850000Y-116200000D03*
%TD*%
%TO.C,KiKit_MB_74_3*%
X280850000Y-209800000D03*
%TD*%
%TO.C,KiKit_MB_85_1*%
X198950000Y-224000000D03*
%TD*%
%TO.C,KiKit_MB_18_3*%
X14850000Y-113800000D03*
%TD*%
%TO.C,KiKit_MB_67_2*%
X183350000Y-209800000D03*
%TD*%
%TO.C,KiKit_MB_66_1*%
X115350000Y-209800000D03*
%TD*%
%TO.C,KiKit_MB_37_2*%
X13850000Y-116200000D03*
%TD*%
%TO.C,KiKit_MB_76_3*%
X98050000Y-248000000D03*
%TD*%
%TO.C,KiKit_MB_44_2*%
X196550000Y-151000000D03*
%TD*%
%TO.C,KiKit_MB_32_3*%
X211850000Y-68200000D03*
%TD*%
%TO.C,KiKit_MB_24_2*%
X196550000Y-103000000D03*
%TD*%
%TO.C,KiKit_MB_7_2*%
X196550000Y-55000000D03*
%TD*%
%TO.C,KiKit_MB_72_3*%
X211850000Y-164200000D03*
%TD*%
%TO.C,KiKit_MB_76_4*%
X98050000Y-249000000D03*
%TD*%
%TO.C,KiKit_MB_38_2*%
X15850000Y-161800000D03*
%TD*%
%TO.C,KiKit_MB_4_4*%
X98050000Y-31400000D03*
%TD*%
%TO.C,KiKit_MB_10_5*%
X196550000Y-32400000D03*
%TD*%
%TO.C,KiKit_MB_3_3*%
X83850000Y-65800000D03*
%TD*%
%TO.C,KiKit_MB_7_3*%
X196550000Y-56000000D03*
%TD*%
%TO.C,KiKit_MB_56_3*%
X98050000Y-200000000D03*
%TD*%
%TO.C,KiKit_MB_33_4*%
X210850000Y-113800000D03*
%TD*%
%TO.C,KiKit_MB_4_3*%
X98050000Y-30400000D03*
%TD*%
%TO.C,KiKit_MB_87_5*%
X198950000Y-246000000D03*
%TD*%
%TO.C,KiKit_MB_43_3*%
X100450000Y-152000000D03*
%TD*%
%TO.C,KiKit_MB_62_3*%
X182350000Y-164200000D03*
%TD*%
%TO.C,KiKit_MB_39_3*%
X83850000Y-161800000D03*
%TD*%
%TO.C,KiKit_MB_42_2*%
X181350000Y-116200000D03*
%TD*%
%TO.C,KiKit_MB_68_1*%
X196550000Y-172400000D03*
%TD*%
%TO.C,KiKit_MB_17_4*%
X15850000Y-68200000D03*
%TD*%
%TO.C,KiKit_MB_85_2*%
X198950000Y-223000000D03*
%TD*%
%TO.C,KiKit_MB_12_3*%
X198950000Y-56000000D03*
%TD*%
%TO.C,KiKit_MB_88_4*%
X212850000Y-212200000D03*
%TD*%
%TO.C,KiKit_MB_69_2*%
X198950000Y-175000000D03*
%TD*%
%TO.C,KiKit_MB_15_2*%
X82850000Y-68200000D03*
%TD*%
%TO.C,KiKit_MB_1_2*%
X98050000Y-55000000D03*
%TD*%
%TO.C,KiKit_MB_60_3*%
X98050000Y-174400000D03*
%TD*%
%TO.C,KiKit_MB_68_5*%
X196550000Y-176400000D03*
%TD*%
%TO.C,KiKit_MB_81_1*%
X100450000Y-250000000D03*
%TD*%
%TO.C,KiKit_MB_9_1*%
X184350000Y-65800000D03*
%TD*%
%TO.C,KiKit_MB_31_5*%
X198950000Y-102000000D03*
%TD*%
%TO.C,KiKit_MB_50_1*%
X278850000Y-116200000D03*
%TD*%
%TO.C,KiKit_MB_44_4*%
X196550000Y-153000000D03*
%TD*%
%TO.C,KiKit_MB_64_4*%
X196550000Y-201000000D03*
%TD*%
%TO.C,KiKit_MB_36_5*%
X98050000Y-154000000D03*
%TD*%
%TO.C,KiKit_MB_75_4*%
X84850000Y-212200000D03*
%TD*%
%TO.C,KiKit_MB_69_3*%
X198950000Y-174000000D03*
%TD*%
%TO.C,KiKit_MB_46_5*%
X111350000Y-161800000D03*
%TD*%
%TO.C,KiKit_MB_19_5*%
X81850000Y-113800000D03*
%TD*%
%TO.C,KiKit_MB_3_5*%
X81850000Y-65800000D03*
%TD*%
%TO.C,KiKit_MB_40_2*%
X98050000Y-125400000D03*
%TD*%
%TO.C,KiKit_MB_15_1*%
X81850000Y-68200000D03*
%TD*%
%TO.C,KiKit_MB_14_5*%
X278850000Y-65800000D03*
%TD*%
%TO.C,KiKit_MB_33_1*%
X213850000Y-113800000D03*
%TD*%
%TO.C,KiKit_MB_15_5*%
X85850000Y-68200000D03*
%TD*%
%TO.C,KiKit_MB_31_3*%
X198950000Y-104000000D03*
%TD*%
%TO.C,KiKit_MB_38_3*%
X14850000Y-161800000D03*
%TD*%
%TO.C,KiKit_MB_17_1*%
X12850000Y-68200000D03*
%TD*%
%TO.C,KiKit_MB_52_4*%
X212850000Y-116200000D03*
%TD*%
%TO.C,KiKit_MB_31_1*%
X198950000Y-106000000D03*
%TD*%
%TO.C,KiKit_MB_33_2*%
X212850000Y-113800000D03*
%TD*%
%TO.C,KiKit_MB_61_2*%
X100450000Y-175000000D03*
%TD*%
%TO.C,KiKit_MB_14_2*%
X281850000Y-65800000D03*
%TD*%
%TO.C,KiKit_MB_73_5*%
X209850000Y-209800000D03*
%TD*%
%TO.C,KiKit_MB_73_4*%
X210850000Y-209800000D03*
%TD*%
%TO.C,KiKit_MB_74_2*%
X281850000Y-209800000D03*
%TD*%
%TO.C,KiKit_MB_34_2*%
X281850000Y-113800000D03*
%TD*%
%TO.C,KiKit_MB_6_4*%
X100450000Y-55000000D03*
%TD*%
%TO.C,KiKit_MB_19_2*%
X84850000Y-113800000D03*
%TD*%
%TO.C,KiKit_MB_23_5*%
X100450000Y-102000000D03*
%TD*%
%TO.C,KiKit_MB_54_1*%
X282850000Y-161800000D03*
%TD*%
%TO.C,KiKit_MB_5_3*%
X100450000Y-30000000D03*
%TD*%
%TO.C,KiKit_MB_55_2*%
X82850000Y-164200000D03*
%TD*%
%TO.C,KiKit_MB_56_1*%
X98050000Y-198000000D03*
%TD*%
%TO.C,KiKit_MB_29_3*%
X198950000Y-78000000D03*
%TD*%
%TO.C,KiKit_MB_54_4*%
X279850000Y-161800000D03*
%TD*%
%TO.C,KiKit_MB_62_1*%
X180350000Y-164200000D03*
%TD*%
%TO.C,KiKit_MB_84_5*%
X196550000Y-224400000D03*
%TD*%
%TO.C,KiKit_MB_61_5*%
X100450000Y-172000000D03*
%TD*%
%TO.C,KiKit_MB_86_3*%
X280850000Y-212200000D03*
%TD*%
%TO.C,KiKit_MB_9_5*%
X180350000Y-65800000D03*
%TD*%
%TO.C,KiKit_MB_60_5*%
X98050000Y-176400000D03*
%TD*%
%TO.C,KiKit_MB_26_1*%
X115350000Y-113800000D03*
%TD*%
%TO.C,KiKit_MB_64_5*%
X196550000Y-202000000D03*
%TD*%
%TO.C,KiKit_MB_64_2*%
X196550000Y-199000000D03*
%TD*%
%TO.C,KiKit_MB_69_1*%
X198950000Y-176000000D03*
%TD*%
%TO.C,KiKit_MB_30_4*%
X281850000Y-68200000D03*
%TD*%
%TO.C,KiKit_MB_57_5*%
X16850000Y-164200000D03*
%TD*%
%TO.C,KiKit_MB_72_5*%
X213850000Y-164200000D03*
%TD*%
%TO.C,KiKit_MB_42_1*%
X180350000Y-116200000D03*
%TD*%
%TO.C,KiKit_MB_72_4*%
X212850000Y-164200000D03*
%TD*%
%TO.C,KiKit_MB_52_2*%
X210850000Y-116200000D03*
%TD*%
%TO.C,KiKit_MB_62_4*%
X183350000Y-164200000D03*
%TD*%
%TO.C,KiKit_MB_54_3*%
X280850000Y-161800000D03*
%TD*%
%TO.C,KiKit_MB_7_4*%
X196550000Y-57000000D03*
%TD*%
%TO.C,KiKit_MB_47_1*%
X184350000Y-161800000D03*
%TD*%
%TO.C,KiKit_MB_18_1*%
X16850000Y-113800000D03*
%TD*%
%TO.C,KiKit_MB_75_5*%
X85850000Y-212200000D03*
%TD*%
%TO.C,KiKit_MB_72_1*%
X209850000Y-164200000D03*
%TD*%
%TO.C,KiKit_MB_81_2*%
X100450000Y-249000000D03*
%TD*%
%TO.C,KiKit_MB_12_1*%
X198950000Y-58000000D03*
%TD*%
%TO.C,KiKit_MB_76_5*%
X98050000Y-250000000D03*
%TD*%
%TO.C,KiKit_MB_7_5*%
X196550000Y-58000000D03*
%TD*%
%TO.C,KiKit_MB_87_4*%
X198950000Y-247000000D03*
%TD*%
%TO.C,KiKit_MB_58_1*%
X16850000Y-209800000D03*
%TD*%
%TO.C,KiKit_MB_57_2*%
X13850000Y-164200000D03*
%TD*%
%TO.C,KiKit_MB_33_3*%
X211850000Y-113800000D03*
%TD*%
%TO.C,KiKit_MB_33_5*%
X209850000Y-113800000D03*
%TD*%
%TO.C,KiKit_MB_82_5*%
X196550000Y-250000000D03*
%TD*%
%TO.C,KiKit_MB_87_1*%
X198950000Y-250000000D03*
%TD*%
%TO.C,KiKit_MB_26_4*%
X112350000Y-113800000D03*
%TD*%
%TO.C,KiKit_MB_34_1*%
X282850000Y-113800000D03*
%TD*%
%TO.C,KiKit_MB_2_1*%
X16850000Y-65800000D03*
%TD*%
%TO.C,KiKit_MB_61_3*%
X100450000Y-174000000D03*
%TD*%
%TO.C,KiKit_MB_62_2*%
X181350000Y-164200000D03*
%TD*%
%TO.C,KiKit_MB_69_5*%
X198950000Y-172000000D03*
%TD*%
%TO.C,KiKit_MB_5_4*%
X100450000Y-29000000D03*
%TD*%
%TO.C,KiKit_MB_1_1*%
X98050000Y-54000000D03*
%TD*%
%TO.C,KiKit_MB_80_2*%
X181350000Y-212200000D03*
%TD*%
%TO.C,KiKit_MB_49_4*%
X198950000Y-125000000D03*
%TD*%
%TO.C,KiKit_MB_50_2*%
X279850000Y-116200000D03*
%TD*%
%TO.C,KiKit_MB_21_5*%
X100450000Y-76000000D03*
%TD*%
%TO.C,KiKit_MB_79_5*%
X100450000Y-220000000D03*
%TD*%
%TO.C,KiKit_MB_48_4*%
X196550000Y-127400000D03*
%TD*%
%TO.C,KiKit_MB_17_3*%
X14850000Y-68200000D03*
%TD*%
%TO.C,KiKit_MB_37_4*%
X15850000Y-116200000D03*
%TD*%
%TO.C,KiKit_MB_31_4*%
X198950000Y-103000000D03*
%TD*%
%TO.C,KiKit_MB_25_3*%
X113350000Y-68200000D03*
%TD*%
%TO.C,KiKit_MB_21_1*%
X100450000Y-80000000D03*
%TD*%
%TO.C,KiKit_MB_43_1*%
X100450000Y-154000000D03*
%TD*%
%TO.C,KiKit_MB_75_2*%
X82850000Y-212200000D03*
%TD*%
%TO.C,KiKit_MB_44_1*%
X196550000Y-150000000D03*
%TD*%
%TO.C,KiKit_MB_76_2*%
X98050000Y-247000000D03*
%TD*%
%TO.C,KiKit_MB_11_5*%
X198950000Y-28000000D03*
%TD*%
%TO.C,KiKit_MB_22_1*%
X180350000Y-68200000D03*
%TD*%
%TO.C,KiKit_MB_49_5*%
X198950000Y-124000000D03*
%TD*%
%TO.C,KiKit_MB_19_3*%
X83850000Y-113800000D03*
%TD*%
%TO.C,KiKit_MB_56_5*%
X98050000Y-202000000D03*
%TD*%
%TO.C,KiKit_MB_83_4*%
X114350000Y-212200000D03*
%TD*%
%TO.C,KiKit_MB_74_5*%
X278850000Y-209800000D03*
%TD*%
%TO.C,KiKit_MB_41_3*%
X100450000Y-126000000D03*
%TD*%
%TO.C,KiKit_MB_20_5*%
X98050000Y-80400000D03*
%TD*%
%TO.C,KiKit_MB_71_2*%
X198950000Y-201000000D03*
%TD*%
%TO.C,KiKit_MB_61_4*%
X100450000Y-173000000D03*
%TD*%
%TO.C,KiKit_MB_22_4*%
X183350000Y-68200000D03*
%TD*%
%TO.C,KiKit_MB_63_2*%
X100450000Y-201000000D03*
%TD*%
%TO.C,KiKit_MB_80_4*%
X183350000Y-212200000D03*
%TD*%
%TO.C,KiKit_MB_12_5*%
X198950000Y-54000000D03*
%TD*%
%TO.C,KiKit_MB_32_2*%
X210850000Y-68200000D03*
%TD*%
%TO.C,KiKit_MB_25_1*%
X111350000Y-68200000D03*
%TD*%
%TO.C,KiKit_MB_58_2*%
X15850000Y-209800000D03*
%TD*%
%TO.C,KiKit_MB_41_5*%
X100450000Y-124000000D03*
%TD*%
%TO.C,KiKit_MB_16_3*%
X98050000Y-104000000D03*
%TD*%
%TO.C,KiKit_MB_55_4*%
X84850000Y-164200000D03*
%TD*%
%TO.C,KiKit_MB_23_4*%
X100450000Y-103000000D03*
%TD*%
%TO.C,KiKit_MB_82_4*%
X196550000Y-249000000D03*
%TD*%
%TO.C,KiKit_MB_22_3*%
X182350000Y-68200000D03*
%TD*%
%TO.C,KiKit_MB_78_1*%
X98050000Y-220400000D03*
%TD*%
%TO.C,KiKit_MB_68_2*%
X196550000Y-173400000D03*
%TD*%
%TO.C,KiKit_MB_77_1*%
X12850000Y-212200000D03*
%TD*%
%TO.C,KiKit_MB_85_3*%
X198950000Y-222000000D03*
%TD*%
%TO.C,KiKit_MB_87_2*%
X198950000Y-249000000D03*
%TD*%
%TO.C,KiKit_MB_59_4*%
X82850000Y-209800000D03*
%TD*%
%TO.C,KiKit_MB_47_2*%
X183350000Y-161800000D03*
%TD*%
%TO.C,KiKit_MB_13_1*%
X213850000Y-65800000D03*
%TD*%
%TO.C,KiKit_MB_81_4*%
X100450000Y-247000000D03*
%TD*%
%TO.C,KiKit_MB_57_1*%
X12850000Y-164200000D03*
%TD*%
%TO.C,KiKit_MB_3_4*%
X82850000Y-65800000D03*
%TD*%
%TO.C,KiKit_MB_39_5*%
X81850000Y-161800000D03*
%TD*%
%TO.C,KiKit_MB_54_5*%
X278850000Y-161800000D03*
%TD*%
%TO.C,KiKit_MB_71_4*%
X198950000Y-199000000D03*
%TD*%
%TO.C,KiKit_MB_24_1*%
X196550000Y-102000000D03*
%TD*%
%TO.C,KiKit_MB_29_1*%
X198950000Y-80000000D03*
%TD*%
%TO.C,KiKit_MB_46_2*%
X114350000Y-161800000D03*
%TD*%
%TO.C,KiKit_MB_2_2*%
X15850000Y-65800000D03*
%TD*%
%TO.C,KiKit_MB_83_5*%
X115350000Y-212200000D03*
%TD*%
%TO.C,KiKit_MB_50_4*%
X281850000Y-116200000D03*
%TD*%
%TO.C,KiKit_MB_85_5*%
X198950000Y-220000000D03*
%TD*%
%TO.C,KiKit_MB_78_3*%
X98050000Y-222400000D03*
%TD*%
%TO.C,KiKit_MB_13_2*%
X212850000Y-65800000D03*
%TD*%
%TO.C,KiKit_MB_6_3*%
X100450000Y-56000000D03*
%TD*%
%TO.C,KiKit_MB_23_1*%
X100450000Y-106000000D03*
%TD*%
%TO.C,KiKit_MB_82_1*%
X196550000Y-246000000D03*
%TD*%
%TO.C,KiKit_MB_9_3*%
X182350000Y-65800000D03*
%TD*%
%TO.C,KiKit_MB_65_5*%
X115350000Y-164200000D03*
%TD*%
%TO.C,KiKit_MB_70_1*%
X278850000Y-164200000D03*
%TD*%
%TO.C,KiKit_MB_5_5*%
X100450000Y-28000000D03*
%TD*%
%TO.C,KiKit_MB_84_2*%
X196550000Y-221400000D03*
%TD*%
%TO.C,KiKit_MB_65_1*%
X111350000Y-164200000D03*
%TD*%
%TO.C,KiKit_MB_10_3*%
X196550000Y-30400000D03*
%TD*%
%TO.C,KiKit_MB_62_5*%
X184350000Y-164200000D03*
%TD*%
%TO.C,KiKit_MB_13_4*%
X210850000Y-65800000D03*
%TD*%
%TO.C,KiKit_MB_1_4*%
X98050000Y-57000000D03*
%TD*%
%TO.C,KiKit_MB_65_4*%
X114350000Y-164200000D03*
%TD*%
%TO.C,KiKit_MB_46_1*%
X115350000Y-161800000D03*
%TD*%
%TO.C,KiKit_MB_25_5*%
X115350000Y-68200000D03*
%TD*%
%TO.C,KiKit_MB_19_1*%
X85850000Y-113800000D03*
%TD*%
%TO.C,KiKit_MB_79_3*%
X100450000Y-222000000D03*
%TD*%
%TO.C,KiKit_MB_67_3*%
X182350000Y-209800000D03*
%TD*%
%TO.C,KiKit_MB_34_5*%
X278850000Y-113800000D03*
%TD*%
%TO.C,KiKit_MB_86_4*%
X281850000Y-212200000D03*
%TD*%
%TO.C,KiKit_MB_5_2*%
X100450000Y-31000000D03*
%TD*%
%TO.C,KiKit_MB_28_4*%
X196550000Y-79400000D03*
%TD*%
%TO.C,KiKit_MB_45_2*%
X112350000Y-116200000D03*
%TD*%
%TO.C,KiKit_MB_6_2*%
X100450000Y-57000000D03*
%TD*%
%TO.C,KiKit_MB_17_2*%
X13850000Y-68200000D03*
%TD*%
%TO.C,KiKit_MB_66_5*%
X111350000Y-209800000D03*
%TD*%
%TO.C,KiKit_MB_78_5*%
X98050000Y-224400000D03*
%TD*%
%TO.C,KiKit_MB_55_3*%
X83850000Y-164200000D03*
%TD*%
%TO.C,KiKit_MB_35_5*%
X85850000Y-116200000D03*
%TD*%
%TO.C,KiKit_MB_8_2*%
X114350000Y-65800000D03*
%TD*%
%TO.C,KiKit_MB_40_3*%
X98050000Y-126400000D03*
%TD*%
%TO.C,KiKit_MB_44_3*%
X196550000Y-152000000D03*
%TD*%
%TO.C,KiKit_MB_68_4*%
X196550000Y-175400000D03*
%TD*%
%TO.C,KiKit_MB_58_3*%
X14850000Y-209800000D03*
%TD*%
%TO.C,KiKit_MB_38_5*%
X12850000Y-161800000D03*
%TD*%
%TO.C,KiKit_MB_47_5*%
X180350000Y-161800000D03*
%TD*%
%TO.C,KiKit_MB_66_3*%
X113350000Y-209800000D03*
%TD*%
%TO.C,KiKit_MB_10_4*%
X196550000Y-31400000D03*
%TD*%
%TO.C,KiKit_MB_43_5*%
X100450000Y-150000000D03*
%TD*%
%TO.C,KiKit_MB_12_4*%
X198950000Y-55000000D03*
%TD*%
%TO.C,KiKit_MB_48_1*%
X196550000Y-124400000D03*
%TD*%
%TO.C,KiKit_MB_27_1*%
X184350000Y-113800000D03*
%TD*%
%TO.C,KiKit_MB_37_1*%
X12850000Y-116200000D03*
%TD*%
%TO.C,KiKit_MB_47_4*%
X181350000Y-161800000D03*
%TD*%
%TO.C,KiKit_MB_63_5*%
X100450000Y-198000000D03*
%TD*%
%TO.C,KiKit_MB_57_3*%
X14850000Y-164200000D03*
%TD*%
%TO.C,KiKit_MB_15_4*%
X84850000Y-68200000D03*
%TD*%
%TO.C,KiKit_MB_30_2*%
X279850000Y-68200000D03*
%TD*%
%TO.C,KiKit_MB_23_2*%
X100450000Y-105000000D03*
%TD*%
%TO.C,KiKit_MB_20_2*%
X98050000Y-77400000D03*
%TD*%
%TO.C,KiKit_MB_70_3*%
X280850000Y-164200000D03*
%TD*%
%TO.C,KiKit_MB_80_1*%
X180350000Y-212200000D03*
%TD*%
%TO.C,KiKit_MB_29_2*%
X198950000Y-79000000D03*
%TD*%
D11*
%TO.C,J5*%
X83750000Y-64000000D03*
%TD*%
%TO.C,J5*%
X182250000Y-64000000D03*
%TD*%
%TO.C,J5*%
X280750000Y-64000000D03*
%TD*%
%TO.C,J5*%
X83750000Y-112000000D03*
%TD*%
%TO.C,J5*%
X182250000Y-112000000D03*
%TD*%
%TO.C,J5*%
X280750000Y-112000000D03*
%TD*%
%TO.C,J5*%
X83750000Y-160000000D03*
%TD*%
%TO.C,J5*%
X182250000Y-160000000D03*
%TD*%
%TO.C,J5*%
X280750000Y-160000000D03*
%TD*%
%TO.C,J5*%
X83750000Y-208000000D03*
%TD*%
%TO.C,J5*%
X182250000Y-208000000D03*
%TD*%
%TO.C,J5*%
X280750000Y-208000000D03*
%TD*%
%TO.C,J5*%
X83750000Y-256000000D03*
%TD*%
%TO.C,J5*%
X182250000Y-256000000D03*
%TD*%
%TO.C,J5*%
X280750000Y-256000000D03*
%TD*%
D10*
%TO.C,KiKit_MB_51_5*%
X198950000Y-150000000D03*
%TD*%
%TO.C,KiKit_MB_41_2*%
X100450000Y-127000000D03*
%TD*%
D11*
%TO.C,J7*%
X83750000Y-22000000D03*
%TD*%
%TO.C,J7*%
X182250000Y-22000000D03*
%TD*%
%TO.C,J7*%
X280750000Y-22000000D03*
%TD*%
%TO.C,J7*%
X83750000Y-70000000D03*
%TD*%
%TO.C,J7*%
X182250000Y-70000000D03*
%TD*%
%TO.C,J7*%
X280750000Y-70000000D03*
%TD*%
%TO.C,J7*%
X83750000Y-118000000D03*
%TD*%
%TO.C,J7*%
X182250000Y-118000000D03*
%TD*%
%TO.C,J7*%
X280750000Y-118000000D03*
%TD*%
%TO.C,J7*%
X83750000Y-166000000D03*
%TD*%
%TO.C,J7*%
X182250000Y-166000000D03*
%TD*%
%TO.C,J7*%
X280750000Y-166000000D03*
%TD*%
%TO.C,J7*%
X83750000Y-214000000D03*
%TD*%
%TO.C,J7*%
X182250000Y-214000000D03*
%TD*%
%TO.C,J7*%
X280750000Y-214000000D03*
%TD*%
D10*
%TO.C,KiKit_MB_18_2*%
X15850000Y-113800000D03*
%TD*%
%TO.C,KiKit_MB_32_1*%
X209850000Y-68200000D03*
%TD*%
%TO.C,KiKit_MB_48_3*%
X196550000Y-126400000D03*
%TD*%
%TO.C,KiKit_MB_59_5*%
X81850000Y-209800000D03*
%TD*%
%TO.C,KiKit_MB_49_2*%
X198950000Y-127000000D03*
%TD*%
%TO.C,KiKit_MB_2_3*%
X14850000Y-65800000D03*
%TD*%
%TO.C,KiKit_MB_32_4*%
X212850000Y-68200000D03*
%TD*%
%TO.C,KiKit_MB_58_5*%
X12850000Y-209800000D03*
%TD*%
%TO.C,KiKit_MB_65_3*%
X113350000Y-164200000D03*
%TD*%
%TO.C,KiKit_MB_16_5*%
X98050000Y-106000000D03*
%TD*%
%TO.C,KiKit_MB_51_1*%
X198950000Y-154000000D03*
%TD*%
%TO.C,KiKit_MB_16_4*%
X98050000Y-105000000D03*
%TD*%
%TO.C,KiKit_MB_15_3*%
X83850000Y-68200000D03*
%TD*%
%TO.C,KiKit_MB_77_4*%
X15850000Y-212200000D03*
%TD*%
%TO.C,KiKit_MB_36_2*%
X98050000Y-151000000D03*
%TD*%
D11*
%TO.C,J2*%
X211750000Y-208000000D03*
%TD*%
%TO.C,J2*%
X14750000Y-256000000D03*
%TD*%
%TO.C,J2*%
X113250000Y-256000000D03*
%TD*%
%TO.C,J2*%
X211750000Y-256000000D03*
%TD*%
%TO.C,J2*%
X14750000Y-64000000D03*
%TD*%
%TO.C,J2*%
X113250000Y-64000000D03*
%TD*%
%TO.C,J2*%
X211750000Y-64000000D03*
%TD*%
%TO.C,J2*%
X14750000Y-112000000D03*
%TD*%
%TO.C,J2*%
X113250000Y-112000000D03*
%TD*%
%TO.C,J2*%
X211750000Y-112000000D03*
%TD*%
%TO.C,J2*%
X14750000Y-160000000D03*
%TD*%
%TO.C,J2*%
X113250000Y-160000000D03*
%TD*%
%TO.C,J2*%
X211750000Y-160000000D03*
%TD*%
%TO.C,J2*%
X14750000Y-208000000D03*
%TD*%
%TO.C,J2*%
X113250000Y-208000000D03*
%TD*%
D10*
%TO.C,KiKit_MB_56_2*%
X98050000Y-199000000D03*
%TD*%
%TO.C,KiKit_MB_59_1*%
X85850000Y-209800000D03*
%TD*%
%TO.C,KiKit_MB_44_5*%
X196550000Y-154000000D03*
%TD*%
%TO.C,KiKit_MB_3_1*%
X85850000Y-65800000D03*
%TD*%
%TO.C,KiKit_MB_39_2*%
X84850000Y-161800000D03*
%TD*%
%TO.C,KiKit_MB_55_5*%
X85850000Y-164200000D03*
%TD*%
%TO.C,KiKit_MB_59_3*%
X83850000Y-209800000D03*
%TD*%
%TO.C,KiKit_MB_63_4*%
X100450000Y-199000000D03*
%TD*%
%TO.C,KiKit_MB_73_2*%
X212850000Y-209800000D03*
%TD*%
%TO.C,KiKit_MB_17_5*%
X16850000Y-68200000D03*
%TD*%
%TO.C,KiKit_MB_53_1*%
X213850000Y-161800000D03*
%TD*%
%TO.C,KiKit_MB_77_2*%
X13850000Y-212200000D03*
%TD*%
%TO.C,KiKit_MB_48_2*%
X196550000Y-125400000D03*
%TD*%
%TO.C,KiKit_MB_52_1*%
X209850000Y-116200000D03*
%TD*%
%TO.C,KiKit_MB_1_3*%
X98050000Y-56000000D03*
%TD*%
%TO.C,KiKit_MB_35_3*%
X83850000Y-116200000D03*
%TD*%
%TO.C,KiKit_MB_2_5*%
X12850000Y-65800000D03*
%TD*%
%TO.C,KiKit_MB_71_3*%
X198950000Y-200000000D03*
%TD*%
%TO.C,KiKit_MB_50_5*%
X282850000Y-116200000D03*
%TD*%
%TO.C,KiKit_MB_38_4*%
X13850000Y-161800000D03*
%TD*%
%TO.C,KiKit_MB_66_2*%
X114350000Y-209800000D03*
%TD*%
%TO.C,KiKit_MB_64_3*%
X196550000Y-200000000D03*
%TD*%
%TO.C,KiKit_MB_79_1*%
X100450000Y-224000000D03*
%TD*%
%TO.C,KiKit_MB_14_4*%
X279850000Y-65800000D03*
%TD*%
%TO.C,KiKit_MB_45_1*%
X111350000Y-116200000D03*
%TD*%
%TO.C,KiKit_MB_71_5*%
X198950000Y-198000000D03*
%TD*%
%TO.C,KiKit_MB_7_1*%
X196550000Y-54000000D03*
%TD*%
%TO.C,KiKit_MB_49_3*%
X198950000Y-126000000D03*
%TD*%
%TO.C,KiKit_MB_26_3*%
X113350000Y-113800000D03*
%TD*%
%TO.C,KiKit_MB_73_3*%
X211850000Y-209800000D03*
%TD*%
%TO.C,KiKit_MB_29_5*%
X198950000Y-76000000D03*
%TD*%
%TO.C,KiKit_MB_76_1*%
X98050000Y-246000000D03*
%TD*%
%TO.C,KiKit_MB_8_1*%
X115350000Y-65800000D03*
%TD*%
%TO.C,KiKit_MB_77_3*%
X14850000Y-212200000D03*
%TD*%
%TO.C,KiKit_MB_88_2*%
X210850000Y-212200000D03*
%TD*%
%TO.C,KiKit_MB_54_2*%
X281850000Y-161800000D03*
%TD*%
%TO.C,KiKit_MB_48_5*%
X196550000Y-128400000D03*
%TD*%
%TO.C,KiKit_MB_46_4*%
X112350000Y-161800000D03*
%TD*%
%TO.C,KiKit_MB_4_5*%
X98050000Y-32400000D03*
%TD*%
%TO.C,KiKit_MB_59_2*%
X84850000Y-209800000D03*
%TD*%
%TO.C,KiKit_MB_45_5*%
X115350000Y-116200000D03*
%TD*%
%TO.C,KiKit_MB_53_2*%
X212850000Y-161800000D03*
%TD*%
%TO.C,KiKit_MB_41_1*%
X100450000Y-128000000D03*
%TD*%
%TO.C,KiKit_MB_11_2*%
X198950000Y-31000000D03*
%TD*%
%TO.C,KiKit_MB_64_1*%
X196550000Y-198000000D03*
%TD*%
%TO.C,KiKit_MB_55_1*%
X81850000Y-164200000D03*
%TD*%
%TO.C,KiKit_MB_58_4*%
X13850000Y-209800000D03*
%TD*%
%TO.C,KiKit_MB_71_1*%
X198950000Y-202000000D03*
%TD*%
%TO.C,KiKit_MB_30_1*%
X278850000Y-68200000D03*
%TD*%
%TO.C,KiKit_MB_5_1*%
X100450000Y-32000000D03*
%TD*%
%TO.C,KiKit_MB_74_4*%
X279850000Y-209800000D03*
%TD*%
%TO.C,KiKit_MB_51_2*%
X198950000Y-153000000D03*
%TD*%
%TO.C,KiKit_MB_70_5*%
X282850000Y-164200000D03*
%TD*%
%TO.C,KiKit_MB_1_5*%
X98050000Y-58000000D03*
%TD*%
%TO.C,KiKit_MB_28_1*%
X196550000Y-76400000D03*
%TD*%
%TO.C,KiKit_MB_20_4*%
X98050000Y-79400000D03*
%TD*%
%TO.C,KiKit_MB_37_5*%
X16850000Y-116200000D03*
%TD*%
%TO.C,KiKit_MB_49_1*%
X198950000Y-128000000D03*
%TD*%
%TO.C,KiKit_MB_3_2*%
X84850000Y-65800000D03*
%TD*%
%TO.C,KiKit_MB_77_5*%
X16850000Y-212200000D03*
%TD*%
%TO.C,KiKit_MB_40_5*%
X98050000Y-128400000D03*
%TD*%
%TO.C,KiKit_MB_21_3*%
X100450000Y-78000000D03*
%TD*%
%TO.C,KiKit_MB_24_3*%
X196550000Y-104000000D03*
%TD*%
%TO.C,KiKit_MB_16_1*%
X98050000Y-102000000D03*
%TD*%
%TO.C,KiKit_MB_79_2*%
X100450000Y-223000000D03*
%TD*%
%TO.C,KiKit_MB_80_3*%
X182350000Y-212200000D03*
%TD*%
%TO.C,KiKit_MB_88_3*%
X211850000Y-212200000D03*
%TD*%
%TO.C,KiKit_MB_11_4*%
X198950000Y-29000000D03*
%TD*%
%TO.C,KiKit_MB_24_4*%
X196550000Y-105000000D03*
%TD*%
%TO.C,KiKit_MB_63_3*%
X100450000Y-200000000D03*
%TD*%
%TO.C,KiKit_MB_83_2*%
X112350000Y-212200000D03*
%TD*%
%TO.C,KiKit_MB_68_3*%
X196550000Y-174400000D03*
%TD*%
%TO.C,KiKit_MB_8_5*%
X111350000Y-65800000D03*
%TD*%
%TO.C,KiKit_MB_67_5*%
X180350000Y-209800000D03*
%TD*%
%TO.C,KiKit_MB_21_2*%
X100450000Y-79000000D03*
%TD*%
%TO.C,KiKit_MB_42_3*%
X182350000Y-116200000D03*
%TD*%
%TO.C,KiKit_MB_24_5*%
X196550000Y-106000000D03*
%TD*%
%TO.C,KiKit_MB_35_4*%
X84850000Y-116200000D03*
%TD*%
%TO.C,KiKit_MB_6_5*%
X100450000Y-54000000D03*
%TD*%
%TO.C,KiKit_MB_2_4*%
X13850000Y-65800000D03*
%TD*%
%TO.C,KiKit_MB_14_3*%
X280850000Y-65800000D03*
%TD*%
%TO.C,KiKit_MB_22_2*%
X181350000Y-68200000D03*
%TD*%
%TO.C,KiKit_MB_11_1*%
X198950000Y-32000000D03*
%TD*%
%TO.C,KiKit_MB_9_2*%
X183350000Y-65800000D03*
%TD*%
%TO.C,KiKit_MB_83_3*%
X113350000Y-212200000D03*
%TD*%
%TO.C,KiKit_MB_32_5*%
X213850000Y-68200000D03*
%TD*%
%TO.C,KiKit_MB_35_2*%
X82850000Y-116200000D03*
%TD*%
%TO.C,KiKit_MB_13_5*%
X209850000Y-65800000D03*
%TD*%
%TO.C,KiKit_MB_84_4*%
X196550000Y-223400000D03*
%TD*%
%TO.C,KiKit_MB_67_1*%
X184350000Y-209800000D03*
%TD*%
%TO.C,KiKit_MB_70_4*%
X281850000Y-164200000D03*
%TD*%
%TO.C,KiKit_MB_20_1*%
X98050000Y-76400000D03*
%TD*%
%TO.C,KiKit_MB_18_4*%
X13850000Y-113800000D03*
%TD*%
M02*
